<svg height="50px" viewBox="0 -60 480 480" width="50px" xmlns="http://www.w3.org/2000/svg"><path d="m369.601562 171.199219c-23.90625-40.546875-72.066406-59.984375-117.417968-47.390625-45.355469 12.59375-76.59375 54.082031-76.167969 101.148437.425781 47.070313 32.410156 87.984375 77.984375 99.753907 8.550781 2.21875 17.351562 3.339843 26.183594 3.34375 37.304687-.054688 71.726562-20.085938 90.199218-52.492188 18.476563-32.410156 18.175782-72.234375-.78125-104.363281zm-4.394531 74.824219c-12.148437 47.058593-60.144531 75.359374-107.207031 63.210937-47.058594-12.152344-75.355469-60.152344-63.203125-107.210937 12.152344-47.058594 60.152344-75.355469 107.210937-63.199219 47.011719 12.195312 75.28125 60.144531 63.191407 107.183593zm0 0"></path><path d="m448 80.800781v-24.800781c0-4.417969-3.582031-8-8-8h-62.671875l-26.472656-44.121094c-1.445313-2.40625-4.046875-3.878906-6.855469-3.878906h-128c-2.808594 0-5.410156 1.472656-6.855469 3.878906l-45.671875 76.121094h-27.472656v-24c0-4.417969-3.582031-8-8-8h-16v-8c0-13.253906-10.746094-24-24-24h-16c-13.253906 0-24 10.746094-24 24v8h-16c-4.417969 0-8 3.582031-8 8v24h-16c-4.417969 0-8 3.582031-8 8v240c0 17.671875 14.328125 32 32 32h64c11.378906-.035156 21.878906-6.132812 27.550781-16h92.546875c39.925782 21.355469 87.878906 21.355469 127.804688 0h96.097656c22.082031-.027344 39.972656-17.917969 40-40v-184c-.023438-19-13.386719-35.371094-32-39.199219zm16 39.199219v8h-87.769531c-14.316407-14.300781-31.644531-25.234375-50.71875-32h114.488281c13.253906 0 24 10.746094 24 24zm-280.230469 8h-71.769531v-32h122.488281c-19.074219 6.765625-36.402343 17.699219-50.71875 32zm248.230469-64v16h-35.472656l-9.597656-16zm-211.472656-48h118.945312l38.398438 64h-195.742188zm-156.527344 24c0-4.417969 3.582031-8 8-8h16c4.417969 0 8 3.582031 8 8v8h-32zm-24 24h80v16h-80zm56 280h-64c-8.835938 0-16-7.164062-16-16v-232h80v72c0 2.121094.84375 4.15625 2.34375 5.65625l13.65625 13.65625v140.6875c0 8.835938-7.164062 16-16 16zm32-16v-144c0-2.121094-.84375-4.15625-2.34375-5.65625l-13.65625-13.65625v-20.6875h58.265625c-42.304687 57.601562-32.546875 138.160156 22.277344 184zm32-104c0-66.273438 53.726562-120 120-120s120 53.726562 120 120-53.726562 120-120 120c-66.242188-.074219-119.925781-53.757812-120-120zm280 104h-72.542969c54.824219-45.839844 64.582031-126.398438 22.277344-184h74.265625v160c0 13.253906-10.746094 24-24 24zm0 0"></path></svg>