<svg width="80" height="80" viewBox="0 0 80 80" fill="none" xmlns="http://www.w3.org/2000/svg">
<path d="M78.0437 66.197C78.6625 65.2007 79.1266 64.0511 79.5521 62.8631C78.8173 58.9927 79.9775 54.5091 79.8228 50.6387C79.5907 45.8869 79.32 41.0968 79.3587 36.345C79.3974 29.0257 81.5245 21.0166 77.8117 14.2338C77.7344 14.1189 77.657 14.0805 77.5409 14.0422C75.8779 12.0495 71.469 12.2411 69.1872 12.1262C64.0821 11.8579 58.861 12.2411 53.7172 12.3561C45.7502 12.5477 38.0152 13.7357 30.0869 13.0076C23.7055 12.4328 17.2854 11.8196 10.8267 12.0495C8.62226 12.1262 4.29067 12.3944 2.20223 14.2722C2.12488 14.0422 1.69946 14.0806 1.58344 14.3488C-1.20115 21.5148 0.461868 29.4472 0.809942 36.9198C1.00332 41.0585 0.809932 45.1972 0.655233 49.3358C0.616558 49.3741 0.577878 49.3741 0.577878 49.4125C0.0364294 49.834 0.191143 50.4854 0.616567 50.907C0.461868 55.1606 -0.00223605 59.7591 0.732587 63.9361C0.732587 64.0127 0.771267 64.051 0.809942 64.1277C1.81549 69.9142 23.3187 67.5766 26.026 67.3083C32.4847 66.6952 38.634 66.1204 45.1314 66.5802C50.7393 66.9634 56.3084 67.6915 61.9163 67.9215C64.7009 68.0364 67.4468 67.9598 70.2314 67.6915C72.2038 67.4999 74.1376 66.9634 76.11 66.9251C76.7288 66.6952 77.3863 66.4653 78.0437 66.197ZM78.2371 52.8997C77.8504 52.8997 77.5023 52.8997 77.1155 52.8997C77.2702 52.7464 77.3863 52.6314 77.5409 52.4781C77.657 52.6314 77.8504 52.7464 78.0437 52.6697C78.1211 52.7847 78.1984 52.823 78.2371 52.8997ZM72.0878 51.75C72.0491 51.8267 72.0491 51.9033 72.0105 52.0183C71.8558 52.5165 72.5519 52.9763 72.9386 52.5548C73.2867 52.1716 73.5961 51.7883 73.9055 51.4051C73.7121 51.9033 73.5187 52.4015 73.3254 52.8997C72.4745 52.8997 71.6624 52.8997 70.8115 52.8613C71.2756 52.5548 71.701 52.1716 72.0878 51.75ZM70.4248 51.8267C70.5408 51.5201 70.6955 51.2135 70.8502 50.907C71.0436 51.0219 71.2756 51.0219 71.5077 50.8303C71.5463 50.792 71.6237 50.7537 71.6624 50.677C71.2756 51.1369 70.8889 51.5201 70.4248 51.8267ZM69.69 46.1552C69.4192 46.5767 69.1872 46.9982 68.9165 47.4198C71.353 42.7829 73.3254 37.9162 75.878 33.3177C75.7619 33.7392 75.6072 34.1607 75.4912 34.5823C73.1707 38.2611 71.6237 42.3231 69.69 46.1552ZM65.9385 52.5164C66.2866 52.0183 66.6346 51.4818 66.944 50.9836C66.9053 51.3668 67.1761 51.6734 67.5241 51.7117C67.2534 52.0949 67.0214 52.4781 66.7506 52.823C65.6677 52.823 64.6235 52.7847 63.5407 52.7847C65.6678 49.1442 67.7176 45.5037 69.69 41.7483C68.7231 44.0475 67.8723 46.3468 66.7894 48.5311C66.1706 49.6424 65.513 50.7537 64.8169 51.8267C64.3141 52.5548 65.4744 53.2062 65.9385 52.5164ZM52.5956 48.2628C53.8332 45.7337 55.7283 43.4344 57.43 41.2501C55.9217 43.6643 54.2973 46.0019 52.5956 48.2628ZM55.3029 49.4125C54.9548 50.2555 54.6454 51.6351 54.0653 52.1716C53.9106 52.3248 53.8719 52.4781 53.8719 52.6314C53.6399 52.6314 53.3691 52.6314 53.1371 52.6314C53.8332 51.5201 54.5294 50.4471 55.3029 49.4125ZM49.695 52.5548C49.463 52.5548 49.2309 52.5548 48.9989 52.5548C49.2696 52.2099 49.579 51.9033 49.8497 51.5584C49.7724 51.865 49.7337 52.1716 49.695 52.5164C49.6563 52.4781 49.695 52.5164 49.695 52.5548ZM46.6784 44.2008C47.5679 42.668 48.4188 41.0968 49.1923 39.449C49.5017 38.7592 49.8497 38.0311 50.1591 37.3414C50.894 36.3833 51.6674 35.4253 52.4023 34.5056C50.5845 37.7629 48.6508 40.9818 46.6784 44.2008ZM43.391 47.4964C44.5513 45.3121 45.9049 43.2428 47.3359 41.1735C46.0983 43.3578 44.7833 45.4271 43.391 47.4964ZM45.5568 50.4854C45.2861 51.0986 45.0154 51.75 44.7447 52.4015C44.7447 52.4398 44.7446 52.4398 44.7059 52.4781C44.3192 52.4781 43.8938 52.4781 43.507 52.4398C44.2419 51.8267 44.8993 51.1752 45.5568 50.4854ZM43.4684 25.3086C43.507 25.2319 43.507 25.117 43.5457 25.0403C43.623 25.0403 43.7391 25.0403 43.8164 25.0403C43.7004 25.117 43.5457 25.2319 43.4684 25.3086ZM47.916 49.9489C47.5679 50.7537 47.2585 51.5968 47.0264 52.4781C46.7944 52.4781 46.5624 52.4781 46.3303 52.4781C46.8718 51.6351 47.4132 50.792 47.916 49.9489ZM53.4852 27.2246C53.7172 27.0713 53.9879 26.8797 54.1813 26.6115C54.2586 26.5349 54.2973 26.4199 54.2587 26.3049C54.6067 26.3049 54.9161 26.3049 55.2642 26.3433C54.104 27.3396 53.0597 28.4509 52.1316 29.6388C52.5957 28.8341 53.0597 28.0294 53.4852 27.2246ZM52.5956 26.8797C52.7117 26.6881 52.8664 26.4965 52.9824 26.3049C53.0597 26.3049 53.0984 26.3049 53.1758 26.3049C53.0984 26.3816 53.0597 26.4582 52.9824 26.5732C52.8664 26.6498 52.7117 26.7648 52.5956 26.8797ZM50.6232 45.4654C52.2862 42.668 53.9493 39.7939 55.5736 36.9582C57.0433 35.0421 58.5516 33.1644 60.0986 31.325C58.2809 34.1607 56.7338 37.2264 54.7614 40.0238C53.4465 41.9399 51.9768 43.6643 50.6232 45.4654ZM52.3249 45.5804C52.1316 45.8869 51.9382 46.2318 51.7448 46.5767C51.2807 47.2282 50.8166 47.8796 50.3138 48.5311C50.9326 47.5347 51.5901 46.5384 52.3249 45.5804ZM56.7725 30.7885C57.5847 29.294 58.3582 27.8378 59.1317 26.3433C59.4024 26.3433 59.6345 26.3432 59.9052 26.3049C58.7836 27.7611 57.7394 29.2556 56.7725 30.7885ZM57.43 48.1862C57.4687 48.1095 57.5074 47.9946 57.546 47.9179C58.8997 45.1588 60.524 42.553 62.187 39.9855C62.8832 38.9508 63.5793 37.8779 64.2755 36.8815C63.9274 37.533 63.5793 38.1844 63.1926 38.7976C61.4909 41.7866 59.5958 45.1588 57.43 48.1862ZM57.7394 50.0639C57.43 50.907 57.1979 51.75 57.0432 52.6697C56.5405 52.6697 56.0377 52.6697 55.5349 52.6314C56.3471 51.8267 57.0433 50.9836 57.7394 50.0639ZM60.1759 29.1407C60.7174 28.2593 61.2588 27.3779 61.8003 26.4965C61.839 26.4199 61.8776 26.3432 61.8776 26.2666C62.1097 26.2666 62.3804 26.2283 62.6124 26.2283C61.8003 27.1863 60.9881 28.1827 60.1759 29.1407ZM63.502 29.294C63.4633 29.3706 63.4633 29.4472 63.4246 29.5622C62.5738 30.8268 61.7229 32.0914 60.8721 33.3943C61.0654 33.0111 61.2588 32.5896 61.4522 32.168C62.1097 31.1717 62.7672 30.2137 63.502 29.294ZM63.9661 26.1516C64.0434 26.1516 64.1207 26.1516 64.2368 26.1516C64.1594 26.2283 64.1207 26.3049 64.0434 26.3433C64.0047 26.2666 63.9661 26.19 63.9661 26.1516ZM63.5407 49.9873C63.1539 50.907 62.7285 51.8267 62.3417 52.7847C62.071 52.7847 61.839 52.7847 61.5682 52.7847C62.2257 51.8267 62.8832 50.907 63.5407 49.9873ZM60.2533 52.4015C60.2146 52.5165 60.1759 52.5931 60.1759 52.7081C59.6731 52.7081 59.1704 52.7081 58.6676 52.6697C59.9052 51.0603 61.1428 49.3741 62.3417 47.6497C61.6456 49.2975 60.9494 50.8687 60.2533 52.4015ZM59.0544 50.1022C60.4853 46.5001 63.502 43.3577 65.4357 40.1388C65.9772 39.2574 66.48 38.376 66.9827 37.4563C66.4413 38.5293 65.8998 39.6406 65.397 40.7136C63.5019 44.0092 61.2975 47.1515 59.0544 50.1022ZM71.7397 31.8998C71.353 33.0111 70.9662 34.1607 70.5021 35.272C69.2259 37.6479 68.0269 40.0622 66.8667 42.5147C65.9772 44.0475 65.0103 45.5804 64.0434 47.0366C65.0103 44.7756 66.0158 42.4764 67.0987 40.2537C67.9109 38.7976 68.6457 37.3414 69.3419 35.8468C70.0767 34.4673 70.8889 33.1644 71.7397 31.8998ZM71.701 29.7538C71.7784 29.4472 71.8944 29.1407 71.9718 28.8724C72.2812 28.4126 72.5519 27.991 72.8613 27.5312C72.7839 27.8378 72.7453 28.1826 72.6679 28.4892C72.3585 28.9107 72.0104 29.3323 71.701 29.7538ZM71.0049 27.7228C70.0767 29.1024 69.1872 30.5202 68.375 31.9764C68.6457 31.3633 68.9165 30.7501 69.1485 30.137C69.7673 29.294 70.3861 28.4892 71.0049 27.6461C71.0049 27.6461 71.0049 27.6845 71.0049 27.7228ZM67.5241 30.0604C66.828 30.9801 66.1705 31.8615 65.5131 32.7812C65.6291 32.4746 65.7451 32.168 65.8611 31.8615C66.6346 30.4819 67.4855 29.1024 68.4523 27.7994C68.1816 28.5659 67.8722 29.3323 67.5241 30.0604ZM65.5904 26.5349C65.5904 26.3433 65.4744 26.19 65.3197 26.075C65.5517 26.075 65.7451 26.0367 65.9771 26.0367C65.8611 26.19 65.7064 26.3433 65.5904 26.5349ZM69.4192 51.4435C69.2258 51.9033 69.0325 52.4015 68.8391 52.8613C68.6844 52.8613 68.5684 52.8613 68.4137 52.8613C68.7618 52.3632 69.1098 51.9033 69.4192 51.4435ZM74.679 28.0677C74.6016 28.2976 74.5243 28.5275 74.447 28.7575C74.1376 29.179 73.8669 29.6389 73.5961 30.0604C73.6735 29.7155 73.7895 29.4089 73.8668 29.064C74.0989 28.7575 74.3696 28.4126 74.679 28.0677ZM74.3696 26.5349C74.447 26.1516 74.5243 25.7684 74.563 25.3852C74.9111 25.3469 75.2591 25.3469 75.6072 25.3086C75.1818 25.6918 74.7951 26.1133 74.3696 26.5349ZM74.563 48.0712C75.1044 47.1515 75.6845 46.2318 76.226 45.3121C76.7674 44.3541 77.657 43.0895 77.5409 41.9399C77.5409 41.8632 77.5023 41.7866 77.4636 41.7099C77.4636 41.6716 77.4636 41.6716 77.4636 41.6716C77.541 41.5183 77.6183 41.3267 77.6957 41.1735C77.7343 41.9016 77.7343 42.5913 77.773 43.3194C76.6901 45.4654 75.4525 47.4964 73.9829 49.4508C74.2149 48.9909 74.4083 48.5311 74.563 48.0712ZM76.8061 28.9108C76.8061 28.9874 76.7675 29.1023 76.7675 29.179C76.6901 29.294 76.6514 29.3706 76.5741 29.4856C76.6514 29.294 76.7288 29.1024 76.8061 28.9108ZM76.7675 25.1936C76.8835 25.1936 76.9608 25.1936 77.0769 25.1553C76.9995 25.2319 76.9608 25.3086 76.8835 25.4235C76.8448 25.3086 76.8061 25.2319 76.7675 25.1936ZM76.6515 39.6406C76.9995 38.6826 77.3476 37.7246 77.6183 36.7666C77.6183 37.303 77.6183 37.8779 77.6183 38.4143C77.6183 38.4527 77.6183 38.491 77.6183 38.5293C77.1929 39.2191 76.8061 39.9472 76.4194 40.6753C76.5354 40.3304 76.6128 39.9855 76.6515 39.6406ZM77.425 35.0421C77.4636 34.8122 77.5023 34.5439 77.5409 34.314C77.6183 34.0074 77.6956 33.7009 77.773 33.3943C77.773 33.6625 77.7343 33.9308 77.7343 34.199L77.6957 34.2374C77.6183 34.5056 77.541 34.7739 77.425 35.0421ZM75.2978 50.907C76.11 49.1442 77.0769 47.4964 77.9277 45.7336C77.9277 46.1168 77.9664 46.4617 77.9664 46.845C77.889 46.8833 77.8117 46.9599 77.773 47.0366C76.9995 48.4161 76.1487 49.6807 75.2978 50.907ZM75.994 51.7883C75.9166 52.1332 75.8006 52.4781 75.7232 52.8613V52.8997C75.5299 52.8997 75.3752 52.8997 75.1818 52.8997C75.4525 52.5548 75.7232 52.1716 75.994 51.7883ZM78.0824 49.1059C78.0824 49.4508 78.1211 49.7573 78.1211 50.1022C78.0824 50.1406 78.0824 50.1406 78.0437 50.1789C77.8117 50.5621 77.541 50.8686 77.3089 51.1752C77.541 50.4854 77.8117 49.7957 78.0824 49.1059ZM78.1985 26.5349C78.1598 26.3433 78.0437 26.19 77.889 26.1516C78.0051 25.8834 78.0824 25.6152 78.1985 25.3852C78.2371 25.2703 78.2371 25.1553 78.1985 25.0403C78.2371 25.0403 78.2371 25.002 78.2758 25.002C78.2371 25.5385 78.2371 26.0367 78.1985 26.5349ZM74.2149 15.69C75.3365 16.1499 75.3365 17.4528 75.1818 18.4875C74.7564 21.2466 72.1651 21.0933 69.9993 20.5951C70.3474 18.9856 70.3474 17.2995 70.7728 15.69C70.8115 15.6134 70.7728 15.5368 70.7342 15.4984C70.8502 15.5751 71.0049 15.6517 71.1983 15.6134C72.2038 15.4218 73.2867 15.3068 74.2149 15.69ZM2.08621 15.3068C4.48405 12.9309 11.6776 13.8123 14.2688 13.8506C15.0423 13.8506 15.7771 13.8889 16.5506 13.9273C16.0479 14.0039 15.5451 14.1572 15.081 14.3488C15.0423 14.3105 14.965 14.3488 14.9263 14.3871C14.8489 14.4254 14.8103 14.4254 14.7329 14.4638C14.3462 14.6554 14.3848 15.0769 14.6169 15.3068C14.1528 16.8397 13.8047 18.4108 13.9594 20.0586C13.9981 20.3269 14.1915 20.5568 14.4622 20.5568C16.4733 20.6334 18.4844 20.6334 20.4568 20.6334C20.7275 20.6334 20.9596 20.4418 20.9983 20.2119C21.501 18.3725 21.4237 16.3415 20.07 14.8853C19.6833 14.4638 19.2579 14.1955 18.7551 14.0039C22.932 14.2722 27.1089 14.6937 31.2471 15.0769C37.8992 15.6517 44.4353 14.8086 51.126 14.3871C55.6123 14.1189 60.1759 14.1189 64.6622 14.0039C66.8667 13.9656 69.0712 14.0039 71.3143 14.1572C71.6237 14.1955 71.9331 14.2338 72.2425 14.2722C71.8171 14.3105 71.353 14.3488 70.9275 14.4254C70.4248 14.5021 70.4248 15.0003 70.6568 15.3068C70.5021 15.2302 70.3087 15.2685 70.2314 15.4601C69.6126 17.1845 69.4579 19.024 68.8391 20.7867C68.7617 21.055 68.9551 21.3615 69.2258 21.4382C70.7728 21.8597 72.4359 22.2429 73.9829 21.7064C75.4138 21.2082 76.1873 19.6754 76.342 18.2575C76.4581 17.1079 76.3034 15.8433 75.3752 15.0769C75.9553 15.2685 76.5354 15.4218 77.1929 15.5751C77.2315 15.5751 77.2316 15.5751 77.2702 15.5751C77.9664 18.0659 78.2371 20.5951 78.2371 23.1243C78.1598 23.086 78.0437 23.0476 77.9277 23.0476C74.2536 22.8177 70.5021 22.9327 66.7506 23.2392C45.17 23.1243 23.5121 22.7411 1.97019 23.6608C1.85416 20.9017 1.85416 18.1426 2.08621 15.3068ZM19.2579 15.7667C20.2634 16.7247 20.2634 18.2958 19.9927 19.5604C18.291 19.5604 16.5893 19.5604 14.8876 19.6371C14.7329 18.2959 14.9649 16.9546 15.081 15.5751C15.1583 15.5751 15.2357 15.5367 15.313 15.5367C16.628 14.9236 18.1363 14.6937 19.2579 15.7667ZM41.612 52.4015C41.5346 52.4015 41.4186 52.4015 41.3412 52.4015C41.4186 52.2865 41.5346 52.1332 41.612 52.0183C41.5733 52.1332 41.5733 52.2865 41.612 52.4015ZM39.9876 45.0439C40.181 44.699 40.3357 44.3541 40.4904 44.0092C40.5291 43.9709 40.5291 43.8942 40.5291 43.8559C41.1479 43.2045 41.7667 42.553 42.3468 41.8632C41.5733 42.9362 40.7998 43.9709 39.9876 45.0439ZM38.1699 25.0787C38.3633 25.0787 38.518 25.0787 38.7113 25.0787C38.518 25.1936 38.3633 25.3469 38.1699 25.4619C38.2086 25.3086 38.1699 25.1936 38.1699 25.0787ZM38.1699 29.9837C38.1312 30.0221 38.1312 30.0604 38.0925 30.0987C37.4351 30.7502 36.7776 31.4399 36.1201 32.0914C36.4295 31.7082 36.7389 31.325 37.0483 30.9034C37.4351 30.5969 37.7832 30.2903 38.1699 29.9837ZM40.3744 32.3213C39.0594 34.0841 37.5898 35.7702 36.0428 37.3797C35.8108 37.533 35.5787 37.7246 35.3466 37.9162C37.087 36.0768 38.7114 34.1607 40.3744 32.3213ZM40.7998 35.0421C39.7556 36.1151 38.7887 37.2264 37.8218 38.4143C38.2859 37.8012 38.7114 37.1498 39.1368 36.4983C39.1755 36.4217 39.2141 36.3833 39.2141 36.3067C40.0263 35.387 40.8385 34.429 41.5733 33.4709C41.3412 33.8158 41.1479 34.1607 40.9158 34.4673C40.7998 34.6589 40.7611 34.8888 40.7998 35.0421ZM36.6616 44.6223C36.5456 44.8139 36.4295 45.0056 36.3522 45.1972C36.2748 45.2738 36.1975 45.3504 36.1588 45.3888C36.3135 45.1588 36.5069 44.8906 36.6616 44.6223ZM38.9434 48.4927C38.2086 49.6807 37.5124 50.9453 36.971 52.3248C36.5842 52.3248 36.2362 52.3248 35.8494 52.3248C36.8936 51.0603 37.8992 49.7957 38.9434 48.4927ZM38.2086 42.5147C38.0926 42.553 38.0152 42.6297 37.9378 42.7063C38.0925 42.4381 38.2473 42.2081 38.4406 41.9399C38.6727 41.6333 38.9047 41.3267 39.1368 41.0585C38.8274 41.5183 38.518 42.0165 38.2086 42.5147ZM40.7998 49.719C40.4517 50.6004 40.1036 51.4818 39.7942 52.3632C39.5622 52.3632 39.3301 52.3632 39.0981 52.3632C39.6782 51.4818 40.2583 50.6004 40.7998 49.719ZM33.993 52.2865C33.7223 52.2865 33.4129 52.2865 33.1422 52.2865C33.2582 52.0949 33.3742 51.9033 33.4902 51.7117C33.6449 51.7117 33.7609 51.6351 33.877 51.5201C33.9543 51.4435 33.993 51.3668 34.0317 51.3285C33.993 51.4052 33.9544 51.4818 33.9157 51.5584C33.761 51.865 33.7996 52.1332 33.993 52.2865ZM29.1973 52.2482C28.8492 52.2482 28.5398 52.2482 28.1918 52.2482C29.236 50.677 30.4349 49.2209 31.6725 47.803C31.4018 48.3011 31.1697 48.761 30.9377 49.2592C30.3576 50.1022 29.8161 50.9453 29.2747 51.8267C29.1973 51.98 29.1586 52.1332 29.1973 52.2482ZM31.7112 51.9416C31.6338 52.0566 31.5952 52.1716 31.5178 52.2865C31.4791 52.2865 31.4018 52.2865 31.3631 52.2865C31.4791 52.1716 31.5952 52.0566 31.7112 51.9416ZM27.7277 50.2555C26.9929 50.8686 26.2194 51.4051 25.4072 51.865C26.9155 49.9489 28.2691 47.8796 29.6614 45.8103C31.0537 44.4691 32.446 43.1278 33.8383 41.7866C31.3631 44.2774 29.12 47.0365 27.7277 50.2555ZM27.1089 51.9416C27.1089 51.98 27.0702 52.0183 27.0702 52.0183C27.0315 52.0949 27.0315 52.1716 27.0315 52.2482C26.8768 52.2482 26.7608 52.2482 26.6061 52.2482C26.7995 52.1332 26.9542 52.0566 27.1089 51.9416ZM20.2248 50.4088C22.0038 47.0749 25.6779 44.3158 28.6559 41.8632C26.4901 43.741 24.0149 46.0402 22.6612 48.4927C21.8491 49.1442 21.0369 49.7957 20.2248 50.4088ZM21.617 51.5967C21.5784 51.8267 21.5784 52.0566 21.5784 52.2482C21.269 52.2482 20.9982 52.2482 20.6888 52.2482C20.9982 52.0183 21.3076 51.8267 21.617 51.5967ZM25.2525 25.0403C25.8326 25.0403 26.4127 25.0403 26.9929 25.0403C25.6392 25.9984 24.4016 27.0713 23.2414 28.1827C23.8988 27.3396 24.5176 26.4965 25.1364 25.6151C25.2911 25.4235 25.2912 25.2319 25.2525 25.0403ZM22.7773 25.96C22.5066 26.075 22.2745 26.2666 22.0038 26.4582C22.2358 26.0367 22.4679 25.5768 22.6612 25.1553C22.6612 25.117 22.7 25.0787 22.7 25.0403C23.0094 25.0403 23.2801 25.0403 23.5895 25.0403C23.3187 25.3086 23.048 25.6152 22.7773 25.96ZM22.1972 26.6498C21.6557 27.3013 21.1529 27.9527 20.6502 28.6425C20.9596 28.221 21.269 27.7611 21.5397 27.3013C21.7331 27.0713 21.9651 26.8414 22.1972 26.6498ZM26.3354 29.0257C27.3796 28.0294 28.4625 27.033 29.5841 26.1133C26.5287 29.7538 23.4734 33.126 19.9927 36.345C21.9651 33.8925 24.0535 31.325 26.3354 29.0257ZM30.0482 25.0403C30.1642 25.0403 30.2802 25.0403 30.4349 25.0403C30.3189 25.1936 30.1642 25.3469 30.0482 25.5002C30.0869 25.3469 30.0869 25.1936 30.0482 25.0403ZM30.1642 28.8341C31.1311 28.0677 32.0979 27.3779 33.1035 26.7648C33.1035 26.8031 33.0648 26.8031 33.0648 26.8414C31.6725 27.8761 30.3962 29.0257 29.1586 30.2137C29.5067 29.7538 29.8548 29.294 30.1642 28.8341ZM32.0593 25.0787C32.2526 25.0787 32.4073 25.0787 32.6007 25.0787C32.446 25.1553 32.2526 25.2703 32.0979 25.3469C32.0979 25.2319 32.0979 25.1553 32.0593 25.0787ZM19.7606 24.9637C19.5286 25.117 19.2966 25.3086 19.0645 25.4619C19.1805 25.3086 19.2579 25.117 19.2579 24.9637C19.4126 24.9637 19.5673 24.9637 19.7606 24.9637ZM16.9761 30.3286C16.8987 30.3669 16.7827 30.4053 16.6667 30.4436C16.7053 30.367 16.744 30.2903 16.744 30.2137C16.7827 30.0604 16.7827 29.9071 16.7053 29.7921C17.4401 29.064 18.175 28.3743 18.9872 27.7228C18.407 28.6425 17.7109 29.4856 16.9761 30.3286ZM17.9816 51.1752C17.8656 51.5584 17.7495 51.9033 17.6722 52.2865C17.4401 52.2865 17.2081 52.2865 16.9761 52.2865C17.2854 51.9033 17.6335 51.5584 17.9816 51.1752ZM16.5506 25.3086C16.5506 25.1553 16.5119 25.0403 16.4346 24.8871C16.628 24.8871 16.86 24.8871 17.0534 24.8871C16.8987 25.0403 16.7053 25.1936 16.5506 25.3086ZM10.556 50.8687C10.9041 50.4471 11.2908 50.0639 11.6389 49.6424C11.2908 50.1789 10.9428 50.7537 10.5947 51.3285C10.556 51.3668 10.5173 51.3668 10.4787 51.4051C10.2853 51.4818 10.208 51.5584 10.1693 51.5967C10.1693 51.5584 10.2079 51.5584 10.2079 51.5201C10.1693 51.0219 10.2466 50.5238 10.44 49.9873C10.8654 49.4125 11.3295 48.8759 11.8323 48.3395C11.2522 49.0676 10.7494 49.8723 10.2853 50.677C10.2079 50.8303 10.44 51.0219 10.556 50.8687ZM9.27973 46.3085C8.42889 47.0749 7.57806 47.803 6.68853 48.4927C6.72721 48.3395 6.76587 48.1479 6.84322 47.9946C9.24106 45.0822 11.6776 42.2847 14.3075 39.5256C12.6831 41.8632 11.0588 44.1625 9.27973 46.3085ZM9.66648 34.8122C9.00901 35.8085 8.35154 36.8049 7.69407 37.8012C7.15262 38.4527 6.61117 39.1041 6.06972 39.7172C6.34044 39.1424 6.61117 38.5293 6.92057 37.9545C7.84877 36.9581 8.77696 35.8852 9.66648 34.8122ZM7.11395 24.6571C7.26865 24.6571 7.42335 24.6571 7.57805 24.6571C7.46203 24.7721 7.38468 24.8487 7.26866 24.9637C7.22998 24.887 7.1913 24.7721 7.11395 24.6571ZM8.62228 25.5768C8.7383 25.3852 8.85432 25.1936 8.93167 24.9637C8.97035 24.887 8.97035 24.8104 9.00903 24.7338C9.31843 24.7338 9.62781 24.7338 9.93721 24.7721C9.47311 25.002 9.0477 25.2703 8.62228 25.5768ZM10.0532 37.9928C9.78251 38.491 9.58915 39.0275 9.39578 39.564C9.16373 39.8705 8.97035 40.1388 8.7383 40.4454C8.04215 41.0202 7.38468 41.6333 6.68853 42.2081C7.11396 41.5566 7.53938 40.9052 7.9648 40.2537C8.62227 39.449 9.27975 38.6443 9.89855 37.8395C9.9759 37.9162 10.0146 37.9545 10.0532 37.9928ZM8.31286 52.4781C7.69406 52.4781 7.11396 52.5164 6.49516 52.5164C7.03661 52.0183 7.57804 51.5201 8.11949 50.9836C8.11949 51.0219 8.11949 51.0603 8.11949 51.1369C8.04214 51.3285 8.00348 51.4818 7.9648 51.6734C7.92613 52.0183 8.08081 52.3249 8.31286 52.4781ZM11.3295 25.6918C11.4069 25.3469 11.2522 24.9637 10.9428 24.7721C11.4069 24.7721 11.871 24.8104 12.3351 24.8104C11.987 25.117 11.6389 25.3852 11.3295 25.6918ZM12.3351 39.4107C11.987 39.7939 11.6776 40.1771 11.3295 40.5603C11.4842 40.3304 11.6389 40.1388 11.7549 39.9088C11.9483 39.7556 12.1417 39.6023 12.3351 39.4107ZM13.4566 51.8267C13.418 52.0183 13.534 52.2482 13.766 52.2865C14.4622 52.3632 14.965 52.3248 15.3904 52.1332C15.4291 52.2099 15.429 52.2482 15.4677 52.3248C14.5395 52.3248 13.6113 52.3632 12.6445 52.3632C12.9152 52.2099 13.1859 52.0183 13.4566 51.8267ZM14.0368 51.4051C14.6169 50.9836 15.197 50.5238 15.7771 49.9873C15.197 50.6771 14.6169 51.2135 14.0368 51.4051ZM2.89837 38.6826C2.89837 38.4527 2.89837 38.2227 2.89837 38.0311C2.89837 37.9545 2.89837 37.8395 2.89837 37.7629C3.1691 37.8012 3.43982 37.7246 3.67187 37.4946C3.71055 37.4563 3.74924 37.418 3.78791 37.3797C3.47852 37.8012 3.1691 38.2611 2.89837 38.6826ZM3.43983 41.2118C3.24646 41.7483 3.05308 42.3231 2.85971 42.8596C2.85971 42.438 2.8597 42.0548 2.89837 41.6333C3.09175 41.48 3.24646 41.3267 3.43983 41.2118ZM3.09175 32.3596C2.93705 32.5896 2.82103 32.8195 2.66633 33.0111C2.62766 32.7045 2.62765 32.3596 2.58898 32.0531C2.74368 32.2063 2.93705 32.283 3.09175 32.3596ZM2.35694 28.7958C2.31826 28.3359 2.27959 27.8761 2.24092 27.4162C2.39562 27.3396 2.5503 27.263 2.705 27.1863C2.78235 27.3779 2.93705 27.5695 3.09175 27.6845C2.8597 28.0677 2.62766 28.4126 2.35694 28.7958ZM2.82104 44.2008C2.93707 44.3158 3.09176 44.4307 3.24646 44.4691C3.09176 44.6607 2.97574 44.8906 2.82104 45.0822C2.82104 44.8139 2.82104 44.5074 2.82104 44.2008ZM4.48406 51.9799C4.48406 52.0566 4.48405 52.1332 4.52272 52.1716C4.5614 52.3248 4.60007 52.4781 4.7161 52.5931C4.21332 52.5931 3.74923 52.6314 3.24646 52.6697C3.63321 52.4398 4.05863 52.2099 4.48406 51.9799ZM4.17466 25.3086C4.17466 25.2703 4.17466 25.2703 4.17466 25.2319C4.17466 24.9637 4.01995 24.6954 3.82658 24.5422C4.21333 24.5422 4.60009 24.5805 4.94816 24.5805C4.71611 24.8487 4.44539 25.0787 4.17466 25.3086ZM66.6733 66.0821C61.4522 66.312 56.2311 65.7372 51.0486 65.239C44.2032 64.5875 37.4738 64.2043 30.6283 64.9708C25.1752 65.5456 19.722 66.0821 14.2301 66.1587C10.9814 66.197 3.98128 66.7335 1.97019 63.323C2.51164 60.0657 2.43429 56.6551 2.55031 53.3595C27.7277 54.5091 53.0598 54.2792 78.2371 54.2409C78.0824 57.2299 77.5023 60.2573 78.0437 63.1697C77.9664 63.208 77.889 63.2846 77.8504 63.3613C76.5741 65.124 76.5354 64.8175 74.6017 65.1624C71.9331 65.6222 69.3419 65.9671 66.6733 66.0821Z" fill="#E12855"/>
<path d="M78.0449 29.1789C78.0836 28.7574 78.0836 28.3742 78.1223 27.991C78.1223 28.3742 78.0836 28.7957 78.0449 29.1789Z" fill="#E12855"/>
<path d="M77.9665 30.5586C77.9665 30.6352 77.9665 30.6736 77.9665 30.7502C77.9665 30.7119 77.9665 30.7119 77.9665 30.6736C77.9278 30.6352 77.9278 30.5969 77.9665 30.5586Z" fill="#E12855"/>
<path d="M45.4801 31.6315C45.4414 31.5932 45.4414 31.5932 45.4414 31.5549C45.4801 31.5166 45.5188 31.4783 45.5961 31.4399C45.5188 31.5166 45.5187 31.5549 45.4801 31.6315Z" fill="#E12855"/>
<path d="M35.1926 40.522L35.1539 40.5603C34.9992 40.6752 34.8832 40.8285 34.7285 40.9435C34.8832 40.7902 35.0379 40.6753 35.1926 40.522Z" fill="#E12855"/>
<path d="M35.1535 44.3157C35.1149 44.3923 35.0762 44.5073 34.9988 44.5839C34.9215 44.7372 34.8055 44.8522 34.6895 45.0055C34.8442 44.7755 34.9988 44.5456 35.1535 44.3157Z" fill="#E12855"/>
<path d="M45.4023 35.7702C45.441 35.7319 45.4797 35.6553 45.5571 35.6169C45.5184 35.6553 45.441 35.7319 45.4023 35.7702Z" fill="#E12855"/>
<path d="M19.1426 30.5968C19.336 30.3668 19.4907 30.1752 19.684 29.9453C19.568 30.0986 19.452 30.2519 19.336 30.4052C19.2586 30.4818 19.1813 30.5201 19.1426 30.5968Z" fill="#E12855"/>
<path d="M5.95468 27.7993C5.95468 27.838 5.91602 27.838 5.91602 27.8767C5.95469 27.838 5.95468 27.838 5.95468 27.7993Z" fill="#E12855"/>
<path d="M2.51172 30.9033C2.51172 30.8649 2.51172 30.7883 2.51172 30.75C2.55039 30.7117 2.58909 30.7117 2.62776 30.6733C2.58909 30.7117 2.55039 30.8266 2.51172 30.9033Z" fill="#E12855"/>
<path d="M2.78125 35.0806C2.81992 35.0806 2.8586 35.0422 2.8586 35.0422C2.89728 35.0422 2.89728 35.0039 2.93596 35.0039C2.89728 35.0805 2.8586 35.1955 2.78125 35.2722C2.81992 35.1955 2.78125 35.1572 2.78125 35.0806Z" fill="#E12855"/>
<path d="M2.39603 26.6882C2.35736 26.7265 2.39604 26.6115 2.47339 26.3816C2.47339 26.4582 2.51205 26.4966 2.51205 26.5732C2.47338 26.6115 2.43471 26.6498 2.39603 26.6882Z" fill="#E12855"/>
<path d="M51.9375 25.1169C51.8602 25.1169 51.8215 25.1169 51.7441 25.1552C51.7441 25.1169 51.7441 25.0786 51.7828 25.002C51.8602 25.002 51.9375 25.002 52.0535 25.002C51.9762 25.0403 51.9375 25.0786 51.9375 25.1169Z" fill="#E12855"/>
<path d="M46.1758 25.1169C46.1758 25.0786 46.1758 25.0403 46.1758 25.002C46.2145 25.002 46.2918 25.002 46.3305 25.002C46.2918 25.0786 46.2531 25.1169 46.1758 25.1169Z" fill="#E12855"/>
<path d="M40.7617 25.1173V25.0786C40.8004 25.0786 40.8004 25.0786 40.839 25.0786C40.8004 25.0786 40.7617 25.0786 40.7617 25.1173Z" fill="#E12855"/>
<path d="M35.5781 25.1936C35.5781 25.1553 35.5781 25.1169 35.6168 25.0786C35.6941 25.0786 35.7328 25.0786 35.8102 25.0786C35.7328 25.1169 35.6555 25.1553 35.5781 25.1936Z" fill="#E12855"/>
<path d="M12.4896 57.958C12.4509 57.6897 12.1415 57.4598 11.8707 57.4981C10.5945 57.6131 9.35688 57.4598 8.0806 57.3832C7.42313 57.3448 5.95349 57.2299 5.45072 57.7664C4.90927 58.3029 4.90925 59.6441 4.8319 60.3722C4.75455 61.2919 4.67722 62.4032 5.14132 63.208C5.18 63.4762 5.25734 63.7827 5.37336 64.051C5.52806 64.3959 5.76012 64.5492 6.10819 64.6258C8.15796 64.8941 10.2077 65.5838 12.1415 64.4725C12.9923 63.9744 13.5724 63.3229 13.2244 62.3649C12.7216 60.947 12.7216 59.3759 12.4896 57.958ZM6.76565 63.1313C6.64962 62.5948 6.64963 62.0583 6.64963 61.5218C6.64963 60.9087 6.03083 60.6404 5.56674 60.7937C5.68276 59.6824 5.9148 58.6478 6.76565 58.5328C8.27397 58.3412 9.7823 58.7627 11.2906 58.7627C11.4453 60.1039 11.5227 61.4452 11.9094 62.7481C10.4785 64.0893 8.58337 63.4379 6.76565 63.1313Z" fill="#E12855"/>
<path d="M22.4669 58.1879C20.7653 57.9963 18.7928 58.686 17.1685 57.9963C16.4337 57.6897 15.9309 58.2645 16.0083 58.801C15.8536 58.8777 15.6989 59.0309 15.6989 59.2609C15.6215 60.8703 15.5441 62.4798 15.4668 64.0893C15.4668 64.3959 15.6989 64.7407 16.0083 64.8174C17.8647 65.2389 20.1078 65.3922 21.7708 64.2809C23.5885 63.0546 23.5886 60.7171 23.2792 58.801C23.1631 58.4178 22.7763 58.2262 22.4669 58.1879ZM20.7653 63.0546C19.6824 63.7827 18.174 63.6294 16.8978 63.4378C16.8204 62.1349 16.7817 60.832 16.7044 59.5291C18.3674 60.1422 20.0691 59.7207 21.7708 59.759C21.8869 60.947 21.8482 62.2882 20.7653 63.0546Z" fill="#E12855"/>
<path d="M32.9484 58.9542C31.5561 58.2644 29.545 58.571 27.9593 58.4944C27.8046 58.2644 27.3792 58.1495 27.2245 58.456C27.2245 58.4944 27.2245 58.4944 27.1858 58.5327C26.8764 58.6477 26.7604 58.9925 26.8764 59.2991C26.3736 60.832 26.6057 62.4031 26.8764 63.9743C26.9151 64.2808 27.3018 64.4341 27.5726 64.4724C29.5837 64.7024 31.5561 64.4724 33.4898 63.9359C33.7218 63.8593 33.9926 63.706 34.0313 63.4761C34.302 62.0199 34.7274 59.7973 32.9484 58.9542ZM32.6776 62.748C31.208 63.1312 29.7383 63.2845 28.23 63.1695C27.998 62.0199 27.6886 60.9852 27.7659 59.8356C29.1196 59.9506 30.5119 59.7973 31.8268 60.0272C33.0644 60.2571 32.8323 61.8283 32.6776 62.748Z" fill="#E12855"/>
<path d="M44.7834 57.9963C42.5789 57.9196 40.4518 57.2298 38.286 57.9963C37.7059 58.2262 37.7059 58.9543 38.054 59.2608C37.7832 60.7554 37.5898 62.6331 39.0982 63.4378C39.7556 63.7827 40.5291 63.7827 41.2253 63.7827C42.4242 63.7827 43.5845 63.7444 44.7447 63.8977C45.0928 63.936 45.4022 63.5528 45.4022 63.2462C45.4022 61.7517 45.4022 60.2189 45.4022 58.7244C45.4409 58.3028 45.1315 58.0346 44.7834 57.9963ZM40.1811 62.4415C38.8661 62.2499 38.7888 60.5638 38.8275 59.3375C40.5678 58.7627 42.3469 59.1842 44.1259 59.3375C44.1259 60.4105 44.1259 61.4451 44.1259 62.5181C42.7723 62.4798 41.4573 62.6331 40.1811 62.4415Z" fill="#E12855"/>
<path d="M57.6622 59.2607C57.7395 58.8008 57.2368 58.4177 56.8114 58.4177C54.8003 58.4177 52.7892 58.4177 50.7781 58.4177C50.6234 58.2644 50.3527 58.3027 50.198 58.456C49.6178 58.6859 49.5405 59.529 50.0046 59.8738C49.8886 61.1768 49.7725 62.4413 49.7338 63.7442C49.7338 64.2041 50.0819 64.434 50.5073 64.5107C52.7892 64.7789 55.071 64.8939 57.3915 64.6256C57.8943 64.549 58.4357 64.1275 58.2423 63.5526C57.6622 62.1348 57.4301 60.7935 57.6622 59.2607ZM51.2422 63.0928C51.2035 62.0964 51.1261 61.1001 51.0488 60.1038C52.6731 60.1038 54.2975 60.1038 55.9218 60.1038C55.8831 61.1001 55.9992 62.0581 56.2699 63.0545C54.5682 63.1694 52.9052 63.1694 51.2422 63.0928Z" fill="#E12855"/>
<path d="M68.4911 58.6861C66.596 58.2263 64.7784 58.3029 62.922 58.8011C62.922 58.7245 62.9219 58.6478 62.8833 58.5712C62.8446 58.2263 62.2645 58.2263 62.1871 58.5712C61.9164 60.219 61.8004 61.8284 61.7617 63.4762C61.7617 63.8978 62.1098 64.2427 62.5352 64.2427C64.6237 64.3193 66.7121 64.0894 68.8392 64.0894C69.3033 64.0894 69.7287 63.7062 69.7287 63.208C69.6901 61.8668 69.4194 60.5639 69.11 59.2993C69.0326 59.031 68.7618 58.7628 68.4911 58.6861ZM63.27 62.6715C63.2313 61.9434 63.1927 61.2153 63.1153 60.5255H63.154C64.6237 60.1423 66.0546 59.9891 67.5242 60.2573C67.6789 60.9471 67.8337 61.6369 67.8723 62.3649C66.3253 62.4416 64.7783 62.5949 63.27 62.6715Z" fill="#E12855"/>
<path d="M75.6452 58.1497C74.9103 58.5712 74.0208 58.4562 73.2087 58.6478C73.054 58.6862 72.9379 58.8011 72.8606 58.9161C72.6672 58.8778 72.4352 58.9927 72.4352 59.261C72.3578 60.6788 72.2805 62.0967 72.2031 63.5146C72.2031 63.8595 72.5125 64.0894 72.8219 64.1277C74.0208 64.2044 75.2971 64.166 76.4187 63.8595C76.612 63.7828 76.8441 63.6296 76.8828 63.3996C77.1535 61.7902 76.9601 60.104 76.612 58.5329C76.496 58.1114 75.9932 57.9581 75.6452 58.1497ZM75.6839 62.7099C74.949 62.8631 74.1755 62.9015 73.402 62.9015C73.3634 61.9051 73.286 60.8705 73.2473 59.8741C73.3634 59.9124 73.4407 59.9124 73.5567 59.8741C74.2142 59.7208 74.8717 59.6825 75.4905 59.5292C75.6839 60.5639 75.7999 61.6369 75.6839 62.7099Z" fill="#E12855"/>
<path d="M4.48346 15.0769C4.94756 16.6481 4.83154 18.2192 4.75419 19.8287C4.75419 20.0586 4.90889 20.2886 5.14094 20.3269C7.15203 20.7867 9.16313 20.1736 11.1355 20.6718C11.5223 20.7484 11.8704 20.5185 11.8704 20.1353C11.909 18.3725 12.1024 16.5714 12.7212 14.9236C12.8759 14.5404 12.4892 14.1572 12.1411 14.1572C9.78192 14.1572 7.34539 14.1572 5.10225 15.0003C5.0249 15.0386 4.98624 15.0769 4.94756 15.0769C4.90889 15.0386 4.90888 14.962 4.87021 14.9236C4.79286 14.6937 4.44478 14.847 4.48346 15.0769ZM5.45033 16.2265C7.30673 15.4984 9.31783 15.3835 11.3289 15.3835C10.9422 16.7247 10.7875 18.1043 10.7488 19.4838C9.12445 19.2922 7.46141 19.5988 5.79839 19.4072C5.72104 18.3342 5.60503 17.2612 5.37298 16.2649C5.37298 16.2266 5.41166 16.2265 5.45033 16.2265Z" fill="#E12855"/>
<path d="M23.3565 16.1116C23.0858 17.5295 23.2018 18.9474 23.1631 20.4036C23.1631 20.5952 23.3179 20.7868 23.4726 20.8251C25.4063 21.2083 27.34 21.2083 29.3125 21.2083C29.6219 21.2083 29.8539 20.9784 29.8539 20.6718C29.8539 18.9857 29.8926 17.2613 29.8926 15.5751C29.8926 15.1153 29.4285 14.9237 29.0417 15.077C27.3787 15.8051 25.445 15.5368 23.7819 15.0003C23.0471 14.7704 22.7377 15.8434 23.3565 16.1116ZM23.8593 16.3032C25.4837 16.7631 27.1853 16.8781 28.771 16.4182C28.771 17.6828 28.771 18.9091 28.8097 20.1736C27.224 20.1736 25.6384 20.1737 24.0527 20.0204C23.898 18.7558 23.7046 17.5295 23.8593 16.3032Z" fill="#E12855"/>
<path d="M33.3355 21.7448C35.7334 21.8215 38.0926 21.8598 40.4904 21.8981C41.0705 21.8981 41.3026 21.2083 40.9545 20.8251C39.9489 19.6755 40.065 18.0277 40.297 16.6098C40.3357 16.3033 40.2197 15.8434 39.8329 15.8051C37.8605 15.4985 35.9268 15.4602 33.9157 15.4602C33.7223 15.4602 33.5676 15.5368 33.4515 15.6518C33.4515 15.6135 33.4515 15.6135 33.4515 15.5752C33.4515 15.4985 33.2968 15.4985 33.2582 15.5752C32.9874 17.4912 32.9488 19.3689 32.8714 21.285C32.8327 21.5532 33.0648 21.7448 33.3355 21.7448ZM33.9157 16.8781C35.5787 16.8781 37.2417 16.8398 38.9047 17.0314C38.7887 18.296 38.8274 19.5606 39.3688 20.6719C37.5124 20.6719 35.6947 20.7102 33.8383 20.7868C33.7996 19.4456 33.7223 18.1043 33.6063 16.8014C33.6449 16.8398 33.761 16.8781 33.9157 16.8781Z" fill="#E12855"/>
<path d="M43.0427 21.2466C43.0427 21.5915 43.3134 21.8214 43.6228 21.8597C45.2471 21.9364 46.8715 21.8981 48.4958 21.9364C48.7665 21.9364 49.0759 21.7448 49.1146 21.4382C49.3853 19.8287 49.8881 17.5295 48.6505 16.1883C47.5289 14.962 45.0538 15.3835 43.6228 15.4601C42.888 15.4985 42.7719 16.4182 43.1974 16.7247C42.9266 18.2192 43.0813 19.7521 43.0427 21.2466ZM44.0482 16.8397C45.1698 16.7247 46.6394 16.4948 47.5676 17.0696C48.4571 17.5678 48.1477 19.5605 47.9544 20.6335C46.7168 20.6335 45.4405 20.6335 44.2029 20.6718C44.0869 19.3689 43.8935 18.1043 44.0482 16.8397Z" fill="#E12855"/>
<path d="M51.5515 20.4035C51.5515 20.7867 51.8609 21.0549 52.209 21.0549C53.988 21.1699 55.7284 21.3998 57.4688 21.9363C57.9329 22.0896 58.397 21.7064 58.3583 21.2465C58.3583 19.2922 58.0489 17.3378 57.7782 15.3834C57.7395 15.0768 57.3527 14.8469 57.082 14.8469C55.535 14.8469 54.0654 15.0768 52.5571 15.3451C52.3637 15.0768 51.8996 15.1535 51.8222 15.5367C51.3968 15.7666 51.4355 16.3414 51.7449 16.648C51.6675 17.9126 51.6289 19.1772 51.5515 20.4035ZM56.4632 16.3414C56.6566 17.6443 56.8113 18.9856 56.8886 20.3268C55.5737 19.9819 54.2201 19.7903 52.8278 19.752C52.7891 18.7557 52.7118 17.7976 52.6731 16.8013C53.9494 16.5714 55.1869 16.4181 56.4632 16.3414Z" fill="#E12855"/>
<path d="M60.7949 18.1807C60.8723 19.0238 60.9496 19.8285 61.0656 20.6716C61.1043 21.0165 61.2977 21.2464 61.6458 21.2464C62.922 21.2847 64.1983 21.0548 65.4746 21.2464C65.784 21.2847 66.1707 21.1697 66.2481 20.8248C66.5188 19.177 66.5574 17.5292 66.5574 15.8431C66.5574 15.4599 66.2481 15.2683 65.9387 15.23C64.2756 15.0384 62.6513 15.345 61.027 15.4599C60.9883 15.3833 60.9109 15.345 60.7949 15.345C60.9109 16.303 60.9109 17.261 60.7949 18.1807ZM65.3199 16.4563C65.3199 17.6442 65.2812 18.8322 65.1265 20.0201C64.1209 19.9435 63.1154 19.9818 62.1098 20.0584C61.8391 18.9471 61.5684 17.8358 61.3363 16.7245C62.6513 16.6095 63.9662 16.418 65.3199 16.4563Z" fill="#E12855"/>
</svg>
