<svg width="16" height="16" viewBox="0 0 16 16" fill="none" xmlns="http://www.w3.org/2000/svg">
<path d="M3.5 14C3.36739 14 3.24021 13.9473 3.14645 13.8536C3.05268 13.7598 3 13.6326 3 13.5V2.50002C3.00004 2.41222 3.0232 2.32598 3.06714 2.24997C3.11109 2.17397 3.17428 2.11087 3.25035 2.06703C3.32642 2.02319 3.41269 2.00016 3.50049 2.00024C3.58829 2.00033 3.67452 2.02353 3.7505 2.06752L13.2505 7.56752C13.3263 7.61147 13.3892 7.67456 13.4329 7.75046C13.4766 7.82637 13.4996 7.91243 13.4996 8.00002C13.4996 8.08762 13.4766 8.17367 13.4329 8.24958C13.3892 8.32548 13.3263 8.38857 13.2505 8.43252L3.7505 13.9325C3.67441 13.9767 3.58799 14 3.5 14V14Z" fill="#141414"/>
</svg>
