<svg width="180" height="40" viewBox="0 0 180 40" fill="none" xmlns="http://www.w3.org/2000/svg">
<path d="M65.342 27.791L59.8042 16.5371V29.1027H56V10.7396H61.2248L65.3902 19.3965L69.5556 10.7396H74.7804V29.1027H70.8798V16.5895L65.342 27.791Z" fill="white"/>
<path d="M77.9703 10.7396H89.1663V14.3859H81.8949V17.6651H88.6847V21.259H81.8949V25.4563H89.1663V29.1027H77.9703V10.7396Z" fill="white"/>
<path d="M101.435 27.791L95.8969 16.5371V29.1027H92.0926V10.7396H97.3174L101.483 19.3965L105.648 10.7396H110.873V29.1027H106.972V16.5895L101.435 27.791Z" fill="white"/>
<path d="M113.1 19.9211C113.1 18.5045 113.325 17.2104 113.774 16.0386C114.239 14.8669 114.882 13.8525 115.7 12.9956C116.535 12.1386 117.498 11.4828 118.589 11.0281C119.697 10.5559 120.893 10.3198 122.177 10.3198C123.477 10.3198 124.681 10.5559 125.789 11.0281C126.896 11.4828 127.851 12.1386 128.654 12.9956C129.472 13.8525 130.106 14.8669 130.556 16.0386C131.021 17.2104 131.254 18.5045 131.254 19.9211C131.254 21.3377 131.029 22.6406 130.58 23.8299C130.147 25.0191 129.521 26.0509 128.702 26.9254C127.883 27.7998 126.92 28.4818 125.813 28.9715C124.721 29.4437 123.509 29.6798 122.177 29.6798C120.861 29.6798 119.649 29.4437 118.541 28.9715C117.434 28.4818 116.471 27.7998 115.652 26.9254C114.833 26.0509 114.199 25.0191 113.75 23.8299C113.316 22.6406 113.1 21.3377 113.1 19.9211ZM117.41 19.9211C117.41 21.0054 117.602 21.9673 117.988 22.8068C118.389 23.6287 118.951 24.2758 119.673 24.748C120.395 25.2202 121.23 25.4563 122.177 25.4563C123.14 25.4563 123.975 25.2202 124.681 24.748C125.387 24.2758 125.933 23.6287 126.318 22.8068C126.72 21.9673 126.92 21.0054 126.92 19.9211C126.92 18.8368 126.728 17.8837 126.342 17.0617C125.957 16.2223 125.411 15.5664 124.705 15.0942C123.999 14.622 123.156 14.3859 122.177 14.3859C121.23 14.3859 120.395 14.622 119.673 15.0942C118.951 15.5664 118.389 16.2223 117.988 17.0617C117.602 17.8837 117.41 18.8368 117.41 19.9211Z" fill="white"/>
<path d="M133.61 10.7396H143.815V14.5696H137.524V18.1635H143.575V21.7312H137.524V29.1027H133.61V10.7396Z" fill="#E12855"/>
<path d="M145.922 19.9211C145.922 18.5045 146.146 17.2104 146.594 16.0386C147.058 14.8669 147.698 13.8525 148.515 12.9956C149.347 12.1386 150.308 11.4828 151.396 11.0281C152.501 10.5559 153.693 10.3198 154.974 10.3198C156.27 10.3198 157.471 10.5559 158.575 11.0281C159.68 11.4828 160.632 12.1386 161.433 12.9956C162.249 13.8525 162.881 14.8669 163.329 16.0386C163.794 17.2104 164.026 18.5045 164.026 19.9211C164.026 21.3377 163.802 22.6406 163.353 23.8299C162.921 25.0191 162.297 26.0509 161.481 26.9254C160.664 27.7998 159.704 28.4818 158.599 28.9715C157.511 29.4437 156.302 29.6798 154.974 29.6798C153.661 29.6798 152.453 29.4437 151.348 28.9715C150.244 28.4818 149.283 27.7998 148.467 26.9254C147.65 26.0509 147.018 25.0191 146.57 23.8299C146.138 22.6406 145.922 21.3377 145.922 19.9211ZM150.22 19.9211C150.22 21.0054 150.412 21.9673 150.796 22.8068C151.196 23.6287 151.756 24.2758 152.477 24.748C153.197 25.2202 154.029 25.4563 154.974 25.4563C155.934 25.4563 156.766 25.2202 157.471 24.748C158.175 24.2758 158.719 23.6287 159.104 22.8068C159.504 21.9673 159.704 21.0054 159.704 19.9211C159.704 18.8368 159.512 17.8837 159.128 17.0617C158.743 16.2223 158.199 15.5664 157.495 15.0942C156.79 14.622 155.95 14.3859 154.974 14.3859C154.029 14.3859 153.197 14.622 152.477 15.0942C151.756 15.5664 151.196 16.2223 150.796 17.0617C150.412 17.8837 150.22 18.8368 150.22 19.9211Z" fill="#E12855"/>
<path d="M174.621 10.7396H179.664L174.381 19.685L180 29.1027H174.982L171.908 23.0166L168.739 29.1027H163.721L169.483 19.685L164.321 10.7396H169.339L171.956 16.0649L174.621 10.7396Z" fill="#E12855"/>
<path fill-rule="evenodd" clip-rule="evenodd" d="M26.5282 5.72792C21.1921 2.18889 14.7724 0.0886464 7.90967 0C8.27768 0.565974 8.95236 1.57518 9.38171 2.09342C15.0586 5.03921 20.1767 8.80327 25.9217 7.30992C26.9985 7.97136 27.9526 7.27583 28.9408 8.08046C27.9798 7.28947 27.5641 6.41664 26.5282 5.72792Z" fill="#AB1D3F"/>
<path fill-rule="evenodd" clip-rule="evenodd" d="M22.8752 17.5381C20.4013 20.1975 18.4523 30.6441 26.0442 35.9697C30.9714 33.4126 34.0859 28.4689 34.4471 23.1092C30.2013 27.5483 22.0506 23.7229 22.8752 17.5381Z" fill="#E12855"/>
<path fill-rule="evenodd" clip-rule="evenodd" d="M22.8753 17.5381C21.4169 19.1064 20.1425 23.3887 20.8989 27.7256C30.4127 30.2213 34.4471 23.1092 34.4471 23.1092C30.2014 27.5483 22.0507 23.7229 22.8753 17.5381Z" fill="#AB1D3F"/>
<path fill-rule="evenodd" clip-rule="evenodd" d="M22.875 17.5381C20.4148 20.2588 18.493 30.6714 26.044 35.9697C27.1753 35.3833 28.2111 34.6673 29.138 33.8558C23.7814 31.4829 20.8032 23.6206 22.875 17.5381Z" fill="white"/>
<path fill-rule="evenodd" clip-rule="evenodd" d="M22.8751 17.5381C16.9665 18.6155 8.57045 25.2844 14.37 38.0018C18.7112 39.8088 24.3267 39.311 28.3953 36.5766C21.5803 33.5013 18.7793 23.7365 22.8751 17.5381Z" fill="#E12855"/>
<path fill-rule="evenodd" clip-rule="evenodd" d="M22.8757 17.5381C19.3796 18.1791 15.018 20.7703 13.2393 25.414C14.9771 38.0563 28.3958 36.5698 28.3958 36.5698C21.5808 33.5013 18.7799 23.7365 22.8757 17.5381Z" fill="#E12855"/>
<path fill-rule="evenodd" clip-rule="evenodd" d="M22.8751 17.5381C16.9665 18.6155 8.57045 25.2844 14.37 38.0018C15.9715 38.6359 17.6889 39.0042 19.4404 39.0655C14.5677 32.1102 16.1692 22.5705 22.8751 17.5381Z" fill="white"/>
<path fill-rule="evenodd" clip-rule="evenodd" d="M22.889 17.5248C5.61295 11.0058 -3.14433 38.0362 17.1712 40C12.0668 32.3833 14.8268 21.7184 22.889 17.5248Z" fill="#E12855"/>
<path fill-rule="evenodd" clip-rule="evenodd" d="M22.8887 17.525C18.3772 16.1407 14.1383 16.4817 10.9488 18.466C10.7785 18.957 15.3309 7.91706 10.4445 19.9866C5.55818 32.0562 14.0429 38.3774 17.1709 40.0003C12.0665 32.3835 14.8266 21.7186 22.8887 17.525Z" fill="#E12855"/>
<path fill-rule="evenodd" clip-rule="evenodd" d="M22.8887 17.525C13.3068 14.586 4.95847 19.4138 5.25833 31.2993C5.79671 32.7653 6.58044 34.1155 7.56861 35.2884C7.22786 26.8056 14.1587 18.5137 22.8887 17.525Z" fill="#AB1D3F"/>
<path fill-rule="evenodd" clip-rule="evenodd" d="M12.2711 8.90536C2.51887 12.6012 -0.977225 23.457 5.34709 33.6855C5.85822 25.0254 13.8795 17.3609 22.8753 17.5313C28.7225 17.2927 33.6975 20.5317 37.8342 14.3196L30.6444 10.0646C26.8075 2.89104 13.5046 0.674877 5.75599 2.591C5.74918 2.61146 5.73555 2.6251 5.72873 2.64556C7.26211 5.40723 9.57239 7.56203 12.2711 8.90536Z" fill="#E12855"/>
<path fill-rule="evenodd" clip-rule="evenodd" d="M2.17822 22.3388C2.3963 25.5028 2.77113 30.9239 5.38809 33.2764C6.09003 24.78 14.0431 17.361 22.8754 17.5246C28.7226 17.286 33.6976 20.525 37.8343 14.3129C28.0207 17.7156 9.19767 3.01391 2.17822 22.3388Z" fill="#AB1D3F"/>
<path opacity="0.5" fill-rule="evenodd" clip-rule="evenodd" d="M37.834 14.3196L30.6442 10.0646C26.8073 2.89104 13.5044 0.674878 5.75579 2.591C5.74898 2.61146 5.73535 2.6251 5.72853 2.64556C4.74717 2.31143 22.0641 0.429394 28.4293 10.6987L35.9599 14.5174L37.834 14.3196Z" fill="#E12855"/>
<path fill-rule="evenodd" clip-rule="evenodd" d="M2.17796 22.3384C1.7418 26.1843 2.95487 30.5757 5.34694 33.6852C5.85806 25.0251 13.8793 17.3606 22.8751 17.5311C28.7224 17.2924 33.6973 20.5314 37.834 14.3193C28.8178 19.5222 11.9779 7.05033 2.17796 22.3384Z" fill="white"/>
<path fill-rule="evenodd" clip-rule="evenodd" d="M5.34694 33.6852C5.85806 25.0251 13.8793 17.3606 22.8751 17.5311C28.7224 17.2924 33.6973 20.5314 37.834 14.3193C34.0381 19.8359 28.3135 17.1083 22.8888 17.231C14.1792 17.0878 5.1493 24.6364 5.34694 33.6852Z" fill="white"/>
<path fill-rule="evenodd" clip-rule="evenodd" d="M16.578 7.81477C13.0683 2.68009 5.72852 2.646 5.72852 2.646C7.26189 5.40085 9.57218 7.55564 12.2641 8.89898C13.6135 8.35346 15.0651 7.97842 16.578 7.81477Z" fill="white"/>
</svg>
