<svg id="Capa_1" enable-background="new 0 0 512 512" height="50px" viewBox="0 0 512 512" width="50px" xmlns="http://www.w3.org/2000/svg"><g><g><path d="m377.22 0h-242.44c-20.843 0-37.8 16.957-37.8 37.8v319.65c0 4.142 3.358 7.5 7.5 7.5s7.5-3.358 7.5-7.5v-319.65c0-12.572 10.228-22.8 22.8-22.8h242.44c12.572 0 22.8 10.228 22.8 22.8v49.77c0 4.142 3.358 7.5 7.5 7.5s7.5-3.358 7.5-7.5v-49.77c0-20.843-16.957-37.8-37.8-37.8z"></path><path d="m407.52 115.17c-4.142 0-7.5 3.358-7.5 7.5v351.53c0 12.572-10.228 22.8-22.8 22.8h-242.44c-12.572 0-22.8-10.228-22.8-22.8v-81.65c0-4.142-3.358-7.5-7.5-7.5s-7.5 3.358-7.5 7.5v81.65c0 20.843 16.957 37.8 37.8 37.8h242.44c20.843 0 37.8-16.957 37.8-37.8v-351.53c0-4.142-3.358-7.5-7.5-7.5z"></path><path d="m219.634 32.325h-68.691c-11.934 0-21.642 9.708-21.642 21.642v68.691c0 11.934 9.708 21.642 21.642 21.642h68.691c11.934 0 21.642-9.708 21.642-21.642v-68.691c0-11.933-9.708-21.642-21.642-21.642zm6.642 90.334c0 3.663-2.979 6.642-6.642 6.642h-68.691c-3.663 0-6.642-2.979-6.642-6.642v-68.692c0-3.663 2.979-6.642 6.642-6.642h68.691c3.663 0 6.642 2.979 6.642 6.642z"></path><path d="m197.992 441.87c0 4.142 3.358 7.5 7.5 7.5h101.017c4.142 0 7.5-3.358 7.5-7.5s-3.358-7.5-7.5-7.5h-101.017c-4.142 0-7.5 3.358-7.5 7.5z"></path><path d="m185.289 64.65c-13.047 0-23.663 10.615-23.663 23.663s10.615 23.663 23.663 23.663 23.663-10.615 23.663-23.663-10.616-23.663-23.663-23.663zm0 32.326c-4.776 0-8.663-3.886-8.663-8.663s3.886-8.663 8.663-8.663 8.663 3.886 8.663 8.663-3.887 8.663-8.663 8.663z"></path><path d="m256 177.789c-17.504 0-31.744 14.24-31.744 31.744 0 17.503 14.24 31.744 31.744 31.744s31.744-14.24 31.744-31.744-14.24-31.744-31.744-31.744zm0 48.487c-9.233 0-16.744-7.511-16.744-16.744s7.511-16.744 16.744-16.744 16.744 7.511 16.744 16.744-7.511 16.744-16.744 16.744z"></path></g></g></svg>