<svg id="Layer_1" enable-background="new 0 0 512 512" height="50px" viewBox="0 0 512 512" width="50px" xmlns="http://www.w3.org/2000/svg"><g><g><path d="m357.682 52.19c-1.92 0-3.84-.732-5.306-2.197-2.93-2.929-2.93-7.678 0-10.606 2.932-2.928 7.695-2.943 10.625-.014s2.944 7.664.015 10.592l-.028.028c-1.465 1.465-3.386 2.197-5.306 2.197z"></path></g><g><path d="m250.175 268.102c-34.507 0-62.58 28.072-62.58 62.578s28.073 62.577 62.58 62.577c34.506 0 62.579-28.072 62.579-62.577s-28.073-62.578-62.579-62.578zm0 110.154c-26.232 0-47.574-21.343-47.574-47.577s21.342-47.578 47.574-47.578 47.573 21.343 47.573 47.578-21.34 47.577-47.573 47.577z"></path><path d="m250.175 300.388c-16.703 0-30.293 13.588-30.293 30.291 0 16.687 13.59 30.262 30.293 30.262s30.293-13.576 30.293-30.262c.001-16.702-13.589-30.291-30.293-30.291zm0 45.553c-8.43 0-15.288-6.847-15.288-15.262 0-8.432 6.858-15.291 15.288-15.291s15.288 6.859 15.288 15.291c0 8.416-6.858 15.262-15.288 15.262z"></path><path d="m358.878 94.513c-3.817-1.624-8.22.148-9.844 3.958-1.625 3.811.148 8.216 3.959 9.841 12.137 5.172 16.444 10.205 16.444 12.943 0 7.054-24.35 22.097-83.013 26.594-4.131.317-7.224 3.921-6.908 8.052.303 3.935 3.59 6.927 7.473 6.927.192 0 .386-.007.581-.022 46.831-3.59 96.872-16.391 96.872-41.55 0-10.517-8.601-19.514-25.564-26.743z"></path><path d="m260.711 150.53-24.604-18.793c-3.293-2.515-8.002-1.884-10.517 1.406-2.517 3.292-1.886 7.998 1.406 10.513l6.156 4.702c-58.599-3.299-90.249-18.727-90.249-27.103 0-2.745 4.305-7.782 16.439-12.941 3.813-1.621 5.589-6.025 3.967-9.837-1.621-3.811-6.023-5.589-9.841-3.966-16.968 7.214-25.571 16.213-25.571 26.744 0 9.228 7.073 22.291 40.766 32.12 18.292 5.336 41.215 8.792 66.04 10.062l-7.707 5.887c-3.292 2.515-3.922 7.222-1.406 10.513 1.477 1.932 3.708 2.947 5.967 2.947 1.588 0 3.19-.502 4.55-1.541l24.604-18.794c.67-.509 1.252-1.143 1.714-1.845 2.13-3.243 1.363-7.718-1.714-10.074z"></path><path d="m176.928 105.619c-4.144 0-7.503 3.358-7.503 7.5s3.359 7.5 7.503 7.5h28.63c7.748 0 14.051-6.302 14.051-14.048v-45.071c0-7.746-6.303-14.048-14.051-14.048h-28.63c-4.144 0-7.503 3.358-7.503 7.5s3.359 7.5 7.503 7.5h27.675v14.083h-27.675c-4.144 0-7.503 3.358-7.503 7.5s3.359 7.5 7.503 7.5h27.675v14.083h-27.675z"></path><path d="m281.262 90.583c0-7.746-6.303-14.048-14.051-14.048h-21.127v-14.083h27.675c4.144 0 7.503-3.358 7.503-7.5s-3.359-7.5-7.503-7.5h-28.63c-7.748 0-14.051 6.302-14.051 14.048v45.071c0 7.746 6.303 14.048 14.051 14.048h22.081c7.748 0 14.051-6.302 14.051-14.048v-15.988zm-15.006 15.036h-20.173v-14.083h20.173z"></path><path d="m306.782 120.619h22.082c7.747 0 14.05-6.302 14.05-14.048v-45.071c0-7.746-6.303-14.048-14.05-14.048h-22.082c-7.747 0-14.05 6.302-14.05 14.048v45.071c0 7.746 6.303 14.048 14.05 14.048zm.956-58.167h20.172v43.167h-20.172z"></path><path d="m467.308 0h-422.615c-24.644 0-44.693 20.048-44.693 44.69v230.968c0 24.643 20.049 44.691 44.693 44.691h37.842c11.123 0 20.174-9.049 20.174-20.171v-12.201h34.637c-2.112 8.744-3.24 17.869-3.24 27.253 0 46.91 27.974 87.406 68.115 105.69v36.423h-28.865c-15.078 0-27.345 12.253-27.345 27.314v14.655c0 6.996 5.693 12.688 12.69 12.688h182.947c6.998 0 12.69-5.691 12.69-12.688v-14.655c0-15.061-12.255-27.314-27.317-27.314h-28.866v-36.436c40.126-18.291 68.088-58.779 68.088-105.678 0-9.384-1.127-18.509-3.24-27.253h46.259v12.201c0 11.122 9.05 20.171 20.174 20.171h37.871c24.644 0 44.692-20.048 44.692-44.691v-230.967c.001-24.642-20.047-44.69-44.691-44.69zm-140.286 472.343c6.789 0 12.311 5.524 12.311 12.314v12.343h-178.316v-12.343c0-6.79 5.535-12.314 12.34-12.314zm-109.795-15v-30.817c10.449 3.099 21.506 4.771 32.948 4.771 11.452 0 22.518-1.675 32.975-4.779v30.825zm32.948-41.046c-55.727 0-101.063-45.339-101.063-101.067s45.336-101.067 101.063-101.067 101.063 45.339 101.063 101.067-45.336 101.067-101.063 101.067zm166.59-221.297c4.144 0 7.503-3.358 7.503-7.5v-92.948c0-2.803 2.367-5.171 5.168-5.171h37.871c11.383 0 21.787-4.279 29.687-11.311v197.588c0 16.372-13.317 29.691-29.687 29.691h-37.871c-2.801 0-5.168-2.368-5.168-5.171v-78.038c0-4.142-3.359-7.5-7.503-7.5s-7.503 3.358-7.503 7.5v50.837h-50.982c-16.931-43.168-59.005-73.814-108.105-73.814s-91.174 30.646-108.105 73.814h-39.361v-47.634c0-4.142-3.359-7.5-7.503-7.5s-7.503 3.358-7.503 7.5v74.835c0 2.851-2.318 5.171-5.168 5.171h-37.842c-16.37 0-29.688-13.319-29.688-29.691v-197.588c7.9 7.034 18.303 11.311 29.688 11.311h37.842c2.85 0 5.168 2.32 5.168 5.171v92.948c0 4.142 3.359 7.5 7.503 7.5s7.503-3.358 7.503-7.5v-92.948c0-11.122-9.05-20.171-20.174-20.171h-37.842c-16.37 0-29.688-13.319-29.688-29.691s13.318-29.69 29.688-29.69h422.614c16.369 0 29.687 13.319 29.687 29.69s-13.317 29.691-29.687 29.691h-37.871c-11.123 0-20.174 9.049-20.174 20.171v92.948c.001 4.143 3.359 7.5 7.503 7.5z"></path></g></g></svg>