<svg width="48" height="48" viewBox="0 0 48 48" fill="none" xmlns="http://www.w3.org/2000/svg">
<path fill-rule="evenodd" clip-rule="evenodd" d="M12.333 6.53914C15.7865 4.23163 19.8466 3 24 3C29.5696 3 34.911 5.21249 38.8493 9.15076C42.7875 13.089 45 18.4305 45 24C45 28.1534 43.7684 32.2135 41.4609 35.667C39.1534 39.1204 35.8736 41.812 32.0364 43.4015C28.1991 44.9909 23.9767 45.4068 19.9031 44.5965C15.8295 43.7862 12.0877 41.7861 9.15077 38.8492C6.21386 35.9123 4.21381 32.1705 3.40352 28.0969C2.59323 24.0233 3.0091 19.8009 4.59854 15.9636C6.18798 12.1264 8.8796 8.84665 12.333 6.53914ZM33.7049 8.85831C30.8097 6.99733 27.4417 6.00537 24 6C20.5583 6.00537 17.1903 6.99733 14.2952 8.85831C11.4 10.7193 9.09904 13.3713 7.66501 16.5H10.5C10.5 16.1022 10.658 15.7206 10.9393 15.4393C11.2207 15.158 11.6022 15 12 15H36C36.3978 15 36.7794 15.158 37.0607 15.4393C37.342 15.7206 37.5 16.1022 37.5 16.5H40.335C38.901 13.3713 36.6 10.7193 33.7049 8.85831ZM11.2721 36.7279C14.6477 40.1036 19.2261 42 24 42C28.7739 42 33.3523 40.1036 36.7279 36.7279C40.1036 33.3523 42 28.7739 42 24C41.993 22.4805 41.7914 20.9682 41.4 19.5H37.5V22.5C37.5 23.2956 37.1839 24.0587 36.6213 24.6213C36.0587 25.1839 35.2957 25.5 34.5 25.5H29.58C28.8631 25.5098 28.1664 25.2626 27.6161 24.8031C27.0658 24.3435 26.6982 23.7021 26.58 22.995L25.755 18H22.245L21.465 22.995C21.3468 23.7021 20.9792 24.3435 20.4289 24.8031C19.8786 25.2626 19.1819 25.5098 18.465 25.5H13.5C12.7044 25.5 11.9413 25.1839 11.3787 24.6213C10.8161 24.0587 10.5 23.2956 10.5 22.5V19.5H6.60001C6.20865 20.9682 6.00701 22.4805 6.00001 24C6.00001 28.7739 7.89643 33.3523 11.2721 36.7279ZM29.9055 34.4348C28.105 35.4573 26.0706 35.9965 24 36C21.9295 35.9965 19.8951 35.4573 18.0946 34.4348C16.2941 33.4124 14.7888 31.9414 13.725 30.165L16.29 28.665C17.0905 29.9943 18.2211 31.0941 19.572 31.8575C20.923 32.621 22.4483 33.0222 24 33.0222C25.5518 33.0222 27.0771 32.621 28.428 31.8575C29.779 31.0941 30.9095 29.9943 31.71 28.665L34.275 30.165C33.2113 31.9414 31.706 33.4124 29.9055 34.4348Z" fill="#141414"/>
</svg>
