<svg width="80" height="80" viewBox="0 0 80 80" fill="none" xmlns="http://www.w3.org/2000/svg">
<path d="M72.753 32.003C72.1139 29.0792 69.5175 27.3971 66.6415 28.118C64.5644 28.6387 62.8069 30.3209 61.8482 32.2834C61.8083 31.6826 61.7683 31.0818 61.7284 30.4811C61.7284 30.2408 61.7284 29.9604 61.6884 29.7201V29.68C61.9681 29.1594 61.7683 28.3583 61.5287 27.7175C62.3275 25.4746 58.2932 23.2718 56.7753 22.631C55.2175 21.9501 53.5398 21.3092 51.8222 21.149C51.3429 21.109 50.8636 21.0289 50.3443 20.9888C50.2644 20.9488 50.1446 20.9088 50.1046 20.8287C46.5096 20.0276 42.715 20.348 39.08 20.388C35.4052 20.4281 31.4906 20.9888 27.9356 21.9501C26.8571 22.2304 25.8185 22.631 24.8599 23.0715C23.3819 23.5121 21.944 24.1529 20.7057 25.0341C19.9468 25.5948 19.3476 26.3958 19.1079 27.2769C19.068 27.317 19.028 27.357 19.028 27.3971C18.9881 27.357 18.9082 27.3571 18.9082 27.4372C18.9082 27.4772 18.9082 27.5172 18.9082 27.5573C18.8683 27.6374 18.8683 27.7175 18.9082 27.7575C18.9082 27.7575 18.8683 27.7976 18.9082 27.7976C18.9082 27.8376 18.9481 27.8777 18.9481 27.9178C18.9481 28.0379 18.9481 28.1981 18.9881 28.3183C18.9881 28.3583 18.9881 28.3984 18.9881 28.4785C19.1479 30.3609 19.3476 32.2433 19.6671 34.1258C17.63 32.724 15.2733 32.4436 13.0364 34.1658C10.48 36.1684 8.52271 39.3725 9.84087 42.6167C11.159 45.8208 14.7939 47.9836 17.8696 49.1851C18.4688 49.3854 19.028 49.5857 19.6272 49.7459C20.3861 50.0262 21.1451 50.2666 21.944 50.5069C22.8627 50.7472 24.1808 51.1477 25.2194 50.9875C26.1381 51.2278 27.0568 51.4681 27.9755 51.7084C31.0912 53.9113 34.6462 55.6335 36.8431 58.8777C36.963 59.0379 37.0429 59.1981 37.1228 59.3182H37.0828C36.963 59.3583 36.963 59.4784 37.0429 59.5585C37.1228 59.5986 37.2026 59.6787 37.3225 59.6787C38.4809 62.2019 37.4823 64.7252 35.6049 66.8079C33.2482 69.4112 29.4535 69.1309 26.2979 69.9719C24.0211 70.6128 21.8241 72.6554 22.2236 75.2187C22.5831 77.4616 26.0183 77.9822 27.7359 78.2626C31.7303 78.8634 35.8046 79.5442 39.839 79.8647C43.2342 80.145 47.668 80.1451 50.8236 78.3027C51.9021 78.0223 52.9407 77.7019 53.9393 77.2213C55.577 76.4603 57.0549 75.1386 57.015 73.2161C56.9351 70.6128 54.5384 69.1309 52.3016 68.5301C49.3057 67.7291 44.792 67.8892 44.7122 63.6438C44.6323 59.7988 48.9463 56.6748 51.8622 55.0327C53.1803 54.2717 54.4985 53.5508 55.6968 52.5895C56.296 52.1089 56.7753 51.5482 57.1748 50.9074C60.6898 48.5443 64.7642 47.1826 68.0396 44.4991C71.6346 41.7356 73.7516 36.5689 72.753 32.003ZM62.008 38.4113C62.0479 38.171 62.048 37.9707 62.048 37.7304C62.8868 36.8092 63.9653 36.0883 65.0438 35.4875C66.5617 34.6464 69.0382 33.7653 68.5589 36.4888C68.1994 38.5715 66.0024 40.3338 64.5644 41.6555C63.1264 42.9371 61.6086 44.1386 60.0507 45.22C60.2904 44.4991 60.57 43.8183 60.7697 43.0973C61.2491 41.5754 61.8482 39.9733 62.008 38.4113ZM52.7409 23.5922C53.1404 23.7524 53.5798 23.9527 53.9792 24.1129C53.9792 25.6348 54.099 27.1568 54.818 28.4385C54.858 28.5186 55.0577 28.4785 55.0577 28.3583C54.9379 27.357 54.6583 26.4359 54.5384 25.4346C54.4985 25.0741 54.4586 24.6736 54.4586 24.3131C55.2974 24.7136 56.1362 25.1141 56.975 25.5547C57.1748 25.6749 57.3745 25.755 57.5742 25.8751C57.8139 26.0353 58.0136 26.1555 58.2533 26.3157C58.5728 26.556 58.8923 26.7963 59.132 27.0767C58.8125 27.3571 58.4929 27.6374 58.1734 27.8777C57.8139 27.9979 57.4544 28.1581 57.0949 28.2782C56.8951 28.3583 56.6555 28.3984 56.4558 28.4785C56.3359 28.5185 56.1762 28.5586 56.0563 28.5986C55.0977 28.879 54.139 29.1193 53.1404 29.3596C52.1018 29.5999 51.0633 29.8403 49.9848 30.0405C48.9063 27.7175 49.3057 25.2744 49.7451 22.8713C50.7437 23.1917 51.7024 23.5121 52.7409 23.5922ZM32.7688 22.9113C34.2867 22.7912 35.8046 22.7111 37.3624 22.7111C36.963 25.0741 36.6035 28.2382 37.7219 30.2808C37.8018 30.441 38.0015 30.3208 37.9616 30.1606C37.7619 28.7188 37.5222 27.357 37.5222 25.9152C37.5222 24.8338 37.642 23.7524 37.5621 22.671C38.361 22.671 39.1599 22.631 39.9588 22.631C40.1585 22.631 40.3582 22.631 40.518 22.631C40.1985 24.8338 39.9588 27.6774 40.9574 29.5599C41.0373 29.7201 41.3169 29.64 41.3169 29.4798C41.1971 28.2382 40.9973 27.0366 40.9574 25.8351C40.9174 24.7537 41.0373 23.7124 40.9574 22.631C42.1957 22.5909 43.394 22.4307 44.6323 22.3506C44.4325 24.6736 43.8733 27.2769 45.3912 29.1994C45.4711 29.3195 45.6309 29.1594 45.5909 29.0392C44.5524 26.7563 44.9518 24.6335 44.8719 22.3506C45.4312 22.3105 46.0303 22.3105 46.5895 22.3105C47.5881 22.3105 48.5468 22.5509 49.5055 22.8312C48.7066 24.8338 47.9876 28.3183 49.5454 30.1606C47.8677 30.441 46.1901 30.6813 44.5124 30.8015C41.1971 31.0818 37.9616 30.8816 34.6462 30.6413C34.2867 30.6012 33.9672 30.5612 33.6077 30.5612C33.4878 27.9979 32.5691 25.4746 32.7688 22.9113ZM29.5733 23.3118C30.5719 23.1516 31.5705 22.9914 32.6091 22.9113C32.4892 23.9527 32.5292 25.0341 32.6091 26.0754C32.689 27.4372 32.7689 29.1594 33.2881 30.4811C32.4493 30.401 31.6104 30.3609 30.7716 30.3209C30.532 30.3209 30.2524 30.2808 30.0127 30.2808C29.813 29.0793 29.6133 27.9578 29.6133 26.7162C29.5733 25.5948 29.7331 24.4733 29.5733 23.3118ZM26.4976 23.9927C26.4577 24.9139 26.4177 25.795 26.4177 26.7162C26.4177 27.6374 26.2979 28.6387 26.4976 29.5198C26.5376 29.5999 26.6574 29.5999 26.6973 29.5198C26.937 28.6387 26.8171 27.6374 26.7772 26.7162C26.7772 25.795 26.7373 24.8738 26.6973 23.9526C27.2565 23.8325 27.8158 23.7123 28.335 23.5922C28.6945 23.5121 29.054 23.432 29.4135 23.3919C29.1739 24.6335 29.1339 25.9953 29.094 27.2369C29.054 28.2382 29.054 29.3997 29.4934 30.3209C27.7758 30.1607 25.8186 30.0004 24.101 29.7201C24.2607 28.9992 24.1808 28.2382 24.1409 27.5172C24.1009 26.5961 24.1009 25.6749 24.061 24.7537C24.8599 24.4333 25.6987 24.1929 26.4976 23.9927ZM21.0652 26.4759C21.944 25.8751 22.8227 25.3144 23.7414 24.8338C23.8213 24.7938 23.9012 24.7537 23.9811 24.7537C23.9412 25.5547 23.9412 26.3157 23.9012 27.1167C23.8613 27.9578 23.7414 28.839 23.9412 29.68C22.7828 29.4798 21.7442 29.2795 20.9454 29.0392C20.7456 28.9191 20.5859 28.7588 20.466 28.5986C19.9467 27.8777 20.466 27.0366 21.0652 26.4759ZM21.7842 49.1051C19.747 48.6645 17.7898 48.0637 15.9923 47.1425C15.2733 46.5418 14.6342 45.8609 14.1149 45.0999C12.637 42.9772 12.637 40.2537 13.8353 38.0508C14.3945 37.0095 15.3532 36.2085 16.4716 35.888C17.8297 35.4875 18.9881 36.2885 20.0666 37.0095C20.1065 37.0095 20.1065 36.9694 20.1065 36.9694C18.6286 35.1671 16.3118 35.0069 14.5543 36.4488C12.637 38.0108 12.1576 40.9345 12.6769 43.2175C12.9166 44.2988 13.4758 45.2601 14.1548 46.1012C14.035 46.0211 13.9152 45.941 13.7953 45.8609C10.9593 43.8183 9.36154 40.9746 11.159 37.6503C12.0777 35.9682 13.6356 34.5263 15.473 33.9655C17.0308 33.4849 18.5487 34.1258 19.8269 35.087C19.9867 35.888 20.1465 36.649 20.3462 37.4501C19.3875 36.9294 18.2291 36.6891 17.3504 36.6891C15.5928 36.6891 13.8752 37.6904 13.4358 39.4526C12.8766 41.8958 14.9138 43.9785 16.7911 45.0999C18.9881 46.4216 21.5845 46.9823 23.9012 48.0637C23.9412 48.1438 24.0211 48.2239 24.061 48.304C24.5403 48.9048 25.0596 49.4255 25.5789 49.9461C24.3007 49.5857 23.0224 49.3854 21.7842 49.1051ZM20.8255 39.4927C21.1051 41.8557 21.6643 44.1386 22.7828 46.1813C20.1465 44.8996 16.911 44.419 15.1934 41.8958C13.9951 40.1736 14.754 38.2911 16.7113 37.8506C17.4702 37.6904 18.309 37.8105 19.028 38.0508C19.8269 38.3712 20.2663 38.932 20.8255 39.4927ZM58.7725 43.7381C58.7326 43.7381 58.7326 43.7381 58.7725 43.7381C57.8139 45.6206 56.8951 46.782 55.0178 47.8234C53.2602 48.8247 51.1432 49.5056 49.146 49.6257C49.0661 49.6257 49.0661 49.7459 49.146 49.7459C51.263 49.7859 53.42 49.2252 55.2974 48.304C55.9764 47.9836 56.8552 47.4629 57.5742 46.8221C57.2546 47.503 56.9351 48.1839 56.5756 48.7846C56.3359 49.0249 56.0563 49.2653 55.7368 49.4655C54.7781 50.1064 53.6197 50.4268 52.5013 50.7071C50.4641 51.2278 48.387 51.4681 46.3898 52.1089C46.27 52.149 46.3099 52.3492 46.4298 52.3092C48.9462 51.7084 51.5826 51.6684 54.099 50.9074C54.4186 50.7872 54.7781 50.6671 55.1376 50.5469V50.587C54.858 50.8673 54.5384 51.1477 54.2189 51.388C53.2602 52.0689 52.1418 52.5094 51.0633 52.8298C48.9063 53.5107 46.6694 53.6709 44.4325 53.9913C44.3926 53.9913 44.3926 54.0314 44.4325 54.0314C46.6694 54.3117 49.0661 54.1115 51.263 53.5508C50.584 53.9513 49.9049 54.3518 49.2258 54.7924C46.5895 55.8337 43.6337 56.1942 40.7577 56.1141C40.6778 56.1141 40.6778 56.2342 40.7577 56.2342C42.8348 56.5146 45.3113 56.4345 47.668 55.8738C47.1088 56.3144 46.5895 56.7549 46.1102 57.2756C44.5524 58.0766 42.9147 58.7174 41.1172 58.9978C40.9973 58.9978 41.0373 59.158 41.1571 59.158C42.5152 59.2782 43.8334 58.9577 45.1116 58.4371C44.832 58.7975 44.5524 59.198 44.3127 59.5986C44.3127 59.5585 44.2328 59.5185 44.1929 59.5585C43.6736 59.919 43.1943 60.2394 42.5552 60.4396C42.4353 60.4797 42.4753 60.6399 42.5951 60.5999C43.1144 60.3996 43.8334 60.1593 44.1929 59.7187C43.5937 60.68 43.1943 61.7614 42.9946 62.8828C42.9546 62.9229 42.9147 62.9229 42.8747 62.9629C42.4353 63.2032 41.956 63.3234 41.4767 63.3234C41.3569 63.3234 41.3569 63.4836 41.4767 63.4836C41.956 63.4836 42.4753 63.4035 42.9546 63.2432C42.8747 63.9642 42.9546 64.605 43.1543 65.2058C42.7149 65.6464 42.1957 65.9267 41.4767 65.8867C41.4367 65.8867 41.4367 65.9668 41.4767 65.9668C42.1957 66.167 42.8348 66.0068 43.3141 65.5663C43.4739 66.0068 43.7136 66.4474 43.9932 66.888H43.9532C43.5538 67.0882 43.1943 67.4086 42.7948 67.6489C42.3555 67.8892 41.8761 68.1696 41.4367 68.4099C41.3169 68.45 41.3968 68.6502 41.5166 68.6102C42.0359 68.45 42.5152 68.2898 42.9946 68.0094C43.4339 67.7691 43.8733 67.5288 44.1529 67.1283C44.2328 67.2484 44.3127 67.3686 44.3926 67.4888C44.9918 68.3298 45.8705 68.8905 46.8292 69.251C44.073 71.0533 41.0772 71.2536 37.8418 71.2937C37.642 71.2937 37.642 71.614 37.8418 71.614C41.0772 71.6541 44.9119 71.7742 47.4683 69.4512C49.0261 69.8918 50.7837 70.012 52.1418 70.3725C54.2189 70.9332 56.3759 73.136 54.2588 74.9383C52.5013 76.4203 49.6653 76.8208 47.4683 77.1812C45.1116 77.5817 42.715 77.6218 40.3982 78.1825C40.1585 78.2226 40.0786 78.4228 40.0786 78.6231C39.6393 78.583 39.1998 78.543 38.7605 78.5029C34.8859 78.1425 30.8915 77.5417 27.0568 76.8608C25.8984 76.6605 24.3406 76.3401 23.5817 75.3389C22.4632 73.8569 24.7001 71.8143 25.9384 71.2937C28.8144 70.1322 32.1297 70.5327 34.8859 68.9706C35.3652 68.6903 35.8446 68.3298 36.2839 67.8893C37.0029 68.1296 37.8417 68.2497 38.5607 68.2497C38.7605 68.2497 38.7605 67.9694 38.5607 67.9694C38.0015 67.9293 37.5222 67.8091 37.0029 67.6489C36.8831 67.6089 36.7633 67.5688 36.6434 67.5288C37.1228 67.0081 37.5621 66.4073 37.9216 65.7665C38.401 65.7665 38.8404 65.7264 39.3197 65.6463C39.3996 65.6463 39.3996 65.4862 39.3197 65.4862C38.9202 65.4061 38.5208 65.4061 38.1214 65.366C38.4409 64.7252 38.7205 64.0043 38.8803 63.3234C39.3596 63.4435 39.8789 63.5236 40.3982 63.4435C40.4781 63.4435 40.4781 63.3234 40.3982 63.2833C39.9189 63.1632 39.4395 63.043 38.9602 62.8828C39.0001 62.6425 39.0401 62.4022 39.0401 62.2019C39.12 61.3608 38.9602 60.5598 38.6806 59.8389C39.2398 59.919 39.799 60.0391 40.3183 60.1593C40.3982 60.1993 40.4381 60.0792 40.3582 60.0391C39.839 59.7988 39.3596 59.6386 38.8004 59.4784C38.6806 59.4384 38.6007 59.4384 38.4809 59.3983C38.0015 58.3169 37.2426 57.3557 36.4837 56.4746C37.9217 56.795 39.5194 56.835 40.7177 56.835C40.7577 56.835 40.7577 56.7549 40.7177 56.7549C39.5993 56.2743 38.361 56.1942 37.2027 55.9939C36.6035 55.8738 36.0842 55.7136 35.525 55.5133C35.3253 55.3531 35.1655 55.1929 34.9658 55.0327C35.0057 55.0327 35.0057 55.0728 35.0457 55.0728C35.1255 55.1128 35.2054 54.9926 35.1255 54.9526C34.7661 54.6722 34.4065 54.3919 34.0471 54.1115C34.806 54.1916 35.6049 54.1516 36.3638 54.0715C36.6035 54.0314 36.6035 53.711 36.3638 53.711C35.2454 53.7511 34.1269 53.6309 33.0484 53.3505C31.8501 52.4694 30.6518 51.6283 29.4934 50.7071C29.6532 50.7472 29.813 50.7472 29.9727 50.7872C31.3708 50.9875 32.9286 50.9875 34.2468 50.3867C34.3666 50.3066 34.2867 50.0663 34.1269 50.1464C32.8487 50.6671 31.4107 50.5069 30.0926 50.3066C29.4535 50.1865 28.8144 49.9461 28.2152 49.7058C27.2565 48.8648 26.3378 47.9836 25.499 46.9823C27.3364 47.543 29.5334 47.1826 31.251 46.6619C31.2909 46.6619 31.2909 46.5818 31.251 46.6218C30.1325 46.742 29.0141 46.7821 27.8957 46.742C26.7373 46.702 25.7387 46.3415 24.7001 45.941C24.3806 45.5004 24.101 45.0198 23.8213 44.5392C23.7015 44.2989 23.5417 44.0585 23.4219 43.7782C25.0197 44.379 27.0169 44.2187 28.375 43.4177C28.4149 43.3777 28.375 43.3376 28.335 43.3376C26.5775 44.0586 24.5803 43.658 22.9825 42.7769C22.7428 42.2162 22.5431 41.6555 22.3434 41.0947C22.3035 40.8945 22.2635 40.7343 22.2635 40.534C22.2236 40.2537 22.1836 40.0133 22.1437 39.733C22.7428 40.0534 23.3819 40.2536 23.8613 40.4138C25.1794 40.8144 26.8172 40.9345 28.0155 40.1735C28.0954 40.1335 28.0554 40.0134 27.9755 40.0534C26.7772 40.3738 25.5389 40.2536 24.3406 39.9733C23.7015 39.8131 23.1023 39.5327 22.5431 39.2123C22.3434 39.0921 22.1836 38.972 22.0239 38.8519C21.8641 37.8105 21.7043 36.8092 21.5445 35.7679C21.5445 35.7278 21.5445 35.6878 21.5445 35.6477C22.0638 35.9682 22.623 36.2084 23.1024 36.3686C24.8998 37.0495 27.0568 37.1697 28.7744 36.1684C28.8144 36.1283 28.7744 36.0883 28.7345 36.0883C27.1367 36.7692 25.2194 36.5288 23.6216 36.0082C22.663 35.6878 21.9839 35.2472 21.3847 34.6865C21.185 33.6452 20.9054 32.6038 20.5858 31.6025C20.5459 31.4423 20.506 31.3221 20.466 31.1619C21.5845 32.1232 23.1023 32.8441 24.2607 33.0444C25.1794 33.2046 27.1767 33.4449 28.0155 32.8842C28.0554 32.8441 28.0155 32.804 27.9755 32.804C27.6959 32.8441 27.2965 32.724 27.0169 32.6839C26.1381 32.6439 25.2593 32.6439 24.3805 32.5237C22.6629 32.2433 21.3847 30.9216 20.0266 29.9203V29.8803C21.5845 31.1219 24.3805 31.1619 26.178 31.3221C28.8144 31.5224 31.4507 31.5625 34.0471 31.8428C41.8362 32.6839 50.1046 33.4849 57.3745 29.9203C58.2133 29.5198 59.0921 28.9992 59.7312 28.3183C59.7312 28.3183 59.7711 28.3183 59.7711 28.2782C59.891 28.4785 60.0907 28.6387 60.2505 28.6788C59.9309 29.2795 59.4116 29.8002 58.8524 30.2007C57.8538 30.9617 56.6954 31.242 55.4971 31.6025C55.3773 31.6425 55.4172 31.8027 55.537 31.8027C56.8951 31.9229 58.2932 31.2821 59.3717 30.5211C59.8111 30.2408 60.3703 29.7201 60.7697 29.1193C60.8097 29.1994 60.8097 29.2795 60.8496 29.3596C60.8097 29.3997 60.8097 29.3997 60.7697 29.4397C60.6898 29.64 60.6899 29.8403 60.6499 30.0405C60.4502 30.3609 60.1306 30.6813 59.7312 31.0017C58.4929 31.963 56.8552 32.764 55.3373 33.0444C55.2175 33.0844 55.2574 33.2446 55.3773 33.2446C57.1348 33.0043 59.0521 32.1633 60.4901 31.0418C60.4502 31.162 60.4102 31.2821 60.3303 31.4423C59.8909 32.2033 59.0122 32.7239 58.2533 33.1645C56.9351 33.8854 55.4971 34.3661 54.099 34.8867C54.0192 34.9268 54.0591 35.047 54.139 35.047C55.9365 34.6064 57.694 34.1658 59.2918 33.2046C59.7312 32.9242 60.2904 32.4836 60.6898 31.9229C60.6898 32.0431 60.6898 32.1633 60.6898 32.2434C60.61 32.2033 60.5301 32.2433 60.4901 32.2834C60.0507 32.8041 59.891 33.4449 59.4915 34.0056C58.9722 34.6464 58.2133 35.1271 57.4943 35.4875C56.0563 36.2485 54.2588 36.649 52.6611 36.7291C52.5812 36.7291 52.5812 36.8493 52.6611 36.8493C54.5784 37.0896 56.4158 36.6891 58.1334 35.848C58.9722 35.4475 60.2105 34.5663 60.6898 33.565C60.6898 33.7252 60.6898 33.9255 60.6898 34.0857C60.6898 34.3661 60.6499 34.6865 60.6499 34.9668C59.6912 35.7679 58.8524 36.8492 57.8538 37.6102C56.256 38.8118 54.3786 39.693 52.3415 39.6529C52.2616 39.6529 52.2217 39.773 52.3016 39.8131C54.099 40.1735 55.7767 39.5327 57.3345 38.6516C58.3331 38.0909 59.6114 37.2498 60.57 36.2485C60.5301 36.7692 60.4901 37.2498 60.4502 37.7704C59.5714 38.6115 58.7725 39.6529 57.8937 40.4539C56.296 41.9759 54.4186 43.2175 52.3016 43.7381C52.2616 43.7381 52.2616 43.8182 52.3016 43.7782C54.2588 43.658 55.8965 42.6568 57.4544 41.4953C58.3331 40.8144 59.4116 39.9733 60.2505 39.0521C60.0907 39.7731 59.8111 40.4539 59.5714 41.1348C59.2119 41.4552 58.9323 41.8958 58.5728 42.2563C57.9337 42.9772 57.1747 43.5779 56.4158 44.1787C54.7781 45.4604 52.8208 46.1413 50.7837 46.4617C50.584 46.5017 50.6239 46.8621 50.8236 46.8221C52.8208 46.5818 54.6583 46.0211 56.3759 44.9397C57.0949 44.4991 58.0136 43.8583 58.8125 43.1374C58.8524 43.4177 58.8125 43.5779 58.7725 43.7381ZM71.315 34.1658C71.1552 38.4914 68.7186 42.1361 65.1636 44.379C63.2063 45.6206 61.0493 46.5417 59.0122 47.6231C59.172 47.2627 59.3317 46.9022 59.4915 46.5418C59.6113 46.5818 59.7312 46.5818 59.891 46.5017C62.3675 44.9798 64.6443 43.0172 66.6815 40.9345C68.1594 39.4126 70.0368 37.2498 69.3977 34.9268C68.9183 33.1245 66.5617 33.9255 65.4432 34.4462C64.6843 34.8067 63.8854 35.2873 63.1664 35.888C63.6857 34.4061 64.6843 33.7252 66.0823 33.2046C66.4818 33.0443 66.9211 32.9242 67.2806 32.724C67.9996 32.4035 68.7186 33.1645 69.3577 33.4849C69.3977 33.525 69.4776 33.4849 69.5175 33.4849C69.5574 33.565 69.5974 33.6451 69.6374 33.7653C70.2365 35.4475 69.8371 37.3299 69.0781 38.8919C67.5602 42.1361 64.0851 43.4578 61.5287 45.6606C61.4088 45.7808 61.5686 45.981 61.6884 45.9009C65.2834 44.0986 69.9569 41.0547 70.3963 36.649C70.7558 33.2446 68.5588 29.5999 65.0038 32.0431C64.9239 32.0831 65.0038 32.2033 65.0837 32.1632C66.8412 31.202 68.439 31.5224 69.3178 33.1245C68.8784 32.764 68.3991 32.4436 67.8798 32.1232C67.7999 32.0831 67.76 32.0831 67.6801 32.1232C65.7228 33.2046 63.7256 33.565 63.0066 35.9281C63.0066 35.9681 63.0066 36.0082 63.0466 36.0082C62.6871 36.2885 62.3675 36.6089 62.048 36.9694C62.048 36.1684 62.008 35.3273 61.9681 34.5263C62.9267 32.2033 64.2848 30.0806 66.9611 29.4397C70.1566 28.5186 71.4348 31.5224 71.315 34.1658Z" fill="#E12855"/>
<path d="M30.2131 72.295C32.6497 74.2975 35.7254 74.7781 38.8011 74.8182C40.5187 74.8182 42.2363 74.5779 43.9139 74.2574C45.3519 73.9771 47.2692 73.6567 48.4276 72.7355C48.5075 72.6554 48.5075 72.4552 48.3477 72.4952C47.1094 72.6554 45.8712 73.2562 44.6329 73.5766C42.9952 73.9771 41.3575 74.1774 39.6798 74.2975C36.4444 74.4978 32.9692 74.0171 30.2131 72.2549C30.2131 72.2148 30.1731 72.2549 30.2131 72.295Z" fill="#E12855"/>
<path d="M39.5986 76.2201C35.8039 76.6606 31.3302 77.3015 28.0947 74.7782C28.0547 74.7382 27.9748 74.8182 28.0148 74.8583C30.8508 77.6619 35.1648 77.2614 38.7997 76.901C43.0338 76.5004 47.8271 75.6593 51.4221 73.2162C51.6618 73.056 51.502 72.6154 51.2224 72.7356C49.4648 73.4565 47.7872 74.3777 45.9497 74.9785C43.9126 75.6193 41.7157 75.9797 39.5986 76.2201Z" fill="#E12855"/>
<path d="M43.2738 51.428C43.7132 51.388 44.2324 51.0275 44.1925 50.5069C44.1925 50.4268 44.1925 50.3467 44.1525 50.2666C44.0327 49.7459 43.5134 49.5456 43.0341 49.6257C42.7145 49.6658 42.395 49.7058 42.0355 49.7459C42.0754 49.025 41.8358 48.1839 41.7559 47.7033C41.1567 43.9384 40.8372 39.8531 42.0355 36.1684C42.2752 35.4475 41.1567 35.1671 40.9171 35.848C40.8372 36.0883 40.7573 36.2885 40.6774 36.5289C40.3179 37.6102 39.9584 38.6916 39.4791 39.733C38.8799 41.0547 37.9213 41.6555 37.0025 42.6568C36.9226 42.7369 36.9626 42.857 37.0425 42.8971C38.1609 43.3376 39.1595 42.4165 39.9584 41.0547C39.9184 42.4165 39.9584 43.8182 39.9983 45.18C40.0383 46.2213 40.1581 47.2226 40.238 48.264C40.2779 48.7446 40.3179 49.2653 40.278 49.7459C40.278 49.7859 40.2779 49.866 40.238 49.9061C39.3992 49.9862 38.6003 50.0663 37.7615 50.3066C37.6416 50.3467 37.6416 50.5069 37.7615 50.5469C39.5989 51.0676 41.3964 51.5482 43.2738 51.428Z" fill="#E12855"/>
<path d="M57.575 27.998C57.2954 27.237 57.0157 26.436 56.7761 25.635C56.7361 25.5549 56.6562 25.5949 56.6562 25.675C56.816 26.5161 56.8959 27.3572 57.3353 28.0781C57.4152 28.1983 57.6149 28.1181 57.575 27.998Z" fill="#E12855"/>
<path d="M17.9095 26.9166C18.0693 26.8766 18.0693 26.6363 17.9095 26.5962C15.7126 26.1156 13.8751 25.2345 12.0377 23.9128C10.9592 23.1518 10.0005 22.2306 9.0818 21.2694C8.52258 20.7087 8.12314 19.7874 7.40414 19.5471C7.20442 19.467 7.04464 19.6673 7.0047 19.8676C6.92481 20.6686 7.88348 21.4696 8.36281 22.0304C9.28153 23.0717 10.4399 23.9528 11.5583 24.7939C13.1561 25.8753 15.8723 27.6776 17.9095 26.9166Z" fill="#E12855"/>
<path d="M12.9172 12.2578C13.6762 13.8598 14.475 15.4619 15.3538 16.9838C16.2326 18.5459 18.2298 22.4709 20.4667 22.4309C20.5066 22.4309 20.5466 22.3508 20.5066 22.3107C19.7876 21.5497 18.9089 20.949 18.2298 20.1479C17.1513 18.8663 16.3524 17.3844 15.5535 15.9025C14.8345 14.5808 14.2354 13.219 13.5963 11.8573C13.1169 10.7358 12.7175 9.33399 11.9985 8.37275C11.7988 8.09239 11.3594 8.25263 11.4393 8.6131C11.5991 9.8547 12.3979 11.1764 12.9172 12.2578Z" fill="#E12855"/>
<path d="M24.1803 11.1763C24.5797 12.8184 25.0191 14.4606 25.4985 16.0626C25.6183 16.5432 26.3373 17.905 26.2574 18.3856C26.2574 18.4256 26.2973 18.4256 26.2973 18.3856C26.3772 17.7047 26.2174 17.104 26.0577 16.4231C25.6982 14.821 25.3387 13.259 24.9792 11.657C24.6197 10.0148 24.2602 8.33266 23.9406 6.69054C23.7409 5.5691 23.9007 4.0872 23.5412 3.04586C23.5012 2.88565 23.3015 2.88566 23.1817 3.00582C22.6225 3.72675 23.0618 5.20866 23.1817 6.00969C23.3814 7.73191 23.7808 9.45408 24.1803 11.1763Z" fill="#E12855"/>
<path d="M32.2508 16.3029C33.2893 13.9799 33.2893 11.3765 33.4491 8.89334C33.529 7.29128 33.6888 5.68922 34.0083 4.08715C34.288 2.68535 35.2067 1.56391 35.5262 0.242209C35.5662 0.0820029 35.4064 -0.0782035 35.2466 0.0419513C33.3293 1.1634 33.0896 4.72799 32.9298 6.65046C32.6103 9.85459 32.7301 13.0186 31.8913 16.1827C31.7715 16.383 32.131 16.5432 32.2508 16.3029Z" fill="#E12855"/>
<path d="M41.955 16.2228C43.4729 11.8172 44.9109 7.37141 45.3902 2.72543C45.4301 2.36496 44.8709 2.36496 44.831 2.72543C44.3916 7.29131 42.9935 11.7771 41.7553 16.1828C41.7153 16.3029 41.915 16.343 41.955 16.2228Z" fill="#E12855"/>
<path d="M49.2255 16.2629C51.8218 12.2978 53.8191 7.69187 55.3369 3.20609C55.4967 2.68542 54.6579 2.44507 54.4981 2.96574C53.0202 7.53162 50.7034 11.697 48.9459 16.1427C48.9059 16.3029 49.1456 16.3831 49.2255 16.2629Z" fill="#E12855"/>
<path d="M57.1745 17.4644C58.6524 16.6633 59.7708 15.3817 60.8893 14.1401C62.2474 12.6181 63.6854 11.0962 64.9236 9.49409C65.1234 9.25378 64.8438 8.77318 64.5642 9.01349C63.1661 10.0148 62.0876 11.4967 61.0491 12.8184C59.7709 14.3804 58.4127 15.7421 56.9748 17.1439C56.815 17.3041 57.0147 17.5445 57.1745 17.4644Z" fill="#E12855"/>
<path d="M58.5313 18.9864C58.4115 19.0264 58.4515 19.2267 58.5713 19.2267C60.4886 19.2668 62.2861 18.5458 64.0037 17.7047C65.8811 16.8236 68.1579 15.8223 69.7557 14.4606C69.8755 14.3404 69.7557 14.1802 69.5959 14.1802C67.8383 14.4605 66.1207 15.7823 64.6029 16.6634C62.6855 17.7848 60.6883 18.6259 58.5313 18.9864Z" fill="#E12855"/>
<path d="M64.0449 21.3094C63.8052 21.2693 63.7254 21.5898 63.965 21.6699C64.9636 21.9502 65.9622 21.9903 67.0008 21.8301C68.4787 21.5898 70.0765 21.4696 71.5145 21.1091C71.6742 21.0691 71.6742 20.8288 71.5145 20.7486C69.0779 20.0277 66.5614 21.8301 64.0449 21.3094Z" fill="#E12855"/>
</svg>
