<svg width="48" height="48" viewBox="0 0 48 48" fill="none" xmlns="http://www.w3.org/2000/svg">
<path d="M16.5003 36H31.5003V39H16.5003V36ZM19.5003 42H28.5003V45H19.5003V42ZM24.0003 3C20.022 3 16.2067 4.58035 13.3937 7.3934C10.5806 10.2064 9.00025 14.0218 9.00025 18C8.89881 20.18 9.31641 22.3529 10.2187 24.34C11.121 26.3272 12.4822 28.0716 14.1903 29.43C15.6903 30.825 16.5003 31.62 16.5003 33H19.5003C19.5003 30.24 17.8353 28.695 16.2153 27.21C14.8133 26.1364 13.696 24.7354 12.9611 23.1298C12.2263 21.5241 11.8964 19.7628 12.0003 18C12.0003 14.8174 13.2645 11.7652 15.515 9.51472C17.7654 7.26428 20.8177 6 24.0003 6C27.1828 6 30.2351 7.26428 32.4855 9.51472C34.736 11.7652 36.0003 14.8174 36.0003 18C36.1024 19.7641 35.7702 21.5262 35.0327 23.132C34.2952 24.7377 33.175 26.138 31.7703 27.21C30.1653 28.71 28.5003 30.21 28.5003 33H31.5003C31.5003 31.62 32.2953 30.825 33.8103 29.415C35.5172 28.059 36.8777 26.3171 37.78 24.3326C38.6823 22.3481 39.1005 20.1777 39.0003 18C39.0003 16.0302 38.6123 14.0796 37.8584 12.2597C37.1046 10.4399 35.9997 8.78628 34.6069 7.3934C33.214 6.00052 31.5604 4.89563 29.7405 4.14181C27.9206 3.38799 25.9701 3 24.0003 3V3Z" fill="#552DA9"/>
</svg>
