<svg width="48" height="48" viewBox="0 0 48 48" fill="none" xmlns="http://www.w3.org/2000/svg">
<path fill-rule="evenodd" clip-rule="evenodd" d="M34.0003 9.03355C31.0402 7.05568 27.5601 6 24 6C19.2261 6 14.6477 7.89642 11.2721 11.2721C7.89643 14.6477 6.00001 19.2261 6.00001 24C6.00001 27.5601 7.05569 31.0402 9.03356 34.0003C11.0114 36.9604 13.8226 39.2675 17.1117 40.6298C20.4008 41.9922 24.02 42.3487 27.5116 41.6541C31.0033 40.9596 34.2106 39.2453 36.7279 36.7279C39.2453 34.2106 40.9596 31.0033 41.6541 27.5116C42.3487 24.02 41.9922 20.4008 40.6298 17.1117C39.2675 13.8226 36.9604 11.0114 34.0003 9.03355ZM12.333 6.53914C15.7865 4.23163 19.8466 3 24 3C29.5696 3 34.911 5.21249 38.8493 9.15076C42.7875 13.089 45 18.4305 45 24C45 28.1534 43.7684 32.2135 41.4609 35.667C39.1534 39.1204 35.8736 41.812 32.0364 43.4015C28.1991 44.9909 23.9767 45.4068 19.9031 44.5965C15.8295 43.7862 12.0877 41.7861 9.15077 38.8492C6.21386 35.9123 4.21381 32.1705 3.40352 28.0969C2.59323 24.0233 3.0091 19.8009 4.59854 15.9636C6.18798 12.1264 8.8796 8.84665 12.333 6.53914ZM17.235 34.29C17.4665 34.4274 17.7308 34.4999 18 34.5C18.2537 34.5131 18.5067 34.4614 18.735 34.35L35.235 25.35C35.4731 25.2215 35.6721 25.0309 35.8107 24.7985C35.9493 24.5662 36.0225 24.3006 36.0225 24.03C36.0225 23.7594 35.9493 23.4938 35.8107 23.2615C35.6721 23.0291 35.4731 22.8385 35.235 22.71L18.735 13.71C18.507 13.5784 18.2483 13.509 17.985 13.509C17.7217 13.509 17.463 13.5784 17.235 13.71C17.0111 13.8428 16.8256 14.0315 16.6967 14.2577C16.5678 14.4839 16.5 14.7397 16.5 15V33C16.5 33.2603 16.5678 33.5161 16.6967 33.7423C16.8256 33.9685 17.0111 34.1572 17.235 34.29ZM31.365 24L19.5 30.48V17.52L31.365 24Z" fill="#552DA9"/>
</svg>
