<svg width="80" height="80" viewBox="0 0 80 80" fill="none" xmlns="http://www.w3.org/2000/svg">
<path d="M74.7188 8.67371C71.7871 6.81181 68.6745 4.87829 65.417 3.58928C62.8473 2.58671 59.7347 2.19285 57.8164 0.0444939C57.744 -0.0629238 57.5993 0.0444936 57.6355 0.151911C57.6355 0.187717 57.6355 0.187717 57.6355 0.187717C56.1515 2.40768 54.7399 4.66345 53.4008 6.99084C53.3284 6.99084 53.2922 7.02664 53.2198 7.02664C52.8941 7.13406 52.8579 7.45631 52.9665 7.70696C52.3874 8.74533 51.8083 9.7837 51.2292 10.8221C42.9409 11.2875 34.7611 9.56886 26.4728 10.0343C19.4151 10.3924 12.104 8.74533 5.22729 10.8221C5.1549 10.7863 5.04632 10.8221 5.04632 10.9653C5.04632 33.4872 4.97394 55.9733 5.01014 78.4952C5.01014 78.6026 5.04631 78.71 5.0825 78.7816C4.97392 78.8533 4.97394 79.0681 5.11871 79.1039C13.4432 80.6078 22.5277 79.2113 30.997 79.5694C35.2317 79.7484 39.4301 79.9632 43.701 79.9991C48.0804 80.0349 52.315 79.0323 56.6582 79.9632C57.1649 80.0707 57.4907 79.641 57.4545 79.2471C57.4907 79.1397 57.5269 79.0323 57.5269 78.8891C57.4545 72.8737 57.2011 66.8583 57.4545 60.8429C57.6716 55.6868 58.2869 50.6382 57.4183 45.4822C57.4183 45.4464 57.3821 45.4106 57.3459 45.3748C58.6489 42.2596 59.8794 39.2161 61.2186 36.2801C61.4719 35.743 61.7253 35.2059 61.9787 34.6688C62.1596 34.7046 62.3406 34.5972 62.2682 34.4181C62.232 34.3465 62.232 34.3107 62.1958 34.2391C64.0779 30.5153 66.2857 26.9347 68.1677 23.2467C69.2535 21.0984 70.3031 18.8784 71.3166 16.6942C71.4251 16.6584 71.4975 16.551 71.4613 16.4436C71.4613 16.4436 71.4613 16.4436 71.4613 16.4078C71.8957 15.4768 72.33 14.5459 72.8005 13.6149C72.8367 13.6507 72.8367 13.7223 72.8729 13.7581C72.9453 13.9372 73.2348 13.794 73.1262 13.6149C73.0538 13.5075 73.0177 13.4001 72.9453 13.2927C73.5606 12.0753 74.1396 10.8221 74.7911 9.60467C74.7911 9.56886 74.7911 9.53306 74.7911 9.53306C75.0807 9.35403 75.0807 8.92435 74.7188 8.67371ZM57.925 41.078C57.3821 40.0039 57.0563 38.8581 56.5134 37.7839C56.4772 37.7123 56.3325 37.7481 56.3687 37.8555C56.8392 39.1445 57.0564 40.4693 57.6355 41.7226C57.0925 42.9758 56.5858 44.229 56.0791 45.4822C55.3191 44.3722 54.6676 43.2264 53.8713 42.1522C53.8351 42.1164 53.7989 42.1522 53.7989 42.188C54.4142 43.5845 54.7399 45.0883 55.7534 46.3057C55.2467 47.5231 54.74 48.7047 54.2333 49.9221C53.6542 48.2034 52.8579 46.5205 52.5684 44.7661C52.5684 44.7303 52.4598 44.7302 52.496 44.8019C53.075 46.6638 53.5817 48.6331 53.9799 50.5308C53.6541 51.2469 53.3646 51.963 53.0389 52.6433C52.6769 51.1395 51.9893 49.7431 51.7359 48.2034C51.7359 48.1318 51.5911 48.1318 51.5911 48.2392C51.7721 49.9937 52.5683 51.6408 52.6769 53.4311C52.315 54.183 51.953 54.8991 51.5911 55.651C51.0844 54.2188 50.5415 52.8224 50.4691 51.2827C50.4691 51.1395 50.252 51.1395 50.252 51.2827C50.2158 53.073 50.7949 54.7201 51.2292 56.4388C51.0844 56.6894 50.9397 56.9401 50.7949 57.2265C50.7587 57.2265 50.7225 57.2623 50.7225 57.2623C50.6501 57.2623 50.6139 57.3339 50.6139 57.3697C50.6139 57.4055 50.6501 57.4413 50.6863 57.4771C50.5415 57.7636 50.3968 58.0142 50.2158 58.3007C49.5643 56.9043 49.2385 55.3646 48.6595 53.8966C48.6595 53.8608 48.5871 53.8607 48.5871 53.9324C49.0938 55.5078 49.3109 57.1907 49.9624 58.7304C49.4557 59.5897 48.949 60.4132 48.3699 61.2368C47.6822 60.8071 47.3565 59.7329 47.0669 59.0884C46.705 58.2291 46.4155 57.3339 46.0535 56.4746C46.0173 56.403 45.8726 56.4388 45.9088 56.5462C46.3069 57.8352 46.5241 59.16 46.9584 60.449C47.1393 60.9503 47.4289 61.5948 47.8994 61.8813C47.7546 62.0603 47.6099 62.2751 47.5013 62.4542C47.4289 61.9171 47.0669 61.4158 46.3069 61.1293C45.5106 60.8071 44.461 60.9145 43.4838 61.1652C43.7009 60.5565 43.9543 59.9836 44.2439 59.4107C44.4248 59.3749 44.5696 59.2316 44.5334 59.0526C44.5334 59.0168 44.4972 58.981 44.4972 58.9094C46.2707 55.293 48.6233 51.963 50.3243 48.3108C52.5683 43.477 54.8485 38.7507 57.3097 34.0243C57.3821 33.8811 57.4545 33.7736 57.5269 33.6304C57.8526 34.5614 58.0336 35.5639 58.2869 36.5307C58.4679 37.2468 58.6489 38.0345 59.1194 38.6074C58.6489 39.3594 58.2869 40.2187 57.925 41.078ZM31.8657 52.2853C33.6392 51.8556 35.3765 51.784 37.1861 51.7124C37.2223 51.7124 37.2223 51.6408 37.1861 51.6408C36.0641 51.5692 34.9059 51.4259 33.7839 51.3901C33.2772 51.3901 32.7705 51.3543 32.2638 51.4618C32.5171 50.9605 32.6619 50.5666 32.6981 50.5308C32.7705 50.3518 32.8791 50.1727 32.9515 49.9937C33.4582 49.8863 33.9649 49.7789 34.4716 49.7431C35.5212 49.6357 36.5708 49.5998 37.6204 49.5282C37.6566 49.5282 37.6566 49.4566 37.6204 49.4566C36.3537 49.385 34.7612 49.1702 33.3134 49.3134C33.603 48.7405 33.8563 48.2034 34.1459 47.6305C35.8832 47.6663 37.6928 46.807 39.3577 46.5205C39.3939 46.5205 39.3939 46.4489 39.3577 46.4489C38.5253 46.5205 37.6928 46.628 36.8604 46.7712C36.0641 46.8786 35.2679 46.9144 34.4354 47.0218C34.544 46.7712 34.6888 46.5205 34.7973 46.3057C35.0507 46.1267 35.2317 45.8044 35.1955 45.518C35.3041 45.3031 35.4126 45.0883 35.5212 44.8735C36.426 44.6586 37.2947 44.4796 38.2357 44.408C39.2853 44.3364 40.2987 44.2648 41.3122 44.0141C41.4207 43.9783 41.3846 43.8709 41.276 43.8709C40.0092 44.0499 38.7063 43.9783 37.4033 44.0141C36.9328 44.0141 36.426 44.0141 35.8831 44.0857C35.9555 43.9425 36.0279 43.7635 36.1365 43.6203C36.4623 42.9758 36.788 42.3313 37.0775 41.6867C38.6701 41.7584 40.3712 41.5435 41.9275 41.4719C42.0722 41.4719 42.0722 41.2571 41.9275 41.2571C40.4797 41.1855 38.9234 41.0064 37.4033 41.0064C37.6566 40.4693 37.9462 39.9323 38.1995 39.3952C39.7558 39.1087 41.3846 39.1445 42.8685 38.5716C43.1942 38.4642 43.0495 37.9271 42.7237 38.0704C41.3846 38.5716 39.973 38.5358 38.5615 38.7149C38.8872 38.1062 39.1767 37.4617 39.5025 36.853C39.6473 36.7813 39.7921 36.7455 39.9007 36.7097C40.5521 36.5307 41.2398 36.4591 41.8913 36.4233C42.9409 36.3159 43.9905 36.2801 45.0401 35.9578C45.2573 35.8862 45.1849 35.5281 44.9315 35.5997C43.5923 35.9578 42.1808 35.8504 40.8417 35.9578C40.5521 35.9936 40.2264 35.9936 39.9007 36.0652C40.2626 35.3133 40.6245 34.5972 41.0226 33.8453C41.6017 33.8095 42.1446 33.6662 42.7237 33.523C43.7733 33.3082 44.823 33.0933 45.9088 33.2366C45.945 33.2366 45.945 33.1649 45.9088 33.1649C44.5334 33.0933 42.8323 32.8785 41.3846 33.2008C41.8551 32.3056 42.2894 31.3746 42.7599 30.4795C43.4114 30.4795 44.0267 30.4079 44.642 30.3721C45.6916 30.3005 46.7412 30.1931 47.6822 29.7992C47.7184 29.7992 47.6822 29.7276 47.646 29.7276C46.5602 30.0856 45.402 30.0856 44.2801 30.0498C43.8819 30.0498 43.4476 29.9782 43.0133 29.9424C43.3028 29.3695 43.5924 28.7966 43.8819 28.2237C44.0629 27.9015 44.2076 27.5792 44.3886 27.257C44.8953 27.257 45.4382 27.0779 45.8363 27.0421C47.1755 26.8273 48.5147 26.505 49.89 26.5767C50.252 26.6125 50.2158 26.0754 49.89 26.0396C48.7318 25.8963 47.5013 26.0396 46.3431 26.147C45.9449 26.1828 45.4383 26.1828 44.9677 26.1828C45.2573 25.6099 45.583 25.0012 45.8726 24.4283C47.8632 24.1419 49.8177 23.748 51.6997 23.0319C51.9169 22.9603 51.8445 22.6022 51.5911 22.6738C49.8538 23.2467 48.0442 23.5332 46.2345 23.748C46.6688 22.9603 47.067 22.1367 47.5013 21.349C47.7184 21.2774 47.9356 21.2058 48.1889 21.1342C48.8042 20.9909 49.4557 20.9909 50.1072 20.9193C51.012 20.8477 51.8445 20.6687 52.6046 20.1316C52.7131 20.06 52.6045 19.881 52.496 19.9526C51.4463 20.5255 50.252 20.3822 49.13 20.3822C48.8042 20.3822 48.4423 20.3464 48.0442 20.3822C48.3699 19.7377 48.7318 19.0932 49.0576 18.4129C49.13 18.3771 49.2024 18.3771 49.311 18.3413C49.8539 18.1623 50.4691 18.1265 51.0482 18.0549C52.0978 17.9474 53.1837 17.84 54.1971 17.4104C54.378 17.3387 54.2694 17.0165 54.0523 17.0523C52.8217 17.4462 51.4826 17.3029 50.2158 17.3029C50.071 17.3029 49.89 17.3029 49.6729 17.3029C49.8539 16.9807 50.0348 16.6584 50.1796 16.3004C51.8807 16.2288 53.6179 15.6201 55.2105 15.083C55.319 15.0472 55.2829 14.9039 55.1743 14.9397C53.6542 15.1904 52.1702 15.2978 50.6501 15.4052C51.0482 14.6533 51.4463 13.9014 51.8083 13.1495C52.4597 13.042 53.1112 12.863 53.7627 12.7914C54.5952 12.684 55.4276 12.6482 56.2963 12.6124C56.5496 12.6124 56.5496 12.2543 56.2963 12.2185C55.0295 12.1469 53.5818 12.0037 52.2788 12.2185C52.6407 11.5024 53.0027 10.8221 53.3646 10.1059C53.7989 10.0343 54.2694 9.89111 54.7037 9.8195C55.7534 9.64047 56.803 9.60467 57.8526 9.53306C58.0336 9.53306 58.0336 9.24661 57.8526 9.24661C56.6582 9.175 55.1743 8.96016 53.8713 9.10338C54.0885 8.67371 54.3056 8.20824 54.5228 7.77857C56.0791 7.31309 57.6716 7.16987 59.2642 6.91922C59.2642 6.91922 59.2641 6.95503 59.3003 6.95503C58.7574 7.92179 58.2869 8.92435 57.8164 9.96273C57.6716 10.3208 57.5269 10.6788 57.3459 11.0369C55.5362 14.9039 54.2332 18.9858 52.3512 22.8528C52.0616 23.4615 51.7721 24.0344 51.4826 24.6431C51.374 24.7148 51.2654 24.858 51.3016 25.037C50.7225 26.1828 50.1796 27.3644 49.6005 28.5102C49.3471 28.4386 49.0938 28.6892 49.1662 28.9757C49.2024 29.0831 49.2023 29.1905 49.2385 29.2979C49.1662 29.4769 49.0576 29.656 48.9852 29.835C48.8042 29.9066 48.6594 30.0856 48.6956 30.3005C48.6956 30.3363 48.6956 30.3721 48.6956 30.3721C47.6822 32.4846 46.6326 34.5614 45.6192 36.6739C45.3296 36.6739 45.0401 36.9246 45.1487 37.2468C45.1487 37.2826 45.1487 37.2826 45.1849 37.3184C45.1487 37.39 45.1487 37.4617 45.1125 37.5333C45.1487 37.5333 45.1849 37.5333 45.2211 37.5691C45.1125 37.7481 45.0401 37.9629 44.9315 38.142C44.9315 38.1062 44.9315 38.0704 44.9315 38.0704C44.8591 38.2494 44.7868 38.4284 44.6782 38.6074V38.6432C44.4972 39.0013 44.3162 39.3594 44.1353 39.7532C43.9543 39.8248 43.7733 39.9681 43.8095 40.1829C43.8095 40.2545 43.8095 40.2903 43.8457 40.3619C43.5562 40.9348 43.2666 41.5077 42.9771 42.1164C42.6875 42.1164 42.398 42.3671 42.5066 42.6893C42.5428 42.7609 42.5789 42.8325 42.5789 42.9042C42.4704 43.1548 42.3256 43.4054 42.217 43.6561C41.8913 43.5845 41.457 43.8351 41.6017 44.229C41.6017 44.2648 41.6379 44.3006 41.6379 44.3364C41.6741 44.408 41.7103 44.4796 41.7465 44.5512C39.6835 48.7405 37.6205 52.9656 35.5574 57.1549C35.4489 55.7585 34.4354 54.4336 33.2049 53.8607C34.0011 53.8249 34.7974 53.7891 35.5574 53.6101C35.847 53.5385 35.7384 53.1088 35.4488 53.1804C34.6164 53.3595 33.7478 53.3595 32.8791 53.3595C32.6981 53.3595 32.5895 53.5385 32.6257 53.6817C32.1914 53.5743 31.7209 53.5385 31.2866 53.6817C31.3952 53.1804 31.6485 52.7508 31.8657 52.2853ZM57.925 30.5153C57.9612 30.5869 58.0336 30.6227 58.1059 30.6227C58.0336 30.766 57.9612 30.8734 57.8888 31.0166C57.8164 30.945 57.7802 30.8376 57.7078 30.7659C57.7802 30.6585 57.8526 30.5869 57.925 30.5153C57.925 30.4795 57.925 30.4795 57.925 30.5153ZM40.8055 57.2623C40.4797 56.2239 40.154 55.1856 39.7559 54.1472C39.7559 54.1472 39.5025 53.5743 39.2491 52.9298C39.2853 52.894 39.2853 52.8582 39.3215 52.7866C39.3577 52.6792 39.3577 52.6075 39.3939 52.5359C40.5159 54.6127 40.9864 56.9401 42.398 58.9452C42.6151 59.2316 43.1219 59.0526 43.0133 58.6945C42.8685 58.2649 42.7237 57.8352 42.5789 57.4413C42.8323 57.871 43.158 58.2649 43.4838 58.6587C43.1218 59.3391 42.7961 60.0552 42.5427 60.7713C42.3256 59.4465 41.8913 58.1575 40.8055 57.2623ZM61.7615 4.05475C61.7977 4.12636 61.8339 4.19798 61.9063 4.26959C61.8339 4.3412 61.7615 4.41281 61.6529 4.44862C61.5805 4.44862 61.5082 4.48442 61.4358 4.52023C61.4358 4.52023 61.4358 4.52023 61.4358 4.48443C61.5443 4.3054 61.6167 4.12636 61.7253 3.91153C61.7615 3.98314 61.7615 4.01895 61.7615 4.05475ZM65.4894 5.80924C65.6342 5.91666 65.7789 6.05988 65.9237 6.20311C66.8648 8.42307 66.4305 7.9576 65.779 6.88342C65.598 6.41794 65.4894 6.02408 65.4894 5.80924ZM67.1181 7.06245C67.2267 7.16987 67.3353 7.31309 67.4077 7.45631C67.4077 7.59954 67.4077 7.74276 67.4077 7.88598C67.3715 7.88598 67.3353 7.85018 67.3353 7.85018C67.2629 7.56373 67.1905 7.31309 67.1181 7.06245ZM68.6745 7.85018C68.6383 7.74276 68.602 7.67115 68.602 7.59954C68.6744 7.67115 68.783 7.74276 68.9278 7.85018C68.7106 8.13662 68.4935 8.42307 68.3125 8.70952C68.3125 8.6021 68.3125 8.45888 68.3125 8.35146C68.5297 8.31565 68.7468 8.13662 68.6745 7.85018ZM59.4089 27.257C59.3003 27.0063 59.1555 26.7199 59.047 26.4692C59.2279 26.7199 59.4089 26.9705 59.5899 27.257C59.5537 27.3644 59.4813 27.436 59.4451 27.5434C59.4451 27.436 59.4451 27.3286 59.4089 27.257ZM56.0067 26.8631C55.9706 26.6483 55.9705 26.3976 55.9343 26.147C56.1515 26.5409 56.3687 26.9347 56.622 27.3286C56.8754 27.7941 57.0925 28.1521 57.2373 28.4028C57.2011 28.3312 57.1287 28.2953 57.0925 28.2237C56.6944 27.7941 56.3325 27.3286 56.0067 26.8631ZM46.6326 46.5922C46.2707 45.6254 45.8726 44.6586 45.5468 43.6561C46.0535 44.6944 46.5602 45.7686 47.0307 46.807C47.0307 46.8786 47.0308 46.9502 46.9946 47.0218C46.886 46.9144 46.7412 46.7712 46.6326 46.5922ZM45.583 40.6126C45.4382 40.2187 45.2935 39.789 45.1487 39.3594C45.1487 39.3236 45.1849 39.2878 45.1849 39.2519C45.8002 40.8632 46.4154 42.5103 46.9221 44.1574C46.524 42.9758 46.0173 41.7942 45.583 40.6126ZM47.0307 40.2903C46.9584 40.0755 46.886 39.8606 46.8498 39.6458C47.2117 40.2545 47.5374 40.899 47.827 41.5077C47.5736 41.1139 47.3203 40.6842 47.0307 40.2903ZM49.3833 34.812C49.3833 34.7762 49.4195 34.7404 49.4195 34.7046C49.4919 34.812 49.5643 34.9194 49.6367 35.0269C49.709 35.1701 49.7815 35.3491 49.8539 35.4923C49.6729 35.2775 49.5281 35.0627 49.3833 34.812ZM51.8083 32.4488C52.0616 32.8427 52.2788 33.2366 52.5321 33.6304C52.4597 33.702 52.3874 33.7736 52.3874 33.8811C51.9531 33.2724 51.5549 32.6279 51.1568 31.9834C50.9758 31.6611 50.7949 31.3388 50.6501 31.0166C50.7949 31.1598 51.012 31.3747 51.3016 31.7685C51.4826 32.0192 51.6273 32.1982 51.7359 32.3414C51.7359 32.3772 51.7721 32.413 51.8083 32.4488ZM50.1434 29.8708C50.071 29.7276 49.9986 29.5485 49.9624 29.4053C50.0348 29.5844 50.1072 29.7634 50.2158 29.9424C50.1796 29.9066 50.1796 29.8708 50.1434 29.8708ZM51.6635 40.6126C51.9531 41.0064 52.1702 41.2929 52.2788 41.3287C51.6997 41.1855 51.0482 40.4335 50.3605 39.4668C50.7587 39.8965 51.193 40.2903 51.6635 40.6126ZM52.2788 37.2826C52.2788 37.211 52.315 37.1036 52.315 37.032C52.0616 36.6739 51.8083 36.3159 51.5911 35.9578C51.5911 35.922 51.5911 35.8504 51.5549 35.8146C51.7721 36.0652 51.953 36.3159 52.1702 36.6023C52.1702 36.6023 52.1702 36.6023 52.1702 36.6381C52.2064 36.6739 52.315 36.853 52.4598 37.032C52.496 37.1036 52.5684 37.1752 52.6046 37.211C52.496 37.1752 52.3874 37.211 52.2788 37.2826ZM52.3512 35.3133C52.7131 35.7788 53.0389 36.2443 53.4008 36.7097C53.5818 37.3542 53.437 37.2826 52.9303 36.4949C52.7493 36.0652 52.5683 35.6714 52.3512 35.3133ZM51.9169 31.3746C51.9531 31.3746 51.9893 31.4105 52.0255 31.4105C52.2426 31.7327 52.4598 32.0192 52.6769 32.3414C52.6407 32.3772 52.6046 32.413 52.5684 32.4488C52.3874 32.0908 52.1702 31.7327 51.9169 31.3746ZM52.8941 23.4257C52.8941 23.3899 52.8579 23.3541 52.8217 23.3183C52.8579 23.2467 52.8941 23.1751 52.9303 23.1393C53.1837 23.8196 53.4732 24.4999 53.7627 25.1444C53.437 24.6073 53.1474 24.0344 52.8941 23.4257ZM52.8217 31.1956C52.8217 31.2672 52.8217 31.3388 52.8217 31.3746C52.7855 31.303 52.7493 31.2314 52.7131 31.1956C52.4959 30.8376 52.2788 30.5511 52.0616 30.3005C51.7721 29.5844 52.2788 30.2647 52.7855 30.9808C52.7855 31.0524 52.8217 31.124 52.8217 31.1956ZM52.8217 27.436C52.8579 27.5076 52.8941 27.5434 52.9303 27.615C52.9303 27.6508 52.9303 27.6866 52.9303 27.7583C52.8941 27.6508 52.8579 27.5434 52.8217 27.436ZM54.1971 27.257C54.5952 27.8299 54.9933 28.367 55.3914 28.9399C55.3552 29.0115 55.319 29.0831 55.2466 29.1547C54.8847 28.546 54.5228 27.9015 54.1971 27.257ZM55.2466 29.5486C54.8485 28.9399 54.4142 28.3311 54.0161 27.7224C53.9799 27.6508 53.9799 27.5792 53.9437 27.5076C54.378 27.9731 54.8847 28.8682 55.2466 29.5486ZM63.0282 6.27472C63.173 6.52536 63.2816 6.81181 63.4264 7.06245C63.2816 6.776 62.9559 6.81181 62.7749 6.95503C62.6301 6.59697 62.4854 6.20311 62.413 5.80924C62.5939 5.95247 62.8111 6.1315 63.0282 6.27472ZM64.6569 7.42051C64.8741 7.67115 65.0551 7.92179 65.2723 8.13663C65.4894 8.78113 65.7428 9.35403 66.1409 9.89111C66.2495 10.2134 66.3219 10.4998 66.3943 10.8221C66.2495 10.6788 66.0685 10.4998 65.9237 10.3208C65.417 9.31822 64.9465 8.24404 64.476 7.20567C64.5122 7.31309 64.5846 7.3847 64.6569 7.42051ZM66.0685 13.8656C66.0685 13.6507 66.0323 13.4359 65.96 13.1853C66.1409 13.0062 66.2857 12.863 66.4666 12.684C66.3218 13.0778 66.1771 13.4717 66.0685 13.8656ZM63.8969 18.6278C63.7521 18.3413 63.6074 18.0191 63.4626 17.7326C63.535 17.7326 63.6074 17.7326 63.6797 17.7684C63.9331 17.8758 64.1503 17.7684 64.2226 17.5178C64.295 17.4462 64.3312 17.3387 64.3312 17.2313C64.3312 17.0881 64.295 16.9091 64.2588 16.7658V16.73C64.295 16.8017 64.3674 16.9091 64.4036 16.9807C64.4398 17.0523 64.5122 17.1239 64.6208 17.1597C64.4036 17.661 64.1502 18.1623 63.8969 18.6278ZM60.8566 22.2441C60.8204 22.0293 60.7481 21.8145 60.7119 21.5996C60.9291 21.9577 61.11 22.3158 61.3272 22.6738C61.4357 22.8528 61.6529 22.9245 61.8339 22.8887C61.7253 23.1035 61.6167 23.3183 61.5081 23.4974C61.291 23.0677 61.0738 22.638 60.8566 22.2441ZM60.9652 24.5357C60.929 24.5715 60.9291 24.6073 60.8929 24.6431C60.8929 24.6073 60.8929 24.5357 60.929 24.4999C60.929 24.5357 60.9652 24.5357 60.9652 24.5357ZM62.1234 22.2441C62.1234 22.2441 62.1234 22.2083 62.1234 22.2441C62.1234 22.2083 62.1234 22.2083 62.0872 22.2083C61.2186 20.2032 59.9518 18.3413 59.0832 16.3362C60.2414 18.0191 61.5081 19.5945 62.5939 21.3132C62.4492 21.5996 62.3044 21.9219 62.1234 22.2441ZM58.4317 18.4845C57.925 17.7326 57.3821 16.9449 56.8754 16.1571C56.9477 15.9065 57.0202 15.6559 57.0925 15.4052C57.4545 16.4436 57.925 17.4462 58.4317 18.4845ZM65.779 11.932C65.9238 12.1111 66.1047 12.0753 66.2857 12.0037C66.1047 12.2543 65.96 12.4691 65.779 12.5049C65.7066 12.3617 65.5256 12.2901 65.3808 12.3259C65.3808 12.3259 65.3446 12.3259 65.3446 12.2901C65.2361 12.1469 65.0551 12.0753 64.9103 12.1111C64.8741 11.753 64.8018 11.4308 64.7294 11.0727C64.657 10.7863 64.3674 10.7505 64.1865 10.8579C64.0417 10.5356 63.8607 10.2134 63.7159 9.89111C63.7521 9.92692 63.7883 9.96272 63.8245 9.99853C63.9693 10.1059 64.1141 10.1418 64.2588 10.1059C64.7293 10.7146 65.2723 11.3233 65.779 11.932ZM64.2588 13.7223C64.295 13.973 64.295 14.2594 64.295 14.5101C64.2588 14.4027 64.1865 14.2952 64.1503 14.2236C64.0779 13.9372 64.0055 13.6149 63.9693 13.3285C64.0779 13.4717 64.1502 13.6149 64.2588 13.7223ZM61.291 5.16473C61.3272 5.30796 61.3272 5.41538 61.3634 5.5586C61.291 5.5228 61.2186 5.5228 61.1462 5.5586C61.2186 5.45118 61.2548 5.30796 61.291 5.16473ZM60.8566 5.80924C60.7481 6.13149 60.6033 6.45375 60.4585 6.776L60.4223 6.74019C60.5309 6.41794 60.7119 6.09569 60.8566 5.80924C60.8566 5.77344 60.8566 5.77344 60.8566 5.80924ZM60.929 6.23891C61.472 7.42051 62.0872 8.5663 62.6663 9.74789C62.0148 8.78113 61.3634 7.81437 60.6033 6.95503C60.7119 6.70439 60.8205 6.48955 60.929 6.23891ZM63.0645 12.0037V12.0395C63.0645 12.1111 63.0645 12.1469 63.0645 12.2185C62.8835 11.8604 62.6663 11.5024 62.4853 11.1443C62.7025 11.4308 62.8835 11.7172 63.0645 12.0037ZM62.7749 16.4436C62.8835 16.5868 62.9921 16.7658 63.1007 16.9091C63.0645 16.9091 63.0644 16.9091 63.0282 16.9091C62.9559 16.7658 62.8473 16.5868 62.7749 16.4436ZM62.8111 18.7352V18.95C62.7387 18.771 62.6301 18.5561 62.5578 18.3771C62.6301 18.5203 62.7025 18.6278 62.8111 18.7352ZM62.9921 19.3797C63.0644 19.3797 63.1368 19.3439 63.173 19.2723C63.2092 19.3081 63.2454 19.3797 63.2816 19.4155C63.3178 19.4871 63.3902 19.5229 63.4626 19.5587C63.3902 19.6661 63.354 19.8093 63.2816 19.9168C63.173 19.7377 63.1006 19.5587 62.9921 19.3797ZM59.5537 8.6021C60.3861 9.89111 61.2548 11.1801 62.0872 12.4691C62.5215 13.4001 62.8835 14.3668 63.1368 15.3694C61.8339 13.4001 60.7119 11.3592 59.1556 9.56886C59.2641 9.24661 59.4089 8.92436 59.5537 8.6021ZM58.7213 10.9653C58.6851 10.9653 58.6127 10.9653 58.5765 10.9653C58.6127 10.8937 58.6126 10.8221 58.6488 10.7505C58.6488 10.8579 58.6851 10.8937 58.7213 10.9653ZM55.681 19.4155C56.0429 20.2032 56.441 20.9551 56.8754 21.6713C56.8754 21.7429 56.9116 21.7787 56.9116 21.8503C56.4773 21.1342 56.0067 20.418 55.5724 19.7019C55.5724 19.5945 55.6086 19.5229 55.681 19.4155ZM56.1153 23.8912C56.2963 24.2493 56.4772 24.6073 56.6582 24.9654C56.6582 25.0012 56.6582 25.0012 56.6582 25.037C56.4048 24.6789 56.1515 24.3209 55.9343 23.927C55.9705 23.8554 56.0067 23.7838 56.0429 23.7122C56.0429 23.8196 56.0791 23.8554 56.1153 23.8912ZM57.3097 22.5664C57.3097 22.4948 57.2735 22.4232 57.2735 22.3516C57.5269 22.7096 57.7802 23.1035 58.1059 23.4615C58.2507 23.6406 58.4679 23.6406 58.6488 23.5332C58.9384 24.2135 59.1918 24.8938 59.4451 25.6099C60.4585 28.5102 58.7574 24.7864 58.3231 24.0702C57.9612 23.569 57.6354 23.0677 57.3097 22.5664ZM59.8794 24.858C59.9156 24.9296 59.9518 25.0012 59.988 25.0728C60.0966 25.3235 60.3861 25.3593 60.6033 25.2518C60.4947 25.5025 60.35 25.7173 60.2052 25.968C60.0966 25.6099 59.988 25.216 59.8794 24.858ZM64.8379 5.41538C64.9103 5.45118 64.9827 5.48699 65.0551 5.52279C65.0551 5.63021 65.0551 5.70182 65.0913 5.80924C64.9827 5.66602 64.9103 5.5228 64.8379 5.41538ZM61.9424 4.52023C61.9062 4.52023 61.9063 4.52023 61.8701 4.48443C61.9063 4.44862 61.9425 4.41281 61.9787 4.37701C62.0149 4.44862 62.0872 4.52023 62.1234 4.59184C62.051 4.59184 62.0148 4.55604 61.9424 4.52023ZM54.8485 19.0932C54.8485 19.0932 54.8123 19.0932 54.8485 19.0932C54.8123 19.0932 54.8485 19.0574 54.8485 19.0216C54.8485 19.0574 54.8485 19.0574 54.8485 19.0932ZM54.5952 19.5587C54.6314 19.5587 54.5952 19.5945 54.5952 19.5587C54.8124 20.0242 55.0295 20.4539 55.2466 20.8835C55.1743 20.7761 55.0657 20.6329 54.9933 20.5255C54.74 20.1316 54.1246 20.4897 54.3418 20.8835C54.7761 21.5638 55.1381 22.28 55.5362 22.9961C55.5362 23.1393 55.5 23.2825 55.5 23.4257C54.9933 22.6738 54.5228 21.9219 54.0885 21.1342C54.0523 21.0267 53.9799 20.9909 53.8713 20.9551C54.1609 20.5255 54.378 20.06 54.5952 19.5587ZM53.6179 21.7429C54.197 23.1035 54.9209 24.3567 55.6448 25.6457C55.681 25.8963 55.681 26.1828 55.7172 26.4692C54.8485 25.2518 54.1247 23.9986 53.5818 22.5664C53.5456 22.459 53.437 22.3874 53.3646 22.3516C53.437 22.1367 53.5094 21.9577 53.6179 21.7429ZM52.315 24.4283C52.3874 24.7864 52.496 25.1802 52.5684 25.5383C52.4236 25.2876 52.2788 25.0728 52.134 24.8222C52.2064 24.7148 52.2426 24.5715 52.315 24.4283ZM51.6273 26.2544C51.5911 26.2186 51.5188 26.2186 51.4826 26.2186C51.5188 26.147 51.5549 26.1112 51.5549 26.0396C51.5549 26.1112 51.5911 26.1828 51.6273 26.2544ZM51.0482 27.0779C51.0482 27.5434 51.1568 28.0089 51.3016 28.4028C51.2292 28.2953 51.1206 28.1521 51.0482 28.0447C51.012 27.9731 50.8672 28.0447 50.9034 28.1163C51.012 28.2953 51.1206 28.4744 51.2292 28.6892C51.1206 28.6534 51.012 28.6892 50.9397 28.7608C50.7587 28.5818 50.6139 28.4028 50.4691 28.2237C50.6501 27.8657 50.7949 27.5076 50.9758 27.1496C51.012 27.1496 51.0482 27.1137 51.0482 27.0779ZM50.1796 28.904C50.6501 29.5127 51.1206 30.1214 51.5549 30.7659C51.5911 30.8734 51.6635 30.9808 51.6997 31.0882C51.2292 30.3721 50.6863 29.656 50.1072 28.9757C50.1434 28.9398 50.1796 28.904 50.1796 28.904ZM49.3471 32.4846C49.2748 32.5204 49.2385 32.5562 49.2024 32.5921C49.0576 32.3772 48.8766 32.1982 48.7318 31.9834C48.8042 31.8043 48.8766 31.6611 48.9852 31.4821C49.0576 31.8043 49.2024 32.1266 49.3471 32.4846ZM48.2975 32.8427C48.4423 33.1291 48.6233 33.3798 48.7681 33.6662C48.7681 33.7378 48.7318 33.7736 48.7318 33.8453C48.6594 33.7378 48.5871 33.6304 48.5147 33.523C48.4061 33.344 48.2251 33.3082 48.0804 33.344C48.1528 33.1649 48.2251 32.9859 48.2975 32.8427ZM47.7546 33.9169C47.7908 34.0959 47.8632 34.2391 47.8994 34.3823C47.646 34.3823 47.3927 34.5972 47.5013 34.8836C47.5737 35.0627 47.646 35.2417 47.7546 35.4207C47.6098 35.2059 47.4651 35.0269 47.3565 34.8836L47.3203 34.8478C47.4651 34.5614 47.6098 34.2391 47.7546 33.9169ZM46.5602 36.4233C46.8136 37.2468 47.1031 38.0345 47.3927 38.8223C47.0307 38.2494 46.6326 37.6765 46.1983 37.1036C46.3431 36.8888 46.4516 36.6739 46.5602 36.4233ZM44.9315 39.789C45.0763 40.3261 45.2572 40.8632 45.4744 41.4361C45.2572 40.9706 45.0401 40.541 44.823 40.0755C44.823 40.0039 44.8591 39.8965 44.9315 39.789ZM44.7868 44.1932C44.4972 43.8351 44.2438 43.477 43.9905 43.0832C43.9543 43.0116 43.8819 43.0116 43.8457 42.9758C43.7733 42.8325 43.7009 42.6893 43.5924 42.5461C43.7371 42.2596 43.8819 41.9374 44.0267 41.6509C44.2076 42.5461 44.461 43.3696 44.7868 44.1932ZM45.8726 47.1292C45.583 46.5205 45.2573 45.876 44.9677 45.2673C45.0039 45.3031 45.0039 45.3031 45.0401 45.3389C45.1487 45.4822 45.2573 45.6254 45.3659 45.7686C45.5468 46.2341 45.7278 46.6638 45.8726 47.1292ZM40.4073 52.0705C40.4797 52.1421 40.5521 52.1779 40.6607 52.2137C40.7331 52.4285 40.7693 52.6792 40.8417 52.894C40.7331 52.6075 40.5521 52.3211 40.4073 52.0705ZM41.4569 48.7047C41.8189 50.0295 42.7599 52.3211 43.701 54.2546C43.701 54.7201 43.7009 55.2214 43.6647 55.6869C42.9409 53.3595 42.1084 51.0679 41.4569 48.7047ZM41.6741 53.4311C42.1808 54.8991 42.7599 56.3314 43.4838 57.7278C43.158 57.513 42.2532 55.7585 42.036 55.3288C41.7465 54.7201 41.457 54.0756 41.1674 53.4669C41.3122 53.5743 41.5293 53.5385 41.6741 53.4311ZM44.8953 51.4618C44.7867 51.4976 44.7144 51.5692 44.6782 51.6766C44.6782 51.6766 44.6782 51.6408 44.642 51.6408C44.4972 51.3901 44.2076 51.3543 44.0267 51.4618C43.5923 50.1011 43.0495 48.7763 42.6152 47.3799C41.7103 44.4796 42.8685 47.8096 43.1581 48.3824C43.52 49.0986 43.9905 49.7073 44.4972 50.2802C44.642 50.674 44.7867 51.0679 44.8953 51.4618ZM43.5924 48.2034C43.7371 48.4541 43.8457 48.7405 43.9543 48.9911C43.8095 48.8479 43.7009 48.5973 43.5924 48.2034ZM44.0629 46.1983C43.6286 45.518 43.1943 44.8735 42.7961 44.1932C42.8685 44.0499 42.9409 43.9425 42.9771 43.7993C43.339 44.587 43.701 45.4106 44.0629 46.1983ZM41.8551 46.0909C42.1808 48.1676 42.9771 50.0653 43.701 52.0705C43.7372 52.1779 43.8095 52.4285 43.9181 52.715C43.9543 52.8582 43.9905 53.0372 44.0267 53.1804C43.9181 53.2162 43.8457 53.252 43.7733 53.3595C43.7733 53.3237 43.7371 53.3237 43.7371 53.2879C42.7961 51.3901 41.9999 49.4566 41.1674 47.5231C41.4208 47.0218 41.6379 46.5563 41.8551 46.0909ZM40.8779 48.096C40.8779 48.2034 40.8417 48.3108 40.8417 48.4183C40.9503 48.8837 41.095 49.3492 41.2036 49.8147C41.0226 49.385 40.8417 48.9553 40.6607 48.5615C40.7331 48.3824 40.8055 48.2392 40.8779 48.096ZM38.5976 52.8224C38.5976 52.8582 38.5976 52.8582 38.5976 52.894C38.5615 52.9298 38.5253 52.9656 38.5253 53.0014C38.5615 52.9298 38.5615 52.8582 38.5976 52.8224ZM38.1633 53.7175C38.4167 54.2188 38.6339 54.5769 38.7424 54.8275C38.5977 54.5769 38.3443 54.2188 38.091 53.8249C38.1272 53.7891 38.1633 53.7533 38.1633 53.7175ZM37.6566 54.7559C38.7424 57.0117 38.091 55.9017 37.5843 54.9349C37.6205 54.8633 37.6566 54.7917 37.6566 54.7559ZM37.4757 55.1498C37.6204 55.5794 37.8014 56.0449 37.9462 56.5104C37.5119 56.5462 37.1137 56.6536 36.6794 56.7968C36.969 56.2239 37.2223 55.6869 37.4757 55.1498ZM38.5615 55.7585C38.7062 56.0091 38.851 56.2597 38.9958 56.4746C38.851 56.4388 38.6701 56.4388 38.5253 56.4388C38.5615 56.2597 38.5615 56.0091 38.5615 55.7585ZM39.7559 56.6536C39.7197 56.6536 39.7196 56.6536 39.6835 56.6178C39.6835 56.582 39.7197 56.582 39.7197 56.582C39.7197 56.6178 39.7197 56.6536 39.7559 56.6536ZM45.1125 54.2904C45.2572 54.3262 45.402 54.3262 45.5468 54.2546C45.6916 54.3262 45.8725 54.3262 46.0173 54.2546C45.7278 54.7201 45.4744 55.1856 45.1849 55.651C45.1487 55.1856 45.1487 54.7201 45.1125 54.2904ZM45.8002 51.1395C46.0173 51.5692 46.1983 51.9988 46.3792 52.4285C46.4878 52.6792 46.705 52.7508 46.886 52.7508C46.6688 53.1088 46.4517 53.4669 46.2345 53.8607C46.2345 53.8607 46.2345 53.8608 46.2345 53.8249C46.1983 52.894 46.0535 51.9988 45.8002 51.1395ZM47.2841 52.0705C47.2117 51.6766 47.1031 51.2827 46.9946 50.9247C47.2841 51.1037 47.7908 50.9963 47.7546 50.5666C47.646 49.7431 47.4289 48.9195 47.1755 48.1318C47.2117 48.2034 47.2479 48.2392 47.2841 48.3108C47.3565 48.4183 47.5374 48.4183 47.6098 48.3466C47.7908 48.8479 47.9718 49.3134 48.1166 49.8147C48.1527 49.9221 48.2251 50.0295 48.3337 50.0653C48.008 50.7814 47.646 51.4259 47.2841 52.0705ZM48.949 48.9553C48.8042 47.9886 48.6233 47.0218 48.4061 46.0909C48.4785 46.2341 48.5509 46.3415 48.6233 46.4847C48.7318 46.6638 48.9128 46.6996 49.0938 46.6638C49.2385 46.9502 49.3833 47.2367 49.4919 47.5589C49.4919 47.5947 49.5281 47.5947 49.5281 47.6305C49.3471 48.0602 49.13 48.5257 48.949 48.9553ZM50.5415 45.518C50.3605 44.5512 50.071 43.6203 49.7814 42.7251C49.8176 42.6893 49.8539 42.6535 49.8539 42.6177C49.89 42.5103 49.89 42.4387 49.89 42.3671C50.1072 42.7251 50.3606 43.0832 50.5777 43.4412C50.7949 43.7635 51.4464 43.6919 51.374 43.2264C51.3016 42.5103 51.0844 41.83 50.8311 41.1855C51.2292 41.5793 51.6273 41.9016 52.0978 42.188C51.6273 43.298 51.0844 44.408 50.5415 45.518ZM53.0389 40.3619C52.8941 39.7174 52.7131 39.1087 52.4598 38.5358C52.6045 38.6432 52.8579 38.6432 53.0027 38.5716C53.0389 38.8223 53.1112 39.1087 53.256 39.3236C53.2922 39.3952 53.4008 39.4668 53.4732 39.5026C53.3284 39.7532 53.1836 40.0755 53.0389 40.3619ZM54.3418 37.7481C54.3418 37.6765 54.3056 37.5691 54.3056 37.4975C54.3418 37.4975 54.378 37.4975 54.4142 37.4617C54.4142 37.4617 54.4142 37.4975 54.4504 37.4975C54.4142 37.6049 54.378 37.6765 54.3418 37.7481ZM54.8123 36.853C54.3056 35.6714 53.7266 34.5256 53.1113 33.3798C53.1113 33.2724 53.1113 33.1649 53.1113 33.0217C53.256 33.2724 53.4008 33.4872 53.5456 33.7378C53.8713 34.5614 54.2694 35.3491 54.8847 36.0652C54.9571 36.1368 55.0295 36.1726 55.1019 36.1726C55.0295 36.4233 54.9209 36.6381 54.8123 36.853ZM55.4276 35.6714C54.9571 34.7762 54.4142 33.8811 53.8713 33.0217C53.7989 32.7353 53.7265 32.4846 53.6179 32.1982C53.5817 32.0908 53.5456 32.0192 53.5456 31.9117C53.5818 31.9475 53.6542 31.9117 53.6904 31.9117C53.9075 32.3772 54.1609 32.8785 54.4142 33.344C54.6314 33.9169 54.6314 33.8811 55.0295 34.5256C55.1381 34.7046 55.3191 34.7404 55.4638 34.7046C55.5362 34.812 55.6448 34.9194 55.7534 35.0269C55.6448 35.2417 55.5362 35.4565 55.4276 35.6714ZM56.1877 34.1675C55.7534 33.0575 55.0657 32.1624 54.2694 31.303C53.8351 30.3005 53.437 29.2621 53.075 28.2595C53.075 28.1163 53.0751 28.0089 53.1113 27.9015C53.1837 28.0089 53.2198 28.0805 53.2922 28.1879C53.9437 30.1214 54.9209 31.8759 56.5496 33.523C56.4411 33.7378 56.3325 33.9527 56.1877 34.1675ZM57.0201 32.6279C56.6582 31.8401 56.2601 31.0882 55.7895 30.3721C55.8619 30.3721 55.8981 30.3363 55.9343 30.2647C55.9705 30.0856 55.9706 29.9066 56.0067 29.6918C56.0791 29.7992 56.1515 29.9066 56.2239 30.014C56.5858 30.5869 56.9477 31.124 57.3821 31.6611L57.4183 31.6969C57.4183 31.7327 57.4545 31.7327 57.4545 31.7685C57.3097 32.055 57.1649 32.3414 57.0201 32.6279ZM57.6716 30.6585C57.3821 30.2647 57.0925 29.835 56.803 29.4411C56.5496 29.0473 56.2963 28.6176 56.0791 28.1879C56.0791 28.1879 56.0791 28.1879 56.0791 28.1521C56.6582 28.8682 57.2373 29.5844 57.8526 30.3363C57.7802 30.4795 57.7078 30.5511 57.6716 30.6585ZM58.2869 29.3695C58.1783 29.1189 58.106 28.8324 57.9974 28.5818C58.2507 28.7608 58.6851 28.546 58.5765 28.1879C58.3955 27.5434 58.1783 26.8989 57.925 26.2544C58.2145 26.6841 58.5041 27.1496 58.7574 27.5792C58.9022 27.8299 59.1918 27.7941 59.3365 27.615V27.6508C58.9746 28.2595 58.6126 28.8324 58.2869 29.3695ZM69.4345 7.20567C69.3983 7.16987 69.3983 7.16986 69.3621 7.13406L68.7468 6.63278C69.0002 6.776 69.2897 6.91922 69.5431 7.06245C69.5069 7.13406 69.4707 7.16987 69.4345 7.20567ZM67.4439 6.27472C67.2629 6.09569 67.0458 5.88085 66.8648 5.70182C67.1181 5.84505 67.4077 5.95247 67.661 6.09569C67.5524 6.1315 67.4801 6.1673 67.4439 6.27472ZM65.8152 5.27215C65.8152 5.23635 65.779 5.23635 65.779 5.20054C65.8152 5.20054 65.8152 5.23635 65.8514 5.23635C65.8514 5.23635 65.8152 5.23635 65.8152 5.27215ZM65.0189 5.20054C64.8741 5.12893 64.7655 5.05732 64.6208 5.02151C64.5122 4.84248 64.4036 4.69926 64.3312 4.55604C64.5484 4.66345 64.7655 4.73507 64.9827 4.84248C64.9827 4.9499 64.9827 5.09313 65.0189 5.20054ZM63.4626 4.69926C63.2816 4.48442 63.0644 4.23378 62.8473 4.01895C63.1368 4.12637 63.4264 4.23378 63.6797 4.3412C63.6074 4.41281 63.4988 4.52023 63.4626 4.69926ZM34.5078 68.2547C34.5078 68.2189 34.5078 68.2189 34.5078 68.1831C34.544 68.2189 34.5802 68.2189 34.6164 68.2547C34.5802 68.2547 34.544 68.2547 34.5078 68.2547ZM30.7799 66.357C30.7799 66.3212 30.7799 66.2854 30.7799 66.2496C30.8161 66.2854 30.8161 66.2854 30.8523 66.3212C30.8523 66.3212 30.8161 66.357 30.7799 66.357ZM37.1861 68.7918C36.4623 67.7892 35.4126 66.9299 34.2182 66.536C33.1324 66.178 31.9019 65.6767 30.7799 65.4977C30.7437 64.6025 30.7437 63.7074 30.7799 62.8122C30.8884 60.3416 30.3456 57.871 30.4903 55.4004C30.9971 55.3288 31.359 54.7917 31.2142 54.362C32.8791 53.3595 35.3041 56.0807 35.4127 57.692C35.4127 57.7278 35.485 57.7636 35.485 57.692C35.485 57.6204 35.485 57.5488 35.485 57.5129C35.666 57.7994 36.1003 57.9068 36.3175 57.5129C36.3537 57.4055 36.4261 57.3339 36.4623 57.2265C37.5119 57.1549 38.6701 57.1549 39.6111 57.5488C39.8644 57.6562 40.0816 57.8352 40.2988 58.0142C40.335 58.1217 40.3711 58.2291 40.4073 58.3007C40.4797 58.4439 40.5521 58.4797 40.6969 58.4797C41.276 59.3749 41.4208 60.5923 41.4208 61.5948C41.4208 61.9171 41.6741 62.0961 41.9275 62.1677C42.0361 62.49 42.3618 62.7406 42.7599 62.5258C43.5562 62.0961 44.5334 61.9171 45.4382 61.9529C45.8364 61.9529 46.3793 61.9887 46.705 62.2035C46.886 62.3467 46.9222 62.5258 46.9584 62.7048C43.701 64.7099 40.4074 66.7151 37.1861 68.7918ZM58.5041 29.9424C58.4679 29.8708 58.4317 29.7634 58.3955 29.6918C58.7936 29.0473 59.1917 28.4028 59.5899 27.7583C59.6261 27.6866 59.6985 27.615 59.7346 27.5434C59.7708 27.5792 59.7709 27.615 59.8071 27.615C59.3727 28.367 58.9384 29.1547 58.5041 29.9424ZM69.3621 9.49725C68.964 10.3566 68.6021 11.2159 68.1677 12.0395C68.4935 11.1801 68.8916 10.3208 69.3621 9.49725ZM55.8258 4.69926C57.3821 4.62765 58.866 4.37701 60.4223 4.09056C60.4585 4.09056 60.4585 3.98314 60.3861 4.01895C59.047 4.48442 57.4545 4.37701 56.0067 4.3054C56.5858 3.01638 57.1649 1.72737 57.7078 0.402553C58.1059 2.08543 59.7708 2.90896 61.3634 3.48186C61.291 3.55347 61.2186 3.66089 61.1824 3.7325C60.8205 4.16217 60.5309 4.59184 60.2775 5.09312C60.0966 5.41538 59.8794 5.70182 59.6985 6.02408C59.3727 5.91666 59.047 6.23891 59.1556 6.59697C57.744 6.63278 56.2963 6.59697 54.8847 6.776C55.1743 6.09569 55.5 5.37957 55.8258 4.69926ZM56.3687 60.9145C55.9706 66.7867 56.1877 72.6946 56.1515 78.6026C52.8941 78.0655 49.6367 78.3878 46.3431 78.6384C41.7103 78.9965 37.0051 78.6026 32.4086 78.352C24.0479 77.9223 14.6738 77.2062 6.31309 78.5668C6.31309 78.531 6.31309 78.531 6.31309 78.4952C6.34928 56.1523 8.15895 33.3082 5.44444 11.0727C12.5022 10.5356 19.4875 11.2159 26.5814 11.1443C34.6164 11.0727 42.6875 12.3975 50.7225 12.0037C47.6822 17.7326 44.8953 23.6048 41.9998 29.3337C41.9275 29.3337 41.8913 29.2979 41.8189 29.2979C32.0828 29.1189 22.202 28.2953 12.5022 29.0473C12.3574 29.0473 12.3574 29.2621 12.5022 29.2621C22.021 30.0856 31.7209 30.8018 41.276 30.7301C40.3349 32.5921 39.3939 34.4898 38.4529 36.3517C38.3081 36.2084 38.1271 36.1368 37.8738 36.1368C33.1686 36.2801 28.5359 35.5281 23.8307 35.6356C20.2838 35.7072 16.0129 36.853 12.5746 35.8146C12.285 35.7072 12.1402 36.1368 12.3574 36.2801C14.8909 38.1062 19.017 37.4258 21.9487 37.39C27.2329 37.3184 32.481 37.9271 37.7652 37.7123C36.607 40.0397 35.4488 42.3313 34.3268 44.6586C32.3362 44.0141 29.8389 44.3722 27.812 44.3722C23.4326 44.408 19.0894 44.1932 14.71 44.0857C14.4928 44.0857 14.4566 44.3722 14.6738 44.4438C18.1122 45.8402 22.202 45.7686 25.8938 45.9476C28.1377 46.0551 31.3952 45.4106 33.5668 46.1625C33.0963 47.0218 32.2276 48.3108 31.5037 49.6715H31.4676C31.359 49.7073 31.3228 49.8147 31.359 49.9221C30.5989 51.3901 30.056 52.8224 30.3456 53.7175C25.3871 51.8556 18.1122 52.2137 13.3708 54.183C13.0813 54.2904 13.1898 54.6485 13.4794 54.6127C16.0129 54.2188 18.6913 54.2546 21.261 54.2904C24.0479 54.2904 27.3777 54.183 29.9836 55.293C29.5855 57.4055 29.6579 59.5897 29.7665 61.738C26.4005 60.6639 22.7449 61.0935 19.1618 61.4874C17.7864 61.3442 16.4473 61.38 15.5062 61.8813C15.1081 61.9171 14.71 61.9529 14.3118 61.9529C14.2756 61.9529 14.2756 62.0245 14.3118 62.0245C14.6014 62.0961 14.8909 62.1319 15.1805 62.2035C15.0719 62.4184 15.1443 62.7048 15.3976 62.8838C16.2301 63.4209 17.2797 63.3493 18.2208 63.3851C19.9942 63.4567 21.7677 63.5641 23.5412 63.6716C24.3736 63.7074 25.8937 63.8148 27.1967 63.6716C28.1015 63.7432 29.0064 63.6716 29.875 63.4567C29.9474 65.3544 30.0198 67.2163 30.0922 69.1141C24.3374 68.935 18.6551 69.0066 13.0451 69.7586C13.0089 69.7586 13.0089 69.8302 13.0451 69.8302C18.6551 70.6179 24.4098 71.0118 30.1646 71.2266C30.2008 72.0501 30.237 72.8379 30.237 73.6614C30.237 73.6972 30.237 73.733 30.237 73.7688C30.3094 74.3059 31.1418 74.3417 31.2504 73.8404C31.3228 73.8404 31.3952 73.8046 31.4314 73.8046C31.5038 73.7688 31.6123 73.6972 31.6485 73.6256C31.9381 73.3392 32.2276 73.0527 32.481 72.7305C33.3858 72.265 34.2544 71.8353 35.1231 71.334C40.6245 71.4414 46.0897 71.4056 51.4826 71.4056C52.4598 71.4056 52.4598 69.9018 51.4826 69.9018C47.1755 69.9018 42.8323 69.687 38.4891 69.4721C41.276 67.8609 44.0267 66.1064 46.6688 64.3161C46.7412 64.3877 46.8136 64.4235 46.9221 64.4593C47.5374 64.6383 48.2975 64.4235 48.9128 64.2803C48.949 64.2803 48.949 64.2803 48.9852 64.2445C49.0938 64.2445 49.2024 64.2803 49.311 64.2803C49.5643 64.3161 49.7091 64.1728 49.7814 63.9938C50.1072 63.8506 50.433 63.6716 50.7587 63.4209C50.9035 63.3135 50.7949 63.0987 50.6139 63.0987C49.9986 63.0987 49.3833 63.0987 48.7318 63.0629C48.587 63.0629 48.4423 63.0271 48.2975 63.0271C52.0616 58.05 54.7038 52.0705 57.2011 46.0909C57.2735 51.0679 56.7306 56.0091 56.3687 60.9145ZM72.511 12.9704C72.0043 13.8298 71.4975 14.7249 71.0632 15.6201C70.8823 15.3336 70.6651 15.083 70.4841 14.7965C70.0498 14.1162 69.6155 13.4001 69.2174 12.684C69.1812 12.6482 69.1449 12.684 69.1449 12.7198C69.4345 13.4001 69.724 14.0804 70.0498 14.7249C70.2669 15.1904 70.4841 15.7275 70.7737 16.193C70.2669 17.1955 69.7602 18.2339 69.2897 19.2723C68.8916 18.0191 68.0953 16.8733 67.4801 15.7275C67.4439 15.6917 67.3715 15.7275 67.4077 15.7633C68.3487 16.9807 68.3487 18.5561 68.964 19.9168C68.8916 20.0958 68.783 20.2748 68.7106 20.4539C68.4211 21.0267 68.1315 21.5996 67.842 22.1367C67.4439 21.0267 67.0095 19.881 66.6114 18.771C66.6114 18.7352 66.539 18.7352 66.539 18.8068C66.9372 19.9884 67.3715 21.17 67.7696 22.3516C67.2267 23.4257 66.6476 24.4999 66.0685 25.5741C65.3446 24.8938 64.7655 24.0344 64.476 23.1035C64.4398 22.9961 64.2951 23.0319 64.3312 23.1393C64.5846 24.1419 65.1275 25.0728 65.8152 25.8605C65.8514 25.8963 65.8875 25.8963 65.8875 25.8963C65.1999 27.1854 64.476 28.4386 63.7521 29.7276C63.173 28.725 62.6663 27.6866 62.232 26.5767C62.232 26.5409 62.1596 26.5409 62.1596 26.6125C62.5216 27.8299 62.9559 29.0115 63.4988 30.1214C62.9197 31.124 62.3768 32.1624 61.7977 33.1649C61.5082 32.4846 61.2186 31.8043 61.0738 31.0524C61.0014 30.766 60.5671 30.8734 60.6395 31.1598C60.8205 32.055 61.1462 32.8427 61.5081 33.6304C61.3634 33.9169 61.1824 34.2033 61.0376 34.4898C60.4947 35.5281 59.988 36.5665 59.4813 37.6049C59.1918 36.9246 58.7936 36.2443 58.5403 35.5997C58.2507 34.8478 57.9612 34.0959 57.563 33.3798C58.4679 31.6253 59.4089 29.9066 60.35 28.1521C60.5671 28.1879 60.8205 28.0089 60.7481 27.7224C60.7119 27.6508 60.7119 27.5792 60.6757 27.5076C61.6167 25.7531 62.5577 23.9628 63.4988 22.2083C63.7521 22.1725 64.0055 21.9577 63.8969 21.6354C63.8969 21.5996 63.8607 21.5638 63.8607 21.4922C64.4036 20.4539 64.9465 19.3797 65.4894 18.3413C65.5618 18.1981 65.6704 18.0549 65.7428 17.9474C66.358 16.9807 66.7924 15.9423 67.1905 14.8681C68.1315 12.863 69.0002 10.8221 69.8326 8.78113C70.0498 8.49469 70.267 8.20824 70.4841 7.9576C70.5565 7.88598 70.5927 7.77856 70.6289 7.67115C71.7871 8.35146 72.9453 9.03177 74.0673 9.7837C74.2482 9.89111 74.4292 9.89111 74.6102 9.85531C74.2844 10.285 73.9587 10.7505 73.6329 11.1801C73.6329 11.1443 73.6329 11.1443 73.6329 11.1085C73.1986 10.4998 72.8005 9.89111 72.2938 9.38983C72.2214 9.31822 72.1128 9.42564 72.1852 9.49725C72.6919 10.0343 73.0539 10.643 73.452 11.2159C73.4882 11.2875 73.5606 11.2875 73.5968 11.2517C73.271 11.7172 72.9815 12.1827 72.6919 12.6482C72.2214 11.7888 71.7871 10.9653 71.4613 10.0343C71.4251 9.89111 71.208 9.96273 71.2442 10.1059C71.5699 11.1085 72.0404 12.0395 72.511 12.9704Z" fill="#E12855"/>
<path d="M37.3314 55.5797C37.3676 55.7945 37.5486 55.9019 37.6571 56.0809C37.6933 56.1168 37.8019 56.0809 37.7657 56.0093C37.6934 55.8303 37.5486 55.7229 37.5124 55.5439C37.5124 55.4364 37.44 55.4364 37.3676 55.4364V55.4006V55.4364C37.3314 55.4722 37.2952 55.5081 37.3314 55.5797Z" fill="#E12855"/>
<path d="M27.4866 21.7072C30.7802 21.6714 34.0738 21.4923 37.3675 21.3491C40.082 21.2059 43.086 21.4923 45.692 20.5972C46.1987 20.4182 46.1987 19.7378 45.692 19.5946C40.8058 17.9476 34.0015 19.6304 28.8982 19.8453C23.1434 20.0959 17.5334 19.5588 11.851 19.165C11.7786 19.165 11.7425 19.2724 11.8149 19.3082C16.5562 21.8146 22.2024 21.743 27.4866 21.7072Z" fill="#E12855"/>
</svg>
