<svg width="48" height="48" viewBox="0 0 48 48" fill="none" xmlns="http://www.w3.org/2000/svg">
<path fill-rule="evenodd" clip-rule="evenodd" d="M27.0057 12H30.0049C30.0049 9.21523 28.8989 6.54451 26.9304 4.57538C24.9618 2.60625 22.2919 1.5 19.508 1.5C16.724 1.5 14.0541 2.60625 12.0855 4.57538C10.117 6.54451 9.01108 9.21523 9.01108 12H12.0102C12.0102 10.0109 12.8001 8.10322 14.2062 6.6967C15.6123 5.29018 17.5194 4.5 19.508 4.5C21.4965 4.5 23.4036 5.29018 24.8097 6.6967C26.2158 8.10322 27.0057 10.0109 27.0057 12ZM35.297 23.1C35.9663 22.7097 36.7266 22.5028 37.5013 22.5C38.6945 22.5 39.8387 22.9741 40.6824 23.818C41.526 24.6619 42 25.8065 42 27V36C42 38.7848 40.8941 41.4555 38.9255 43.4246C36.957 45.3937 34.2871 46.5 31.5031 46.5H24.0053C21.726 46.5044 19.5256 45.6656 17.8272 44.145L5.83071 33.195C5.1972 32.5665 4.76484 31.7637 4.58862 30.8888C4.41239 30.0138 4.50025 29.1062 4.84104 28.2813C5.18182 27.4564 5.76013 26.7516 6.50243 26.2563C7.24473 25.7611 8.1175 25.4978 9.00977 25.5C9.96556 25.4935 10.8974 25.7989 11.664 26.37L15.008 28.65V12C15.008 10.8065 15.482 9.66193 16.3256 8.81802C17.1693 7.97411 18.3135 7.5 19.5067 7.5C20.6998 7.5 21.844 7.97411 22.6877 8.81802C23.5314 9.66193 24.0053 10.8065 24.0053 12V19.77C24.9645 19.4315 26.0101 19.4282 26.9715 19.7605C27.9328 20.0929 28.7532 20.7413 29.2988 21.6C29.9681 21.2097 30.7284 21.0028 31.5031 21C32.2611 21.002 33.0064 21.1955 33.6697 21.5626C34.3329 21.9297 34.8927 22.4586 35.297 23.1ZM36.8048 41.3033C38.2109 39.8968 39.0009 37.9891 39.0009 36V27C39.0009 26.6022 38.8429 26.2206 38.5617 25.9393C38.2805 25.658 37.899 25.5 37.5013 25.5C37.1036 25.5 36.7222 25.658 36.441 25.9393C36.1598 26.2206 36.0018 26.6022 36.0018 27V28.5H33.0027V25.5C33.0027 25.1022 32.8447 24.7206 32.5635 24.4393C32.2822 24.158 31.9008 24 31.5031 24C31.1054 24 30.724 24.158 30.4428 24.4393C30.1615 24.7206 30.0036 25.1022 30.0036 25.5V28.5H27.0044V24C27.0044 23.6022 26.8465 23.2206 26.5652 22.9393C26.284 22.658 25.9026 22.5 25.5049 22.5C25.1072 22.5 24.7258 22.658 24.4445 22.9393C24.1633 23.2206 24.0053 23.6022 24.0053 24V28.5H21.0062V12C21.0062 11.6022 20.8482 11.2206 20.567 10.9393C20.2858 10.658 19.9044 10.5 19.5067 10.5C19.109 10.5 18.7275 10.658 18.4463 10.9393C18.1651 11.2206 18.0071 11.6022 18.0071 12V34.35L9.90951 28.8C9.68672 28.6329 9.4218 28.5311 9.14444 28.5061C8.86708 28.481 8.58824 28.5338 8.33915 28.6584C8.09007 28.7829 7.88058 28.9744 7.73417 29.2114C7.58777 29.4484 7.51022 29.7214 7.51022 30C7.51187 30.3935 7.66805 30.7706 7.94509 31.05L19.8666 42C21.0188 42.9853 22.4896 43.5183 24.0053 43.5H31.5031C33.4916 43.5 35.3987 42.7098 36.8048 41.3033Z" fill="#141414"/>
</svg>
