<svg width="80" height="80" viewBox="0 0 80 80" fill="none" xmlns="http://www.w3.org/2000/svg">
<path d="M77.7357 19.5211C77.5757 19.4001 77.4157 19.3194 77.2557 19.2388C77.3357 19.1984 77.4557 19.1581 77.5357 19.0774V19.0371C77.4557 19.0371 77.3357 19.0371 77.2557 19.0371C77.2557 18.8757 77.1757 18.7547 76.9757 18.7144C76.4557 18.674 75.9757 18.6337 75.4558 18.6337C75.2158 18.5934 74.9758 18.5934 74.7358 18.5934C69.896 18.3917 65.0562 18.5127 60.2564 18.5127C60.0164 18.5127 59.7764 18.5127 59.4964 18.5127C56.0565 14.0352 52.0967 8.42827 46.8569 6.00801C46.7369 5.96767 46.6569 6.0887 46.7369 6.16937C46.8569 6.29038 47.0169 6.45174 47.1369 6.57275C46.6569 6.65342 46.2169 7.01646 45.8969 7.78288C45.8169 7.94423 45.9369 8.18623 46.0969 8.26691C46.2169 8.30725 46.2969 8.38792 46.4169 8.4686C46.4169 8.58961 46.4969 8.71064 46.6169 8.79132C47.0568 9.03334 47.4569 9.27539 47.8968 9.51742C47.8968 9.63843 47.9368 9.75942 48.0168 9.79976C48.8568 10.4855 49.6968 11.1712 50.5367 11.857C52.5366 13.9949 54.2566 16.4958 56.3365 18.5127C52.0167 18.5127 47.7368 18.5127 43.417 18.5127C39.8171 18.5127 36.2573 18.5127 32.6574 18.5127C34.6574 16.1731 37.4973 13.7529 39.0572 10.9696C39.6172 10.3645 40.1371 9.71907 40.6171 9.03333C41.1771 8.62996 41.7371 8.22661 42.2971 7.90391C42.4971 7.7829 42.4571 7.54084 42.2971 7.41983C41.8571 7.09713 41.4971 6.85513 41.0571 6.69378C41.0971 6.33074 40.6171 6.00803 40.3371 6.33073C40.2571 6.41141 40.2171 6.49207 40.1371 6.57275C40.0971 6.57275 40.0171 6.57273 40.0171 6.6534V6.69378C37.5772 9.59809 34.4574 12.0587 32.3374 15.1647C31.2175 16.2538 30.0975 17.3429 29.0176 18.432C28.9776 18.4724 28.9776 18.5127 28.9376 18.553C28.1776 18.553 27.3776 18.553 26.6176 18.553C21.7778 18.553 16.9381 18.3917 12.0982 18.7951C12.0582 18.7144 11.9782 18.6337 11.8182 18.5934C11.3382 18.5127 10.8583 18.5127 10.4183 18.5934C9.09833 18.5127 7.93838 19.0774 7.4184 20.812C6.49843 23.9986 7.73842 27.992 8.49839 31.0577C9.09836 33.3569 9.69835 35.6158 10.2583 37.8747C10.2183 37.8747 10.2183 37.9151 10.1783 37.9151C9.77832 38.0764 9.41836 38.2781 9.05837 38.4395C5.29852 40.295 2.65863 43.1993 1.45867 47.1927C-0.821238 54.5745 -1.10127 64.6186 5.61847 69.6608C16.2981 77.7283 35.3373 74.4207 39.8972 60.7865C39.8972 60.7462 39.8972 60.7462 39.8972 60.7462C40.5771 60.7462 41.2971 60.7865 41.9771 60.7865C51.1767 61.0689 60.4963 61.6336 69.696 61.3513H69.736C69.896 61.3916 70.0959 61.3513 70.2159 61.1899C70.3759 61.0689 70.4159 60.9479 70.4159 60.7865C74.9757 51.4282 75.2958 40.658 78.6556 30.856C79.8956 27.5886 81.2955 22.1027 77.7357 19.5211ZM47.1369 7.62152C47.1769 7.54084 47.2169 7.50049 47.2969 7.46016C47.3369 7.54083 47.4169 7.58117 47.4569 7.66184C47.3369 7.62151 47.2569 7.62152 47.1369 7.62152ZM41.4171 7.33917C41.5371 7.41985 41.5771 7.54083 41.4971 7.66184C41.4971 7.58117 41.4171 7.5005 41.3371 7.41983C41.3771 7.41983 41.4171 7.37951 41.4171 7.33917ZM65.8161 19.5614C65.8561 19.6018 65.8961 19.6018 65.9361 19.6422C65.2161 19.6018 64.5362 19.6018 63.8562 19.5614C64.4962 19.5614 65.1361 19.5614 65.8161 19.5614ZM55.0966 15.9714C55.8965 16.7379 56.6965 17.5446 57.4565 18.3513C56.6165 17.6252 55.8165 16.8185 55.0966 15.9714ZM46.1769 20.4892C45.0569 21.659 43.657 23.2322 43.617 24.765C43.617 24.886 43.777 24.886 43.817 24.8053C44.257 24.1196 44.497 23.3128 44.9369 22.5868C45.4169 21.8204 46.0169 21.1346 46.6569 20.4892C46.7769 20.4892 46.8569 20.4892 46.9769 20.4892C51.8567 20.5296 56.7365 20.9329 61.6563 21.0943C60.3764 22.5061 58.8564 24.2003 58.5364 26.0962C55.7765 26.0962 53.0166 26.1769 50.2967 26.2575C50.6567 25.6121 51.0567 24.9667 51.4167 24.3213C51.0167 24.9667 50.5767 25.6121 50.1767 26.2979C48.2168 26.3785 46.2569 26.4189 44.297 26.4995C41.4971 26.5802 38.6972 26.4996 35.8973 26.4592C36.7373 24.3617 38.2572 22.7481 39.2171 20.7312C39.2571 20.6506 39.2172 20.6103 39.1372 20.6103C41.4971 20.4893 43.817 20.4892 46.1769 20.4892ZM67.4961 35.0108C66.7761 37.189 66.1361 39.4076 65.4961 41.6262C65.2562 42.1909 64.9762 42.7556 64.6962 43.3203C64.5362 43.159 64.2962 43.0379 64.0162 43.159C63.6162 43.3203 63.2162 43.4413 62.8162 43.5623C62.0962 43.4413 61.3363 43.4413 60.6163 43.4817C60.8963 41.5455 61.0963 39.5689 61.4563 37.7941C61.6163 37.0277 61.7363 36.2612 61.8563 35.4948C63.4562 35.5755 65.9361 35.6562 67.4961 35.0108ZM62.0963 33.4779C62.1363 32.9939 62.2163 32.5502 62.2563 32.0661C62.3763 31.0173 62.5762 29.9686 62.7762 28.9601C62.8162 28.7181 62.8562 28.3147 62.9362 27.9114C64.9362 28.0324 66.9361 28.2744 68.936 28.6374C69.456 29.6055 68.336 31.7434 68.096 32.7116C68.056 32.7922 68.0561 32.8729 68.0561 32.9536C67.0161 32.9132 65.8961 33.3973 64.8962 33.4779C64.2962 33.5183 63.6962 33.5586 63.0962 33.5586C62.7762 33.478 62.4163 33.4779 62.0963 33.4779ZM18.498 29.7669C18.618 29.4038 18.698 29.0408 18.858 28.7181C21.3779 29.2828 24.2578 28.5164 26.8577 28.2744C26.3777 29.7669 26.9377 31.5821 27.3376 33.0342C27.4176 33.3569 27.5376 33.6796 27.6176 34.0023C26.4577 34.0427 25.3377 34.1233 24.1777 34.2444C22.9778 34.2444 21.6579 34.2847 20.5379 34.6074C20.5379 34.5671 20.4979 34.5267 20.4979 34.4864C19.8579 33.1552 19.2179 31.5418 18.418 30.0896C18.578 30.0493 18.578 29.8476 18.498 29.7669ZM25.6577 35.7772C26.4977 35.8175 27.3776 35.8175 28.2176 35.8175C28.4576 36.5436 28.6976 37.31 28.9376 38.0361C27.0176 37.0277 24.9377 36.2612 22.8578 35.8175C23.8178 35.8175 24.7778 35.7369 25.6577 35.7772ZM37.5372 31.5014C37.5772 32.1872 37.6173 32.8729 37.6573 33.599C36.2173 33.6393 34.8173 33.6797 33.3774 33.72C32.1774 33.8007 30.9775 33.841 29.7775 33.9217C29.6175 33.9217 29.4576 33.9217 29.3376 33.9217C29.2576 33.72 29.1776 33.4779 29.0976 33.2762C28.4976 31.7031 28.3776 29.7669 27.7776 28.1937C27.8976 28.1937 28.0176 28.1937 28.1376 28.1937C31.2575 28.113 34.3774 28.1534 37.4972 28.1937C37.4972 28.3147 37.4573 28.3954 37.4573 28.4357C37.4573 29.4442 37.4972 30.4526 37.5372 31.5014ZM30.9775 39.2462C30.7375 38.0361 30.4175 36.9066 30.0175 35.8175C31.1375 35.8175 32.2574 35.7772 33.3774 35.7772C34.8573 35.7772 36.2973 35.7368 37.7772 35.6965C37.8172 36.2612 37.8572 36.8663 37.8972 37.431C38.0972 39.4883 38.0572 41.5455 38.0172 43.5623C37.3372 43.522 36.6173 43.4817 35.9373 43.4817C34.4974 41.8682 32.8174 40.416 30.9775 39.2462ZM38.0172 45.4179C38.0172 45.7003 38.0172 45.9826 38.0172 46.265C37.8572 45.9826 37.6573 45.7003 37.4573 45.4179C37.6573 45.4179 37.8172 45.4179 38.0172 45.4179ZM40.2971 50.3794C39.6572 48.8062 39.4172 47.112 39.3372 45.3775C41.3371 45.3775 43.337 45.4179 45.3369 45.5792C45.1769 47.2331 45.0569 48.8869 45.0969 50.5811C43.497 50.5004 41.9371 50.4601 40.3371 50.4601C40.2971 50.4198 40.2971 50.4197 40.2971 50.3794ZM45.057 44.0464C43.137 43.8851 41.2171 43.7641 39.2972 43.643C39.2972 41.3035 39.4572 38.9639 39.2572 36.7856C39.2172 36.4226 39.1772 36.0192 39.1372 35.6562C41.4171 35.6158 43.697 35.5352 45.9769 35.4142C45.9769 35.9385 45.9769 36.4629 45.9769 36.947C45.9369 39.3269 45.6969 41.6665 45.4569 44.0464C45.3369 44.0061 45.177 44.0061 45.057 44.0464ZM45.9769 33.3973C43.617 33.5183 41.2571 33.5183 38.9372 33.5586C38.8172 32.5502 38.6972 31.5014 38.5772 30.493C38.4972 29.8072 38.4572 28.9198 38.1772 28.1937C39.4572 28.1937 40.6971 28.1937 41.9771 28.1937C43.537 28.1937 45.0969 28.1131 46.6969 28.0727C46.0569 29.7266 45.9369 31.5821 45.9769 33.3973ZM46.8169 45.7002C48.6168 45.8213 50.4967 45.9826 52.3766 46.023C52.0966 47.6768 51.7367 49.2903 51.1767 50.8635C49.6168 50.7828 48.0568 50.7021 46.4969 50.6214C46.6169 48.9676 46.6969 47.3541 46.8169 45.7002ZM46.9369 44.0061C47.1369 41.1018 47.3769 38.1974 47.4969 35.2931C48.0568 35.2528 48.6568 35.2125 49.2168 35.1721C50.6567 35.0511 52.0567 35.0511 53.4966 35.0511C53.1366 38.0361 53.0166 41.0614 52.6567 44.0464C50.7767 44.0868 48.8568 44.0464 46.9369 44.0061ZM47.4969 28.0323C49.8968 27.9517 52.2567 27.8307 54.6566 27.75C54.8566 27.75 55.0966 27.75 55.2965 27.75C54.5766 29.4845 54.1366 31.2997 53.8166 33.1149C51.7767 33.0746 49.7368 33.1149 47.6968 33.2762C47.6568 33.2762 47.6168 33.2762 47.6168 33.2762C47.6168 31.5417 47.5769 29.8072 47.4969 28.0323ZM54.2166 46.0633C55.4965 46.0633 56.7765 46.0229 58.0164 45.9019C57.6964 47.6768 57.3764 49.4113 56.9765 51.1458C55.5765 51.1055 54.1766 51.0248 52.7766 50.9441C53.4166 49.371 53.8566 47.7171 54.2166 46.0633ZM57.5764 44.4498C57.8164 44.4095 58.0564 44.3691 58.2964 44.3288V44.3691C58.0564 44.4094 57.8164 44.4095 57.5764 44.4498ZM56.8965 43.8447C56.1365 43.9254 55.3365 43.9657 54.5766 44.0061C55.0165 41.1018 55.2165 38.0764 55.4165 35.0914C56.9364 35.1318 58.4564 35.2528 60.0163 35.3335C59.9763 35.6159 59.8964 35.8982 59.8564 36.1806C59.2564 38.6412 58.8564 41.1421 58.4164 43.643C57.8964 43.7237 57.3765 43.8044 56.8965 43.8447ZM60.2564 45.6196C61.5763 45.4179 62.8562 45.0952 64.0962 44.6918C63.7762 45.4179 63.4562 46.1843 63.1762 46.9104C62.4962 48.3625 61.8163 49.8147 61.2163 51.3072C60.3363 51.3072 59.4564 51.2668 58.5764 51.2265C59.4164 49.5323 59.8964 47.5961 60.2564 45.6196ZM61.1363 29.5652C60.6963 30.7753 60.4963 32.1065 60.3363 33.3973C60.1363 33.3973 59.9364 33.3569 59.6964 33.3569C58.2964 33.2763 56.9365 33.1956 55.5765 33.1553C55.7365 31.3401 55.8965 29.5249 56.1765 27.75C56.5365 27.75 56.9365 27.75 57.2965 27.75C58.7764 27.75 60.2963 27.7903 61.7763 27.8307C61.4963 28.355 61.2963 29.0811 61.1363 29.5652ZM39.0972 20.5296C39.0972 20.5296 39.0572 20.5295 39.0572 20.5699C37.9372 22.5464 35.9773 24.0793 35.4573 26.3785C34.4974 26.3382 33.5374 26.3382 32.5774 26.3382C33.8974 24.523 35.0974 22.5465 36.2573 20.6103C37.2173 20.5699 38.1772 20.5699 39.0972 20.5296ZM10.5783 34.0427C12.2182 31.6224 14.0181 29.2828 15.5781 26.8222C15.5781 26.7819 15.5381 26.7819 15.5381 26.7819C13.9382 29.0408 11.5783 31.098 10.4583 33.6796C10.2583 32.9939 10.0583 32.2678 9.85834 31.5821C11.3783 29.6055 12.5782 27.387 14.2982 25.5314C14.3382 25.4911 14.2581 25.3701 14.2181 25.4508C12.4982 27.2256 11.2983 29.3635 9.77832 31.2997C9.61832 30.7753 9.49833 30.2509 9.37833 29.7669C9.41833 29.7669 9.49834 29.7669 9.53833 29.6862C10.5383 27.1853 11.9383 24.9264 14.0582 23.1918C14.0582 23.1918 14.0581 23.1515 14.0181 23.1515C11.8582 24.8053 10.3783 27.0239 9.33834 29.5249C8.89836 27.75 8.53837 25.9751 8.33838 24.1599C8.33838 23.9583 8.29839 23.7566 8.29839 23.5549C8.29839 22.4254 8.57839 21.3766 9.25837 20.7312C9.89834 20.6506 10.4983 20.4085 11.0983 20.1665C13.5782 20.6909 16.1381 20.6103 18.658 20.6506C18.818 20.6506 18.978 20.6506 19.1779 20.6506C17.418 22.6675 15.6181 24.7247 14.4582 27.1853C14.3782 27.3466 14.5782 27.4677 14.6582 27.3063C16.0181 24.886 17.658 22.7481 19.458 20.6506C21.2979 20.6909 23.1778 20.6909 25.0177 20.6506C24.0577 21.3767 23.1778 22.1834 22.3778 23.1112C21.6578 23.9583 20.7779 25.0474 20.5379 26.1365C20.4979 26.2575 20.6579 26.3382 20.7379 26.2172C21.2979 25.3297 21.6979 24.402 22.3378 23.5146C23.1378 22.4254 24.0978 21.4574 25.1777 20.6103C26.1377 20.6103 27.0977 20.6102 28.0576 20.5699C30.7775 20.5295 33.4574 20.4893 36.1773 20.4086C34.8973 22.2641 33.3774 24.0793 32.3374 26.0558C32.3374 26.0962 32.3374 26.0962 32.3374 26.1365C31.7375 26.1365 31.1375 26.1365 30.4975 26.1365C28.2176 26.1365 25.9377 26.3382 23.6978 26.6205C23.5778 26.6205 23.4578 26.6205 23.3378 26.6205C23.4978 24.523 25.6177 22.4658 26.8176 20.9733C26.8176 20.9733 26.8176 20.9329 26.7776 20.9329C25.4977 22.4254 23.2978 24.4826 23.0978 26.6205C21.6979 26.6609 20.2979 26.7012 18.898 26.8626C18.818 26.7819 18.738 26.7416 18.578 26.7416C18.138 26.7416 17.738 26.8223 17.378 27.0643C17.258 27.0643 17.138 27.1046 17.018 27.1046C16.978 27.1046 16.978 27.2256 17.018 27.2256C17.058 27.2256 17.098 27.2256 17.138 27.2256C17.058 27.3063 17.018 27.3466 16.938 27.4677C16.898 27.4677 16.8581 27.508 16.8581 27.5483C16.7381 27.4273 16.6581 27.266 16.5381 27.1449H16.4981C16.4581 27.4273 16.418 27.75 16.418 28.0727C16.378 28.1131 16.3381 28.1937 16.2981 28.234C16.2181 28.3147 16.2181 28.4357 16.2181 28.5568C16.1781 28.6374 16.1781 28.7181 16.1781 28.7988C16.2581 29.0408 16.378 29.3232 16.618 29.4845C17.098 31.4611 18.298 33.5586 19.058 35.1318V35.1721C18.338 35.1721 17.658 35.1721 16.978 35.2528C17.178 34.9704 17.378 34.6881 17.578 34.4057C17.578 34.3654 17.538 34.3654 17.538 34.3654C17.338 34.6881 17.098 34.9704 16.8981 35.2528C15.8181 35.3738 14.8181 35.6158 13.8181 35.9789C14.4181 35.1318 14.8581 34.1637 15.0181 33.1149C15.0181 33.0746 14.9781 33.0746 14.9781 33.1149C14.7781 34.2444 14.2182 35.2124 13.5382 36.0999C12.7782 36.3822 12.0582 36.7049 11.3383 37.1083C11.1383 36.1805 10.8583 35.0914 10.5783 34.0427ZM7.53841 68.128C1.33866 63.8925 2.05863 54.8569 3.73856 48.4028C3.77856 48.3222 3.77854 48.2415 3.81854 48.1608C4.8185 45.8212 6.25845 43.6027 7.97839 41.7875C11.3783 39.0042 16.1381 37.8344 20.6579 36.947C29.1776 37.7941 37.2572 44.6112 38.6172 53.0821C41.4171 69.8625 18.978 75.9938 7.53841 68.128ZM44.5769 59.8991C44.5769 59.8587 44.537 59.7781 44.497 59.7781C44.377 59.8184 44.297 59.8184 44.217 59.8991C44.137 59.8991 44.057 59.8991 43.977 59.8991C43.937 59.6974 44.017 59.4957 44.177 59.3344C44.377 59.0117 44.537 58.689 44.697 58.3663C45.3369 57.1158 45.8169 55.825 46.3769 54.5342C46.4169 54.4132 46.2569 54.3325 46.1769 54.4535C45.5769 55.8653 45.0569 57.2771 44.377 58.6083C44.177 59.0117 43.697 59.4554 43.697 59.8991C43.537 59.8991 43.377 59.8991 43.217 59.8991C42.217 59.8587 41.2571 59.8184 40.2571 59.8184C40.4571 59.0117 40.6171 58.2049 40.6971 57.3982C41.4171 56.188 42.1371 55.0182 42.737 53.7274C42.777 53.6871 42.6971 53.6468 42.6571 53.6871C42.0571 54.7359 41.3371 55.6637 40.7371 56.7124C40.8171 55.5426 40.7771 54.4132 40.6171 53.2837C41.6571 53.2837 42.697 53.2434 43.697 53.2434C45.8969 53.2434 48.0968 53.2837 50.3367 53.3241C50.2567 55.704 48.7368 57.7209 48.2568 60.0201C47.0569 59.9394 45.8169 59.9394 44.5769 59.8991ZM78.6956 26.8222C78.3756 28.9601 77.4956 31.0173 76.8157 33.0745C76.1757 34.9301 75.6958 36.7856 75.2558 38.6815C72.8159 41.2631 69.936 43.4817 68.256 46.6684C68.216 46.749 68.336 46.7894 68.376 46.749C70.0159 43.6027 72.8158 41.4244 75.2157 38.9235C73.5758 46.1439 72.7759 53.6064 69.496 60.3832C62.7762 60.1411 56.0565 60.1008 49.2968 60.0201C51.4567 58.5276 52.5767 55.9863 54.4566 54.2115C54.0966 55.946 53.5366 57.5999 53.2966 59.3344C53.2966 59.4151 53.2966 59.4957 53.3766 59.5361C53.4566 59.5764 53.5366 59.657 53.6166 59.6974C53.6566 59.7377 53.7366 59.7377 53.8166 59.6974C54.1366 59.536 54.0166 59.173 54.0966 58.8906C54.1366 58.7696 53.9766 58.7293 53.8966 58.81C53.7366 59.052 53.7766 58.9713 53.6566 59.2537C53.8566 58.689 53.8966 58.0032 54.0566 57.4385C54.3366 56.188 54.7366 55.0182 54.9365 53.7274C54.9765 53.5258 54.7765 53.4047 54.6165 53.5258C52.6966 55.0989 51.5767 57.4385 49.8167 59.173C49.5367 59.4151 49.2568 59.6571 48.9368 59.8587C48.8568 59.8991 48.8168 59.9394 48.7768 59.9798C48.6968 59.9798 48.6568 59.9798 48.5768 59.9798C48.4968 59.8184 48.6968 59.3343 48.7368 59.0923C48.8968 58.3662 49.2168 57.6805 49.4568 56.9948C49.9368 55.7847 50.2967 54.6149 50.4167 53.2837C54.3366 53.3644 58.2964 53.3644 62.1363 52.961C62.1363 53.0417 62.1363 53.082 62.1363 53.1627C62.1363 53.203 62.1763 53.1627 62.1763 53.1627C62.1763 53.082 62.2162 53.0417 62.2162 52.961C62.3762 52.961 62.4963 52.9207 62.6563 52.9207C62.8963 52.8804 62.9763 52.6383 62.8563 52.477C62.9763 52.1946 62.9362 51.8316 62.7362 51.5895C63.0162 50.8635 63.2962 50.097 63.5362 49.371C65.0562 45.7809 66.8961 42.3119 67.976 38.6008C68.136 38.0764 68.256 37.552 68.376 37.0277C69.056 35.2528 69.656 33.4376 69.936 31.5821C71.6159 30.3719 73.0558 28.6374 74.4158 27.1449C75.7757 25.6524 77.1757 24.0793 78.0557 22.2238C78.0557 22.1834 78.0156 22.1834 78.0156 22.1834C76.1357 25.8945 72.3759 27.9517 69.9759 31.1384C70.0559 30.372 70.0959 29.6459 70.0159 28.8795C70.0559 28.8391 70.056 28.7585 70.096 28.7181C70.6559 28.5164 70.8959 27.75 70.5759 27.3466C70.5759 27.3063 70.5359 27.2659 70.5359 27.2256C72.4959 25.1684 74.4158 23.1112 76.3357 21.0136C76.4557 20.8926 76.2957 20.7313 76.1757 20.8523C74.0958 22.7885 72.2558 24.9667 70.4159 27.1449H70.3759C70.2959 27.1046 70.216 27.0642 70.096 27.0239C69.976 27.0239 69.896 26.9836 69.776 26.9836C71.0559 25.2087 72.3759 23.5549 74.0558 22.0624C74.2158 21.9414 73.9758 21.7397 73.8558 21.8607C72.2959 23.2322 70.7759 24.8457 69.656 26.6609C69.576 26.5399 69.416 26.4592 69.256 26.5399C68.896 26.6609 68.696 26.7415 68.496 26.8222C68.376 26.8222 68.216 26.7819 68.096 26.7819C68.696 26.1365 69.096 25.1684 69.536 24.402C70.2159 23.2322 70.9359 22.1431 71.9759 21.296C72.0559 21.2556 71.9359 21.0943 71.8559 21.175C70.9359 21.8607 70.2559 22.7481 69.616 23.6759C68.976 24.6037 68.176 25.6928 67.736 26.7416C64.8162 26.3785 61.8563 26.2172 58.9364 26.1768C59.6164 24.281 60.6163 22.7481 61.8563 21.175C62.3763 21.175 62.8962 21.2153 63.4162 21.2153C64.3762 21.2153 65.3361 21.2153 66.2961 21.175L66.2561 21.2153C66.0161 21.6994 65.6961 22.1431 65.4161 22.6271C64.8161 23.5146 64.1362 24.402 63.5762 25.2894C63.4962 25.4508 63.6962 25.5718 63.8162 25.4508C64.6961 24.523 65.3361 23.4339 66.0161 22.3448C66.1761 22.0624 66.5361 21.6187 66.7361 21.1346C68.136 21.0539 69.576 20.9733 70.9759 20.7716C72.5358 20.5699 74.2958 20.4086 75.8957 19.8842C78.6956 20.4086 79.0556 24.402 78.6956 26.8222Z" fill="#E12855"/>
<path d="M12.1377 22.6672C11.8177 23.111 11.4977 23.5143 11.1777 23.958C11.5377 23.5143 11.8577 23.111 12.1377 22.6672Z" fill="#E12855"/>
<path d="M12.4587 22.1433C12.3387 22.3047 12.2587 22.466 12.1387 22.6274C12.2587 22.5064 12.3787 22.345 12.4587 22.1433C12.4987 22.1433 12.5387 22.1433 12.4587 22.1433Z" fill="#E12855"/>
<path d="M9.49822 26.8628C9.9382 25.8544 10.5382 24.8863 11.1781 23.9585C10.4982 24.8459 9.81821 25.7334 9.29823 26.7821C9.25823 26.9031 9.45822 26.9838 9.49822 26.8628Z" fill="#E12855"/>
<path d="M16.0977 29.9284C16.0977 29.8881 16.0577 29.8881 16.0977 29.9284C14.5378 31.8243 12.6179 33.3975 11.3779 35.5354C11.2979 35.6967 11.4979 35.7774 11.5779 35.6564C12.9378 33.6798 14.4578 31.7033 16.0977 29.9284Z" fill="#E12855"/>
<path d="M58.5765 53.6872C58.3765 55.1797 58.0166 56.5915 57.9766 58.084C57.9766 58.205 58.1766 58.205 58.1766 58.084C58.1766 56.6318 58.2965 55.1394 58.6165 53.6872C58.6165 53.6469 58.5765 53.6469 58.5765 53.6872Z" fill="#E12855"/>
<path d="M77.2575 30.1701C75.8176 31.6223 74.2576 32.8728 72.6577 34.1232C71.8577 34.7283 71.0577 35.293 70.2177 35.8577C69.7378 36.1804 68.5378 37.3906 69.3378 35.9787C71.2177 32.7114 74.0976 30.2105 76.4975 27.3465C76.4975 27.3061 76.4975 27.3062 76.4575 27.3062C73.6576 30.4928 70.2577 33.1954 68.4178 37.0678C68.3778 37.1889 68.4978 37.3502 68.6178 37.2695C70.2577 36.1804 71.8177 35.0106 73.3376 33.7602C74.3376 32.9534 75.2575 32.1063 76.1775 31.2189C77.6975 29.7667 75.6175 32.066 75.3775 32.3484C72.2577 35.8981 69.0578 39.4075 67.1779 43.8043C67.1379 43.9253 67.2579 44.0462 67.3379 43.9252C67.9378 43.4008 68.5378 42.9168 69.0978 42.3521C69.1778 42.2714 69.0578 42.1504 68.9778 42.2311C68.5378 42.6345 68.0578 42.9975 67.5779 43.3605C67.7378 43.2395 68.1379 42.1907 68.2579 41.9891C68.9378 40.6983 69.8178 39.4881 70.6977 38.278C72.8177 35.4947 75.1376 32.9131 77.2575 30.1701C77.2975 30.1701 77.2975 30.1701 77.2575 30.1701Z" fill="#E12855"/>
<path d="M66.1361 52.0736C66.0961 52.1946 66.2961 52.3156 66.3761 52.2349C67.016 51.5088 67.456 50.6617 68.136 49.976C68.816 49.2499 69.6159 48.6045 70.4159 47.9994C71.8558 46.8296 73.2158 45.6195 74.0158 43.9253C74.0558 43.8447 73.9358 43.8043 73.8958 43.8447C72.8958 45.7809 71.1359 46.991 69.496 48.2818C68.256 49.2096 66.4561 50.4601 66.1361 52.0736Z" fill="#E12855"/>
<path d="M72.375 47.9592C71.2151 49.7744 69.4551 51.2265 67.9752 52.84C68.2552 52.0333 68.4552 51.1862 68.4952 50.2988C68.4952 50.0971 68.2552 50.0567 68.1752 50.2181C66.8152 52.4367 65.6953 54.7763 64.1753 56.9142C63.6954 57.5596 63.1754 58.1646 62.5754 58.7294C61.2155 60.0202 62.1355 57.8016 62.2555 57.1159C62.6154 55.6234 63.0154 54.1712 63.2154 52.6383C63.2154 52.598 63.1354 52.598 63.1354 52.6383C62.7754 55.0183 61.8555 57.2369 61.4555 59.5764C61.4155 59.7378 61.5755 59.8588 61.6955 59.7781C64.4954 58.1646 65.9753 54.7763 67.4552 52.0737C67.6152 51.7913 67.7752 51.5089 67.9352 51.2265C68.5352 50.1778 67.9352 51.6299 67.8952 51.872C67.7752 52.3964 67.6152 52.9207 67.4152 53.4451C66.6152 54.3729 65.9753 55.3813 65.5753 56.5511C65.5353 56.6721 65.7353 56.7931 65.8153 56.6318C66.1353 56.0267 66.4553 55.462 66.8553 54.9376C66.8553 54.978 66.8152 55.0183 66.8152 55.0586C66.2553 56.5511 65.7353 58.0839 66.1353 59.6974C66.1753 59.8588 66.4153 59.7781 66.3753 59.6168C66.0553 57.6806 66.8153 55.9057 67.4952 54.0905C69.1352 52.0737 71.0951 50.3391 72.4551 48.0399C72.4951 47.9592 72.415 47.8785 72.375 47.9592Z" fill="#E12855"/>
<path d="M70.0558 55.7041C69.0558 56.9142 67.9358 58.0436 66.9359 59.2941C66.8159 59.4151 67.0159 59.6168 67.0959 59.4554C68.0558 58.205 69.1358 57.0352 70.1357 55.7847C70.2157 55.7041 70.1358 55.6234 70.0558 55.7041Z" fill="#E12855"/>
<path d="M64.5751 51.4281C65.775 50.46 66.815 49.1692 67.895 48.0398C67.975 47.9591 67.8549 47.7978 67.7349 47.8784C66.615 48.9675 65.335 49.976 64.3751 51.2264C64.2951 51.3878 64.4151 51.5491 64.5751 51.4281Z" fill="#E12855"/>
<path d="M28.4574 25.3297C29.8173 24.0389 30.2973 22.143 31.9772 21.1749C32.0172 21.1346 31.9772 21.0942 31.9372 21.0942C31.1373 21.4976 30.5373 22.143 30.0173 22.8288C29.4173 23.5952 28.7774 24.3616 28.2974 25.2087C28.2174 25.3297 28.3374 25.4104 28.4574 25.3297Z" fill="#E12855"/>
<path d="M40.0183 25.8136C40.6982 24.1194 41.6982 22.5866 42.7382 21.1344C42.7782 21.0941 42.6982 21.0538 42.6582 21.0941C41.4982 22.5059 40.2983 23.9581 39.7383 25.7329C39.7383 25.8943 39.9383 25.9749 40.0183 25.8136Z" fill="#E12855"/>
<path d="M46.656 25.7734C46.896 23.9582 48.456 22.4254 49.6559 21.1749C49.6959 21.1346 49.6159 21.0136 49.5759 21.0943C48.8159 21.8607 48.0959 22.6674 47.416 23.5145C46.936 24.1599 46.416 24.9667 46.416 25.7734C46.416 25.9348 46.656 25.9348 46.656 25.7734Z" fill="#E12855"/>
<path d="M51.416 24.2811C51.936 23.4743 52.416 22.6272 52.736 21.6995C52.376 22.6272 51.896 23.4743 51.416 24.2811Z" fill="#E12855"/>
<path d="M52.9363 21.1347C52.8963 21.3364 52.8163 21.5381 52.7363 21.6995C52.8163 21.4978 52.8963 21.3364 52.9763 21.1347C52.9763 21.0944 52.9363 21.0944 52.9363 21.1347Z" fill="#E12855"/>
<path d="M55.1366 25.854C55.8566 24.1598 56.9766 22.627 58.6565 21.7396C58.7365 21.6992 58.6565 21.5379 58.5765 21.5782C56.8966 22.4656 55.6966 23.9985 54.8967 25.6927C54.7767 25.8944 55.0566 26.0154 55.1366 25.854Z" fill="#E12855"/>
<path d="M28.6179 44.2483C25.218 41.7473 21.0182 41.2633 16.9383 41.9087C13.1385 42.5541 10.6986 45.2163 9.49864 48.7661C8.65867 51.267 8.29867 55.1798 9.57862 57.8017C10.4186 60.9884 12.4585 63.7717 15.2984 65.5869C23.0181 70.5081 32.3377 62.8843 33.3377 54.8974C33.7777 50.9443 31.8177 46.5878 28.6179 44.2483ZM16.6984 64.3364C14.1785 63.0859 12.3785 60.8673 11.4586 58.2857C10.4186 53.2435 10.1786 46.3055 15.9384 44.3289C22.7381 41.9893 30.4978 45.7407 31.2578 53.2435C32.0178 60.585 23.5381 67.6844 16.6984 64.3364Z" fill="#E12855"/>
<path d="M24.4184 50.9844C24.2984 50.7424 24.0184 50.581 23.7384 50.6617C23.6184 50.7021 23.4984 50.7827 23.3784 50.823C23.2184 50.823 23.0984 50.7827 22.9384 50.7827C22.7385 49.3305 22.4985 47.8784 22.1785 46.4666C21.8185 44.8934 19.9786 44.8934 19.0586 46.0632C18.0987 47.354 17.8986 49.2096 17.8186 50.9037C15.6987 51.1861 13.9388 51.7105 13.2588 52.3962C13.2188 52.4365 13.2588 52.5172 13.2988 52.5172C13.0588 52.7593 12.9388 53.082 13.0188 53.4853C13.3788 55.7846 15.6587 56.7123 17.8186 57.035C17.8986 58.0838 18.0986 59.1326 18.5386 60.0604C19.2186 61.5125 21.0985 61.7949 22.2185 60.7461C23.0984 59.9394 23.3384 58.4872 23.3784 57.035C25.2183 56.7123 27.0583 56.0266 27.8182 54.5744C28.8982 52.5576 27.0983 51.4281 24.4184 50.9844ZM17.4186 52.1139C17.4586 52.0735 17.4987 52.0735 17.5387 52.0735C17.4987 52.1139 17.4187 52.1945 17.3787 52.2348C17.3387 52.2348 17.3387 52.2348 17.2987 52.2348C17.3387 52.1945 17.3786 52.1542 17.4186 52.1139ZM25.2584 52.7996C25.6184 52.9206 25.9383 53.0819 26.1383 53.2433C25.9383 53.1223 25.6984 53.082 25.4584 53.1626C25.3784 53.203 25.2983 53.2433 25.1784 53.2837C25.2583 53.1223 25.2984 52.9609 25.2584 52.7996ZM20.6586 46.7893C20.6986 46.8699 20.7385 46.991 20.7785 47.1523C20.7785 47.1926 20.8185 47.2733 20.8185 47.354C20.4985 47.475 20.1786 47.6364 19.8986 47.8381C19.8586 47.8381 19.8585 47.8381 19.8186 47.8784C19.9385 47.5557 20.0586 47.2734 20.2586 47.0313C20.3786 46.87 20.4986 46.7893 20.6586 46.7893ZM15.7787 52.1542C15.4587 52.5172 15.3788 52.6383 15.0588 53.082C15.0588 53.082 15.0187 53.0819 15.0187 53.0416C15.1387 52.7189 15.0588 52.3962 14.6988 52.2752H14.6588C15.0188 52.2349 15.3787 52.1945 15.7787 52.1542Z" fill="#E12855"/>
</svg>
