<svg width="48" height="48" viewBox="0 0 48 48" fill="none" xmlns="http://www.w3.org/2000/svg">
<path fill-rule="evenodd" clip-rule="evenodd" d="M34.4998 33H35.2498C37.6552 32.9847 39.97 32.0808 41.7493 30.4621C43.5286 28.8434 44.6467 26.624 44.8886 24.2308C45.1305 21.8375 44.4792 19.4393 43.0599 17.4972C41.6406 15.5552 39.5535 14.2063 37.1998 13.71C36.5522 10.6897 34.8885 7.98293 32.4863 6.04117C30.0841 4.09941 27.0886 3.04016 23.9998 3.04016C20.9109 3.04016 17.9155 4.09941 15.5133 6.04117C13.111 7.98293 11.4473 10.6897 10.7998 13.71C8.44611 14.2063 6.35898 15.5552 4.93967 17.4972C3.52035 19.4393 2.86905 21.8375 3.11098 24.2308C3.35291 26.624 4.47099 28.8434 6.25027 30.4621C8.02954 32.0808 10.3444 32.9847 12.7498 33H13.4998V30H12.7498C10.9596 30.0716 9.21424 29.4291 7.89774 28.2139C6.58123 26.9986 5.8014 25.3102 5.72979 23.52C5.65818 21.7298 6.30066 19.9844 7.5159 18.6679C8.73113 17.3514 10.4196 16.5716 12.2098 16.5H13.4998L13.5298 15.27C13.8626 12.7446 15.102 10.4264 17.0171 8.74704C18.9323 7.0677 21.3926 6.14179 23.9398 6.14179C26.4869 6.14179 28.9473 7.0677 30.8624 8.74704C32.7776 10.4264 34.017 12.7446 34.3498 15.27L34.4998 16.5H35.7898C37.58 16.5716 39.2684 17.3514 40.4837 18.6679C41.6989 19.9844 42.3414 21.7298 42.2698 23.52C42.1982 25.3102 41.4183 26.9986 40.1018 28.2139C38.7853 29.4291 37.04 30.0716 35.2498 30H34.4998V33ZM18.6148 29.115L16.4998 27L23.9998 19.5L31.4998 27L29.3848 29.115L25.4998 25.245V43.5H22.4998V25.245L18.6148 29.115Z" fill="#552DA9"/>
</svg>
