<svg height="50px" width="50px" version="1.1" id="Layer_1" xmlns="http://www.w3.org/2000/svg" xmlns:xlink="http://www.w3.org/1999/xlink" x="0px" y="0px" viewBox="0 0 512 512" style="enable-background:new 0 0 512 512;" xml:space="preserve">
              <g>
                <g>
                  <path d="M464.14,110.61H260.466c-4.142,0-7.5,3.358-7.5,7.5v174.922c0,4.142,3.358,7.5,7.5,7.5H464.14c4.142,0,7.5-3.358,7.5-7.5
                           V118.11C471.64,113.968,468.282,110.61,464.14,110.61z M456.64,285.532H267.966V125.61H456.64V285.532z"></path>
                </g>
              </g>
              <g>
                <g>
                  <path d="M362.304,138.188c-37.155,0-67.383,30.228-67.383,67.383c0,37.155,30.228,67.383,67.383,67.383
                           c37.155,0,67.383-30.228,67.383-67.383C429.687,168.416,399.458,138.188,362.304,138.188z M362.304,257.955
                           c-28.884,0-52.383-23.499-52.383-52.383c0-28.884,23.499-52.383,52.383-52.383c28.884,0,52.383,23.499,52.383,52.383
                           C414.687,234.456,391.188,257.955,362.304,257.955z"></path>
                </g>
              </g>
              <g>
                <g>
                  <path d="M362.304,177.931c-15.241,0-27.64,12.399-27.64,27.64c0,15.241,12.399,27.64,27.64,27.64
                           c15.24,0,27.64-12.399,27.64-27.64C389.944,190.33,377.545,177.931,362.304,177.931z M362.304,218.212
                           c-6.97,0-12.64-5.67-12.64-12.64c0-6.97,5.67-12.64,12.64-12.64c6.969,0,12.64,5.67,12.64,12.64
                           C374.944,212.542,369.274,218.212,362.304,218.212z"></path>
                </g>
              </g>
              <g>
                <g>
                  <path d="M182.498,132.219H45.11c-4.142,0-7.5,3.358-7.5,7.5v141.284c0,4.142,3.358,7.5,7.5,7.5h137.388c4.142,0,7.5-3.358,7.5-7.5
                           V139.719C189.998,135.577,186.64,132.219,182.498,132.219z M174.998,273.503H52.61V147.219h122.388V273.503z"></path>
                </g>
              </g>
              <g>
                <g>
                  <path d="M74.49,162.38c-4.142,0-7.5,3.358-7.5,7.5v26.696c0,4.142,3.358,7.5,7.5,7.5c4.142,0,7.5-3.358,7.5-7.5V169.88
                           C81.99,165.738,78.632,162.38,74.49,162.38z"></path>
                </g>
              </g>
              <g>
                <g>
                  <path d="M74.49,216.646c-4.142,0-7.5,3.358-7.5,7.5v26.696c0,4.142,3.358,7.5,7.5,7.5c4.142,0,7.5-3.358,7.5-7.5v-26.696
                           C81.99,220.003,78.632,216.646,74.49,216.646z"></path>
                </g>
              </g>
              <g>
                <g>
                  <path d="M113.804,305.97c-24.959,0-45.265,20.306-45.265,45.265S88.845,396.5,113.804,396.5s45.265-20.306,45.265-45.265
                           S138.763,305.97,113.804,305.97z M113.804,381.5c-16.688,0-30.265-13.577-30.265-30.265c0-16.688,13.577-30.265,30.265-30.265
                           s30.265,13.577,30.265,30.265C144.069,367.923,130.492,381.5,113.804,381.5z"></path>
                </g>
              </g>
              <g>
                <g>
                  <path d="M432.492,371.282H326.315c-4.142,0-7.5,3.357-7.5,7.5c0,4.142,3.358,7.5,7.5,7.5h106.177c4.142,0,7.5-3.358,7.5-7.5
                           C439.992,374.639,436.634,371.282,432.492,371.282z"></path>
                </g>
              </g>
              <g>
                <g>
                  <path d="M475.083,70.251H314.12c-4.142,0-7.5,3.358-7.5,7.5c0,4.142,3.358,7.5,7.5,7.5h160.963
                           c12.085,0,21.917,9.832,21.917,21.917v196.806c0,12.085-9.832,21.917-21.917,21.917H249.524c-12.085,0-21.917-9.832-21.917-21.917
                           V107.168c0-12.085,9.832-21.917,21.917-21.917h34.596c4.142,0,7.5-3.358,7.5-7.5c0-4.142-3.358-7.5-7.5-7.5h-34.596
                           c-17.787,0-32.675,12.645-36.15,29.417h-53.699v-9.802c0-15.105-12.289-27.395-27.395-27.395H85.703
                           c-15.105,0-27.395,12.289-27.395,27.395v9.802h-24.83C15.018,99.668,0,114.687,0,133.146v282.905
                           c0,18.459,15.018,33.478,33.478,33.478h415.627v-0.001c18.459,0,33.478-15.018,33.478-33.478v-75.927
                           C499.355,336.648,512,321.76,512,303.973V107.168C512,86.812,495.439,70.251,475.083,70.251z M73.309,89.866
                           c0-6.834,5.56-12.395,12.395-12.395h46.578c6.834,0,12.395,5.56,12.395,12.395v9.802H73.309V89.866z M467.584,416.05
                           c0,10.188-8.289,18.478-18.478,18.478H33.478c-10.189,0-18.478-8.289-18.478-18.477V133.146c0-10.188,8.289-18.478,18.478-18.478
                           h32.331h86.367h60.432v189.306c0,1.272,0.065,2.53,0.191,3.769c0.316,3.099,1.016,6.085,2.053,8.911
                           c0.208,0.565,0.428,1.124,0.662,1.676c3.741,8.831,10.825,15.915,19.655,19.656c1.104,0.468,2.235,0.883,3.39,1.243
                           c1.155,0.36,2.335,0.665,3.535,0.911c2.401,0.493,4.886,0.751,7.431,0.751h218.059V416.05z"></path>
                </g>
              </g>
            </svg>