<svg width="991" height="522" viewBox="0 0 991 522" fill="none" xmlns="http://www.w3.org/2000/svg">
<mask id="mask0" mask-type="alpha" maskUnits="userSpaceOnUse" x="0" y="0" width="991" height="522">
<rect width="991" height="522" fill="#E8EBED"/>
<rect width="991" height="522" fill="url(#paint0_linear)"/>
<rect width="991" height="522" fill="url(#paint1_linear)"/>
</mask>
<g mask="url(#mask0)">
<path opacity="0.22" d="M991 47C981.385 50.2752 972.39 58.8648 966.301 72.2435C961.579 82.5633 956.921 96.6527 949.358 96.0039C946.26 95.7567 943.397 92.8523 940.32 92.6669C929.359 92.049 923.483 123.905 912.822 119.424C913.954 114.203 910.536 108.765 907.331 109.074C904.147 109.383 901.498 113.368 899.254 117.354C892.268 129.837 886.627 144.637 882.76 160.735C878.999 142.134 864.492 136.264 854.022 143.71C843.532 151.187 836.246 167.687 829.452 183.475C817.102 212.241 804.752 240.976 792.403 269.742C782.66 292.39 767.832 317.85 752.747 307.283C745.504 302.216 740.398 289.486 732.792 286.489C724.95 283.368 716.618 291.587 708.84 287.972C697.174 282.565 690.935 252.872 678.992 255.869C672.283 257.537 666.301 269.927 659.998 265.571C656.75 263.315 654.763 257.043 651.43 255.189C647.926 253.243 644.315 256.796 640.79 258.681C624.936 267.116 610.471 241.965 595.237 230.625C568.807 210.944 537.784 234.704 516.909 269.093C510.286 280.031 504.068 292.266 495.992 299.651C489.091 305.954 481.249 308.302 473.558 310.589C453.388 316.552 443.219 322.515 423.049 328.479C390.979 337.964 388.524 347.635 358.697 370.314C344.531 381.067 330.964 394.754 316.029 401.737C292.847 412.551 288.361 406.372 264.367 405.352C240.373 404.333 214.328 410.111 197 439H991V47Z" fill="url(#paint2_linear)"/>
<path d="M990.98 212.111C989.863 210.916 988.746 209.702 987.629 208.506C976.691 197.036 963.364 185.276 947.534 185.796C931.531 186.336 917.742 199.523 901.719 199.041C887.141 198.597 874.508 186.837 859.929 187.262C848.74 187.589 839.188 194.992 830.407 201.913C765.026 253.541 615.737 329.343 541.055 366.242L990.98 566.428V212.111V212.111Z" fill="url(#paint3_linear)"/>
<path d="M920.881 455.597C905.898 446.729 887.718 442.545 871.638 435.143C843.521 422.207 822.164 399.69 794.991 386.272C794.721 384.325 794.452 382.378 794.201 380.431C793.123 381.742 792.487 383.265 792.102 384.884C787.345 382.686 782.396 380.778 777.196 379.255C777.062 378.58 776.888 377.924 776.599 377.288C775.405 374.589 771.92 372.642 769.435 374.242C768.357 365.201 767.259 356.14 766.181 347.098C763.639 353.672 761.867 360.555 760.923 367.533C760.172 365.625 759.421 363.716 758.69 361.808C757.65 365.239 757.284 368.864 757.611 372.43C757.707 373.394 757.823 374.397 757.861 375.38C754.953 375.033 752.026 374.744 749.08 374.493C748.56 371.196 748.04 367.88 747.501 364.584C747.347 363.601 747.135 362.54 746.364 361.904C744.67 360.516 742.301 362.425 740.972 364.16C740.837 357.393 739.874 350.646 738.141 344.091C735.599 352.901 733.076 361.711 730.534 370.522C728.011 365.066 726.086 359.359 724.776 353.499C723.909 353.846 723.043 354.212 722.196 354.559C721.945 347.6 720.751 340.659 718.652 334.028C716.842 337.498 715.263 341.084 713.915 344.766C713.761 332.312 713.606 319.858 713.452 307.404C710.525 308.677 709.755 312.397 709.37 315.578C708.233 324.986 707.097 334.375 705.961 343.783C705.46 338.346 704.96 332.89 704.459 327.454C703.689 334.857 702.918 342.26 702.129 349.662C701.898 351.957 700.55 355.041 698.354 354.308C697.95 348.911 697.565 343.493 697.16 338.095C695.523 344.708 694.965 351.61 695.504 358.395C695.754 361.499 696.236 364.7 695.369 367.707C695.196 368.343 694.907 368.96 694.579 369.538C692.808 369.249 691.017 368.979 689.245 368.671C689.958 360.632 689.572 352.496 688.07 344.554C687.396 352.381 686.703 360.208 686.029 368.035C684.796 367.803 683.583 367.572 682.351 367.321C681.561 365.047 680.425 362.887 678.942 360.979C678.807 362.83 678.615 364.68 678.403 366.531C672.953 365.374 667.541 364.083 662.149 362.695C661.302 358.511 660.82 354.251 660.801 349.971C660.782 346.327 660.955 342.317 658.625 339.522C657.142 345.826 655.64 352.13 654.157 358.453C652.27 355.581 650.382 352.728 648.495 349.855C647.86 351.61 646.935 353.248 645.741 354.694C642.698 344.322 641.35 333.449 641.774 322.653C641.832 321.265 641.889 319.8 641.235 318.586C640.58 317.371 638.885 316.6 637.749 317.41C637.056 317.911 636.805 318.798 636.632 319.627C635.438 325.295 635.515 331.984 631.067 335.686C629.988 331.464 628.64 327.3 627.042 323.232C622.882 323.907 626.406 333.141 622.208 333.661C621.399 333.758 620.629 333.411 619.858 333.179C616.257 332.177 612.078 334.741 611.327 338.423C610.576 335.377 609.575 332.389 608.284 329.517C606.339 331.194 605.646 333.835 604.567 336.168C603.489 338.5 601.486 340.852 598.925 340.679C596.652 340.524 594.958 338.327 594.515 336.071C594.072 333.816 594.496 331.521 594.727 329.247C595.247 323.849 594.438 318.335 592.377 313.323C590.682 320.032 588.969 326.74 587.274 333.43C587.023 334.394 586.446 335.551 585.656 335.936C585.021 335.666 584.404 335.396 583.788 335.127C583.634 334.857 583.518 334.548 583.422 334.259C582.536 331.637 581.631 329.035 580.745 326.413C578.088 326.875 575.738 328.668 574.429 331.02C571.675 329.786 568.921 328.553 566.186 327.319C565.416 324.928 565.994 321.767 565.762 319.087C565.493 315.925 563.856 313.072 562.258 310.335C562.161 315.096 561.218 319.839 559.504 324.254C537.068 313.882 513.535 303.009 488.018 303.587C431.611 304.86 393.923 360.131 337.67 363.716C325.23 364.507 312.693 362.637 300.271 363.639C298.654 363.774 297.036 363.948 295.438 364.179C295.283 362.733 295.129 361.307 294.975 359.861C294.629 361.345 294.398 362.868 294.244 364.372C292.992 364.565 291.759 364.757 290.527 365.008C290.623 362.232 290.276 359.437 289.448 356.718C289.217 359.34 288.967 361.962 288.736 364.584C287.407 364.931 286.598 363.446 286.444 362.328C285.982 358.742 285.5 355.137 285.038 351.552C284.73 354.193 284.441 356.834 284.133 359.475C283.44 354.906 282.746 350.356 282.072 345.787C281.841 344.245 281.379 342.433 279.588 341.816C279.492 347.85 279.396 353.904 279.299 359.938C278.471 358.145 277.508 356.41 276.411 354.733C275.12 357.952 274.408 361.307 274.254 364.7C273.734 364.526 273.214 364.353 272.674 364.179C271.943 366.782 270.883 369.307 269.535 371.755C269.362 371.832 269.17 371.91 268.996 371.987C267.513 367.861 266.03 363.755 264.548 359.629C263.488 362.81 262.911 366.088 262.814 369.365C262.006 368.517 260.561 367.591 259.54 368.266C259.078 368.574 258.944 369.095 258.847 369.558C258.308 372.237 257.788 374.917 257.249 377.597C256.883 377.25 256.498 376.883 256.132 376.536C255.804 377.577 253.686 377.423 252.993 376.498C252.319 375.573 252.569 374.435 252.704 373.375C252.916 371.64 252.685 369.885 252.049 368.227C251.587 369.153 251.144 370.078 250.682 371.004C250.104 367.611 249.026 364.275 247.485 361.094C246.83 365.49 246.156 369.866 245.501 374.262C243.999 373.49 241.881 374.416 241.149 375.727C240.417 377.038 240.648 378.541 240.764 379.968C240.976 382.86 240.571 385.79 239.647 388.585C239.243 388.855 238.838 389.125 238.434 389.395C237.779 388.2 236.932 387.082 235.911 386.079C235.314 386.735 234.717 387.39 234.101 388.046C230.769 385.308 233.504 380.18 230.461 377.25C229.922 380.431 229.363 383.612 228.824 386.793C227.052 386.233 225.589 385.115 224.799 383.727C224.433 385.231 222.411 394.35 220.447 401.521C214.881 405.28 209.335 409.04 203.769 412.818C202.363 405.859 201.323 399.593 201.285 397.049C199.687 399.786 201.285 411.083 196.085 414.553C195.392 415.016 195.392 416.404 195.719 418.274C193.755 419.604 191.791 420.934 189.826 422.265C187.939 414.958 185.859 408.519 184.299 408.23C183.413 410.852 182.258 425.368 181.353 427.99C180.255 428.723 179.157 429.475 178.079 430.207C176.423 421.821 174.593 412.298 173.573 408.23C171.974 412.144 172.456 425.446 172.976 433.658C169.317 436.145 165.638 438.613 161.979 441.1C160.728 436.723 159.11 431.075 157.82 429.957C156.549 432.829 156.106 440.849 155.355 443.914C154.603 440.251 151.83 442.006 148.229 443.008C147.459 443.22 146.669 443.587 145.88 443.49C141.681 442.97 145.225 433.735 141.046 433.061C139.447 437.128 138.099 441.292 137.021 445.514C132.572 441.813 132.649 435.143 131.455 429.455C131.282 428.626 131.032 427.74 130.338 427.238C129.221 426.429 127.527 427.2 126.853 428.414C126.179 429.629 126.256 431.094 126.313 432.482C126.737 443.278 125.389 454.151 122.346 464.523C121.152 463.077 120.228 461.438 119.592 459.684C117.705 462.556 115.818 465.41 113.931 468.282C112.448 461.978 110.946 455.674 109.463 449.351C107.132 452.146 107.306 456.156 107.286 459.8C107.248 466.277 106.266 472.774 104.34 478.962C72.3524 498.395 38.3042 514.955 0 521.895L125.562 666.483L941.448 494.848C947.418 480.408 935.863 464.465 920.881 455.597Z" fill="url(#paint4_linear)"/>
<path d="M15.252 690.504C56.156 666.849 79.0153 723.18 119.919 699.526C174.94 667.697 229.979 635.869 284.999 604.04C300.271 595.191 315.889 586.227 333.144 582.545C346.991 579.576 361.434 580.116 375.242 576.896C404.361 570.091 426.873 547.709 452.525 532.325C482.991 514.068 519.177 505.547 554.593 508.285C574.717 509.846 598.771 513.47 611.654 497.932C616.122 492.534 618.317 485.613 622.342 479.849C648.013 443.105 717.073 480.408 746.961 447.018C760.288 432.135 764.524 404.567 784.456 403.468C792.044 403.063 799.709 407.285 807.027 405.184C817.523 402.177 820.315 388.99 826.227 379.794C839.573 359.032 869.076 359.07 892.571 351.571C918.647 343.243 939.599 323.772 964.288 311.896C988.958 300.04 991.037 301.062 991.018 307.905C989.439 312.995 990.633 335.011 990.691 343.782L989.304 720.539" fill="url(#paint5_linear)"/>
<path d="M915.524 112.012C915.541 112.494 915.559 113.011 915.809 113.421C916.058 113.849 916.593 114.134 917.038 113.92C917.394 113.76 917.573 113.35 917.911 113.189C918.232 113.029 918.606 113.118 918.944 113.207C921.813 113.974 924.521 115.276 926.909 117.024C925.644 115.347 924.307 113.617 922.419 112.69C921.403 112.19 920.245 111.941 919.105 111.905C918.944 111.905 918.749 111.905 918.624 111.798C918.071 111.423 918.855 110.3 918.303 109.943C917.875 109.676 917.377 110.3 916.878 110.264C916.7 110.264 916.557 110.175 916.414 110.068C916.022 109.729 915.898 109.194 915.755 108.695C914.9 105.877 912.53 103.576 909.68 102.809C910.446 105.092 911.711 107.214 913.368 108.98C914.009 109.676 914.74 110.371 914.918 111.299C914.989 111.637 914.971 111.994 915.06 112.333C915.15 112.672 915.381 113.011 915.72 113.064" fill="#17072B"/>
<path d="M673.213 96.6555C673.677 96.816 674.158 96.9765 674.621 96.9052C675.102 96.8338 675.565 96.4414 675.53 95.942C675.512 95.5675 675.191 95.2464 675.155 94.8541C675.12 94.4973 675.334 94.1763 675.547 93.8909C677.293 91.5009 679.503 89.432 681.997 87.8446C679.984 88.4153 677.881 89.0396 676.331 90.4665C675.494 91.2334 674.853 92.2144 674.407 93.2667C674.336 93.4272 674.265 93.5877 674.14 93.6769C673.588 94.0515 672.839 92.91 672.305 93.3024C671.895 93.6056 672.305 94.2833 672.091 94.747C672.02 94.9076 671.877 95.0146 671.735 95.1038C671.289 95.3356 670.737 95.2643 670.22 95.2286C667.28 94.9967 664.269 96.3879 662.541 98.7601C664.946 98.8671 667.387 98.4569 669.614 97.5651C670.487 97.2084 671.414 96.7803 672.34 96.9587C672.679 97.0122 673 97.1727 673.356 97.2084C673.712 97.244 674.104 97.1549 674.282 96.8517" fill="#17072B"/>
<path d="M749.667 155.281C750.326 155.692 751.021 156.138 751.805 156.191C752.589 156.245 753.462 155.781 753.586 154.996C753.675 154.39 753.301 153.765 753.373 153.159C753.444 152.588 753.889 152.16 754.317 151.786C757.916 148.629 762.121 146.15 766.61 144.509C763.225 144.705 759.697 144.955 756.74 146.649C755.136 147.576 753.782 148.896 752.713 150.394C752.553 150.608 752.393 150.858 752.143 150.947C751.128 151.34 750.361 149.271 749.364 149.717C748.615 150.038 749.007 151.268 748.508 151.928C748.348 152.142 748.081 152.285 747.814 152.356C747.012 152.57 746.174 152.249 745.373 152.018C740.812 150.626 735.573 151.75 731.992 154.889C735.752 155.906 739.743 156.12 743.591 155.495C745.105 155.246 746.709 154.889 748.099 155.495C748.615 155.71 749.079 156.048 749.613 156.245C750.148 156.441 750.807 156.423 751.181 156.013" fill="#17072B"/>
<path d="M669.527 241.196C669.634 242.248 669.776 243.354 670.382 244.228C670.988 245.102 672.217 245.637 673.144 245.12C673.874 244.71 674.195 243.782 674.925 243.354C675.585 242.962 676.422 243.069 677.188 243.212C683.567 244.389 689.713 246.761 695.237 250.168C692.172 246.743 688.947 243.194 684.689 241.482C682.373 240.554 679.825 240.233 677.331 240.358C676.956 240.376 676.564 240.394 676.244 240.215C674.979 239.484 676.511 236.916 675.21 236.22C674.23 235.703 673.251 237.147 672.146 237.183C671.772 237.201 671.415 237.04 671.112 236.809C670.204 236.149 669.847 234.989 669.438 233.937C667.086 227.926 661.491 223.307 655.148 222.148C657.233 226.999 660.351 231.422 664.253 234.989C665.785 236.381 667.496 237.79 668.048 239.787C668.244 240.518 668.28 241.303 668.529 242.017C668.778 242.73 669.349 243.426 670.115 243.497" fill="#17072B"/>
<path d="M824.89 25.1699C824.587 24.5992 824.142 24.1176 823.589 23.7788C823.375 23.6361 823.144 23.5291 822.894 23.4755C822.538 23.3864 822.164 23.3864 821.79 23.4042C821.166 23.422 820.543 23.4399 819.955 23.2259C818.85 22.8513 818.137 21.7812 817.246 21.0142C816.195 20.1046 814.859 19.623 813.63 18.9988C812.347 18.3389 811.135 17.5184 810.048 16.5553C810.298 18.3924 811.26 20.1403 812.792 21.1926C813.63 21.7633 814.592 22.1022 815.429 22.6729C815.875 22.9761 816.302 23.3685 816.498 23.8858C815.821 23.9214 815.144 23.9393 814.485 23.9749C812.276 24.0641 810.066 24.1533 807.893 24.5814C807.928 25.1164 808.552 25.4018 809.086 25.5088C811.189 25.9547 813.362 25.5802 815.518 25.3661C818.511 25.0629 821.523 25.0273 824.516 25.2948" fill="#17072B"/>
<path d="M586 136.732C586.499 136.322 587.105 136.055 587.746 135.948C587.995 135.912 588.263 135.894 588.512 135.93C588.886 135.983 589.225 136.144 589.563 136.286C590.134 136.536 590.704 136.804 591.309 136.839C592.485 136.911 593.537 136.215 594.659 135.841C595.977 135.413 597.385 135.484 598.775 135.395C600.218 135.288 601.643 135.002 603.015 134.539C602.071 136.126 600.503 137.374 598.686 137.731C597.706 137.927 596.672 137.874 595.692 138.07C595.158 138.177 594.623 138.373 594.231 138.766C594.837 139.051 595.443 139.336 596.067 139.622C598.062 140.567 600.075 141.512 601.91 142.761C601.661 143.242 600.984 143.26 600.449 143.153C598.329 142.743 596.476 141.548 594.588 140.514C591.951 139.069 589.189 137.874 586.321 136.946" fill="#17072B"/>
</g>
<defs>
<linearGradient id="paint0_linear" x1="495.5" y1="0" x2="495.5" y2="522" gradientUnits="userSpaceOnUse">
<stop stop-color="#E8EBED"/>
<stop offset="1" stop-color="#CFD4D8"/>
</linearGradient>
<linearGradient id="paint1_linear" x1="495.5" y1="0" x2="495.5" y2="522" gradientUnits="userSpaceOnUse">
<stop offset="0.4375" stop-color="white" stop-opacity="0.8"/>
<stop offset="1" stop-color="white" stop-opacity="0.24"/>
</linearGradient>
<linearGradient id="paint2_linear" x1="136.998" y1="242.973" x2="991" y2="242.973" gradientUnits="userSpaceOnUse">
<stop stop-color="#FC6F55"/>
<stop offset="1" stop-color="#C3687B"/>
</linearGradient>
<linearGradient id="paint3_linear" x1="541.063" y1="376.102" x2="990.987" y2="376.102" gradientUnits="userSpaceOnUse">
<stop stop-color="#E16771"/>
<stop offset="1" stop-color="#A85A73"/>
</linearGradient>
<linearGradient id="paint4_linear" x1="-0.019258" y1="485.083" x2="943.037" y2="485.083" gradientUnits="userSpaceOnUse">
<stop stop-color="#433D6C"/>
<stop offset="1" stop-color="#392E54"/>
</linearGradient>
<linearGradient id="paint5_linear" x1="503.829" y1="311.743" x2="501.983" y2="798.606" gradientUnits="userSpaceOnUse">
<stop stop-color="#8B7198"/>
<stop offset="1" stop-color="#28203F"/>
</linearGradient>
</defs>
</svg>
