<svg width="1440" height="522" viewBox="0 0 1440 522" fill="none" xmlns="http://www.w3.org/2000/svg">
<rect width="1440" height="522" fill="#E8EBED"/>
<rect width="1440" height="522" fill="url(#paint0_linear)"/>
<rect width="1440" height="522" fill="url(#paint1_linear)"/>
<rect width="1440" height="522" fill="#F9E8E7"/>
<rect width="1440" height="522" fill="url(#paint2_linear)"/>
<mask id="mask0" mask-type="alpha" maskUnits="userSpaceOnUse" x="0" y="0" width="1440" height="522">
<rect width="1440" height="522" fill="#E8EBED"/>
<rect width="1440" height="522" fill="url(#paint3_linear)"/>
<rect width="1440" height="522" fill="url(#paint4_linear)"/>
</mask>
<g mask="url(#mask0)">
<path opacity="0.22" d="M1440 47C1430.39 50.2752 1421.39 58.8648 1415.3 72.2435C1410.58 82.5633 1405.92 96.6527 1398.36 96.0039C1395.26 95.7567 1392.4 92.8523 1389.32 92.6669C1378.36 92.049 1372.48 123.905 1361.82 119.424C1362.95 114.203 1359.54 108.765 1356.33 109.074C1353.15 109.383 1350.5 113.368 1348.25 117.354C1341.27 129.837 1335.63 144.637 1331.76 160.735C1328 142.134 1313.49 136.264 1303.02 143.71C1292.53 151.187 1285.25 167.687 1278.45 183.475C1266.1 212.241 1253.75 240.976 1241.4 269.742C1231.66 292.39 1216.83 317.85 1201.75 307.283C1194.5 302.216 1189.4 289.486 1181.79 286.489C1173.95 283.368 1165.62 291.587 1157.84 287.972C1146.17 282.565 1139.94 252.872 1127.99 255.869C1121.28 257.537 1115.3 269.927 1109 265.571C1105.75 263.315 1103.76 257.043 1100.43 255.189C1096.93 253.243 1093.31 256.796 1089.79 258.681C1073.94 267.116 1059.47 241.965 1044.24 230.625C1017.81 210.944 986.784 234.704 965.909 269.093C959.286 280.031 953.068 292.266 944.992 299.651C938.091 305.954 930.249 308.302 922.558 310.589C902.388 316.552 892.219 322.515 872.049 328.479C839.979 337.964 837.524 347.635 807.697 370.314C793.531 381.067 779.964 394.754 765.029 401.737C741.847 412.551 737.361 406.372 713.367 405.352C689.373 404.333 663.328 410.111 646 439H1440V47Z" fill="url(#paint5_linear)"/>
<path d="M1439.98 212.111C1438.86 210.916 1437.75 209.702 1436.63 208.506C1425.69 197.036 1412.36 185.276 1396.53 185.796C1380.53 186.336 1366.74 199.523 1350.72 199.041C1336.14 198.597 1323.51 186.837 1308.93 187.262C1297.74 187.589 1288.19 194.992 1279.41 201.913C1214.03 253.541 1064.74 329.343 990.055 366.242L1439.98 566.428V212.111V212.111Z" fill="url(#paint6_linear)"/>
<path d="M1369.88 455.597C1354.9 446.729 1336.72 442.545 1320.64 435.143C1292.52 422.207 1271.16 399.69 1243.99 386.272C1243.72 384.325 1243.45 382.378 1243.2 380.431C1242.12 381.742 1241.49 383.265 1241.1 384.884C1236.35 382.686 1231.4 380.778 1226.2 379.255C1226.06 378.58 1225.89 377.924 1225.6 377.288C1224.41 374.589 1220.92 372.642 1218.44 374.242C1217.36 365.201 1216.26 356.14 1215.18 347.098C1212.64 353.672 1210.87 360.555 1209.92 367.533C1209.17 365.625 1208.42 363.716 1207.69 361.808C1206.65 365.239 1206.28 368.864 1206.61 372.43C1206.71 373.394 1206.82 374.397 1206.86 375.38C1203.95 375.033 1201.03 374.744 1198.08 374.493C1197.56 371.196 1197.04 367.88 1196.5 364.584C1196.35 363.601 1196.13 362.54 1195.36 361.904C1193.67 360.516 1191.3 362.425 1189.97 364.16C1189.84 357.393 1188.87 350.646 1187.14 344.091C1184.6 352.901 1182.08 361.711 1179.53 370.522C1177.01 365.066 1175.09 359.359 1173.78 353.499C1172.91 353.846 1172.04 354.212 1171.2 354.559C1170.95 347.6 1169.75 340.659 1167.65 334.028C1165.84 337.498 1164.26 341.084 1162.91 344.766C1162.76 332.312 1162.61 319.858 1162.45 307.404C1159.53 308.677 1158.75 312.397 1158.37 315.578C1157.23 324.986 1156.1 334.375 1154.96 343.783C1154.46 338.346 1153.96 332.89 1153.46 327.454C1152.69 334.857 1151.92 342.26 1151.13 349.662C1150.9 351.957 1149.55 355.041 1147.35 354.308C1146.95 348.911 1146.56 343.493 1146.16 338.095C1144.52 344.708 1143.96 351.61 1144.5 358.395C1144.75 361.499 1145.24 364.7 1144.37 367.707C1144.2 368.343 1143.91 368.96 1143.58 369.538C1141.81 369.249 1140.02 368.979 1138.25 368.671C1138.96 360.632 1138.57 352.496 1137.07 344.554C1136.4 352.381 1135.7 360.208 1135.03 368.035C1133.8 367.803 1132.58 367.572 1131.35 367.321C1130.56 365.047 1129.42 362.887 1127.94 360.979C1127.81 362.83 1127.61 364.68 1127.4 366.531C1121.95 365.374 1116.54 364.083 1111.15 362.695C1110.3 358.511 1109.82 354.251 1109.8 349.971C1109.78 346.327 1109.95 342.317 1107.62 339.522C1106.14 345.826 1104.64 352.13 1103.16 358.453C1101.27 355.581 1099.38 352.728 1097.5 349.855C1096.86 351.61 1095.94 353.248 1094.74 354.694C1091.7 344.322 1090.35 333.449 1090.77 322.653C1090.83 321.265 1090.89 319.8 1090.23 318.586C1089.58 317.371 1087.89 316.6 1086.75 317.41C1086.06 317.911 1085.81 318.798 1085.63 319.627C1084.44 325.295 1084.52 331.984 1080.07 335.686C1078.99 331.464 1077.64 327.3 1076.04 323.232C1071.88 323.907 1075.41 333.141 1071.21 333.661C1070.4 333.758 1069.63 333.411 1068.86 333.179C1065.26 332.177 1061.08 334.741 1060.33 338.423C1059.58 335.377 1058.57 332.389 1057.28 329.517C1055.34 331.194 1054.65 333.835 1053.57 336.168C1052.49 338.5 1050.49 340.852 1047.92 340.679C1045.65 340.524 1043.96 338.327 1043.51 336.071C1043.07 333.816 1043.5 331.521 1043.73 329.247C1044.25 323.849 1043.44 318.335 1041.38 313.323C1039.68 320.032 1037.97 326.74 1036.27 333.43C1036.02 334.394 1035.45 335.551 1034.66 335.936C1034.02 335.666 1033.4 335.396 1032.79 335.127C1032.63 334.857 1032.52 334.548 1032.42 334.259C1031.54 331.637 1030.63 329.035 1029.75 326.413C1027.09 326.875 1024.74 328.668 1023.43 331.02C1020.67 329.786 1017.92 328.553 1015.19 327.319C1014.42 324.928 1014.99 321.767 1014.76 319.087C1014.49 315.925 1012.86 313.072 1011.26 310.335C1011.16 315.096 1010.22 319.839 1008.5 324.254C986.068 313.882 962.535 303.009 937.018 303.587C880.611 304.86 842.923 360.131 786.67 363.716C774.23 364.507 761.693 362.637 749.271 363.639C747.654 363.774 746.036 363.948 744.438 364.179C744.283 362.733 744.129 361.307 743.975 359.861C743.629 361.345 743.398 362.868 743.244 364.372C741.992 364.565 740.759 364.757 739.527 365.008C739.623 362.232 739.276 359.437 738.448 356.718C738.217 359.34 737.967 361.962 737.736 364.584C736.407 364.931 735.598 363.446 735.444 362.328C734.982 358.742 734.5 355.137 734.038 351.552C733.73 354.193 733.441 356.834 733.133 359.475C732.44 354.906 731.746 350.356 731.072 345.787C730.841 344.245 730.379 342.433 728.588 341.816C728.492 347.85 728.396 353.904 728.299 359.938C727.471 358.145 726.508 356.41 725.411 354.733C724.12 357.952 723.408 361.307 723.254 364.7C722.734 364.526 722.214 364.353 721.674 364.179C720.943 366.782 719.883 369.307 718.535 371.755C718.362 371.832 718.17 371.91 717.996 371.987C716.513 367.861 715.03 363.755 713.548 359.629C712.488 362.81 711.911 366.088 711.814 369.365C711.006 368.517 709.561 367.591 708.54 368.266C708.078 368.574 707.944 369.095 707.847 369.558C707.308 372.237 706.788 374.917 706.249 377.597C705.883 377.25 705.498 376.883 705.132 376.536C704.804 377.577 702.686 377.423 701.993 376.498C701.319 375.573 701.569 374.435 701.704 373.375C701.916 371.64 701.685 369.885 701.049 368.227C700.587 369.153 700.144 370.078 699.682 371.004C699.104 367.611 698.026 364.275 696.485 361.094C695.83 365.49 695.156 369.866 694.501 374.262C692.999 373.49 690.881 374.416 690.149 375.727C689.417 377.038 689.648 378.541 689.764 379.968C689.976 382.86 689.571 385.79 688.647 388.585C688.243 388.855 687.838 389.125 687.434 389.395C686.779 388.2 685.932 387.082 684.911 386.079C684.314 386.735 683.717 387.39 683.101 388.046C679.769 385.308 682.504 380.18 679.461 377.25C678.922 380.431 678.363 383.612 677.824 386.793C676.052 386.233 674.589 385.115 673.799 383.727C673.433 385.231 671.411 394.35 669.447 401.521C663.881 405.28 658.335 409.04 652.769 412.818C651.363 405.859 650.323 399.593 650.285 397.049C648.687 399.786 650.285 411.083 645.085 414.553C644.392 415.016 644.392 416.404 644.719 418.274C642.755 419.604 640.791 420.934 638.826 422.265C636.939 414.958 634.859 408.519 633.299 408.23C632.413 410.852 631.258 425.368 630.353 427.99C629.255 428.723 628.157 429.475 627.079 430.207C625.423 421.821 623.593 412.298 622.573 408.23C620.974 412.144 621.456 425.446 621.976 433.658C618.317 436.145 614.638 438.613 610.979 441.1C609.728 436.723 608.11 431.075 606.82 429.957C605.549 432.829 605.106 440.849 604.355 443.914C603.603 440.251 600.83 442.006 597.229 443.008C596.459 443.22 595.669 443.587 594.88 443.49C590.681 442.97 594.225 433.735 590.046 433.061C588.447 437.128 587.099 441.292 586.021 445.514C581.572 441.813 581.649 435.143 580.455 429.455C580.282 428.626 580.032 427.74 579.338 427.238C578.221 426.429 576.527 427.2 575.853 428.414C575.179 429.629 575.256 431.094 575.313 432.482C575.737 443.278 574.389 454.151 571.346 464.523C570.152 463.077 569.228 461.438 568.592 459.684C566.705 462.556 564.818 465.41 562.931 468.282C561.448 461.978 559.946 455.674 558.463 449.351C556.132 452.146 556.306 456.156 556.286 459.8C556.248 466.277 555.266 472.774 553.34 478.962C521.352 498.395 487.304 514.955 449 521.895L574.562 666.483L1390.45 494.848C1396.42 480.408 1384.86 464.465 1369.88 455.597Z" fill="url(#paint7_linear)"/>
<path d="M464.252 690.504C505.156 666.849 528.015 723.18 568.919 699.526C623.94 667.697 678.979 635.869 733.999 604.04C749.271 595.191 764.889 586.227 782.144 582.545C795.991 579.576 810.434 580.116 824.242 576.896C853.361 570.091 875.873 547.709 901.525 532.325C931.991 514.068 968.177 505.547 1003.59 508.285C1023.72 509.846 1047.77 513.47 1060.65 497.932C1065.12 492.534 1067.32 485.613 1071.34 479.849C1097.01 443.105 1166.07 480.408 1195.96 447.018C1209.29 432.135 1213.52 404.567 1233.46 403.468C1241.04 403.063 1248.71 407.285 1256.03 405.184C1266.52 402.177 1269.31 388.99 1275.23 379.794C1288.57 359.032 1318.08 359.07 1341.57 351.571C1367.65 343.243 1388.6 323.772 1413.29 311.896C1437.96 300.04 1440.04 301.062 1440.02 307.905C1438.44 312.995 1439.63 335.011 1439.69 343.782L1438.3 720.539" fill="url(#paint8_linear)"/>
<path d="M1364.52 112.012C1364.54 112.494 1364.56 113.011 1364.81 113.421C1365.06 113.849 1365.59 114.134 1366.04 113.92C1366.39 113.76 1366.57 113.35 1366.91 113.189C1367.23 113.029 1367.61 113.118 1367.94 113.207C1370.81 113.974 1373.52 115.276 1375.91 117.024C1374.64 115.347 1373.31 113.617 1371.42 112.69C1370.4 112.19 1369.25 111.941 1368.1 111.905C1367.94 111.905 1367.75 111.905 1367.62 111.798C1367.07 111.423 1367.86 110.3 1367.3 109.943C1366.88 109.676 1366.38 110.3 1365.88 110.264C1365.7 110.264 1365.56 110.175 1365.41 110.068C1365.02 109.729 1364.9 109.194 1364.76 108.695C1363.9 105.877 1361.53 103.576 1358.68 102.809C1359.45 105.092 1360.71 107.214 1362.37 108.98C1363.01 109.676 1363.74 110.371 1363.92 111.299C1363.99 111.637 1363.97 111.994 1364.06 112.333C1364.15 112.672 1364.38 113.011 1364.72 113.064" fill="#17072B"/>
<path d="M1122.21 96.6555C1122.68 96.816 1123.16 96.9765 1123.62 96.9052C1124.1 96.8338 1124.57 96.4414 1124.53 95.942C1124.51 95.5675 1124.19 95.2464 1124.16 94.8541C1124.12 94.4973 1124.33 94.1763 1124.55 93.8909C1126.29 91.5009 1128.5 89.432 1131 87.8446C1128.98 88.4153 1126.88 89.0396 1125.33 90.4665C1124.49 91.2334 1123.85 92.2144 1123.41 93.2667C1123.34 93.4272 1123.26 93.5877 1123.14 93.6769C1122.59 94.0515 1121.84 92.91 1121.3 93.3024C1120.89 93.6056 1121.3 94.2833 1121.09 94.747C1121.02 94.9076 1120.88 95.0146 1120.73 95.1038C1120.29 95.3356 1119.74 95.2643 1119.22 95.2286C1116.28 94.9967 1113.27 96.3879 1111.54 98.7601C1113.95 98.8671 1116.39 98.4569 1118.61 97.5651C1119.49 97.2084 1120.41 96.7803 1121.34 96.9587C1121.68 97.0122 1122 97.1727 1122.36 97.2084C1122.71 97.244 1123.1 97.1549 1123.28 96.8517" fill="#17072B"/>
<path d="M1198.67 155.281C1199.33 155.692 1200.02 156.138 1200.8 156.191C1201.59 156.245 1202.46 155.781 1202.59 154.996C1202.68 154.39 1202.3 153.765 1202.37 153.159C1202.44 152.588 1202.89 152.16 1203.32 151.786C1206.92 148.629 1211.12 146.15 1215.61 144.509C1212.23 144.705 1208.7 144.955 1205.74 146.649C1204.14 147.576 1202.78 148.896 1201.71 150.394C1201.55 150.608 1201.39 150.858 1201.14 150.947C1200.13 151.34 1199.36 149.271 1198.36 149.717C1197.62 150.038 1198.01 151.268 1197.51 151.928C1197.35 152.142 1197.08 152.285 1196.81 152.356C1196.01 152.57 1195.17 152.249 1194.37 152.018C1189.81 150.626 1184.57 151.75 1180.99 154.889C1184.75 155.906 1188.74 156.12 1192.59 155.495C1194.11 155.246 1195.71 154.889 1197.1 155.495C1197.62 155.71 1198.08 156.048 1198.61 156.245C1199.15 156.441 1199.81 156.423 1200.18 156.013" fill="#17072B"/>
<path d="M1118.53 241.196C1118.63 242.248 1118.78 243.354 1119.38 244.228C1119.99 245.102 1121.22 245.637 1122.14 245.12C1122.87 244.71 1123.19 243.782 1123.93 243.354C1124.58 242.962 1125.42 243.069 1126.19 243.212C1132.57 244.389 1138.71 246.761 1144.24 250.168C1141.17 246.743 1137.95 243.194 1133.69 241.482C1131.37 240.554 1128.82 240.233 1126.33 240.358C1125.96 240.376 1125.56 240.394 1125.24 240.215C1123.98 239.484 1125.51 236.916 1124.21 236.22C1123.23 235.703 1122.25 237.147 1121.15 237.183C1120.77 237.201 1120.42 237.04 1120.11 236.809C1119.2 236.149 1118.85 234.989 1118.44 233.937C1116.09 227.926 1110.49 223.307 1104.15 222.148C1106.23 226.999 1109.35 231.422 1113.25 234.989C1114.79 236.381 1116.5 237.79 1117.05 239.787C1117.24 240.518 1117.28 241.303 1117.53 242.017C1117.78 242.73 1118.35 243.426 1119.11 243.497" fill="#17072B"/>
<path d="M1273.89 25.1699C1273.59 24.5992 1273.14 24.1176 1272.59 23.7788C1272.38 23.6361 1272.14 23.5291 1271.89 23.4755C1271.54 23.3864 1271.16 23.3864 1270.79 23.4042C1270.17 23.422 1269.54 23.4399 1268.95 23.2259C1267.85 22.8513 1267.14 21.7812 1266.25 21.0142C1265.2 20.1046 1263.86 19.623 1262.63 18.9988C1261.35 18.3389 1260.14 17.5184 1259.05 16.5553C1259.3 18.3924 1260.26 20.1403 1261.79 21.1926C1262.63 21.7633 1263.59 22.1022 1264.43 22.6729C1264.87 22.9761 1265.3 23.3685 1265.5 23.8858C1264.82 23.9214 1264.14 23.9393 1263.48 23.9749C1261.28 24.0641 1259.07 24.1533 1256.89 24.5814C1256.93 25.1164 1257.55 25.4018 1258.09 25.5088C1260.19 25.9547 1262.36 25.5802 1264.52 25.3661C1267.51 25.0629 1270.52 25.0273 1273.52 25.2948" fill="#17072B"/>
<path d="M1035 136.732C1035.5 136.322 1036.1 136.055 1036.75 135.948C1037 135.912 1037.26 135.894 1037.51 135.93C1037.89 135.983 1038.22 136.144 1038.56 136.286C1039.13 136.536 1039.7 136.804 1040.31 136.839C1041.49 136.911 1042.54 136.215 1043.66 135.841C1044.98 135.413 1046.38 135.484 1047.77 135.395C1049.22 135.288 1050.64 135.002 1052.02 134.539C1051.07 136.126 1049.5 137.374 1047.69 137.731C1046.71 137.927 1045.67 137.874 1044.69 138.07C1044.16 138.177 1043.62 138.373 1043.23 138.766C1043.84 139.051 1044.44 139.336 1045.07 139.622C1047.06 140.567 1049.08 141.512 1050.91 142.761C1050.66 143.242 1049.98 143.26 1049.45 143.153C1047.33 142.743 1045.48 141.548 1043.59 140.514C1040.95 139.069 1038.19 137.874 1035.32 136.946" fill="#17072B"/>
</g>
<defs>
<linearGradient id="paint0_linear" x1="720" y1="0" x2="720" y2="522" gradientUnits="userSpaceOnUse">
<stop stop-color="#E8EBED"/>
<stop offset="1" stop-color="#CFD4D8"/>
</linearGradient>
<linearGradient id="paint1_linear" x1="720" y1="0" x2="720" y2="522" gradientUnits="userSpaceOnUse">
<stop offset="0.4375" stop-color="white" stop-opacity="0.8"/>
<stop offset="1" stop-color="white" stop-opacity="0.24"/>
</linearGradient>
<linearGradient id="paint2_linear" x1="720" y1="0" x2="720" y2="261" gradientUnits="userSpaceOnUse">
<stop stop-color="#EBCAC9"/>
<stop offset="1" stop-color="#F9E8E7"/>
</linearGradient>
<linearGradient id="paint3_linear" x1="720" y1="0" x2="720" y2="522" gradientUnits="userSpaceOnUse">
<stop stop-color="#E8EBED"/>
<stop offset="1" stop-color="#CFD4D8"/>
</linearGradient>
<linearGradient id="paint4_linear" x1="720" y1="0" x2="720" y2="522" gradientUnits="userSpaceOnUse">
<stop offset="0.4375" stop-color="white" stop-opacity="0.8"/>
<stop offset="1" stop-color="white" stop-opacity="0.24"/>
</linearGradient>
<linearGradient id="paint5_linear" x1="585.998" y1="242.973" x2="1440" y2="242.973" gradientUnits="userSpaceOnUse">
<stop stop-color="#FC6F55"/>
<stop offset="1" stop-color="#C3687B"/>
</linearGradient>
<linearGradient id="paint6_linear" x1="990.063" y1="376.102" x2="1439.99" y2="376.102" gradientUnits="userSpaceOnUse">
<stop stop-color="#E16771"/>
<stop offset="1" stop-color="#A85A73"/>
</linearGradient>
<linearGradient id="paint7_linear" x1="448.981" y1="485.083" x2="1392.04" y2="485.083" gradientUnits="userSpaceOnUse">
<stop stop-color="#433D6C"/>
<stop offset="1" stop-color="#392E54"/>
</linearGradient>
<linearGradient id="paint8_linear" x1="952.829" y1="311.743" x2="950.983" y2="798.606" gradientUnits="userSpaceOnUse">
<stop stop-color="#8B7198"/>
<stop offset="1" stop-color="#28203F"/>
</linearGradient>
</defs>
</svg>
