<svg width="100" height="101" viewBox="0 0 100 101" fill="none" xmlns="http://www.w3.org/2000/svg">
<path d="M12.5 28.6289H21.5096C25.4889 28.6289 29.4108 29.5788 32.9491 31.3997C36.4874 33.2206 39.54 35.8598 41.8529 39.0979L58.1471 61.9099C60.4601 65.148 63.5126 67.7872 67.0509 69.6081C70.5892 71.429 74.5111 72.3789 78.4904 72.3789H90.625" stroke="#EC3C34" stroke-width="6.25" stroke-linecap="round" stroke-linejoin="round"/>
<path d="M81.25 19.2539L90.625 28.6289L81.25 38.0039" stroke="#EC3C34" stroke-width="6.25" stroke-linecap="round" stroke-linejoin="round"/>
<path d="M81.25 63.0039L90.625 72.3789L81.25 81.7539" stroke="#EC3C34" stroke-width="6.25" stroke-linecap="round" stroke-linejoin="round"/>
<path d="M57.6797 39.7508L58.146 39.0979C60.459 35.8598 63.5115 33.2206 67.0498 31.3997C70.5882 29.5788 74.51 28.6289 78.4894 28.6289H90.6239" stroke="#EC3C34" stroke-width="6.25" stroke-linecap="round" stroke-linejoin="round"/>
<path d="M12.5 72.3789H21.5096C25.4889 72.3789 29.4108 71.429 32.9491 69.6081C36.4874 67.7872 39.54 65.148 41.8529 61.9099L42.3193 61.257" stroke="#EC3C34" stroke-width="6.25" stroke-linecap="round" stroke-linejoin="round"/>
</svg>
