<svg width="100" height="100" viewBox="0 0 100 100" fill="none" xmlns="http://www.w3.org/2000/svg">
<g clip-path="url(#clip0)">
<path d="M70.3164 78.125C76.357 78.125 81.2539 73.2281 81.2539 67.1875C81.2539 61.1469 76.357 56.25 70.3164 56.25C64.2758 56.25 59.3789 61.1469 59.3789 67.1875C59.3789 73.2281 64.2758 78.125 70.3164 78.125Z" stroke="#EC3C34" stroke-width="6.25" stroke-linecap="round" stroke-linejoin="round"/>
<path d="M20.3164 90.625C26.357 90.625 31.2539 85.7281 31.2539 79.6875C31.2539 73.6469 26.357 68.75 20.3164 68.75C14.2758 68.75 9.37891 73.6469 9.37891 79.6875C9.37891 85.7281 14.2758 90.625 20.3164 90.625Z" stroke="#EC3C34" stroke-width="6.25" stroke-linecap="round" stroke-linejoin="round"/>
<path d="M81.2539 31.25L31.2539 43.75" stroke="#EC3C34" stroke-width="6.25" stroke-linecap="round" stroke-linejoin="round"/>
<path d="M31.2539 79.6875V25L81.2539 12.5V67.1875" stroke="#EC3C34" stroke-width="6.25" stroke-linecap="round" stroke-linejoin="round"/>
</g>
<defs>
<clipPath id="clip0">
<rect width="100" height="100" fill="white"/>
</clipPath>
</defs>
</svg>
