<svg width="100" height="100" viewBox="0 0 100 100" fill="none" xmlns="http://www.w3.org/2000/svg">
<path d="M87.0966 48.2361L49.5315 85.8011C48.3594 86.9732 46.7697 87.6317 45.1121 87.6317C43.4545 87.6317 41.8648 86.9732 40.6927 85.8011L7.54543 52.6539C6.96506 52.0735 6.50469 51.3845 6.1906 50.6262C5.8765 49.8679 5.71484 49.0552 5.71484 48.2344C5.71484 47.4137 5.8765 46.601 6.1906 45.8427C6.50469 45.0844 6.96506 44.3954 7.54543 43.815L45.1105 6.25L87.0966 48.2361Z" stroke="#EC3C34" stroke-width="6.25" stroke-linecap="round" stroke-linejoin="round"/>
<path d="M48.4375 53.1273C52.7522 53.1273 56.25 49.6295 56.25 45.3148C56.25 41.0001 52.7522 37.5023 48.4375 37.5023C44.1228 37.5023 40.625 41.0001 40.625 45.3148C40.625 49.6295 44.1228 53.1273 48.4375 53.1273Z" stroke="#EC3C34" stroke-width="6.25" stroke-linecap="round" stroke-linejoin="round"/>
<path d="M81.25 79.6875C81.25 71.8773 89.0625 64.0625 89.0625 64.0625C89.0625 64.0625 96.875 71.8773 96.875 79.6875C96.875 81.7595 96.0519 83.7466 94.5868 85.2118C93.1216 86.6769 91.1345 87.5 89.0625 87.5C86.9905 87.5 85.0034 86.6769 83.5382 85.2118C82.0731 83.7466 81.25 81.7595 81.25 79.6875V79.6875Z" stroke="#EC3C34" stroke-width="6.25" stroke-linecap="round" stroke-linejoin="round"/>
<path d="M42.9102 39.7905L14.7852 11.6655" stroke="#EC3C34" stroke-width="6.25" stroke-linecap="round" stroke-linejoin="round"/>
</svg>
