<svg width="32" height="32" viewBox="0 0 32 32" fill="none" xmlns="http://www.w3.org/2000/svg">
<path fill-rule="evenodd" clip-rule="evenodd" d="M22.6668 6.02236C20.6935 4.70379 18.3734 4 16 4C12.8174 4 9.76516 5.26428 7.51472 7.51472C5.26429 9.76515 4.00001 12.8174 4.00001 16C4.00001 18.3734 4.70379 20.6935 6.02237 22.6668C7.34095 24.6402 9.21509 26.1783 11.4078 27.0866C13.6005 27.9948 16.0133 28.2324 18.3411 27.7694C20.6689 27.3064 22.8071 26.1635 24.4853 24.4853C26.1635 22.8071 27.3064 20.6689 27.7694 18.3411C28.2325 16.0133 27.9948 13.6005 27.0866 11.4078C26.1783 9.21509 24.6402 7.34094 22.6668 6.02236ZM8.22202 4.35943C10.5243 2.82109 13.2311 2 16 2C19.713 2 23.274 3.475 25.8995 6.1005C28.525 8.72601 30 12.287 30 16C30 18.7689 29.1789 21.4757 27.6406 23.778C26.1022 26.0803 23.9157 27.8747 21.3576 28.9343C18.7994 29.9939 15.9845 30.2712 13.2687 29.731C10.553 29.1908 8.05845 27.8574 6.10051 25.8995C4.14258 23.9416 2.80921 21.447 2.26901 18.7313C1.72882 16.0155 2.00607 13.2006 3.06569 10.6424C4.12532 8.08427 5.91973 5.89777 8.22202 4.35943ZM11.49 22.86C11.6444 22.9516 11.8205 22.9999 12 23C12.1692 23.0087 12.3378 22.9743 12.49 22.9L23.49 16.9C23.6488 16.8143 23.7814 16.6873 23.8738 16.5324C23.9662 16.3774 24.015 16.2004 24.015 16.02C24.015 15.8396 23.9662 15.6626 23.8738 15.5076C23.7814 15.3527 23.6488 15.2257 23.49 15.14L12.49 9.14C12.338 9.05223 12.1655 9.00603 11.99 9.00603C11.8145 9.00603 11.642 9.05223 11.49 9.14C11.3407 9.22851 11.217 9.35434 11.1311 9.50513C11.0452 9.65591 11 9.82646 11 10V22C11 22.1735 11.0452 22.3441 11.1311 22.4949C11.217 22.6457 11.3407 22.7715 11.49 22.86ZM20.91 16L13 20.32V11.68L20.91 16Z" fill="#141414"/>
</svg>
