<svg width="32" height="32" viewBox="0 0 32 32" fill="none" xmlns="http://www.w3.org/2000/svg">
<path d="M28.7505 11.35C28.6567 11.2402 28.5402 11.1521 28.4091 11.0917C28.2781 11.0313 28.1354 11 27.9911 11H21.996V7C21.996 6.20435 21.6802 5.44129 21.118 4.87868C20.5558 4.31607 19.7934 4 18.9984 4H13.0032C12.2082 4 11.4458 4.31607 10.8836 4.87868C10.3215 5.44129 10.0057 6.20435 10.0057 7V11H4.01051C3.86567 10.9984 3.72221 11.0283 3.59006 11.0876C3.45791 11.147 3.34024 11.2344 3.2452 11.3438C3.15015 11.4531 3.08001 11.5819 3.03962 11.7211C2.99924 11.8603 2.98958 12.0067 3.01131 12.15L4.8898 24.3C4.96206 24.7769 5.20411 25.2116 5.57134 25.524C5.93857 25.8364 6.40624 26.0055 6.88818 26H25.1334C25.6154 26.0055 26.083 25.8364 26.4503 25.524C26.8175 25.2116 27.0596 24.7769 27.1318 24.3L28.9903 12.15C29.0103 12.0072 28.9993 11.8618 28.9579 11.7237C28.9165 11.5857 28.8457 11.4582 28.7505 11.35V11.35ZM12.004 7C12.004 6.73478 12.1093 6.48043 12.2967 6.29289C12.4841 6.10536 12.7382 6 13.0032 6H18.9984C19.2634 6 19.5175 6.10536 19.7049 6.29289C19.8923 6.48043 19.9976 6.73478 19.9976 7V11H12.004V7ZM25.1334 24H6.8682L5.17956 13H26.8221L25.1334 24Z" fill="white"/>
</svg>
