<svg width="400" height="400" viewBox="0 0 400 400" fill="none" xmlns="http://www.w3.org/2000/svg">
<path opacity="0.18" d="M335.451 300.946C335.451 300.946 399.883 228.378 345.643 210.635C345.643 210.635 375.33 138.169 320.405 141.257C265.479 144.345 342.39 85.0909 268.783 86.0274C195.177 86.9639 131.838 149.053 127.314 164.087C122.79 179.122 43.8454 207.041 64.8142 222.557C85.783 238.072 10.5241 289.885 49.5896 298.794C88.6551 307.704 274.629 331.016 335.451 300.946Z" fill="url(#paint0_linear)"/>
<path opacity="0.18" d="M361.401 339.824C361.401 339.824 388.928 348.43 374.237 353.568C359.546 358.706 296.792 357.238 288.684 354.454C280.576 351.67 284.668 349.67 280.907 349.493C277.145 349.316 260.141 350.531 263.166 347.063C266.19 343.595 256.735 343.545 253.558 343.899C250.407 344.253 175.834 348.101 99.9651 343.899C24.0962 339.697 11.9724 331.041 27.1716 324.713C42.3708 318.385 350.828 320.714 361.401 339.824Z" fill="url(#paint1_linear)"/>
<path opacity="0.18" d="M128.407 112.225C137.887 127.26 128.508 150.141 107.463 163.303C86.4183 176.465 61.6625 174.946 52.182 159.911C42.7016 144.876 52.0804 121.995 73.1254 108.833C94.1704 95.671 118.926 97.1644 128.407 112.225Z" fill="url(#paint2_linear)"/>
<path d="M246.88 85.1915C246.88 85.1915 256.123 70.6714 258.673 71.5659C261.222 72.4604 256.393 68.565 255.403 68.77C254.413 68.975 249.998 72.1851 247.115 76.3633C244.288 80.5514 242.569 83.7952 242.569 83.7952L246.88 85.1915Z" fill="#C2B5AC"/>
<path d="M262.163 96.6267C262.163 96.6267 268.674 84.8557 269.469 83.5249C270.264 82.1941 270.989 80.659 268.564 78.6308C266.139 76.6025 257.881 70.4077 256.443 69.9615C254.948 69.5051 251.562 71.9768 248.329 76.7788C245.096 81.5807 243.959 82.851 243.959 82.851L242.995 83.896C242.995 83.896 242.813 83.416 245.036 80.0987C247.273 76.72 250.793 71.7129 252.616 70.3081C254.439 68.9033 255.773 68.0516 258.444 69.5477C261.116 71.0438 274.176 80.0073 273.855 82.8293C273.549 85.59 273.156 86.4802 271.392 89.6227C269.627 92.7651 265.781 99.3778 265.781 99.3778C265.781 99.3778 262.315 97.2294 262.163 96.6267Z" fill="#3C342E"/>
<path d="M261.716 98.4554C261.716 98.4554 262.621 96.4765 263.048 96.4203C263.475 96.3642 266.733 98.2159 266.795 98.6791C266.857 99.1424 265.747 101.474 265.237 101.387C264.728 101.299 261.716 98.4554 261.716 98.4554Z" fill="#F1BD34"/>
<path d="M259.889 99.2616C259.889 99.2616 260.852 97.4892 262.874 98.5606C264.897 99.632 266.043 100.354 265.935 101.306C265.827 102.259 265.992 103.325 265.085 103.358C264.192 103.329 259.889 99.2616 259.889 99.2616Z" fill="#3C342E"/>
<path d="M242.256 82.9784C242.256 82.9784 243.073 81.3559 243.841 81.6186C244.608 81.8813 247.499 84.1417 247.592 84.4844C247.686 84.827 247.029 86.2812 246.63 86.2125C246.158 86.1966 242.256 82.9784 242.256 82.9784Z" fill="#F1BD34"/>
<path d="M240.735 83.7508C240.735 83.7508 241.596 82.409 242.56 82.6454C243.525 82.8818 246.967 85.5732 247.079 86.113C247.19 86.6527 247.168 87.7536 246.547 87.8382C245.911 87.9852 240.735 83.7508 240.735 83.7508Z" fill="#3C342E"/>
<path d="M247.283 88.6558C247.466 90.5866 240.6 100.129 238.583 102.177C238.114 102.664 237.689 102.968 237.222 103.202C235.623 103.995 233.739 103.282 230.771 100.478C230.771 100.478 228.496 99.1896 230.099 95.9295C231.759 92.6794 237.593 83.5235 239.837 83.2246C240.204 83.163 240.71 83.2527 241.203 83.4031C243.65 84.2159 247.125 87.1091 247.283 88.6558Z" fill="#E12855"/>
<path d="M230.247 97.3626C229.598 99.623 232.306 100.794 233.568 101.769C234.35 102.346 235.726 102.842 236.966 102.938C235.403 103.722 233.56 103.018 230.656 100.249C230.656 100.249 228.431 98.977 229.995 95.7545C231.615 92.5419 237.311 83.4908 239.504 83.1942C239.863 83.1332 240.359 83.2216 240.84 83.37C239.915 83.6426 238.933 84.1553 238.225 84.9669C236.599 86.9905 230.826 95.1524 230.247 97.3626Z" fill="#B41C41"/>
<path d="M246.003 89.1465C246.133 90.5595 239.71 99.531 238.25 100.978C237.939 101.302 237.585 101.556 237.246 101.748C236.061 102.297 234.714 101.805 232.619 99.7917C232.619 99.7917 230.966 98.8672 232.122 96.4816C233.265 94.1567 238.983 85.4394 240.616 85.2232C240.912 85.2123 241.263 85.2114 241.642 85.3416C243.438 85.9124 245.927 87.9958 246.003 89.1465Z" fill="#3C342E"/>
<path d="M266.466 103.809C266.72 105.688 260.311 115.554 258.436 117.751C258.024 118.248 257.585 118.612 257.119 118.846C255.508 119.699 253.597 119.108 250.518 116.539C250.518 116.539 248.161 115.363 249.593 112.076C251.096 108.739 256.46 99.3194 258.73 98.8994C259.096 98.8378 259.617 98.8668 260.109 99.017C262.682 99.5357 266.267 102.194 266.466 103.809Z" fill="#E12855"/>
<path d="M254.362 115.586L253.367 114.907C252.911 114.638 252.832 113.996 253.127 113.484L259.919 102.65C260.214 102.138 260.826 101.996 261.282 102.265L262.277 102.944C262.734 103.213 262.813 103.855 262.518 104.367L255.725 115.201C255.43 115.713 254.818 115.855 254.362 115.586Z" fill="white"/>
<path d="M249.835 113.419C249.296 115.7 252.036 116.751 253.438 117.627C254.29 118.154 255.681 118.59 256.951 118.566C255.373 119.41 253.499 118.826 250.479 116.286C250.479 116.286 248.168 115.123 249.569 111.87C251.04 108.566 256.29 99.2424 258.514 98.8257C258.874 98.7646 259.384 98.793 259.866 98.9415C258.981 99.2841 257.983 99.857 257.329 100.679C255.756 102.713 250.375 111.138 249.835 113.419Z" fill="#B41C41"/>
<path d="M96.8842 189.338C91.5352 188.335 86.872 185.109 84.8743 180.285C80.5245 170.063 88.6569 156.652 106.637 144.452C147.838 116.458 194.642 116.145 214.669 124.858C234.536 133.477 251.152 113.394 251.309 113.233L251.822 113.647C251.65 113.869 234.763 134.346 214.459 125.518C194.534 116.888 148.034 117.194 106.978 145.088C89.2412 157.016 81.2499 170.072 85.4362 179.946C88.5504 187.33 98.1056 190.902 106.673 187.868C112.077 185.958 118.155 182.14 124.521 178.122C139.803 168.467 157.072 157.532 176.631 164.568C185.151 167.627 190.69 172.606 193.1 179.351C197.021 190.128 191.336 201.837 191.25 201.948L190.71 201.656C190.796 201.545 196.296 190.119 192.494 179.618C190.158 173.079 184.708 168.243 176.363 165.217C157.095 158.235 139.956 169.131 124.818 178.686C118.38 182.754 112.359 186.583 106.839 188.472C103.532 189.695 100.082 189.938 96.8842 189.338Z" fill="#C2B5AC"/>
<path d="M192.669 339.035C250.471 339.035 297.329 337.339 297.329 335.246C297.329 333.154 250.471 331.457 192.669 331.457C134.866 331.457 88.0078 333.154 88.0078 335.246C88.0078 337.339 134.866 339.035 192.669 339.035Z" fill="#C1C1D1"/>
<path d="M172.376 312.813L167.484 300.544L154.5 303.371C154.5 303.371 160.72 318.346 161.808 318.406C162.895 318.467 171.893 315.76 172.376 312.813Z" fill="#F4AFBB"/>
<path d="M170.443 229.516C170.443 229.516 154.318 267.887 154.439 268.188C154.499 268.488 156.673 272.097 156.311 272.398C156.009 272.638 155.164 274.262 155.164 274.262C155.164 274.262 159.995 280.276 167.423 300.604C167.423 300.604 159.995 306.859 153.835 305.476C153.835 305.476 132.637 271.616 131.671 266.323C130.704 261.091 145.32 202.031 148.702 195.415C152.084 188.8 164.102 198.422 164.102 198.422L170.443 229.516Z" fill="#3C342E"/>
<path opacity="0.7" d="M170.443 229.516L166.095 217.067L159.633 255.437L170.443 229.516Z" fill="#1E1610"/>
<path d="M172.375 312.813C172.375 312.813 177.086 328.029 177.448 329.954C177.629 330.976 177.69 331.878 177.75 332.54C177.75 333.081 177.327 333.502 176.844 333.502H138.011C137.166 333.502 136.562 332.72 136.743 331.938C137.226 329.894 138.313 326.526 140.065 325.684C142.601 324.481 153.653 318.767 155.948 315.279C158.243 311.791 157.277 311.069 158.001 311.189C158.726 311.31 160.296 317.324 162.712 316.602C165.128 315.88 165.49 313.715 172.375 312.813Z" fill="#6E94A5"/>
<path d="M153.957 317.504L155.648 319.549" stroke="#3C342E" stroke-width="3.2514" stroke-miterlimit="10" stroke-linecap="round"/>
<path d="M150.996 319.79L152.687 321.835" stroke="#3C342E" stroke-width="3.2514" stroke-miterlimit="10" stroke-linecap="round"/>
<path d="M147.676 321.835L149.427 323.94" stroke="#3C342E" stroke-width="3.2514" stroke-miterlimit="10" stroke-linecap="round"/>
<path d="M138.011 333.502H176.784C177.327 333.502 177.75 333.081 177.69 332.54C177.69 332.059 177.629 331.457 177.508 330.796H137.045C136.924 331.217 136.804 331.578 136.743 331.938C136.562 332.72 137.166 333.502 138.011 333.502Z" fill="#3C342E"/>
<path d="M239.349 300.424L229.203 287.253L223.164 300.604L229.686 306.799C229.747 306.799 240.98 309.746 239.349 300.424Z" fill="#F4AFBB"/>
<path d="M223.223 300.604C223.223 300.604 229.322 300.424 232.04 290.861L229.262 287.253L223.223 300.604Z" fill="#F296A5"/>
<path d="M199.004 213.879L207.882 265.962L210.358 267.346L210.781 269.451C210.781 269.451 222.316 276.187 231.073 288.275C231.073 288.275 229.382 299.582 223.222 300.604C223.222 300.604 187.771 276.126 186.624 274.382C185.536 272.638 158.48 195.536 158.48 195.536C158.48 195.536 193.025 196.738 199.004 213.879Z" fill="#3C342E"/>
<path opacity="0.7" d="M199.73 218.089L199.005 213.819C193.812 198.843 166.756 196.077 160.052 195.596C156.247 193.371 150.872 191.266 148.759 195.355C148.638 195.596 148.517 195.897 148.336 196.257C151.416 196.919 164.219 199.866 176.358 206C186.444 211.173 195.503 215.864 199.73 218.089Z" fill="#1E1610"/>
<path d="M228.899 306.258C229.02 307.701 227.993 324.18 227.45 324.962C226.906 325.684 222.86 329.713 222.498 330.194C222.135 330.675 221.833 333.201 222.135 333.262C222.437 333.322 237.717 333.983 240.495 332.961C243.273 331.938 244.36 328.691 244.601 325.323C244.783 321.955 245.93 313.475 246.534 311.189C247.138 308.904 247.983 306.198 247.802 306.077C247.621 305.957 239.71 300.484 239.408 300.484C239.045 300.484 239.287 304.333 238.26 304.935C237.234 305.536 236.509 304.333 235.301 303.852C234.093 303.371 228.718 304.213 228.899 306.258Z" fill="#6E94A5"/>
<path d="M222.136 333.201C222.438 333.262 237.717 333.923 240.495 332.901C243.273 331.878 244.36 328.631 244.602 325.263C244.783 321.895 245.931 313.415 246.535 311.129C247.139 308.844 247.984 306.137 247.803 306.017C247.742 305.957 247.139 305.536 246.172 304.874C244.964 308.182 243.757 317.143 243.817 321.474C243.877 326.405 242.851 329.473 240.435 331.096C238.019 332.72 222.377 330.615 222.377 330.615C222.076 331.457 221.955 333.201 222.136 333.201Z" fill="#3C342E"/>
<path d="M241.884 305.897C242.729 305.897 243.393 306.919 243.393 308.182C243.393 309.445 242.729 310.468 241.884 310.468C241.038 310.468 240.374 309.445 240.374 308.182C240.374 306.919 241.038 305.897 241.884 305.897ZM241.884 305.416C240.736 305.416 239.891 306.619 239.891 308.122C239.891 309.626 240.797 310.829 241.884 310.829C243.031 310.829 243.877 309.626 243.877 308.122C243.877 306.619 243.031 305.416 241.884 305.416Z" fill="#3C342E"/>
<path d="M228.66 312.693C228.66 312.693 232.525 311.37 236.088 312.873" stroke="#3C342E" stroke-width="3.2514" stroke-miterlimit="10" stroke-linecap="round"/>
<path d="M228.355 316.121C228.355 316.121 232.221 314.798 235.784 316.301" stroke="#3C342E" stroke-width="3.2514" stroke-miterlimit="10" stroke-linecap="round"/>
<path d="M228.355 319.549C228.355 319.549 232.221 318.226 235.784 319.73" stroke="#3C342E" stroke-width="3.2514" stroke-miterlimit="10" stroke-linecap="round"/>
<path d="M196.11 126.913C196.11 126.913 188.983 146.399 171.228 151.932C153.472 157.466 174.549 126.432 178.898 123.425C183.246 120.418 196.11 126.913 196.11 126.913Z" fill="#DED8D3"/>
<path d="M185.237 139.363C185.237 139.363 173.521 143.031 171.045 149.346L172.615 121.741C172.615 121.741 160.839 120.658 159.45 121.079C158.061 121.5 154.075 152.414 152.927 161.435C151.78 170.456 150.693 187.597 149.907 188.92C149.062 190.243 145.801 194.754 145.801 194.754C145.801 194.754 180.406 201.55 199.007 213.819C199.007 213.819 202.389 177.733 202.51 176.831C202.63 175.989 204.865 173.042 204.865 173.042L208.73 136.837L196.772 128.417C196.772 128.417 190.25 138.22 185.237 139.363Z" fill="#B1B1B1"/>
<path d="M185.296 119.035C184.028 119.155 176.478 120.237 168.809 118.914L170.983 128.597C170.983 128.597 168.023 140.024 171.043 149.346C171.043 149.346 174.304 125.53 179.559 123.184C184.813 120.839 196.106 126.913 196.106 126.913C196.106 126.913 190.188 136.476 185.235 139.363C185.235 139.363 195.2 136.897 200.092 137.619C200.092 137.619 200.032 124.989 199.549 124.267C199.065 123.485 192.603 118.493 185.296 119.035Z" fill="#3C342E"/>
<path d="M193.208 132.807C193.208 132.807 184.21 137.378 176.902 131.183C176.902 131.183 181.13 137.799 192.242 134.431L193.208 132.807Z" fill="#1E1610"/>
<path d="M145.8 194.754C145.498 195.115 147.854 197.58 147.854 197.58L148.759 195.355C148.759 195.415 145.921 194.573 145.8 194.754Z" fill="#1E1610"/>
<path d="M202.327 115.125C202.327 115.125 202.387 121.079 201.723 121.079C201.058 121.079 197.918 119.456 197.918 119.456C197.918 119.456 200.213 113.381 202.327 115.125Z" fill="#3C342E"/>
<path d="M187.893 88.1214C187.893 88.1214 182.941 83.9115 181.975 84.0919C181.008 84.2723 181.31 88.0011 182.518 91.3691C182.518 91.3691 181.008 91.0083 180.767 91.5495C180.525 92.151 183.786 96.0602 183.786 96.0602L187.893 88.1214Z" fill="#3C342E"/>
<path d="M184.451 114.825C184.451 114.825 179.197 122.583 178.291 124.628C177.324 126.673 180.223 131.424 184.994 131.243C189.765 131.063 194.959 130.161 196.952 125.35C198.945 120.598 200.817 115.847 200.817 115.847C200.817 115.847 202.689 118.193 207.521 113.441C212.352 108.75 210.661 106.284 208.004 105.683C205.286 105.142 192.06 104.721 184.451 114.825Z" fill="#F4AFBB"/>
<path d="M188.013 86.678C188.013 86.678 181.974 98.526 179.74 107.307C177.505 116.027 179.558 117.531 179.981 117.832C180.464 118.132 196.529 123.906 203.353 108.871C210.238 93.8349 194.294 86.257 188.013 86.678Z" fill="#F4AFBB"/>
<path d="M199.792 95.2182C199.792 95.2182 198.765 100.27 201.181 102.916C201.181 102.916 199.188 109.893 200.094 110.194C201 110.494 206.133 105.503 206.133 105.503C206.133 105.503 209.213 105.623 210.119 106.886L211.87 105.082C211.87 105.082 213.26 106.886 213.863 106.886C214.467 106.886 215.856 98.2855 215.856 98.2855C215.856 98.2855 218.755 99.6086 219.238 99.6086C219.722 99.6086 216.642 95.2182 216.642 95.2182C216.642 95.2182 215.977 89.204 215.373 89.1438C214.769 89.0837 214.588 92.151 214.588 92.151L202.328 80.8442C202.328 80.8442 192.182 72.9656 191.397 71.5221C190.612 70.0787 184.513 72.6648 184.09 79.1001C183.667 85.5353 182.459 91.2488 196.47 93.8349C196.47 93.8349 194.9 94.4965 194.779 94.9175C194.598 95.3986 199.792 95.2182 199.792 95.2182Z" fill="#3C342E"/>
<path d="M206.314 108.75C206.314 108.75 209.273 110.254 204.562 112.84" stroke="#1E1610" stroke-width="0.5229" stroke-miterlimit="10" stroke-linecap="round"/>
<path d="M206.736 111.216C206.736 111.216 205.709 110.073 204.32 111.036" stroke="#1E1610" stroke-width="0.5229" stroke-miterlimit="10" stroke-linecap="round"/>
<path d="M186.868 98.3456C186.868 98.3456 184.815 104.961 183.547 105.262C182.278 105.563 179.802 104.661 180.467 103.277C180.889 102.315 181.856 102.435 182.762 102.074C183.607 101.714 186.868 98.3456 186.868 98.3456Z" fill="#F192A3"/>
<path d="M192.062 96.842C192.062 96.842 195.082 97.3232 196.471 99.4281C196.471 99.4281 195.988 97.3232 194.659 96.4812C193.33 95.6392 191.941 95.4587 191.881 95.579C191.76 95.6993 191.217 96.4812 192.062 96.842Z" fill="#1E1610"/>
<path d="M186.142 94.3762C186.142 94.3762 185.297 93.2335 184.753 93.5342C184.753 93.5342 184.512 92.4516 185.478 92.6321C186.142 92.7524 187.35 93.5342 187.29 93.7146C187.23 93.8349 186.988 94.7371 186.142 94.3762Z" fill="#1E1610"/>
<path d="M190.73 98.9471C190.73 98.9471 193.388 98.8268 194.233 100.872" stroke="#1E1610" stroke-width="1.0459" stroke-miterlimit="10" stroke-linecap="round"/>
<path d="M186.021 96.9623C186.021 96.9623 185.116 95.6392 183.727 95.9399" stroke="#1E1610" stroke-width="1.0459" stroke-miterlimit="10" stroke-linecap="round"/>
<path d="M208.732 136.897L212.174 139.363C213.624 140.385 214.711 141.768 215.315 143.452L226.125 171.84C226.125 171.84 229.326 173.103 229.507 173.223C229.688 173.343 229.507 177.673 229.507 177.673L238.928 174.787L241.585 191.205C241.585 191.205 222.984 199.144 221.173 197.52C219.361 195.896 200.035 165.344 200.035 165.344L208.732 136.897Z" fill="#B1B1B1"/>
<path d="M238.869 174.726C239.413 174.666 244.305 189.942 241.527 191.145C238.748 192.348 238.326 174.787 238.869 174.726Z" fill="#1E1610"/>
<path d="M270.273 154.879C270.273 154.879 274.501 154.759 274.622 154.879C274.742 155 274.199 156.323 273.716 156.443C273.232 156.563 271.481 156.864 271.179 156.984C270.877 157.105 269.367 157.826 269.367 157.826C269.367 157.826 271.421 158.007 271.481 158.308C271.541 158.608 269.428 163.179 269.126 163.179C268.824 163.179 268.28 162.758 268.28 162.758C268.28 162.758 267.193 165.164 266.891 165.104C266.589 165.043 265.925 164.141 265.985 163.901C266.046 163.66 264.234 164.021 263.69 165.104C263.147 166.306 264.838 155.782 270.273 154.879Z" fill="#C2B5AC"/>
<path d="M264.898 131.359L278.73 133.205L278.857 132.191L265.025 130.345L264.898 131.359Z" fill="#3C342E"/>
<path d="M264.893 131.356L278.711 133.187L278.787 132.581L264.969 130.749L264.893 131.356Z" fill="#3C342E"/>
<path d="M264.477 136.574L278.023 138.384L278.15 137.37L264.603 135.56L264.477 136.574Z" fill="#3C342E"/>
<path d="M264.497 136.578L278.035 138.38L278.132 137.604L264.594 135.802L264.497 136.578Z" fill="#3C342E"/>
<path d="M263.762 141.954L277.309 143.764L277.435 142.75L263.889 140.94L263.762 141.954Z" fill="#3C342E"/>
<path d="M263.763 142.001L277.297 143.798L277.377 143.158L263.843 141.361L263.763 142.001Z" fill="#3C342E"/>
<path d="M229.019 243.849C230.92 238.439 237.306 233.097 239.703 230.433C239.703 230.433 242.791 226.961 240.413 220.973C238.036 214.985 238.735 207.055 244.088 201.517C249.473 195.966 262.519 199.575 262.519 199.575L263.205 199.668C263.205 199.668 276.592 200.253 280.647 207.252C284.717 214.284 283.73 222.166 280.193 227.215C276.657 232.265 278.942 236.566 278.942 236.566C280.692 239.857 285.768 247.018 286.481 252.851C287.153 258.309 285.247 263.526 281.768 267.615C278.011 272.043 271.528 274.957 261.681 274.366C261.136 274.337 256.401 273.853 255.066 273.574C253.74 273.409 249.02 272.412 248.512 272.29C238.828 269.8 233.195 264.961 230.464 259.498C227.991 254.563 227.236 248.902 229.019 243.849Z" fill="#E1A269"/>
<path d="M249.144 220.831C248.52 226.674 253.125 232.232 259.423 233.23C265.721 234.228 271.332 230.269 271.956 224.427C272.58 218.584 267.975 213.026 261.677 212.028C255.345 211.043 249.768 214.989 249.144 220.831Z" fill="#3C342E"/>
<path d="M253.11 221.456C252.705 225.255 255.7 228.871 259.792 229.524C263.884 230.178 267.508 227.596 267.913 223.797C268.318 219.997 265.323 216.381 261.231 215.728C257.153 215.109 253.515 217.657 253.11 221.456Z" fill="#1E1610"/>
<path d="M279.211 124.419C275.624 121.281 270.614 120.475 266.502 122.378L266.403 122.415L265.176 144.043C265.729 144.733 266.233 147.589 266.233 147.589L274.171 148.852C274.171 148.852 275.243 146.222 275.915 145.734L279.211 124.419ZM271.361 142.921L273.194 130.515C273.35 129.519 274.317 128.92 275.382 129.104C276.461 129.322 277.192 130.257 277.036 131.253L275.204 143.659C275.048 144.655 274.081 145.254 273.016 145.07C271.97 144.84 271.224 143.871 271.361 142.921ZM269.274 128.127C270.358 128.265 271.154 129.175 271.111 130.168L270.329 142.725C270.253 143.73 269.361 144.418 268.291 144.313C267.208 144.175 266.411 143.265 266.454 142.272L267.236 129.716C267.312 128.711 268.223 127.977 269.274 128.127Z" fill="#3C342E"/>
<path d="M262.338 215.612C260.23 215.277 258.249 215.791 256.776 216.892L265.892 147.585L273.83 148.836L267.97 219.329C266.803 217.432 264.762 215.982 262.338 215.612Z" fill="#3C342E"/>
<path d="M241.247 251.436L271.449 255.52L271.974 251.268L241.772 247.184L241.247 251.436Z" fill="#3C342E"/>
<path d="M277.321 145.184L277.368 145.205C277.7 145.275 277.986 145.05 278.038 144.718L278.302 142.162C278.354 141.83 278.116 141.53 277.783 141.461L277.736 141.439C277.404 141.37 277.118 141.594 277.066 141.926L276.802 144.483C276.75 144.814 276.989 145.114 277.321 145.184Z" fill="#3C342E"/>
<path d="M278.058 139.717L278.105 139.739C278.437 139.808 278.723 139.584 278.775 139.252L279.025 136.662C279.077 136.331 278.838 136.031 278.506 135.961L278.459 135.94C278.127 135.87 277.841 136.095 277.789 136.426L277.525 138.983C277.501 139.382 277.74 139.682 278.058 139.717Z" fill="#3C342E"/>
<path d="M278.955 134.573L279.001 134.594C279.334 134.664 279.62 134.439 279.671 134.108L279.936 131.551C279.973 131.186 279.735 130.886 279.402 130.816L279.356 130.795C279.037 130.759 278.719 130.996 278.7 131.315L278.435 133.872C278.398 134.237 278.636 134.537 278.955 134.573Z" fill="#3C342E"/>
<path d="M264.73 132.743L264.777 132.764C265.109 132.833 265.395 132.609 265.432 132.244L265.697 129.687C265.749 129.356 265.51 129.056 265.178 128.986L265.131 128.965C264.799 128.895 264.513 129.12 264.461 129.451L264.197 132.008C264.159 132.373 264.397 132.673 264.73 132.743Z" fill="#3C342E"/>
<path d="M264.199 137.934L264.245 137.956C264.578 138.025 264.863 137.8 264.915 137.469L265.18 134.913C265.231 134.581 264.993 134.281 264.66 134.211L264.6 134.156C264.267 134.087 263.982 134.312 263.93 134.643L263.665 137.199C263.628 137.565 263.866 137.865 264.199 137.934Z" fill="#3C342E"/>
<path d="M263.508 143.228L263.555 143.249C263.887 143.319 264.173 143.094 264.225 142.763L264.489 140.206C264.541 139.875 264.303 139.575 263.937 139.517L263.877 139.462C263.544 139.393 263.258 139.618 263.207 139.949L262.942 142.506C262.937 142.858 263.176 143.158 263.508 143.228Z" fill="#3C342E"/>
<path d="M275.17 133.073L275.801 133.159L276.009 131.467L275.378 131.382L275.17 133.073Z" fill="white"/>
<path d="M269.066 132.177L269.477 132.232L269.666 130.713L269.255 130.658L269.066 132.177Z" fill="white"/>
<path d="M274.065 138.201L274.551 138.267L274.78 136.429L274.294 136.364L274.065 138.201Z" fill="white"/>
<path d="M268.373 137.446L269.004 137.532L269.207 135.875L268.577 135.79L268.373 137.446Z" fill="white"/>
<path d="M273.577 143.424L274.098 143.494L274.293 141.907L273.773 141.836L273.577 143.424Z" fill="white"/>
<path d="M268.241 142.477L268.578 142.522L268.758 141.072L268.421 141.027L268.241 142.477Z" fill="white"/>
<path d="M264.724 156.634L264.804 155.961C263.777 156.382 261.031 157.887 259.581 159.57C258.132 161.315 254.75 168.111 254.75 168.111L238.867 174.726C238.444 174.787 238.565 183.808 239.652 188.499C240.377 187.958 241.222 187.356 242.188 186.635C248.59 181.943 259.521 173.945 260.729 172.862C262.48 171.298 262.843 170.156 262.903 168.532C262.963 166.908 264.111 163.72 264.111 163.72C264.111 163.72 265.56 160.894 266.829 159.45C269.147 157.419 268.397 156.72 268.397 156.72C268.397 156.72 263.498 158.959 264.464 158.478L264.724 156.634Z" fill="#F4AFBB"/>
<path d="M153.291 158.849C153.291 158.849 141.333 165.164 136.623 164.262C131.912 163.359 128.047 154.278 128.047 151.632C128.047 148.985 139.763 128.838 139.763 128.838L156.794 133.649L153.291 158.849Z" fill="#B1B1B1"/>
<path d="M139.766 128.778C139.766 128.778 142.302 133.348 146.59 136.416C150.878 139.483 154.381 141.347 155.649 141.528C156.978 141.708 154.562 135.634 149.428 132.085C144.416 128.597 140.37 127.815 139.766 128.778Z" fill="#1E1610"/>
<path d="M141.878 131.003C141.757 131.123 141.636 131.243 141.516 131.364C142.663 132.927 144.414 134.852 146.589 136.416C149.246 138.34 151.601 139.784 153.292 140.626C153.292 140.626 153.775 139.724 154.5 138.34C146.589 135.874 142.905 132.206 141.878 131.003Z" fill="#C2B5AC"/>
<path d="M158.707 112.011L160.391 106.366L171.086 106.2L170.731 110.35L173.79 111.465L158.707 112.011Z" fill="#8C7D73"/>
<path d="M181.917 109.291C181.736 110.434 181.313 111.276 180.89 111.216C180.528 111.156 180.347 110.194 180.528 109.111C180.709 107.968 181.132 107.126 181.555 107.187C181.917 107.247 182.098 108.149 181.917 109.291Z" fill="white"/>
<path d="M181.553 107.187L141.694 85.5954L137.285 112.9L180.949 111.216L181.553 107.187Z" fill="#DED8D3"/>
<path opacity="0.3" d="M181.553 107.187L180.466 106.585C180.466 106.585 182.761 107.968 176.118 106.826C175.997 106.826 174.306 106.886 174.306 106.886L172.192 109.532L137.587 111.156L137.285 112.9L180.949 111.216C181.312 111.216 181.734 110.374 181.915 109.292C182.097 108.149 181.915 107.247 181.553 107.187Z" fill="#C2B5AC"/>
<path opacity="0.3" d="M165.21 97.5961C165.576 97.5699 166.907 97.683 167.21 98.167C167.21 98.167 167.828 97.8949 168.222 97.9857C168.676 98.0623 169.154 98.504 169.154 98.504C169.154 98.504 170.754 98.1816 171.146 98.5204C171.538 98.8592 171.709 99.3129 171.709 99.3129C171.709 99.3129 173.426 98.9623 173.879 99.0389C174.332 99.1156 174.691 99.8335 175.047 100.799C175.39 101.707 176.313 104.516 176.179 104.734C176.045 104.951 174.14 105.038 173.88 104.729C173.619 104.421 173.319 103.689 173.319 103.689C173.319 103.689 171.997 104.13 171.241 103.57C170.485 103.009 169.997 102.013 169.997 102.013C169.997 102.013 169.161 102.152 168.548 101.928C167.936 101.704 167.439 100.153 167.439 100.153C167.439 100.153 166.177 100.333 165.595 99.9776C165.027 99.6811 164.676 98.2191 164.676 98.2191C164.676 98.2191 164.784 97.6364 165.21 97.5961Z" fill="#1E1610"/>
<path d="M176.06 105.984C175.758 105.924 174.55 106.224 174.128 107.187C173.705 108.149 172.859 110.013 172.859 110.013C172.859 110.013 170.987 109.773 169.296 111.036L158.667 112.058C158.667 112.058 158.728 112.419 158.305 113.02C158.003 113.381 149.548 122.643 143.69 129.018C142.905 129.86 142.18 130.642 141.516 131.364C142.663 132.927 144.414 134.852 146.589 136.416C149.246 138.34 151.601 139.784 153.292 140.626C153.292 140.626 153.836 139.543 154.742 137.799C158.003 131.544 165.733 116.93 166.699 116.268C167.968 115.486 173.947 114.283 174.611 113.381C175.275 112.539 176.241 110.013 176.302 109.712C176.483 109.412 176.423 106.044 176.06 105.984Z" fill="#F4AFBB"/>
<path d="M169.295 111.036L158.605 112.419L158.666 112.058L169.295 111.036Z" fill="#C2B5AC"/>
<path d="M142.384 99.6807C143.574 92.1335 143.177 85.8024 141.496 85.5396C139.816 85.2769 137.489 91.1821 136.299 98.7292C135.109 106.276 135.507 112.608 137.187 112.87C138.868 113.133 141.195 107.228 142.384 99.6807Z" fill="#C2B5AC"/>
<path d="M163.994 97.7028C163.994 97.7028 164.583 97.3137 164.95 97.2876C165.316 97.2614 166.648 97.3745 166.95 97.8585C166.95 97.8585 167.568 97.5863 167.963 97.6771C168.416 97.7538 168.895 98.1954 168.895 98.1954C168.895 98.1954 170.494 97.873 170.886 98.2118C171.278 98.5506 171.449 99.0044 171.449 99.0044C171.449 99.0044 173.166 98.6537 173.619 98.7304C174.072 98.8071 174.563 99.5552 174.905 100.463C175.247 101.37 175.994 104.221 175.919 104.425C175.844 104.629 173.88 104.729 173.62 104.421C173.359 104.112 173.059 103.38 173.059 103.38C173.059 103.38 171.737 103.822 170.981 103.261C170.225 102.7 169.737 101.704 169.737 101.704C169.737 101.704 168.901 101.843 168.289 101.619C167.676 101.395 167.179 99.8447 167.179 99.8447C167.179 99.8447 165.918 100.024 165.336 99.669C164.767 99.3725 164.416 97.9106 164.416 97.9106L163.994 97.7028Z" fill="#F4AFBB"/>
<path d="M100.751 343.426C105.621 343.426 109.568 342.914 109.568 342.283C109.568 341.652 105.621 341.14 100.751 341.14C95.8813 341.14 91.9336 341.652 91.9336 342.283C91.9336 342.914 95.8813 343.426 100.751 343.426Z" fill="#C1C1D1"/>
<path d="M289.536 342.283C294.406 342.283 298.353 341.771 298.353 341.14C298.353 340.509 294.406 339.998 289.536 339.998C284.666 339.998 280.719 340.509 280.719 341.14C280.719 341.771 284.666 342.283 289.536 342.283Z" fill="#C1C1D1"/>
<path d="M91.086 345.17C93.1873 345.17 94.8907 344.954 94.8907 344.689C94.8907 344.423 93.1873 344.207 91.086 344.207C88.9847 344.207 87.2812 344.423 87.2812 344.689C87.2812 344.954 88.9847 345.17 91.086 345.17Z" fill="#C1C1D1"/>
<path d="M120.495 169.142C119.34 169.495 116.578 169.344 114.946 169.218C113.214 169.117 113.013 169.092 112.812 169.42C112.335 170.024 112.385 170.024 119.893 179.752C116.277 180.558 114.796 186.455 117.909 187.967C121.198 189.58 125.09 184.112 122.855 180.886C122.654 180.584 119.39 176.35 116.779 172.922C119.39 173.376 122.378 171.486 122.077 169.193L121.977 168.412C121.223 168.865 121.625 168.79 120.495 169.142Z" fill="#3C342E"/>
<path d="M167.811 72.8082C167.865 72.2697 168.296 66.2121 168.809 58.7813C160.96 58.539 161.203 58.6467 154.218 56.5467C153.948 60.3698 153.678 64.1929 153.49 67.289C149.93 65.3505 144.671 69.0928 146.1 72.4582C147.637 76.0928 154.622 74.4236 155.081 70.2774C155.135 69.9005 155.324 66.5351 155.701 61.2313L166.678 62.8467C166.57 64.489 166.435 66.6159 166.22 69.7659C162.686 67.8544 157.4 71.5967 158.83 74.9889C159.612 76.8466 162.228 77.5466 164.655 76.5236C166.408 75.7697 167.649 74.3159 167.811 72.8082Z" fill="#3C342E"/>
<path d="M110.604 271.885C114.513 268.641 117.725 273.468 118.074 276.557C118.381 279.18 117.061 281.323 116.773 281.79C116.735 281.852 116.715 281.885 116.719 281.885C115.287 283.931 111.649 286.171 108.049 287.175C107.469 287.329 106.927 287.484 106.386 287.638L106.385 287.638C106.888 286.21 107.391 284.858 107.856 283.623C108.552 283.391 109.249 283.121 109.945 282.85C111.726 282.117 113.739 281.036 114.513 279.221C115.248 277.483 114.861 275.784 113.971 274.78C112.5 273.12 110.333 277.213 107.856 283.623C106.694 284.009 105.533 284.356 104.372 284.704C106.617 278.41 108.823 273.352 110.604 271.885Z" fill="#3C342E"/>
<path d="M104.054 285.639C104.161 285.337 104.268 285.038 104.372 284.742C105.534 284.395 106.695 284.047 107.817 283.661C107.622 284.196 107.42 284.745 107.214 285.305L107.214 285.305L107.214 285.306C106.93 286.078 106.638 286.871 106.346 287.677C105.203 287.998 104.158 288.384 103.182 288.746L102.94 288.835C103.3 287.758 103.683 286.681 104.054 285.639Z" fill="#3C342E"/>
<path fill-rule="evenodd" clip-rule="evenodd" d="M100.928 294.936C101.586 292.851 102.244 290.804 102.94 288.835C103.985 288.449 105.108 288.063 106.346 287.677C106.201 288.098 106.054 288.525 105.905 288.957L105.904 288.96C105.185 291.043 104.426 293.239 103.694 295.461C111.097 298.548 108.954 310.534 99.032 310.226H98.6824C96.4375 316.558 94.3087 321.655 92.6056 323.122C89.9405 325.444 85.4915 324.315 85.5079 320.723C85.5065 320.424 85.5365 320.114 85.6006 319.802C85.9876 318.064 87.2649 316.906 88.5035 317.176C89.7421 317.446 90.4388 319.068 90.0517 320.767C89.8951 321.47 89.5929 322.078 89.2065 322.535C90.7623 322.318 91.9067 320.626 92.1372 320.285C92.1653 320.244 92.1799 320.222 92.1799 320.226C93.0701 318.991 94.4635 315.052 96.1665 309.878C96.5031 309.958 96.8464 310.025 97.1935 310.078C96.8465 310.025 96.5034 309.958 96.1669 309.878C96.2055 309.752 96.2449 309.624 96.285 309.496C96.2464 309.611 96.2074 309.726 96.1677 309.84C94.4646 309.492 92.839 308.797 91.4843 307.793C89.6265 306.403 88.4653 304.357 87.9621 302.195C86.9945 298.063 87.8073 293.623 91.0973 290.611C93.6131 288.333 96.9805 287.02 100.27 285.939C101.625 285.514 103.019 285.09 104.373 284.704C104.269 284.999 104.162 285.298 104.055 285.601C103.684 286.642 103.301 287.719 102.941 288.796C91.136 293.353 91.0972 299.222 91.2521 300.534C91.7552 304.511 94.2711 306.558 97.0579 307.06C96.9511 307.392 96.849 307.721 96.7483 308.044L96.6847 308.248L96.7573 308.025C96.8564 307.72 96.9568 307.411 97.0571 307.098L97.069 307.101C98.0721 303.983 99.1517 300.598 100.231 297.175C100.464 296.403 100.696 295.669 100.928 294.936ZM102.669 297.754C102.651 297.754 102.67 297.764 102.708 297.783C102.743 297.801 102.793 297.826 102.845 297.858C102.739 297.789 102.669 297.754 102.669 297.754ZM102.863 297.87C102.654 298.496 102.445 299.123 102.236 299.75L102.236 299.751C101.4 302.259 100.564 304.767 99.7281 307.176C99.4879 307.207 99.2477 307.23 99.0076 307.243C99.2453 307.231 99.4849 307.21 99.7271 307.18L99.7287 307.176C101.587 306.944 103.328 306.056 104.335 304.666C106.347 301.963 104.76 299.646 104.954 300.071C104.489 299.067 103.483 298.256 103.599 298.372C103.416 298.226 103.128 298.01 102.868 297.856L102.863 297.87Z" fill="#3C342E"/>
<path d="M98.9932 299.685C99.1952 298.778 99.1021 297.903 98.7908 297.24C99.2303 297.164 99.7093 297.127 100.231 297.137C100.463 296.403 100.695 295.669 100.927 294.897C99.263 294.858 96.7859 295.129 95.2764 297.059L95.2813 297.084C94.9457 297.523 94.6841 298.082 94.5421 298.72C94.1938 300.419 94.8518 302.04 96.0903 302.311C97.3289 302.581 98.6062 301.422 98.9932 299.685Z" fill="#3C342E"/>
<path d="M111.95 153.348C111.901 153.275 106.143 147.026 95.1672 143.178C79.4915 137.689 52.6189 143.717 44.6457 126.465C43.2184 123.401 43.1445 121 43.1445 120.902C43.1445 120.534 43.6859 120.534 43.7105 120.902C43.7105 120.926 43.7844 123.303 45.1624 126.293C52.988 143.154 79.5899 137.149 95.364 142.688C103.239 145.457 109.735 150.089 112.369 153.005C112.615 153.25 112.196 153.618 111.95 153.348Z" fill="#C2B5AC"/>
<path d="M111.726 150.383C111.505 150.138 106.288 144.575 96.4934 141.12C85.8379 137.346 69.4239 138.277 59.5559 133.866C53.6006 131.219 50.6722 127.396 49.2695 124.651C47.7437 121.686 47.6453 119.358 47.6453 119.26C47.6207 118.892 48.1867 118.868 48.2113 119.235C48.2113 119.26 48.3097 121.563 49.7863 124.406C51.1397 127.053 53.9943 130.753 59.8266 133.351C69.5716 137.689 85.9609 136.782 96.7149 140.58C106.632 144.085 111.948 149.746 112.169 149.991C112.268 150.113 112.268 150.285 112.144 150.383C112.021 150.506 111.849 150.506 111.726 150.383Z" fill="#C2B5AC"/>
<path d="M111.505 147.442C109.192 144.918 104.369 141.389 97.8474 139.086C87.5364 135.385 73.5341 135.483 64.7488 131.807C58.4736 129.185 55.3976 125.484 53.8964 122.838C52.2723 119.97 52.1492 117.716 52.1492 117.642C52.1246 117.275 52.6906 117.25 52.7152 117.618C52.7152 117.642 52.8383 119.848 54.4132 122.617C55.8651 125.166 58.8674 128.768 64.9703 131.317C69.4245 133.179 75.1829 134.037 81.2612 134.968C87.0196 135.851 92.9749 136.757 98.0443 138.571C104.664 140.924 109.561 144.501 111.924 147.099C112.17 147.344 111.776 147.712 111.505 147.442Z" fill="#C2B5AC"/>
<path d="M111.309 144.477C101.342 133.67 81.1633 134.086 69.9172 129.724C63.3467 127.175 60.0983 123.597 58.5234 121.049C56.8008 118.255 56.6531 116.098 56.6531 116C56.6285 115.633 57.1945 115.608 57.2191 115.976C57.2191 116.025 57.3914 118.132 59.0402 120.804C60.5659 123.279 63.7404 126.759 70.1386 129.234C81.3602 133.572 101.638 133.13 111.752 144.109C111.85 144.232 111.85 144.403 111.727 144.501C111.58 144.599 111.407 144.599 111.309 144.477Z" fill="#C2B5AC"/>
<path d="M67.9971 122.544C67.062 121.588 65.9054 118.794 65.2163 117.128C64.2812 114.873 64.3796 115.339 64.0351 115.167C63.2969 115.02 63.9121 115.559 57.9322 127.739C55.4467 124.504 48.3348 125.288 48.3594 129.038C48.3594 130.974 50.4266 132.714 53.2073 132.689C55.1268 132.689 56.8494 131.807 57.6123 130.459C57.8091 130.092 60.4177 124.823 62.5586 120.534C63.2969 123.377 66.6436 125.435 68.7354 124.063L69.3752 123.646L68.7354 123.254C68.4893 123.107 68.0217 122.593 67.9971 122.544Z" fill="#C2B5AC"/>
<path d="M106.634 134.184C105.502 133.866 103.336 132.224 102.057 131.268C100.703 130.239 100.555 130.141 100.211 130.263C99.4972 130.508 100.235 130.827 101.121 142.786C97.7254 141.487 92.656 145.163 94.3786 148.055C96.1997 151.118 102.327 148.79 102.229 144.992C102.229 144.624 101.835 138.571 101.564 134.405C103.459 136.169 106.904 137.125 107.913 135.115L108.258 134.429C107.347 134.356 107.741 134.527 106.634 134.184Z" fill="#C2B5AC"/>
<path d="M88.0771 134.282C88.0525 133.768 87.6833 128.278 87.2404 121.514C80.1039 122.274 80.35 122.348 73.7795 121.294C74.0009 124.774 74.247 128.254 74.4439 131.072C70.9987 129.748 66.6922 133.792 68.3902 136.659C70.2358 139.747 75.9942 136.512 75.9204 132.714C75.9204 132.714 75.5267 129.699 75.2068 124.872L86.3053 124.97C86.4037 126.465 86.5267 129.381 86.7482 132.248C83.303 130.949 78.5043 134.478 80.2269 137.346C81.1621 138.938 83.6229 139.233 85.6654 138.007C87.1666 137.149 88.1017 135.679 88.0771 134.282Z" fill="#C2B5AC"/>
<defs>
<linearGradient id="paint0_linear" x1="83.506" y1="83.7825" x2="344.333" y2="414.101" gradientUnits="userSpaceOnUse">
<stop stop-color="#7D7CBB" stop-opacity="0.3"/>
<stop offset="0.155" stop-color="#6D6AA6" stop-opacity="0.4085"/>
<stop offset="0.5461" stop-color="#494683" stop-opacity="0.6823"/>
<stop offset="0.8396" stop-color="#343171" stop-opacity="0.8877"/>
<stop offset="1" stop-color="#2C2A6B"/>
</linearGradient>
<linearGradient id="paint1_linear" x1="64.2745" y1="223.513" x2="250.726" y2="384.406" gradientUnits="userSpaceOnUse">
<stop stop-color="#7D7CBB" stop-opacity="0.3"/>
<stop offset="0.1089" stop-color="#706DA9" stop-opacity="0.3762"/>
<stop offset="0.3908" stop-color="#524E8A" stop-opacity="0.5735"/>
<stop offset="0.6433" stop-color="#3D3A78" stop-opacity="0.7503"/>
<stop offset="0.855" stop-color="#302E6E" stop-opacity="0.8985"/>
<stop offset="1" stop-color="#2C2A6B"/>
</linearGradient>
<linearGradient id="paint2_linear" x1="67.6012" y1="97.2558" x2="109.401" y2="169.339" gradientUnits="userSpaceOnUse">
<stop stop-color="#7D7CBB" stop-opacity="0.3"/>
<stop offset="0.155" stop-color="#6D6AA6" stop-opacity="0.4085"/>
<stop offset="0.5461" stop-color="#494683" stop-opacity="0.6823"/>
<stop offset="0.8396" stop-color="#343171" stop-opacity="0.8877"/>
<stop offset="1" stop-color="#2C2A6B"/>
</linearGradient>
</defs>
</svg>
