<svg width="412" height="400" viewBox="0 0 412 400" fill="none" xmlns="http://www.w3.org/2000/svg">
<path d="M385.098 101.816C385.098 101.816 393.453 166.363 350.486 182.908C333.637 189.382 336.902 163.071 347.055 146.36C357.209 129.649 355.715 120.685 340.775 125.61C325.862 130.534 281.235 135.68 292.136 111.25C303.037 86.8202 333.083 39.2326 303.507 40.7267C273.959 42.193 259.018 67.7022 258.271 58.323C257.524 48.9162 252.461 30.1301 226.482 59.9554C200.502 89.7806 179.614 103.919 185.59 89.6146C191.566 75.3107 186.115 56.8843 142.069 81.2591C98.023 105.634 76.6916 169.711 56.7989 200.449C36.9062 231.188 -11.4838 296.399 27.4993 323.402C66.4824 350.406 171.286 300.19 178.618 331.315C185.977 362.441 258.825 356.824 327.993 306.774C397.161 256.724 413.955 170.845 396.386 98.1361L385.098 101.816Z" fill="#DDDCE5"/>
<path d="M148.1 359.204C163.182 359.204 175.408 352.589 175.408 344.429C175.408 336.27 163.182 329.655 148.1 329.655C133.019 329.655 120.793 336.27 120.793 344.429C120.793 352.589 133.019 359.204 148.1 359.204Z" fill="#3C342E"/>
<path d="M107.347 346.975C111.763 346.975 115.343 344.485 115.343 341.414C115.343 338.342 111.763 335.853 107.347 335.853C102.931 335.853 99.3516 338.342 99.3516 341.414C99.3516 344.485 102.931 346.975 107.347 346.975Z" fill="#3C342E"/>
<path d="M87.3757 112.634C95.9525 126.799 37.7131 228.006 21.8321 233.318C5.95113 238.63 38.5984 168.438 47.3966 149.652C56.1948 130.866 75.7831 93.4603 87.3757 112.634Z" fill="#DDDCE5"/>
<path opacity="0.43" d="M314.295 309.645C319.801 304.084 322.485 296.807 322.263 288.037C322.097 281.286 320.216 273.65 316.647 265.322C310.671 251.378 302.122 240.366 301.762 239.924L301.457 239.536L301.015 239.287C300.738 239.121 294.319 235.276 286.434 235.276C278.604 235.276 272.047 239.094 267.427 246.287C261.063 256.192 262.004 265.516 263.885 271.575C264.466 273.429 265.158 275.116 265.877 276.555C265.794 276.555 265.739 276.555 265.656 276.555C261.146 276.555 257.522 278.547 255.17 282.282C251.878 287.511 252.819 292.906 254.257 296.641L245.736 296.06C244.297 289.116 240.036 288.314 238.127 288.314C238.044 288.314 237.961 288.314 237.906 288.314C236.744 284.468 233.701 279.903 227.226 279.211C226.562 279.128 225.898 279.1 225.234 279.1C218.207 279.1 212.673 283.25 209.215 291.136C209.132 291.302 209.077 291.468 208.994 291.634C208.966 291.606 208.938 291.578 208.938 291.551C207.693 290.195 206.089 289.503 204.235 289.503C201.385 289.503 198.785 290.748 196.682 292.242C196.377 287.76 195.16 281.895 191.314 276.693C186.528 270.164 178.864 266.235 168.6 265.045C167.327 264.907 166.027 264.824 164.782 264.824C152.304 264.824 141.043 272.322 132.19 286.515C127.929 293.377 125.19 300.155 123.779 304.112C122.534 303.558 121.04 303.116 119.324 303.116C116.834 303.116 113.182 304.084 109.779 308.649C104.91 315.151 106.736 322.289 109.309 326.826C143.561 321.238 174.742 314.957 178.615 331.419C185.089 358.81 242.194 357.758 302.924 323.064C302.952 323.036 302.952 323.036 302.979 323.008C306.963 318 310.726 313.269 314.295 309.645Z" fill="#DED8D3"/>
<path d="M299.601 241.639C299.601 241.639 280.954 230.296 269.748 247.754C258.571 265.212 271.685 280.595 271.685 280.595C271.685 280.595 262.278 276.113 257.519 283.721C252.733 291.329 259.014 299.685 259.014 299.685L243.354 298.634C242.303 288.037 235.745 291.634 235.745 291.634C235.745 291.634 235.303 282.836 226.947 281.923C211.122 280.235 208.991 302.424 208.908 303.365C208.908 303.392 208.908 303.392 208.908 303.392V303.365C208.964 302.673 209.766 292.215 204.288 292.215C198.616 292.215 193.691 299.076 193.691 299.076C193.691 299.076 198.92 271.326 168.32 267.729C137.693 264.188 125.298 308.345 125.298 308.345C125.298 308.345 118.437 301.622 111.99 310.282C107.231 316.645 110.33 323.285 112.267 326.328C145.329 320.878 174.822 315.428 178.613 331.419C184.838 357.841 238.263 357.786 296.53 326.577C302.396 319.356 307.403 312.689 312.328 307.708C334.075 285.741 299.601 241.639 299.601 241.639Z" fill="#C2B5AC"/>
<path d="M148.097 359.308C163.178 359.308 175.404 352.693 175.404 344.533C175.404 336.374 163.178 329.759 148.097 329.759C133.015 329.759 120.789 336.374 120.789 344.533C120.789 352.693 133.015 359.308 148.097 359.308Z" fill="#C2B5AC"/>
<path d="M107.343 347.079C111.759 347.079 115.339 344.589 115.339 341.518C115.339 338.447 111.759 335.957 107.343 335.957C102.928 335.957 99.3477 338.447 99.3477 341.518C99.3477 344.589 102.928 347.079 107.343 347.079Z" fill="#C2B5AC"/>
<path d="M327.988 306.878C397.156 256.801 413.95 170.949 396.381 98.2401L385.093 101.92C385.093 101.92 393.449 166.467 350.482 183.012C335.126 188.905 336.482 167.629 344.506 151.14C341.656 149.065 335.154 146.602 324.17 154.238C308.649 165.029 315.068 188.048 315.068 188.048C315.068 188.048 307.763 183.704 302.728 190.87C297.693 198.036 303.53 204.51 303.53 204.51C303.53 204.51 288.728 206.197 286.819 227.114C284.993 247.283 298.08 248.833 299.021 248.943C299.048 248.943 299.076 248.943 299.076 248.943C299.076 248.943 299.048 248.943 299.021 248.943C298.301 248.888 290.527 248.473 290.831 257.354C291.163 266.65 299.602 264.741 299.602 264.741C299.602 264.741 289.724 272.239 296.531 286.349C296.531 286.349 291.108 284.606 290.084 290.167C290.084 290.167 284.495 278.99 275.476 288.535C266.456 298.08 271.436 306.74 271.436 306.74C271.436 306.74 249.303 280.733 214.165 305.357C193.941 319.522 189.542 335.735 192.502 346.664C218.232 357.841 274.231 345.778 327.988 306.878Z" fill="#6E94A4"/>
<path d="M396.384 98.2401L385.096 101.92C385.096 101.92 393.451 166.467 350.484 183.012C339.805 187.107 337.204 178.06 339.307 166.633C333.026 176.483 330.149 187.965 336.485 199.834C336.485 199.834 327.935 196.569 324.2 204.482C320.465 212.395 321.821 219.837 331.366 219.478C331.366 219.478 302.869 232.979 308.375 256.856C313.825 280.429 334.852 276.5 335.378 276.417C334.935 276.5 321.268 279.294 324.947 290.444C324.947 290.444 315.706 277.607 299.577 291.634C283.474 305.661 297.944 315.206 297.944 315.206C297.944 315.206 288.399 309.839 281.095 315.206C273.791 320.574 281.095 327.435 281.095 327.435C281.095 327.435 230.353 324.115 221.859 350.427C250.633 348.545 289.865 334.463 327.991 306.878C397.159 256.801 413.925 170.949 396.384 98.2401Z" fill="#DED8D3"/>
<path d="M363.239 280.982C328.323 324.392 268.23 342.403 275.119 344.091C282.008 345.778 306.991 337.036 306.991 337.036C306.991 337.036 284.913 358.173 311.667 357.841C338.421 357.509 345.809 336.704 345.809 336.704C345.809 336.704 350.844 346.442 368.634 328.984C386.424 311.526 379.037 300.792 379.037 300.792C379.037 300.792 393.59 301.456 394.364 259.485C394.364 259.485 419.127 196.071 405.653 123.749C409 143.31 416.498 214.719 363.239 280.982Z" fill="#DED8D3"/>
<path d="M380.165 95.3671C375.932 103.889 373.635 113.959 373.137 114.015C371.947 114.181 368.821 99.7662 370.343 93.3751C371.671 87.7863 375.655 84.2726 377.398 83.9959C378.615 83.7745 380.165 95.3671 380.165 95.3671Z" fill="#CD721E"/>
<path d="M375.514 84.9918C374.712 85.6282 373.799 86.5135 372.969 87.6756C372.996 87.8416 373.66 95.5607 377.119 102.45C377.949 100.209 378.917 97.8847 380.024 95.6437L375.514 84.9918Z" fill="#915620"/>
<path d="M398.536 92.2131C405.37 98.8532 410.903 107.568 411.346 107.485C412.535 107.209 410.682 92.6004 407.113 87.0946C403.986 82.2805 399.062 80.2885 397.319 80.5928C396.129 80.7865 398.536 92.2131 398.536 92.2131Z" fill="#CD721E"/>
<path d="M399.477 80.8972C400.446 81.2292 401.608 81.7826 402.77 82.5849C402.825 82.7509 404.734 90.2487 403.766 97.8849C402.244 96.0588 400.556 94.1775 398.758 92.4344L399.477 80.8972Z" fill="#915620"/>
<path d="M398.375 99.2958C398.541 99.1851 398.679 99.0467 398.734 98.8531C399.896 94.9797 400.062 89.4739 398.79 82.0038C396.051 65.9845 384.32 57.6013 383.185 57.795C382.051 57.9886 373.779 69.7749 376.518 85.8218C377.79 93.292 379.782 98.4381 382.189 101.675C382.3 101.841 382.494 101.952 382.687 101.979C383.628 102.145 386.616 102.588 390.766 101.869C394.889 101.177 397.572 99.7661 398.375 99.2958Z" fill="#DED8D3"/>
<path d="M398.375 99.2958C398.541 99.1851 398.679 99.0467 398.734 98.8531C399.896 94.9797 400.062 89.4739 398.79 82.0038C396.051 65.9845 384.32 57.6013 383.185 57.795C382.051 57.9886 373.779 69.7749 376.518 85.8218C377.79 93.292 379.782 98.4381 382.189 101.675C382.3 101.841 382.494 101.952 382.687 101.979C383.628 102.145 386.616 102.588 390.766 101.869C394.889 101.177 397.572 99.7661 398.375 99.2958Z" fill="#1E1610"/>
<path d="M399.234 97.8571C399.4 97.7741 399.538 97.6357 399.621 97.4421C401.087 93.9283 401.503 89.0036 400.368 82.3635C397.906 68.1149 383.602 52.3999 382.301 52.6212C381.029 52.8426 372.729 72.4033 375.163 86.6519C376.298 93.292 378.317 97.8017 380.863 100.624C381.001 100.762 381.167 100.873 381.361 100.873C382.357 100.983 385.732 101.288 390.463 100.458C395.222 99.6831 398.321 98.2998 399.234 97.8571Z" fill="#3C342E"/>
<path d="M400.504 95.4224C402.247 91.1339 402.718 84.9918 401.279 76.6363C398.291 59.1783 383.157 48.7478 381.69 48.9968C380.224 49.2458 369.406 64.1308 372.394 81.5888C373.805 89.9443 376.295 95.5607 379.366 99.0468C379.366 99.0468 383.655 99.8491 390.184 98.7148C396.714 97.5804 400.504 95.4224 400.504 95.4224Z" fill="#DED8D3"/>
<path d="M400.504 95.4224C402.247 91.1339 402.718 84.9918 401.279 76.6363C398.291 59.1783 383.157 48.7478 381.69 48.9968C380.224 49.2458 369.406 64.1308 372.394 81.5888C373.805 89.9443 376.295 95.5607 379.366 99.0468C379.366 99.0468 383.655 99.8491 390.184 98.7148C396.714 97.5804 400.504 95.4224 400.504 95.4224Z" fill="#ED9A4D"/>
<path opacity="0.55" d="M381.691 48.9968C383.158 48.7478 392.454 60.1744 395.47 77.6324C396.881 85.7942 396.466 93.3196 394.806 97.6634C398.485 96.5844 400.533 95.4224 400.533 95.4224C402.276 91.1339 402.746 84.9918 401.307 76.6363C398.292 59.1783 383.158 48.7478 381.691 48.9968Z" fill="#E57B18"/>
<path d="M387.999 83.2765C386.699 83.4979 384.901 91.9917 385.703 93.8454C385.703 93.8454 392.177 113.406 393.118 113.24C394.058 113.074 393.671 92.462 393.671 92.462C393.837 90.47 389.327 83.0552 387.999 83.2765Z" fill="#ED9A4D"/>
<path d="M387.999 83.2765C386.699 83.4979 384.901 91.9917 385.703 93.8454C385.703 93.8454 391.209 107.707 392.149 107.541C393.09 107.375 393.671 92.4897 393.671 92.4897C393.837 90.47 389.327 83.0552 387.999 83.2765Z" fill="#CD721E"/>
<path d="M393.807 65.9568C394.665 71.0199 391.289 75.8063 386.226 76.664C381.163 77.5217 376.377 74.1463 375.519 69.0832C374.634 64.0478 378.037 59.2337 383.1 58.376C388.163 57.5183 392.922 60.9214 393.807 65.9568Z" fill="white"/>
<path d="M383.431 61.2811C379.944 61.8898 377.593 65.1822 378.201 68.6959C378.782 72.1543 382.102 74.506 385.589 73.8973C389.075 73.2886 391.426 69.9962 390.818 66.4825C390.237 63.0241 386.917 60.6724 383.431 61.2811Z" fill="#3C342E"/>
<path d="M299.166 147.728C295.348 147.672 292.775 149.083 292.775 149.083L289.316 157.079L300.743 158.241C300.743 158.241 301.628 159.265 302.818 160.51L305.197 151.463C305.197 151.49 302.956 147.783 299.166 147.728Z" fill="#F4AFBB"/>
<path d="M310.509 148.392C308.6 144.933 307.438 140.174 305.086 137.712C302.735 135.25 296.233 137.601 295.071 137.933C293.909 138.265 294.13 139.455 294.13 139.455C294.13 139.455 302.79 135.775 305.197 138.846C307.604 141.917 309.624 148.53 311.699 152.901C313.774 157.273 315.406 160.98 314.798 163.028C314.825 162.945 314.853 162.862 314.881 162.806C315.877 159.486 312.418 151.878 310.509 148.392Z" fill="url(#paint0_linear)"/>
<path d="M310.509 148.392C308.6 144.933 307.438 140.174 305.086 137.712C302.735 135.25 296.233 137.601 295.071 137.933C293.909 138.265 294.13 139.455 294.13 139.455C294.13 139.455 302.79 135.775 305.197 138.846C307.604 141.917 309.624 148.53 311.699 152.901C313.774 157.273 315.406 160.98 314.798 163.028C314.825 162.945 314.853 162.862 314.881 162.806C315.877 159.486 312.418 151.878 310.509 148.392Z" fill="#1E1610"/>
<path d="M312.39 157.854C311.505 155.834 307.106 143.743 304.063 140.921C301.517 138.542 295.32 141.06 293.328 141.558C292.387 145.099 292.774 149.056 292.774 149.056C292.774 149.056 295.347 147.645 299.165 147.7C302.984 147.755 305.197 151.463 305.197 151.463L302.817 160.51C304.035 161.782 305.584 163.304 306.774 164.107C308.738 165.462 312.335 165.905 314.078 164.134C314.465 161.367 313.303 159.873 312.39 157.854Z" fill="#6E94A4"/>
<path d="M314.798 163.028C315.379 160.98 313.774 157.245 311.699 152.901C309.624 148.558 307.632 141.918 305.197 138.846C302.762 135.775 294.13 139.455 294.13 139.455C293.798 140.119 293.549 140.839 293.355 141.586C295.375 141.088 301.545 138.542 304.09 140.949C307.106 143.771 311.505 155.862 312.418 157.881C313.304 159.901 314.493 161.368 314.078 164.19C314.383 163.858 314.632 163.47 314.798 163.028Z" fill="#3C342E"/>
<path d="M301.878 157.937C301.989 157.743 306.831 155.585 307.522 155.917C308.186 156.249 308.629 157.19 308.269 157.937C307.91 158.684 304.064 160.842 303.428 160.261C302.819 159.68 301.519 158.684 301.878 157.937Z" fill="#1E1610"/>
<path d="M304.839 161.285C305.42 161.036 308.491 158.905 309.045 159.265C309.598 159.624 309.681 160.04 309.238 160.759C308.796 161.478 306.444 162.613 305.891 162.391C305.337 162.17 303.954 161.672 304.839 161.285Z" fill="#1E1610"/>
<path d="M238.677 130.768L237.266 139.068L251.708 140.7L253.921 131.902C248.969 129.301 238.677 130.768 238.677 130.768Z" fill="#F4AFBB"/>
<path d="M254.531 118.788C247.061 116.989 239.314 118.815 238.816 119.645C238.677 119.867 238.594 120.116 238.539 120.337C238.567 120.337 252.622 117.238 257.021 121.333C257.159 120.807 257.131 119.424 254.531 118.788Z" fill="url(#paint1_linear)"/>
<path d="M254.531 118.788C247.061 116.989 239.314 118.815 238.816 119.645C238.677 119.867 238.594 120.116 238.539 120.337C238.567 120.337 252.622 117.238 257.021 121.333C257.159 120.807 257.131 119.424 254.531 118.788Z" fill="#1E1610"/>
<path d="M238.348 122.578C238.127 124.376 237.822 128.111 238.68 130.795C238.68 130.795 248.972 129.329 253.925 131.929L253.98 131.736C253.98 131.736 256.027 126.009 256.747 123.021C248.253 120.309 240.506 122.025 238.348 122.578Z" fill="#6E94A4"/>
<path d="M257.046 121.361C252.62 117.266 238.565 120.365 238.565 120.365C238.426 120.973 238.509 121.527 238.509 121.527C238.509 121.527 238.454 121.914 238.371 122.578C240.529 122.025 248.276 120.337 256.77 122.993C256.908 122.384 257.019 121.886 257.019 121.582C256.991 121.554 257.019 121.471 257.046 121.361Z" fill="url(#paint2_linear)"/>
<path d="M257.046 121.361C252.62 117.266 238.565 120.365 238.565 120.365C238.426 120.973 238.509 121.527 238.509 121.527C238.509 121.527 238.454 121.914 238.371 122.578C240.529 122.025 248.276 120.337 256.77 122.993C256.908 122.384 257.019 121.886 257.019 121.582C256.991 121.554 257.019 121.471 257.046 121.361Z" fill="#3C342E"/>
<path d="M297.921 155.308C292.387 155.391 288.569 155.668 288.569 155.668C288.569 155.668 280.933 169.474 279.356 176.252C277.779 183.031 276.008 185.355 276.008 185.355L252.796 197.722L259.38 203.117L249.946 199.244C249.946 199.244 243.223 196.228 239.266 196.394C235.282 196.56 230.192 193.932 230.192 193.932C230.192 193.932 240.926 179.157 241.452 177.525C241.95 175.893 255.23 140.368 255.23 140.368C255.23 140.368 252.325 137.186 245.215 136.55C238.104 135.941 236.195 137.767 235.531 138.846C234.867 139.898 219.263 170.193 218.156 172.296C217.05 174.399 207.56 182.505 203.769 185.216C199.951 187.9 188.469 198.192 185.703 202.979C184.624 204.833 193.892 208.955 205.623 213.299C196.963 207.267 189.77 202.121 189.77 202.121C189.77 202.121 204.212 206.631 210.022 206.742C215.832 206.852 224.243 203.726 231.16 205.967C236.5 207.682 250.361 218.14 256.448 222.872C267.515 215.706 287.158 202.564 289.787 198.248C293.466 192.216 304.118 158.186 304.118 158.186C304.118 158.186 303.454 155.253 297.921 155.308Z" fill="#1E1610"/>
<path d="M209.967 206.769C204.157 206.658 189.715 202.149 189.715 202.149C189.715 202.149 196.908 207.295 205.568 213.326C224.133 220.215 248.923 227.686 248.923 227.686C248.923 227.686 251.966 225.749 256.42 222.871C250.334 218.14 236.472 207.682 231.133 205.967C224.161 203.753 215.777 206.88 209.967 206.769Z" fill="#1E1610"/>
<path d="M252.768 197.75L249.918 199.271L252.768 197.75Z" fill="#0D0F16"/>
<path d="M252.768 197.75L249.918 199.271L259.352 203.145L252.768 197.75Z" fill="#1E1610"/>
<path d="M194.753 281.858C194.753 281.858 193.452 281 190.63 280.06C187.808 279.119 173.864 275.993 169.078 276.657C164.291 277.321 180.781 267.471 181.196 267.388C181.611 267.305 199.982 271.649 198.682 277.238C197.409 282.799 194.753 281.858 194.753 281.858Z" fill="white"/>
<path d="M187.59 251.867L121.687 232.721L94.7392 214.378L89.6484 230.01C105.446 243.124 127.58 261.606 127.58 261.606C127.58 261.606 128.023 276.269 139.892 284.321C151.761 292.372 159.591 284.763 162.828 281.969C166.065 279.174 180.286 270.791 181.172 271.013C182.057 271.234 194.701 275.273 199.515 276.38C202.641 277.099 235.676 279.838 259.304 281.913V267.665C235.012 262.768 187.59 251.867 187.59 251.867Z" fill="#F4AFBB"/>
<path d="M196.528 267.167C196.528 267.056 196.528 266.973 196.528 266.973C196.501 261.052 194.426 256.377 191.05 252.669C188.837 252.171 187.592 251.867 187.592 251.867L142.218 238.697L127.609 261.606C127.609 261.606 127.803 268.301 131.593 275.107C144.514 281.416 158.043 278.4 158.929 277.653C159.814 276.933 160.091 274.858 160.561 273.669C161.031 272.479 162.802 269.242 163.577 267.748C164.351 266.226 166.039 265.507 166.039 265.507C166.039 267.25 168.557 267.637 168.557 267.637C168.557 267.637 173.15 262.546 175.944 262.38C178.738 262.214 178.849 264.511 177.41 268.025C175.972 271.538 169.857 273.669 169.857 273.669C171.794 274.471 176.331 272.949 179.043 271.87C180.205 271.262 181.007 270.93 181.201 270.957C181.201 270.957 194.813 275.19 195.615 275.301C196.224 275.356 196.445 270.598 196.501 268.218C196.528 267.886 196.528 267.527 196.528 267.167Z" fill="#EE8C9D"/>
<path d="M134.552 272.617L135.078 277.819C135.078 277.819 133.28 278.427 133.556 279.755C133.833 281.083 139.256 279.562 139.256 279.562L135.963 271.538L134.552 272.617Z" fill="#F4AFBB"/>
<path d="M161.333 254.661C161.333 254.661 164.902 257.898 165.096 259.918C165.262 261.938 165.207 268.301 168.554 267.637C168.554 267.637 174.835 261.135 177.408 263.155C179.04 264.455 177.408 268.024 177.408 268.024C177.408 268.024 183.744 269.657 184.518 267.36C185.293 265.064 181.724 263.957 181.724 263.957C181.724 263.957 188.945 262.436 189 260.831C189.056 259.199 181.226 258.59 181.226 258.59L179.594 254.274C179.594 254.274 186.925 241.741 182.111 237.259C177.297 232.776 170.131 239.168 170.131 239.168C170.131 239.168 174.448 232.5 173.424 230.425C172.428 228.35 165.705 233.496 165.705 233.496C165.705 233.496 173.092 220.797 169.218 217.726C165.345 214.654 150.183 217.062 141.247 231.255C141.247 231.255 143.156 224.2 138.342 225.168C133.528 226.136 122.516 240.219 126.777 255.879C126.777 255.879 148.413 261.965 153.282 258.728C158.152 255.491 160.227 253.555 161.333 254.661Z" fill="#3C342E"/>
<path d="M120.746 259.697L126.418 255.768C127.165 255.242 128.106 255.076 128.991 255.27C132.892 256.183 144.623 258.645 157.903 259.226C160.034 259.309 161.694 261.052 161.694 263.183V270.57C161.694 272.23 160.725 273.752 159.203 274.416L152.204 277.597L120.746 259.697Z" fill="#E12855"/>
<path d="M148.442 277.819C142.825 277.819 131.814 276.989 121.217 271.372C120.609 271.04 120.221 270.404 120.194 269.712L120 261.55C120 261.025 120.194 260.554 120.553 260.167C120.913 259.807 121.411 259.586 121.909 259.586C122.13 259.586 122.324 259.614 122.545 259.697C127.581 261.44 137.956 264.4 150.766 264.815C151.79 264.843 152.592 265.673 152.62 266.669L152.813 275.771C152.841 276.823 152.039 277.653 150.987 277.708C150.157 277.819 149.3 277.819 148.442 277.819Z" fill="#3C342E"/>
<path d="M121.909 259.89C122.075 259.89 122.269 259.918 122.435 259.973C127.498 261.716 137.901 264.704 150.738 265.119C151.596 265.147 152.315 265.839 152.315 266.724L152.509 275.827C152.536 276.712 151.845 277.459 150.959 277.487C150.157 277.514 149.299 277.542 148.414 277.542C142.825 277.542 131.869 276.712 121.3 271.123C120.775 270.847 120.443 270.293 120.415 269.712L120.221 261.55C120.221 261.108 120.387 260.693 120.692 260.388C121.051 260.084 121.466 259.89 121.909 259.89ZM121.909 259.337C120.747 259.337 119.696 260.305 119.723 261.578L119.917 269.74C119.945 270.542 120.387 271.262 121.079 271.621C131.62 277.182 142.466 278.095 148.442 278.095C149.438 278.095 150.295 278.068 151.015 278.04C152.204 277.985 153.117 276.989 153.09 275.827L152.896 266.724C152.868 265.562 151.928 264.621 150.766 264.594C137.901 264.179 127.47 261.163 122.628 259.475C122.379 259.392 122.13 259.337 121.909 259.337Z" fill="white"/>
<path d="M161.668 267.388C161.668 267.388 176.525 262.325 181.201 258.59C181.201 258.59 180.869 253.001 179.569 254.274C178.268 255.574 161.668 262.657 161.668 262.657V267.388V267.388Z" fill="#1E1610"/>
<path d="M153.062 264.511L159.509 260.72" stroke="#1E1610" stroke-width="3" stroke-miterlimit="10" stroke-linecap="round"/>
<path opacity="0.66" d="M151.374 267.471C151.346 266.558 150.627 265.839 149.714 265.783C137.651 265.147 127.718 262.38 123.402 260.997C122.268 260.637 121.106 261.495 121.133 262.712L121.299 269.463C121.327 270.1 121.687 270.681 122.24 270.957C124.785 272.313 127.414 273.364 129.987 274.167C130.927 274.471 131.951 273.973 132.283 273.032C132.864 271.4 133.501 270.127 133.971 269.242C134.275 268.661 135.133 268.661 135.437 269.269C136.323 270.985 137.568 273.392 138.398 275.024C138.757 275.744 139.477 276.242 140.279 276.325C144.512 276.795 147.998 276.74 149.935 276.657C150.876 276.601 151.623 275.799 151.595 274.858L151.374 267.471Z" fill="#E12855"/>
<g opacity="0.66">
<path opacity="0.66" d="M131.894 263.293C129.985 265.396 123.76 269.021 121.547 270.266C121.713 270.542 121.962 270.791 122.239 270.957C122.764 271.234 123.318 271.511 123.843 271.76C126.472 270.819 132.503 266.005 135.021 263.957C133.914 263.736 132.863 263.515 131.894 263.293Z" fill="white"/>
<path opacity="0.66" d="M135.488 264.04C133.607 265.867 128.046 271.123 125.113 272.313C125.916 272.673 126.718 272.977 127.52 273.281C129.927 270.819 134.52 266.005 136.125 264.151C135.903 264.123 135.682 264.068 135.488 264.04Z" fill="white"/>
<path opacity="0.66" d="M150.848 266.254C150.543 265.977 150.156 265.783 149.741 265.783C149.271 265.756 148.828 265.728 148.358 265.701C146.338 267.693 140.639 274.582 139.477 275.993C139.67 276.103 139.892 276.159 140.113 276.214C142.824 275.301 149.105 268.246 150.848 266.254Z" fill="white"/>
</g>
<path d="M81.8678 205.58C81.8678 205.58 75.034 196.062 74.6466 195.177C74.2593 194.291 68.6705 188.177 67.9789 187.679C67.3148 187.181 67.0105 189.09 67.1488 189.422C67.2872 189.754 69.1685 192.742 69.1685 192.742C69.1685 192.742 64.5758 189.367 63.6074 188.647C62.6391 187.928 61.3387 186.794 61.1174 186.794C60.8961 186.794 59.4574 186.987 59.983 188.454C60.4534 189.809 61.4771 190.584 61.6154 190.695L61.6431 190.722C61.6431 190.722 61.6431 190.722 61.6154 190.695C61.3387 190.501 57.7697 187.845 57.3823 187.79C56.995 187.734 56.0543 187.762 56.165 189.422C56.248 191.082 58.5167 192.936 58.5167 192.936C58.5167 192.936 56.8843 191.663 56.497 191.829C56.1096 191.967 55.1413 193.102 56.2756 195.094C57.3823 197.114 62.6114 201.125 63.2201 201.789C63.8288 202.426 67.9235 210.338 67.7852 210.836C67.6468 211.307 66.2358 210.975 65.1015 210.781C63.9671 210.587 59.8447 210.283 59.319 211.058C58.7933 211.832 59.5127 212.884 60.3704 213.188C61.2281 213.492 63.8288 214.461 65.4335 214.655C67.0382 214.848 73.4016 216.868 74.1763 217.255C74.3976 217.366 78.8797 221.073 85.1602 226.275L93.5987 213.575L81.8678 205.58Z" fill="#F4AFBB"/>
<path d="M159.723 254.551C160.055 254.495 160.387 254.412 160.719 254.357C160.442 254.329 160.11 254.385 159.723 254.551Z" fill="url(#paint3_linear)"/>
<path d="M126.687 255.574C124.336 246.472 127.102 237.923 130.754 232.195C123.312 228.128 112.024 221.931 107.016 218.832C99.1861 214.018 88.8939 208.429 88.3129 208.208C87.7596 207.987 79.0167 220.299 81.4791 228.128C81.4791 228.128 103.087 243.345 108.123 247.827C112.051 251.314 118.608 255.657 123.229 257.954C123.976 257.456 126.3 255.879 126.687 255.574Z" fill="#B1B1B1"/>
<path d="M200.557 270.072C200.391 258.645 216.3 255.657 216.3 255.657C216.3 255.657 218.817 255.574 222.94 255.436C225.596 251.618 232.153 242.903 237.603 240.551C244.659 237.535 254.397 228.018 254.397 228.018C254.397 228.018 233.011 206.88 223.964 205.414C214.916 203.947 200.806 207.655 196.545 205.414C192.285 203.173 186.142 200.267 184.455 200.71C183.293 201.014 171.258 209.564 163.262 216.536C163.289 216.536 163.289 216.536 163.317 216.536C166.748 215.955 169.708 216.314 171.202 217.504C174.19 219.884 170.953 227.437 168.989 231.31C170.428 230.48 171.977 229.761 172.862 229.982C173.582 229.733 174.218 229.595 174.716 229.705C175.076 229.788 175.325 230.01 175.491 230.314C176.155 231.697 174.799 234.713 173.609 236.871C174.854 236.235 176.348 235.709 177.842 235.681C179.917 235.156 182.186 235.294 184.095 237.065C188.107 240.8 184.123 249.681 182.352 253.084C186.723 255.104 192.644 258.673 193.53 263.293C194.996 270.791 196.877 280.973 194.747 281.858C194.747 281.858 195.964 283.38 198.15 282.633C200.17 281.969 201.94 280.668 203.213 280.558C202.494 280.447 200.695 279.174 200.557 270.072Z" fill="#B1B1B1"/>
<path d="M203.223 280.585C203.416 280.613 203.527 280.585 203.527 280.585C203.444 280.558 203.333 280.558 203.223 280.585Z" fill="url(#paint4_linear)"/>
<path d="M273.439 286.783C268.016 287.53 273.522 271.178 276.483 266.226C279.471 261.274 281.186 262.242 281.186 262.242C281.02 262.076 280.854 261.993 280.716 261.993C279.83 261.938 248.262 260.139 244.333 260.139C240.405 260.139 235.148 260.803 230.804 260.139C226.433 259.475 221.729 257.234 221.729 257.234C221.729 257.234 222.172 256.543 222.947 255.436C218.824 255.574 216.306 255.657 216.306 255.657C216.306 255.657 200.398 258.618 200.564 270.072C200.702 279.147 202.5 280.419 203.22 280.558C203.331 280.558 203.441 280.558 203.524 280.558C204.825 280.668 230.112 281 235.314 281.913C240.128 282.743 267.214 287.945 273.439 286.783Z" fill="url(#paint5_linear)"/>
<path d="M273.439 286.783C268.016 287.53 273.522 271.178 276.483 266.226C279.471 261.274 281.186 262.242 281.186 262.242C281.02 262.076 280.854 261.993 280.716 261.993C279.83 261.938 248.262 260.139 244.333 260.139C240.405 260.139 235.148 260.803 230.804 260.139C226.433 259.475 221.729 257.234 221.729 257.234C221.729 257.234 222.172 256.543 222.947 255.436C218.824 255.574 216.306 255.657 216.306 255.657C216.306 255.657 200.398 258.618 200.564 270.072C200.702 279.147 202.5 280.419 203.22 280.558C203.331 280.558 203.441 280.558 203.524 280.558C204.825 280.668 230.112 281 235.314 281.913C240.128 282.743 267.214 287.945 273.439 286.783Z" fill="#B1B1B1"/>
<path d="M282.262 270.127C282.594 265.451 281.93 262.989 281.183 262.242C281.183 262.242 279.468 261.274 276.48 266.226C273.492 271.179 268.014 287.53 273.436 286.783C273.907 286.7 274.294 286.561 274.488 286.395C277.393 283.988 281.875 275.799 282.262 270.127Z" fill="#131829"/>
<path d="M295.018 282.909C295.018 282.909 303.761 282.135 304.979 282.411C306.196 282.688 316.405 283.02 317.456 282.909C318.508 282.799 319.642 281.747 319.033 281.222C318.425 280.696 311.757 279.313 311.757 279.313C311.757 279.313 321.44 279.147 322.492 278.593C323.543 278.04 324.954 275.854 324.678 275.356C324.401 274.858 318.867 274.858 316.903 274.748C314.939 274.637 310.623 274.471 310.623 274.471C310.623 274.471 323.903 271.981 324.705 271.428C325.508 270.874 326.67 268.522 325.563 268.19C324.456 267.858 316.045 269.187 314.302 269.353C312.559 269.519 309.378 269.74 306.417 269.906C303.457 270.072 290.315 276.159 295.018 282.909Z" fill="#EE8C9D"/>
<path d="M317.705 263.349C316.432 263.432 302.183 267.527 298.974 268.716C296.816 269.519 289.373 270.017 282.263 270.127C279.551 270.155 276.895 270.155 274.599 270.072C272.939 274.056 271.279 279.396 271.141 282.965C273.299 283.158 275.263 283.352 276.923 283.518C280.437 283.878 282.706 284.155 283.231 284.293C286.524 285.261 299.195 291.818 301.658 291.016C304.12 290.186 298.974 285.953 297.175 284.293C295.377 282.66 293.662 281.222 294.934 279.589C296.207 277.957 303.29 272.728 305.144 271.898C306.997 271.068 315.076 267.582 316.321 266.89C317.622 266.254 318.977 263.266 317.705 263.349Z" fill="#F4AFBB"/>
<path d="M277.255 270.127C276.342 270.127 275.429 270.1 274.599 270.072C272.939 274.056 271.279 279.396 271.141 282.965C272.247 283.076 273.326 283.159 274.322 283.269C273.769 279.977 277.255 270.127 277.255 270.127Z" fill="#EE8C9D"/>
<path d="M216.305 255.657L221.727 257.234C221.727 257.234 227.648 248.076 233.68 243.096C226.597 246.084 216.305 255.657 216.305 255.657Z" fill="#1E1610"/>
<path d="M185.432 239.278C185.432 239.278 185.46 239.278 185.432 239.278C185.294 238.863 185.128 238.448 184.879 238.089C185.128 238.448 185.294 238.863 185.432 239.278Z" fill="black"/>
<path d="M120.746 259.697L126.695 255.602C126.695 255.602 127.746 254.883 128.963 255.298" stroke="black" stroke-width="2" stroke-miterlimit="10" stroke-linecap="round"/>
<path d="M171.178 217.504C170.708 217.117 170.044 216.812 169.297 216.619C169.989 217.034 170.708 217.421 171.455 217.781C171.372 217.67 171.289 217.587 171.178 217.504Z" fill="url(#paint6_linear)"/>
<path d="M101.586 170.7C106.981 174.629 113.704 176.925 120.51 176.842C127.316 176.759 134.15 174.269 139.213 169.759C144.304 165.249 147.513 158.692 147.652 152.025" fill="#3C342E"/>
<g opacity="0.45">
<path opacity="0.45" d="M106.426 173.716C108.473 174.767 110.631 175.569 112.845 176.178C116.469 176.261 121.947 175.569 129.722 172.72C135.808 170.478 140.014 168.154 142.919 166.107C144.413 164.004 145.603 161.708 146.405 159.273L106.426 173.716Z" fill="#C2B5AC"/>
</g>
<path d="M156.013 150.531C156.013 150.531 156.345 151.195 156.262 152.467C156.262 152.467 152.61 162.096 128.872 170.866C105.161 179.637 96.6393 174.02 96.6393 174.02C96.0029 173.522 95.7539 172.36 95.7539 172.36" fill="#E693A7"/>
<path d="M121.401 150.973C103.999 157.53 98.6313 167.186 95.7539 172.36C95.7539 172.36 104.441 177.755 128.18 169.012C151.918 160.269 156.013 150.531 156.013 150.531C151.393 148.428 138.804 144.416 121.401 150.973Z" fill="#E12855"/>
<path d="M97.9712 173.633C97.4456 173.577 97.0859 173.743 96.9199 174.103C96.9199 174.131 96.8922 174.131 96.8922 174.158C96.7262 174.546 96.8922 175.099 97.2796 175.293C97.5286 175.431 97.8329 175.431 98.0819 175.348C98.3309 175.265 98.6629 174.989 98.6906 174.712C98.7459 174.297 98.5246 173.688 97.9712 173.633Z" fill="#E12855"/>
<path d="M108.617 174.905C108.617 174.878 108.617 174.878 108.617 174.905C108.507 174.49 108.092 173.992 107.566 174.131C107.068 174.269 106.791 174.546 106.736 174.933C106.736 174.961 106.736 174.961 106.736 174.988C106.708 175.403 107.068 175.846 107.483 175.929C107.76 175.984 108.036 175.874 108.258 175.708C108.396 175.597 108.534 175.431 108.59 175.237C108.617 175.154 108.617 175.071 108.617 175.016C108.645 174.961 108.645 174.933 108.617 174.905Z" fill="#E12855"/>
<path d="M122.343 171.696C122.066 171.392 121.458 171.17 121.07 171.558C120.683 171.917 120.6 172.305 120.738 172.664C120.738 172.692 120.738 172.692 120.766 172.72C120.849 172.913 121.043 173.052 121.236 173.135C121.43 173.218 121.679 173.245 121.873 173.162C122.149 173.052 122.315 172.83 122.454 172.581C122.509 172.498 122.509 172.36 122.537 172.249C122.537 172.056 122.481 171.834 122.343 171.696Z" fill="#E12855"/>
<path d="M155.235 152.191C155.207 152.191 155.207 152.163 155.179 152.163C154.82 152.025 154.432 152.135 154.073 152.495C153.713 152.882 153.934 153.491 154.239 153.768C154.239 153.768 154.239 153.795 154.266 153.795C154.488 153.989 154.903 153.989 155.152 153.878C155.401 153.768 155.622 153.574 155.705 153.297C155.843 152.882 155.622 152.357 155.235 152.191Z" fill="#E12855"/>
<path d="M147.152 159.218C146.654 159.467 146.682 160.131 146.876 160.491C146.959 160.657 147.152 160.768 147.346 160.823C147.457 160.851 147.595 160.878 147.678 160.851C147.955 160.823 148.232 160.712 148.398 160.491C148.674 160.159 148.647 159.606 148.342 159.301C148.066 159.025 147.651 158.969 147.152 159.218Z" fill="#E12855"/>
<path d="M135.315 166.19C134.789 166.163 134.485 166.716 134.457 167.131V167.159C134.457 167.242 134.485 167.352 134.54 167.435C134.568 167.491 134.595 167.546 134.623 167.601C134.734 167.74 134.844 167.85 134.983 167.906C135.232 168.016 135.508 168.072 135.785 167.961C136.089 167.85 136.311 167.546 136.338 167.214C136.338 167.103 136.338 166.993 136.311 166.882C136.2 166.439 135.868 166.19 135.315 166.19Z" fill="#E12855"/>
<path opacity="0.5" d="M138.636 149.479C136.063 140.736 130.917 137.112 125.743 136.171C126.712 134.456 128.233 133.073 130.059 132.326C132.771 131.191 136.312 131.357 138 132.879C138.636 132.907 138.526 132.27 138.526 132.27C136.367 129.946 131.221 129.725 128.538 131.219C126.49 132.353 124.664 133.93 123.502 135.922C120.653 135.784 117.886 136.365 115.617 137.223C108.7 139.823 101.839 150.254 108.092 160.989C108.092 160.989 111.55 164.447 125.522 159.19C139.494 153.934 138.636 149.479 138.636 149.479Z" fill="white"/>
<g opacity="0.35">
<path d="M124.827 140.155C122.946 137.389 119.017 137.859 116.472 138.827C114.064 139.74 111.464 142.286 111.685 144.942C111.796 146.436 113.456 147.321 115.448 146.962C116.499 146.768 117.91 146.381 119.736 145.689C121.203 145.136 122.309 144.638 123.139 144.167C124.91 143.199 125.657 141.428 124.827 140.155Z" fill="white"/>
</g>
<g opacity="0.74">
<path opacity="0.74" d="M127.682 140.211C127.627 140.626 127.157 141.041 126.769 141.152C126.382 141.262 125.967 141.262 125.607 141.069C125.054 140.764 124.777 139.989 125.054 139.408C125.303 138.827 125.856 138.551 126.659 138.634C127.433 138.717 127.738 139.63 127.682 140.211ZM134.35 147.017C133.824 144.638 132.552 143.033 130.809 141.705C129.979 141.069 127.544 140.46 128.042 142.341C128.236 143.116 130.2 143.559 131.805 146.768C132.662 148.511 132.33 148.926 132.939 149.12C133.797 149.424 134.793 148.954 134.35 147.017Z" fill="white"/>
</g>
<path opacity="0.74" d="M107.949 146.076C106.731 148.428 106.51 151.388 106.953 153.768C107.146 154.902 108.336 155.04 108.834 154.266C109.304 153.546 108.53 152.44 108.972 148.981C109.249 146.851 110.19 145.495 109.885 144.887C109.415 144.029 108.696 144.693 107.949 146.076Z" fill="white"/>
<path d="M138.828 149.258C139.686 151.582 136.2 155.981 125.16 160.159C116.335 163.507 108.477 163.479 107.841 161.1C107.315 159.135 113.291 155.068 122.006 151.803C130.721 148.539 138.164 147.487 138.828 149.258Z" fill="#EED8D8"/>
<path d="M122.006 151.776C113.291 155.068 107.315 159.107 107.841 161.072C108.007 161.708 108.671 162.178 109.75 162.455C109.694 162.372 109.667 162.289 109.639 162.178C109.169 160.352 114.675 156.617 122.698 153.602C130.721 150.586 137.611 149.645 138.219 151.278C138.275 151.444 138.33 151.637 138.33 151.859C138.939 150.835 139.105 149.95 138.828 149.258C138.164 147.487 130.721 148.483 122.006 151.776Z" fill="#E692A7"/>
<g opacity="0.67">
<path opacity="0.67" d="M132.078 152.993C131.497 153.408 130.972 156.23 130.418 156.673C129.616 157.282 128.592 157.558 127.596 157.448C128.482 156.784 129.561 155.179 129.699 154.1C130.003 152.052 129.81 147.1 124.774 144.638C121.205 142.895 114.095 146.74 114.51 151.886C114.759 155.013 116.723 157.78 118.383 158.665C120.071 159.55 120.735 159.744 121.482 159.633C121.122 160.076 120.762 160.463 120.32 160.795C119.573 161.349 118.604 161.681 117.719 161.459C116.695 161.21 116.419 159.025 115.948 159.08C115.506 159.135 115.174 160.629 115.506 161.404C115.672 161.819 115.865 162.234 116.087 162.621C118.521 162.262 121.648 161.459 125.659 159.965C128.897 158.748 131.331 157.558 133.185 156.479C133.185 156.396 133.185 156.341 133.185 156.258C133.157 155.788 133.047 155.29 133.157 154.847C133.268 154.376 133.572 153.961 133.96 153.685C134.347 153.408 135.509 153.74 135.288 153.104C135.094 152.495 133.379 152.025 132.078 152.993Z" fill="#3C342E"/>
</g>
<g opacity="0.46">
<path opacity="0.46" d="M118.271 147.985C116.86 150.42 116.971 152.55 118.409 154.21C119.876 155.87 122.753 156.175 124.524 154.847C125.686 153.989 126.654 152.91 126.876 151.554C127.097 150.171 126.101 147.736 124.856 146.989C123.03 145.855 119.682 145.551 118.271 147.985Z" fill="#3C342E"/>
</g>
<g opacity="0.62">
<path opacity="0.62" d="M122.86 147.1C120.509 146.879 118.904 147.681 118.157 149.396C117.41 151.084 118.185 153.408 119.817 154.293C120.868 154.874 122.141 154.874 123.275 154.542C124.41 154.21 125.793 152.993 125.931 151.803C126.153 150.005 125.212 147.321 122.86 147.1Z" fill="#C2B5AC"/>
</g>
<g opacity="0.46">
<path opacity="0.46" d="M124.523 151.582C124.163 150.254 123.388 149.562 122.337 149.479C121.258 149.424 120.179 150.309 120.013 151.361C119.902 152.052 120.179 152.744 120.566 153.297C120.981 153.851 121.922 154.349 122.614 154.183C123.61 153.961 124.855 152.882 124.523 151.582Z" fill="#3C342E"/>
</g>
<g opacity="0.75">
<path opacity="0.75" d="M123.584 152.467C123.418 151.859 123.058 151.527 122.56 151.499C122.062 151.471 121.564 151.886 121.481 152.384C121.426 152.716 121.564 153.021 121.758 153.27C121.951 153.519 122.394 153.768 122.698 153.685C123.169 153.574 123.75 153.076 123.584 152.467Z" fill="white"/>
</g>
<g opacity="0.3">
<path opacity="0.8" d="M131.971 145.08C128.098 138.412 121.264 138.661 117.003 140.266C112.964 141.788 108.98 146.962 109.921 152.993C110.446 156.396 113.545 158.775 116.976 158.388C118.802 158.194 121.181 157.641 124.252 156.479C126.715 155.566 128.541 154.653 129.869 153.823C132.829 151.942 133.742 148.096 131.971 145.08Z" fill="white"/>
</g>
<g opacity="0.15">
<path opacity="0.15" d="M136.091 130.776C137.004 129.808 137.972 129.559 138.913 130.002C139.854 130.444 140.379 131.689 140.02 132.658C139.798 133.294 139.245 133.764 138.664 134.041C138.083 134.318 137.032 134.318 136.534 133.875C135.759 133.211 135.178 131.745 136.091 130.776Z" fill="#E12855"/>
</g>
<path d="M136.364 130.97C137.138 130.14 137.941 129.946 138.743 130.306C139.545 130.666 139.988 131.745 139.684 132.575C139.49 133.1 139.02 133.515 138.522 133.737C138.024 133.986 137.138 133.986 136.723 133.598C136.087 133.045 135.589 131.8 136.364 130.97Z" fill="#E12855"/>
<path d="M138.059 133.488C138.557 133.239 139.027 132.851 139.221 132.326C139.47 131.634 139.193 130.776 138.64 130.278C138.667 130.306 138.723 130.306 138.75 130.334C139.553 130.693 139.996 131.772 139.691 132.602C139.498 133.128 139.027 133.543 138.529 133.764C138.031 134.013 137.146 134.013 136.731 133.626C136.731 133.626 136.703 133.598 136.703 133.571C137.146 133.709 137.699 133.654 138.059 133.488Z" fill="#E12855"/>
<path d="M137.663 131.606C137.47 131.523 137.387 131.413 137.387 131.247C137.387 131.081 137.553 130.942 137.719 130.942C137.829 130.942 137.912 130.998 137.995 131.053C138.078 131.136 138.134 131.274 138.106 131.385C138.023 131.496 137.857 131.662 137.663 131.606Z" fill="#E12855"/>
<path d="M136.615 132.602C136.449 132.243 136.477 131.938 136.643 131.717C136.809 131.496 137.03 131.33 137.224 131.523C137.362 131.662 137.196 132.077 137.224 132.27C137.252 132.464 137.307 132.824 137.169 132.934C136.947 133.073 136.781 132.962 136.615 132.602Z" fill="#E12855"/>
<path d="M148.013 154.819C146.353 154.432 144.499 154.238 142.867 154.874C142.396 155.068 142.037 155.289 141.76 155.538C140.543 154.791 139.187 154.21 137.748 153.795C137.831 153.491 137.721 153.187 137.527 152.91C137.499 152.965 137.444 152.993 137.416 153.048C137.555 153.242 137.665 153.463 137.61 153.685C137.61 153.712 137.61 153.74 137.582 153.74C137.361 153.685 137.112 153.602 136.891 153.546C136.808 153.629 136.725 153.685 136.642 153.768C136.752 153.795 136.863 153.823 137.001 153.851C137.167 153.906 137.306 153.934 137.472 153.989C137.167 154.459 136.393 154.625 135.701 154.57C135.646 154.598 135.618 154.653 135.562 154.681C136.337 154.764 137.25 154.598 137.61 154.017C138.993 154.432 140.294 155.013 141.622 155.621C141.234 156.064 141.096 156.645 141.179 157.42C141.4 159.052 142.341 160.657 143.558 161.819C143.614 161.791 143.697 161.736 143.752 161.708C142.618 160.491 141.594 159.107 141.373 157.392C141.29 156.783 141.317 156.119 141.76 155.677C142.369 155.096 143.254 154.819 144.056 154.681C146.519 154.293 149.147 155.068 151.443 156.092C151.471 156.064 151.499 156.036 151.526 156.009C150.447 155.511 149.23 155.096 148.013 154.819Z" fill="#BC2348"/>
<path d="M149.371 148.456C149.232 148.428 149.122 148.4 148.983 148.373C148.707 148.483 148.402 148.622 148.153 148.788C147.628 149.12 147.323 149.479 147.157 149.839C144.889 149.424 142.454 149.424 140.074 149.784C140.074 149.701 140.074 149.645 140.047 149.562C139.881 149.203 139.3 149.092 138.774 149.12C138.802 149.147 138.829 149.203 138.829 149.258C138.829 149.286 138.829 149.313 138.857 149.313C139.161 149.313 139.466 149.341 139.715 149.452C139.908 149.535 139.964 149.673 139.936 149.811C139.604 149.867 139.272 149.922 138.94 150.005C138.94 150.033 138.94 150.06 138.94 150.088C138.94 150.116 138.94 150.143 138.94 150.171C138.94 150.226 138.94 150.254 138.912 150.309C139.217 150.254 139.493 150.199 139.798 150.143C139.632 150.365 139.383 150.586 139.189 150.669C139.051 150.752 138.912 150.807 138.774 150.835C138.746 150.89 138.746 150.946 138.719 150.973C138.995 150.89 139.244 150.78 139.466 150.641C139.632 150.531 139.853 150.337 139.964 150.088C140.489 150.005 141.015 149.95 141.541 149.894C143.395 149.756 145.193 149.867 147.047 150.005C146.355 152.08 150.56 154.404 152.497 155.151C152.525 155.123 152.58 155.068 152.608 155.04C150.892 154.155 149.011 153.38 147.766 151.859C147.351 151.361 146.991 150.697 147.24 150.033C147.323 150.033 147.351 149.95 147.296 149.894C147.628 149.258 148.375 148.815 149.011 148.566C149.177 148.511 149.26 148.483 149.371 148.456Z" fill="#BC2348"/>
<path d="M133.351 160.269C132.936 160.325 132.604 160.435 132.272 160.574C131.746 159.799 131.165 159.08 130.501 158.416C130.723 158.194 130.833 157.918 130.861 157.641C130.778 157.669 130.695 157.724 130.612 157.752C130.557 157.918 130.474 158.084 130.335 158.222C130.252 158.139 130.169 158.084 130.086 158.001C130.003 158.028 129.948 158.056 129.865 158.111C129.948 158.194 130.058 158.277 130.141 158.388C129.975 158.499 129.754 158.582 129.505 158.609C129.311 158.609 129.118 158.609 128.952 158.554C128.869 158.582 128.813 158.609 128.73 158.665C129.256 158.858 129.809 158.886 130.307 158.554C130.944 159.218 131.553 159.882 132.161 160.629C129.671 161.847 129.782 165.499 130.723 168.044C130.806 168.016 130.861 167.989 130.944 167.961C130.474 166.467 130.086 164.918 130.418 163.341C130.778 161.598 132.189 160.408 134.015 160.435C136.367 160.491 138.442 162.151 140.102 163.811C140.129 163.783 140.185 163.783 140.212 163.756C138.442 161.874 135.924 159.937 133.351 160.269Z" fill="#BC2348"/>
<path d="M120.431 164.669C120.32 163.977 120.265 163.313 120.265 162.649C120.984 162.51 121.51 161.929 121.787 161.265C121.676 161.293 121.593 161.321 121.482 161.348C121.289 161.736 121.012 162.068 120.597 162.261C120.486 162.317 120.376 162.344 120.293 162.372C120.293 162.151 120.293 161.902 120.293 161.68C120.21 161.708 120.127 161.736 120.044 161.736C120.044 161.957 120.044 162.178 120.071 162.4C119.629 162.427 119.186 162.289 118.909 161.985C118.854 162.012 118.771 162.012 118.716 162.04C118.965 162.4 119.407 162.677 119.905 162.677C119.961 162.677 120.016 162.677 120.071 162.677C120.127 163.368 120.21 164.032 120.348 164.696C120.071 164.807 119.767 164.945 119.49 165.139C117.249 166.605 116.668 169.87 116.641 172.498C116.668 172.498 116.696 172.471 116.751 172.471C116.917 170.064 117.305 167.325 119.131 165.665C120.431 164.475 122.229 164.392 123.64 165.416C125.079 166.439 125.798 168.044 126.518 169.593C126.573 169.566 126.656 169.538 126.711 169.51C125.743 166.91 123.281 163.756 120.431 164.669Z" fill="#BC2348"/>
<path d="M99.9013 166.716C100.565 166.495 101.395 166.301 102.087 166.578C102.806 166.882 103 167.657 103.028 168.376C103.111 170.313 102.225 172.111 101.534 173.882C101.589 173.882 101.644 173.882 101.727 173.909C102.668 172.056 104.162 167.85 102.502 166.633C104.134 165.111 105.794 163.673 107.593 162.372C107.648 162.317 107.703 162.289 107.759 162.262C107.98 162.372 108.257 162.4 108.478 162.372C108.644 162.345 108.81 162.317 108.976 162.262C108.921 162.234 108.865 162.206 108.782 162.179C108.533 162.234 108.146 162.262 107.869 162.179C108.008 162.068 108.146 161.985 108.312 161.874C108.284 161.874 108.284 161.847 108.257 161.847L108.229 161.819C108.201 161.791 108.174 161.764 108.146 161.736C107.98 161.847 107.814 161.957 107.676 162.096C107.565 162.013 107.537 161.874 107.62 161.681C107.676 161.542 107.759 161.404 107.869 161.293C107.869 161.266 107.842 161.266 107.842 161.238C107.842 161.183 107.814 161.127 107.814 161.072C107.537 161.376 107.344 161.708 107.427 161.985C107.454 162.068 107.51 162.151 107.565 162.206C107.537 162.234 107.482 162.262 107.454 162.289C105.656 163.617 103.968 165.084 102.391 166.661C102.004 166.412 101.478 166.329 100.731 166.412C100.206 166.495 99.7076 166.661 99.2373 166.882C99.1543 166.993 99.0713 167.131 98.9883 167.242C99.265 166.965 99.597 166.827 99.9013 166.716Z" fill="#BC2348"/>
<path d="M112.767 173.273C112.961 171.53 112.629 169.621 111.688 168.182C111.245 167.518 110.719 167.186 110.138 167.131C110.719 165.969 111.3 164.835 112.02 163.755C112.047 163.7 112.103 163.645 112.13 163.589C112.822 163.866 113.708 163.34 114.233 162.704C114.178 162.704 114.123 162.704 114.067 162.704C113.542 163.257 112.795 163.7 112.213 163.451C112.38 163.202 112.573 162.981 112.739 162.732C112.601 162.732 112.49 162.732 112.352 162.732C112.213 162.925 112.075 163.091 111.937 163.285C111.771 163.147 111.688 162.925 111.688 162.704C111.632 162.704 111.577 162.704 111.522 162.704C111.549 163.008 111.66 163.257 111.854 163.423C111.079 164.586 110.415 165.858 109.945 167.103C109.557 167.103 109.142 167.159 108.7 167.325C106.044 168.265 104.024 171.253 102.973 173.937C103 173.937 103.056 173.937 103.083 173.937C104.135 171.668 105.601 169.372 107.676 168.044C108.34 167.629 109.115 167.297 109.917 167.269C109.945 167.297 109.972 167.297 110 167.269C110.636 167.269 111.079 167.712 111.439 168.21C112.463 169.704 112.573 171.53 112.518 173.273C112.629 173.301 112.684 173.301 112.767 173.273Z" fill="#BC2348"/>
<path d="M274.979 300.425C284.607 299.623 307.322 295.971 320.602 288.196C333.882 280.422 338.807 276.521 336.262 281.75C333.716 286.979 331.475 287.56 340.135 281.75C348.795 275.94 356.403 272.481 348.048 281.75C339.692 291.018 313.741 299.512 298.219 301.311C282.698 303.109 250.106 302.5 274.979 300.425Z" fill="white"/>
<path d="M360.309 269.616C362.665 267.26 363.838 264.615 362.931 263.708C362.023 262.8 359.378 263.974 357.023 266.329C354.667 268.684 353.494 271.33 354.401 272.237C355.309 273.145 357.954 271.971 360.309 269.616Z" fill="white"/>
<path d="M225.847 258.676C225.847 258.676 229.056 260.363 234.313 260.253C239.57 260.142 244.412 259.838 246.127 260.004C246.127 260.004 270.917 256.462 274.984 253.087C279.051 249.711 288.375 243.459 284.723 242.407C281.071 241.356 274.292 239.807 274.292 239.807C274.292 239.807 286.466 233.498 273.85 230.427C261.233 227.356 194.445 222.957 200.283 226.886C206.093 230.842 266.379 228.823 267.514 244.04C268.593 259.312 225.847 258.676 225.847 258.676Z" fill="white"/>
<path d="M239.068 181.263C239.068 181.263 241.198 178.164 241.447 177.389C241.724 176.615 242.25 175.148 242.25 175.148C242.25 175.148 256.36 172.465 255.973 169.006C255.585 165.548 241.281 161.176 229.744 162.338C218.207 163.5 216.187 161.536 220.725 159.931C225.29 158.327 225.068 156.528 218.456 156.528C211.844 156.528 205.093 153.347 219.701 152.157C234.309 150.967 269.004 160.208 263.056 169.172C257.19 178.109 239.068 181.263 239.068 181.263Z" fill="white"/>
<path d="M211.632 163.112C213.494 163.01 214.973 162.383 214.936 161.712C214.899 161.041 213.361 160.579 211.499 160.681C209.638 160.783 208.159 161.41 208.195 162.081C208.232 162.752 209.771 163.214 211.632 163.112Z" fill="white"/>
<path d="M201.387 158.456C204.773 158.078 207.407 156.774 207.27 155.544C207.132 154.314 204.276 153.624 200.889 154.002C197.503 154.38 194.869 155.684 195.007 156.914C195.144 158.144 198.001 158.834 201.387 158.456Z" fill="white"/>
<path d="M104.635 244.787C104.635 244.787 87.7028 242.352 92.7935 232.668C97.8843 222.985 114.236 222.874 117.749 224.839L120.322 226.277C120.322 226.277 116.255 220.661 105.465 220.44C94.6749 220.218 82.944 230.51 82.8333 237.676C82.7227 244.87 89.6395 253.142 90.3312 250.624C91.0228 248.107 89.3905 247.941 92.7382 249.794C96.0859 251.648 107.761 252.506 112.022 250.763L104.635 244.787Z" fill="white"/>
<path d="M289.62 241.688C291.591 241.688 293.189 240.858 293.189 239.834C293.189 238.811 291.591 237.981 289.62 237.981C287.649 237.981 286.051 238.811 286.051 239.834C286.051 240.858 287.649 241.688 289.62 241.688Z" fill="white"/>
<defs>
<linearGradient id="paint0_linear" x1="292.699" y1="149.81" x2="315.058" y2="149.81" gradientUnits="userSpaceOnUse">
<stop stop-color="#F1F2F2"/>
<stop offset="1" stop-color="#E6E7E8"/>
</linearGradient>
<linearGradient id="paint1_linear" x1="235.326" y1="123.215" x2="255.023" y2="118.682" gradientUnits="userSpaceOnUse">
<stop stop-color="#F1F2F2"/>
<stop offset="1" stop-color="#E6E7E8"/>
</linearGradient>
<linearGradient id="paint2_linear" x1="235.606" y1="124.439" x2="255.303" y2="119.906" gradientUnits="userSpaceOnUse">
<stop stop-color="#F1F2F2"/>
<stop offset="1" stop-color="#E6E7E8"/>
</linearGradient>
<linearGradient id="paint3_linear" x1="86.2719" y1="264.443" x2="278.555" y2="238.401" gradientUnits="userSpaceOnUse">
<stop stop-color="#F3D266"/>
<stop offset="0.1268" stop-color="#F3D25B"/>
<stop offset="0.3846" stop-color="#F4D149"/>
<stop offset="0.6636" stop-color="#F4D13E"/>
<stop offset="1" stop-color="#F4D13A"/>
</linearGradient>
<linearGradient id="paint4_linear" x1="187.638" y1="298.404" x2="258.005" y2="218.681" gradientUnits="userSpaceOnUse">
<stop stop-color="#F0D7AF"/>
<stop offset="0.0939108" stop-color="#F1D69F"/>
<stop offset="0.2967" stop-color="#F2D481"/>
<stop offset="0.4938" stop-color="#F3D267"/>
<stop offset="0.681" stop-color="#F4D24F"/>
<stop offset="0.8542" stop-color="#F4D13F"/>
<stop offset="1" stop-color="#F4D13A"/>
</linearGradient>
<linearGradient id="paint5_linear" x1="200.04" y1="318.095" x2="270.768" y2="237.966" gradientUnits="userSpaceOnUse">
<stop stop-color="#F0D7AF"/>
<stop offset="0.0939108" stop-color="#F1D69F"/>
<stop offset="0.2967" stop-color="#F2D481"/>
<stop offset="0.4938" stop-color="#F3D267"/>
<stop offset="0.681" stop-color="#F4D24F"/>
<stop offset="0.8542" stop-color="#F4D13F"/>
<stop offset="1" stop-color="#F4D13A"/>
</linearGradient>
<linearGradient id="paint6_linear" x1="158.437" y1="220.632" x2="232.15" y2="199.443" gradientUnits="userSpaceOnUse">
<stop stop-color="#F7941D"/>
<stop offset="0.275" stop-color="#EC882B"/>
<stop offset="0.6683" stop-color="#E37C35"/>
<stop offset="1" stop-color="#E07838"/>
</linearGradient>
</defs>
</svg>
