<svg xmlns="http://www.w3.org/2000/svg" xmlns:xlink="http://www.w3.org/1999/xlink" viewBox="0 0 529.24 526.89"><defs><style>.cls-1{fill:url(#linear-gradient);}.cls-2{fill:url(#linear-gradient-2);}.cls-3{fill:url(#linear-gradient-3);}.cls-29,.cls-4{fill:#f47421;}.cls-5{fill:#fecf0a;}.cls-6{fill:#ee2c28;}.cls-7{fill:#5aa2d8;}.cls-8{fill:#f7911e;}.cls-9{fill:#3b577f;}.cls-10{fill:#231f20;}.cls-11{fill:url(#linear-gradient-4);}.cls-12,.cls-30{fill:#fff;}.cls-13{fill:url(#linear-gradient-5);}.cls-14{fill:#ababab;}.cls-15,.cls-27,.cls-31{stroke:#fff;stroke-miterlimit:10;}.cls-15{fill:url(#linear-gradient-6);}.cls-16{fill:#898888;}.cls-17{fill:url(#linear-gradient-7);}.cls-18{fill:url(#linear-gradient-8);}.cls-19{fill:url(#linear-gradient-9);}.cls-20{fill:url(#linear-gradient-10);}.cls-21{fill:url(#linear-gradient-11);}.cls-22{fill:url(#linear-gradient-12);}.cls-23{fill:#ab2b2b;opacity:0.61;}.cls-24{fill:#af4d26;}.cls-25{fill:#a54623;opacity:0.43;}.cls-26{fill:#722914;}.cls-27,.cls-31{fill:none;}.cls-28{fill:#fcc59a;}.cls-29{opacity:0.32;}.cls-30{opacity:0.55;}.cls-31{stroke-width:0.5px;}.cls-32{fill:url(#linear-gradient-13);}</style><linearGradient id="linear-gradient" x1="37.76" y1="452.13" x2="236.16" y2="452.13" gradientUnits="userSpaceOnUse"><stop offset="0" stop-color="#375e8b"/><stop offset="0.71" stop-color="#fecf0a"/></linearGradient><linearGradient id="linear-gradient-2" x1="386.57" y1="214.49" x2="525.11" y2="214.49" xlink:href="#linear-gradient"/><linearGradient id="linear-gradient-3" x1="225.6" y1="367.66" x2="567" y2="367.66" xlink:href="#linear-gradient"/><linearGradient id="linear-gradient-4" x1="434.15" y1="275.34" x2="496.21" y2="275.34" gradientUnits="userSpaceOnUse"><stop offset="0" stop-color="#f47421"/><stop offset="0.79" stop-color="#fecf0a"/></linearGradient><linearGradient id="linear-gradient-5" x1="389.89" y1="245.14" x2="394.91" y2="245.14" gradientUnits="userSpaceOnUse"><stop offset="0" stop-color="#f47421"/><stop offset="0.41" stop-color="#fecf0a"/></linearGradient><linearGradient id="linear-gradient-6" x1="230.29" y1="248.78" x2="373.59" y2="573.74" gradientUnits="userSpaceOnUse"><stop offset="0" stop-color="#af4d26"/><stop offset="0.22" stop-color="#f47421"/><stop offset="0.55" stop-color="#fecf0a"/></linearGradient><linearGradient id="linear-gradient-7" x1="51.51" y1="454.21" x2="429.17" y2="454.21" xlink:href="#linear-gradient"/><linearGradient id="linear-gradient-8" x1="426.32" y1="332.3" x2="447.01" y2="332.3" xlink:href="#linear-gradient"/><linearGradient id="linear-gradient-9" x1="450.69" y1="326.28" x2="452.81" y2="326.28" xlink:href="#linear-gradient"/><linearGradient id="linear-gradient-10" x1="173.4" y1="457.8" x2="173.4" y2="457.8" xlink:href="#linear-gradient"/><linearGradient id="linear-gradient-11" x1="110.44" y1="183.86" x2="201.89" y2="183.86" gradientUnits="userSpaceOnUse"><stop offset="0" stop-color="#f47421"/><stop offset="0.53" stop-color="#fecf0a"/></linearGradient><linearGradient id="linear-gradient-12" x1="140.78" y1="292.17" x2="159.91" y2="182.5" gradientUnits="userSpaceOnUse"><stop offset="0" stop-color="#f47421"/><stop offset="0.55" stop-color="#ee2c28"/></linearGradient><linearGradient id="linear-gradient-13" x1="213.37" y1="356.08" x2="311.85" y2="356.08" xlink:href="#linear-gradient-11"/></defs><title>E-Learning</title><g id="Background"><path class="cls-1" d="M235.51,431.52s5.58,34.18-15.81,46.18-47,23.47-56.87,32.08-10.18,23-42.79,26.09S67.35,533,64.22,524.13s-3.22-9.49-7.66-14.38-26-27.88-16.34-50.05S71,435.17,78,418.74s33.05-24.62,34.73-40.89,21.48-8.37,21.48-8.37l24.14,41.67s-26.87-13.42-43-12.57-19.58,3.2-19.18,17.81-.65,17-12.91,18-34,10.39-32.87,42.78S70,512.91,79.76,507.7s16-19.82,32.72-6.78,28.69,15.63,45.39-2.49S177,462.17,177,462.17,221.06,391.6,235.51,431.52Z" transform="translate(-37.76 -47.76)"/><path class="cls-2" d="M395.75,281.48s32.38-28.39,44.9-83.18S454,146,445.87,122.18,460,78.63,492,81.73s31.05,18.94,18.79,14.15-26.35-12.75-38.09-8.51-7,7-3.65,13.43-1,5.12-11.84,8.66-10.86,25.45,2.45,30.15,20.08,10.79,17.73,22.61,6.79,12,16.18,20,13.3,32.11-5.22,43-37,3.45-46.43,10.31-.51,9.84-1.57,19.43-7.24,5.51-12.75,13.38-2.76,17,13,18,14.08,11.18,10,21.83,6.24,18.3,29.8,0,54.29,10,41.69,11.48-93.53,29.16-109.83,27.86S373.79,308.89,395.75,281.48Z" transform="translate(-37.76 -47.76)"/><path class="cls-3" d="M313.87,429.5s-11,12.91-34.75,16.83-37.84,10.95-47,25.82-7.63,26.42-1.47,22.11,15.64-31.5,37.12-37.37,36.15-11.73,51-20.54,42.46-10,61.44-.59,37.17,30.91,69.65,19.57,33.45-24.85,46.56-30.72,39.38-12.72,36.81-45.78-14.89-38.29-4.92-57.3,10.18-28.86,6.27-33.62S524,261.83,543,254.39s22.11,0,23.87-8.8-12.52-5.77-24.65,1S526,275,528.11,286.24s-1.76,27.24-7.34,32.33,8.12,19.76-14.77,31.69-34,10.54-40.11,31.88,4.43,46.58-22.73,50.1-19.73,10.17-31.86,7.83-11.34-8-7.23-12.33.39-6.46-9.79-5.67-18.79,6.45-24.95,1.95S338.72,411.11,313.87,429.5Z" transform="translate(-37.76 -47.76)"/><path class="cls-4" d="M100.22,167.72a49,49,0,0,0,8.87-10.08c4.17-6.29,3.26-9.35,3.26-9.35L126,152.34s-3.65,11.08-6.52,16.52-6,7.21-6,7.21Z" transform="translate(-37.76 -47.76)"/><path class="cls-5" d="M199.86,152.34s-6.63-7-13.62-5.69-9.59,3.92-9.59,3.92l5.84-12.66s8.07-4,14.55,1.18,7.66,9.2,7.66,9.2Z" transform="translate(-37.76 -47.76)"/><path class="cls-6" d="M486,152.34a16.11,16.11,0,0,1,13.16-6.83c8.76.1,8.18,3.42,8.18,3.42l3.71-10.69s-8.64-1.06-11.95.41S486.43,150.08,486,152.34Z" transform="translate(-37.76 -47.76)"/><polygon class="cls-7" points="498.66 183.44 505.03 182.44 505.03 190.81 495.46 189.67 498.66 183.44"/><path class="cls-5" d="M426.28,363.17s-7.15-3.54-9.89,4.49-5.07,16.1-9.19,16.76l-4.11.67,11.59,9s9.35-.43,11.6-8.84S432,373.47,433.57,373l1.6-.45Z" transform="translate(-37.76 -47.76)"/><polygon class="cls-7" points="297.95 344.26 302.43 355.55 297.95 360.77 290.07 351.96 297.95 344.26"/><path class="cls-5" d="M135.31,464.11s-9.34,4.68-17.33,0-5.36-14.38-5.36-14.38L93.57,467.37s7.18,9.61,15.52,11.6l8.34,2Z" transform="translate(-37.76 -47.76)"/><path class="cls-6" d="M85.35,373.73s-7.66-7.43-5.59-16,2.61-10.18,2.61-10.18l-8.76-2.88s-3.85,1.66-6.82,10.1,2.55,12.92,2.55,12.92Z" transform="translate(-37.76 -47.76)"/><polygon class="cls-4" points="19.81 203.69 33.11 201.9 33.11 209.69 19.81 209.69 19.81 203.69"/><path class="cls-6" d="M81.83,228s3.91-2.28,3.52-6.71a17.57,17.57,0,0,0-1.75-6.77H92s.78-.17,1.57,6l.78,6.15Z" transform="translate(-37.76 -47.76)"/><path class="cls-7" d="M168.63,81.41s10.24-12.5,15.72-11.71l5.48.78V80.2s-8.61-3.58-11,0S168.63,81.41,168.63,81.41Z" transform="translate(-37.76 -47.76)"/><path class="cls-8" d="M377.6,75.92s.23-4-8.27-6.26-12-2-12-2l3.5-10.44s10,1.15,12.66,3.51L376.09,63Z" transform="translate(-37.76 -47.76)"/></g><g id="Headset"><path class="cls-9" d="M530.19,223.53c-.34,1-.71,2-1.11,3h0a89.94,89.94,0,0,1-13.46,23l-.23.28c-.85,1-1.67,2-2.46,2.89-8.87,10.2-13.74,13.25-13.74,13.25s-10.93-14.18-11-18.36a105.83,105.83,0,0,0,10.94-10.21c.56-.6,1.13-1.22,1.7-1.87,5.19-5.81,10.6-13.22,13.34-21.09.26-.72.49-1.45.69-2.18,0-.06,0-.12,0-.18a16.14,16.14,0,0,0,.41-1.92C518,193.35,493,190.29,483.57,192c-9.79,1.83-14.22,5.48-14.22,5.48l-7.57-11.87s2.26-1.45,6-3.34c6.49-3.24,17.46-7.77,28.95-8.27,18.13-.78,30.13,11.35,35.22,25.7C534.32,206.41,533.16,215,530.19,223.53Z" transform="translate(-37.76 -47.76)"/><path class="cls-10" d="M515.33,210.16C518,193.35,493,190.29,483.57,192c-9.79,1.83-14.22,5.48-14.22,5.48l-7.57-11.87s2.26-1.45,6-3.34c6.89-2.83,16.53-6.21,24.24-6.7C505.59,174.75,525.15,182.44,515.33,210.16Z" transform="translate(-37.76 -47.76)"/><path class="cls-5" d="M515.62,249.55l-.23.28c-.85,1-1.67,2-2.46,2.89-1.5-2.29-5.15-7.75-8.17-11.37a11.44,11.44,0,0,0-5.62-3.95c.56-.6,1.13-1.22,1.7-1.87a17.85,17.85,0,0,1,3.53,1.63C505.24,237.86,513.12,246.73,515.62,249.55Z" transform="translate(-37.76 -47.76)"/><path class="cls-5" d="M530.19,223.53c-.34,1-.71,2-1.11,3-2.14-2.29-8.8-9.36-10.75-10.89a7,7,0,0,0-4.15-1.21c.26-.72.49-1.45.69-2.18,0-.06,0-.12,0-.18a9.21,9.21,0,0,1,3.86,1C520.16,214,527.52,221,530.19,223.53Z" transform="translate(-37.76 -47.76)"/><path class="cls-4" d="M481.8,250.09s4.18-4.5,6.4-2.48,10,14.48,10.89,17.8-3.92,6.92-3.92,6.92S489.57,256.74,481.8,250.09Z" transform="translate(-37.76 -47.76)"/><path class="cls-11" d="M482.52,249.3s-11.35-4.89-26.22,2-23.77,20-21.91,28.57,5.5,21,16.3,22.89,27.43-3.72,38.78-11.94,5.48-25.24,3-30.23S486.53,251.36,482.52,249.3Z" transform="translate(-37.76 -47.76)"/><path class="cls-7" d="M438.37,283.09s-2-8.16,2.15-14.87,17-15.59,27.26-16.57,16.5,1.44,19.76,7.63,5.48,14.94,4,21.46-12.13,12.06-21.13,16.37-19.24,3-23.87-.78A24.29,24.29,0,0,1,438.37,283.09Z" transform="translate(-37.76 -47.76)"/><path class="cls-12" d="M449.07,272.91A53.85,53.85,0,0,0,455,285.24c4,6,5.28,6.65,5.67,5.28s-3.45-5.22-5.8-9.78-4-8.09-4.11-9.13S448.74,270.57,449.07,272.91Z" transform="translate(-37.76 -47.76)"/><path class="cls-12" d="M468.63,263.52s4.63,10.18,7.44,14.74,4.1,4.37,4.36,3.39-.52-1.76-1.56-3.06-5.74-10.5-6.72-12.72-1.69-3.33-1.76-3.78S468.11,260,468.63,263.52Z" transform="translate(-37.76 -47.76)"/><path class="cls-10" d="M433.8,287.91s-2.34,1.24-2.21,2.16,1.3,3.72,1.76,3.45,2.22-1,2.22-1Z" transform="translate(-37.76 -47.76)"/><polygon class="cls-13" points="389.88 244.89 394 242.97 394.91 245.1 390.84 247.31 389.88 244.89"/><path class="cls-7" d="M428.07,192.57s9.84-5.87,16-8.74,14.68-4.18,18.79-.53,9.26,12,8.28,21S455.78,223.09,445.28,226s-15.91.06-19-4.31S417.39,198.6,428.07,192.57Z" transform="translate(-37.76 -47.76)"/><path class="cls-10" d="M427.74,206.13s-.78-4.17,5.15-7.89,16.24-8.74,20.94-8S462.7,197.78,462,203s-10,10.43-18.78,13.37S431.2,218.2,427.74,206.13Z" transform="translate(-37.76 -47.76)"/><path class="cls-4" d="M436.61,284.91s-3.78,2-3.52,3.26,1.43,5.29,3.06,5.35a4,4,0,0,0,2.81-1.24l-2.68-7.37Z" transform="translate(-37.76 -47.76)"/></g><g id="Laptop"><path class="cls-14" d="M168.3,466.22S74.13,319.61,70.74,307.87,70,294.3,80.39,287.52,300.3,178.22,337.61,164.78,372.3,154,377.52,166s68.35,173.16,68.35,173.16-136.7,44.14-198.78,82.49S168.3,466.22,168.3,466.22Z" transform="translate(-37.76 -47.76)"/><path class="cls-15" d="M178.56,466.22S84.3,312.57,82,308.13s-4.7-7.92,3.65-13.09,200.88-98.16,222.52-109.68,55.3-24.36,59.48-20.58,67.3,174.34,67.3,174.34S211.28,436.77,178.56,466.22Z" transform="translate(-37.76 -47.76)"/><path class="cls-5" d="M125.36,314c-4.21,1.46-9.59,6.88-11.94,7.2s-3.71,1.6-6.06,2.09-2.74.46-5-2.56A75.79,75.79,0,0,1,96.17,310c-.75-1.76-3.49-3.92-4.07-5.48s-.88-2.2-2.55-2-1.85,1.88-.48,5c0,0,8.41,11.33,9.29,13.71s2.93,3.36,3.72,4.83,4.62,2.54,6.71,1.57,5.91-4.21,8.25-4.9,6.26-4.07,8.32-5,3.91-1.05,4.5-2.54S129.57,312.5,125.36,314Z" transform="translate(-37.76 -47.76)"/><path class="cls-5" d="M142.28,305.85c-1.66-.1-1.56,1.17-2.83,1.61s-4.7,1.81-5.68,2.93a1.81,1.81,0,0,0,0,2.31c.43,1.08,4.4-.59,7.53-2.74S144,306,142.28,305.85Z" transform="translate(-37.76 -47.76)"/><path class="cls-5" d="M163,294.3c1.86-1.27,6.46-3.07,7.24-4.37a10.3,10.3,0,0,0,1.08-3.06s-7.44,1.68-10,4.31a39.72,39.72,0,0,1-8.51,6.76c-2.64,1.45-6.65,4.58-6.36,6.15s4.3-1.08,6.36-2.55S161.16,295.58,163,294.3Z" transform="translate(-37.76 -47.76)"/><path class="cls-5" d="M158.91,368.26c-1.37-2.74-1.56-14.28-3.52-19.37s1.6-27.69,5.69-33.31,7.42-9.16,7.81-11,3.33-9.53,3.33-9.53-12.92,4.36-19.57,31.85,1,35.11,1.57,39,.58,6.26,2.35,9.59a63.56,63.56,0,0,0,3.71,6.46c2.55,4.11,8,2.34,5.94,0S160.27,371,158.91,368.26Z" transform="translate(-37.76 -47.76)"/><path class="cls-5" d="M177,399.71a28.86,28.86,0,0,0-6.16-9.14,2.62,2.62,0,0,0-3.92,2.15c-.68,3.71,5,9.29,7.93,13.3s7.53,3.91,7.34,1.37S179.46,405.44,177,399.71Z" transform="translate(-37.76 -47.76)"/><path class="cls-5" d="M203.52,422.46c-1.86-1.08-6.16-3.33-8-5.19s-5-4.11-6.26-3.62-3.72,3,2.25,8.22,9.1,7.83,13.21,9.2,5,2.83,7.53,4.1,6.84,1.18,6.84,1.18l5.29-3.82s-8.81-1.07-12.52-4.79S205.38,423.53,203.52,422.46Z" transform="translate(-37.76 -47.76)"/><path class="cls-5" d="M224.85,392.72c-2.45-2.64-9.2-8.81-10-14s-3.62-10.76-4-13.6-1.37-6.85-1-9.2a18,18,0,0,0-.29-6.16c-.2-.39-3-1.95-3.62,2.74,0,0-1.27,18.69,6.75,33.36s17.8,13.7,17.9,11.35S227.29,395.36,224.85,392.72Z" transform="translate(-37.76 -47.76)"/><path class="cls-5" d="M245.78,402.89c-2.54-.39-6.75-2.83-7.63-3.18s-3.42.34-2.35,2.5c0,0,10.28,6.16,12.72,5.38S248.33,403.28,245.78,402.89Z" transform="translate(-37.76 -47.76)"/><path class="cls-5" d="M260.51,407c-3.58-1.08-6.41-.2-5.83,1.37s4.5,3,7.24,2.74,8.81-4.11,8.81-4.11l-.49.07C268.63,407.29,263.5,407.9,260.51,407Z" transform="translate(-37.76 -47.76)"/><path class="cls-5" d="M353.59,328c-.88-2.74-7-5.58-8.91-5.48s-1,3.91-1,3.91,8.7,3.13,10.07,12.23-4.5,15.75-6.65,17.9-3.23,3.23-3.42,4.31-3.72,2.54-4,4.3,2.73,3.52,9.58-2.54,6.17-8.91,7.54-10.47,3.42-11.84,1.95-16.83S354.47,330.7,353.59,328Z" transform="translate(-37.76 -47.76)"/><path class="cls-5" d="M373.35,331.87c-2.06,2.64-.69,7.43-1.76,9.39s-3.23,4.79-1.76,6.75,5.08.39,6.94-5.67a16.44,16.44,0,0,0,0-10.47S375.4,329.23,373.35,331.87Z" transform="translate(-37.76 -47.76)"/><path class="cls-5" d="M365.13,279.83c-1.37-2.94-17-13.7-22.11-12.33s-3.34,4.3-3.34,4.3,18.21,5.29,26.23,18.88,6.26,18.89,6.85,21,1.76,4.79,1.86,7.63,3.81,3.32,4.3-1.08-1.17-20.35-4.5-26.12S366.5,282.76,365.13,279.83Z" transform="translate(-37.76 -47.76)"/><path class="cls-5" d="M398.88,301c-.59-4.37-.29-8.67-2.54-11.31,0,0-2.94-1.47-3.82,2.34s2,9.69,1.91,13.21-.15,14.38-1,17.22,4,4.46,4.8-1S399.47,305.38,398.88,301Z" transform="translate(-37.76 -47.76)"/><path class="cls-5" d="M389.1,270.92a3.13,3.13,0,0,0-3-1c-2,.39-.69,4,.78,6.75s1,7,2.83,6.35,3.43-1.75,2.25-6.55S389.1,270.92,389.1,270.92Z" transform="translate(-37.76 -47.76)"/><path class="cls-5" d="M364.64,241.28a45.28,45.28,0,0,1-8.71-5.67c-1.93-1.67-10.46-4.6-13.2-4.4s-4.11,6.06-4.11,6.06,11.64-1.27,22.89,9.88,14.58,15.65,16.63,14.77,3.72-3.71-.49-8.51S368.46,243.24,364.64,241.28Z" transform="translate(-37.76 -47.76)"/><path class="cls-14" d="M536.42,317.34a9.27,9.27,0,0,1-4.4,4.75c-9,5.28-163.76,17.21-390.32,176.48,0,0-9.07,5.8-13.68-2.1a16.07,16.07,0,0,1-1.59-4,4.66,4.66,0,0,1,1.87-5.05c23.35-15.89,205.6-136.74,406.27-178.2C534.57,309.24,537.92,313.16,536.42,317.34Z" transform="translate(-37.76 -47.76)"/><path class="cls-16" d="M536.42,317.34a9.27,9.27,0,0,1-4.4,4.75c-9,5.28-163.76,17.21-390.32,176.48,0,0-9.07,5.8-13.68-2.1,4.83,0,11.1-1.25,18.45-5.86,17.92-11.22,48.94-38.54,57.3-43.07s110.74-54.8,119.47-63.12C331,377,461.72,324,536.42,317.34Z" transform="translate(-37.76 -47.76)"/><path class="cls-12" d="M134.78,489s30.26-19.43,33.13-21,3.66-.26,2.48.92-29,18-31.82,20.08S133.09,491.13,134.78,489Z" transform="translate(-37.76 -47.76)"/><path class="cls-12" d="M173,465.17s-2,1.56-.52,2.15,8.48-4.49,9.26-5.41-.65-1.82-3.26,0A49,49,0,0,1,173,465.17Z" transform="translate(-37.76 -47.76)"/><path class="cls-5" d="M375.42,120.72A35.73,35.73,0,1,1,336,85.18h0c1.2-.12,2.42-.18,3.65-.18A35.72,35.72,0,0,1,375.42,120.72Z" transform="translate(-37.76 -47.76)"/><path class="cls-12" d="M342.55,102.5s-3.26-2.22-5.55-2.42-2.87.65-2.15,5.9,3.78,16.67,4,19.34,1.82,12.13,3.65,12.85,5.67-4.11,11-10.3,11.74-12.07,11.22-14.09-2.16-2.85-6.2-4.75S343.66,103.19,342.55,102.5Z" transform="translate(-37.76 -47.76)"/><path class="cls-10" d="M99.09,274.85S78.3,287,76.87,288.06,65.39,292.88,67,303.7s17.87,29.89,19.82,35.42,24.65,41.79,27.79,46,34.69,56.34,36.78,58.82a62,62,0,0,1,6.65,10.3c1,2.36,6.57,9.9,6.57,9.9l1.65-1.14s-43.57-69-44.74-71-35.22-57.12-35.74-58.24-14.22-24.58-15.39-31.3,1.43-9.08,7.17-12.27,21.24-12.32,21.24-12.32Z" transform="translate(-37.76 -47.76)"/><path class="cls-10" d="M129.51,498.43s-4.38-4.63-3.24-8.86,18.16-13.31,20.38-15.27,26.61-16.43,28.83-17.73,33-19.05,36.06-21.07,43.05-26,101-52,121-49.86,130.66-53,84.75-22,89.06-22.35,4.79,5.38,4.79,5.38l-.2,2.44s-1.07-5-2-5.57-3.33-.15-4.6.24-32.13,7.09-37.27,8.71-38.3,11-38.3,11L416,344.15l-34.73,12.18s-20.35,7.82-31.55,12.66S316.56,383.52,313,385.33s-30.52,14-34.68,16.58-28.22,14.09-33,16.88-28.81,15.31-31.84,17.36S182.73,453.86,181.07,455s-26.41,16.59-28.49,17.81-21.69,14.38-23.6,16S126.76,493.64,129.51,498.43Z" transform="translate(-37.76 -47.76)"/><path class="cls-10" d="M135.31,500.61s2.34,1.87,10.69-3.61,69.7-46.88,117.65-73.3,72.06-37.83,72.06-37.83-58.88,28-76.23,37.17-75.65,45-89.74,55.31S138.84,500.05,135.31,500.61Z" transform="translate(-37.76 -47.76)"/><path class="cls-10" d="M433.57,347.52s35-12.43,56.93-17.17,30.27-5.45,30.27-5.45S441.63,343.47,433.57,347.52Z" transform="translate(-37.76 -47.76)"/><path class="cls-10" d="M339.49,164.11s22.25-6.89,26.36-7.09,6.39-.87,8.41,3.54,7.86,16.68,7.86,16.68-6.36-18.51-8.19-20.37-4.3-2.59-8.6-1.67S340.65,163.24,339.49,164.11Z" transform="translate(-37.76 -47.76)"/><path class="cls-10" d="M443,331.83s-20.9-45-21.08-49.61-14.73-41.58-14.73-41.58,29,69.05,29.47,70.36,8.68,19.35,8.68,19.35Z" transform="translate(-37.76 -47.76)"/><path class="cls-17" d="M151.29,574.65a145.06,145.06,0,0,1-20-1.36c-19.56-2.7-37.53-9.44-52-19.49-16.76-11.66-27.16-26.86-27.82-40.64C50.13,483.77,85.82,461,103,450.08c2.74-1.75,5.11-3.26,6.75-4.42,11.87-8.43,27.95-23,28.15-23.19l2.67,4.33c-.84.75-15.81,14.34-27.92,22.93-1.74,1.24-4.16,2.78-7,4.57-16.36,10.42-50.4,32.12-49.12,58.62.59,12.24,10.19,26,25.69,36.78,30.62,21.32,75.19,25.75,119.23,11.83C277.6,537.47,323.11,461,347.56,419.88c2.61-4.38,5.06-8.51,7.23-12,21.41-34.64,38-58.51,72.31-74.11l2.07,4.56c-33.09,15-48.57,37.31-70.13,72.18-2.14,3.46-4.48,7.39-7.18,11.93C327.07,464.1,280.93,541.66,203,566.3A171.34,171.34,0,0,1,151.29,574.65Z" transform="translate(-37.76 -47.76)"/><path class="cls-7" d="M454.84,326.68l-2,.76-1.19.46c-2.95,1.13-6.27,2.45-6.27,2.45L445,327s2.79-.94,5.73-1.9l1.25-.42c2.44-.79,4.71-1.52,5.29-1.64,1.37-.3,3.09-.3,3.48.83S457.67,325.66,454.84,326.68Z" transform="translate(-37.76 -47.76)"/><path class="cls-18" d="M445.59,333.76a23.24,23.24,0,0,1-2.43,1.29,52.16,52.16,0,0,1-6,2.44,21.13,21.13,0,0,1-2.38.43,15.56,15.56,0,0,0-2.56.46c-.69.29-1.61,1.41-2.74,1.32s-2.34-2.14-2.74-3.87c0,0-1-2.54,0-4,.69-1,3.15-1.66,4.95-2.31a6.7,6.7,0,0,0,1.75-.82,29.9,29.9,0,0,1,5.83-3,11.76,11.76,0,0,1,2.88-.83c2.2-.19,3.67,1,4.3,3.28S447.55,332.53,445.59,333.76Z" transform="translate(-37.76 -47.76)"/><path class="cls-12" d="M443.16,335.05a52.16,52.16,0,0,1-6,2.44,21.13,21.13,0,0,1-2.38.43,81.68,81.68,0,0,1-3.09-8.36,6.7,6.7,0,0,0,1.75-.82,29.9,29.9,0,0,1,5.83-3C440.37,328.15,442.3,332.56,443.16,335.05Z" transform="translate(-37.76 -47.76)"/><path class="cls-19" d="M452.81,327.44l-1.19.46a12.78,12.78,0,0,0-.93-2.82l1.25-.42A6.55,6.55,0,0,1,452.81,327.44Z" transform="translate(-37.76 -47.76)"/><path class="cls-20" d="M173.4,457.8" transform="translate(-37.76 -47.76)"/><path class="cls-4" d="M352.69,154A35.73,35.73,0,1,1,336,85.18c-24.67,5.57-25.86,26.76-25.69,27.66a17.66,17.66,0,0,1-.78,9.07c-1.57,4.08,1,6.09,3.52,7.35s1,14.39,23.78,22.32A44.11,44.11,0,0,0,352.69,154Z" transform="translate(-37.76 -47.76)"/></g><g id="Books"><path class="cls-21" d="M201.89,166.25s-74,39-76.75,40.24-9.68,3.41-12.52-1.74c-.06-.1-.11-.2-.16-.3-.31-.56-.58-1.09-.81-1.6a13.3,13.3,0,0,1-1-2.63,6.87,6.87,0,0,1-.2-1.11c-.19-2,.61-3.43,2.64-4.69,3.62-2.25,67.4-32.91,74.93-34.7l2.51,1.18h0l1.18.56h0l2.63,1.25h0l.77.37,2.48,1.16h0l1.21.58Z" transform="translate(-37.76 -47.76)"/><path class="cls-4" d="M121.74,195.3c2.77-1.51,21.27-11.94,22.42-12.59-1,.46-13.17,6.29-16.18,7.7-2,.94-11.17,5.52-17.51,8.7a6.87,6.87,0,0,0,.2,1.11c1.48-.63,2.78-1.22,3.32-1.5C115.63,197.88,118.88,196.87,121.74,195.3Z" transform="translate(-37.76 -47.76)"/><path class="cls-4" d="M127.69,197c1.64-.74,28.31-15.59,32-17.64-1.47.78-6.32,3.37-8.52,4.51-2.61,1.35-17.21,8.63-21.06,9.8s-4.18,3.65-7.31,4.3c-2,.42-7.42,3-11.14,4.88.23.51.5,1,.81,1.6l.62-.08s7.11-4.44,8.66-4.7S125.92,197.78,127.69,197Z" transform="translate(-37.76 -47.76)"/><path class="cls-4" d="M122.07,202.41c-2.74.91-6.85,2.6-6.85,2.6l2.6,1s24-12.33,25.64-13.15,23.29-12.16,23.29-12.16-12.4,5.48-15.85,7.37S124.81,201.49,122.07,202.41Z" transform="translate(-37.76 -47.76)"/><path class="cls-4" d="M160.09,175.21a25.63,25.63,0,0,1-4.82,2c-2,.58-5.32,3.19-5.32,3.19l15.49-7.43S161.33,174.56,160.09,175.21Z" transform="translate(-37.76 -47.76)"/><path class="cls-4" d="M168.12,175.41a9.4,9.4,0,0,0-2.68,1.82c.52,0,9.33-4.3,9.33-4.3a8.41,8.41,0,0,0-2.09.78C171.38,174.36,169.55,174.82,168.12,175.41Z" transform="translate(-37.76 -47.76)"/><path class="cls-4" d="M190.56,160.9h0a6,6,0,0,0-1.43.49c-1.6.82-10.47,5-12.13,5.75,1.65-.69,10.85-4.6,14.75-5.68Z" transform="translate(-37.76 -47.76)"/><path class="cls-4" d="M197.65,164.24h0a8.2,8.2,0,0,0-2.52,1c-1.5,1-9.91,5.36-14.51,7.73,4.71-2.37,13.75-6.8,18.25-8.19Z" transform="translate(-37.76 -47.76)"/><path class="cls-4" d="M195.16,163.08l-.77-.37h0a16.08,16.08,0,0,0-1.8.5,63,63,0,0,0-6.31,3.25A94.19,94.19,0,0,1,195.16,163.08Z" transform="translate(-37.76 -47.76)"/><path class="cls-22" d="M205.61,166s-1,10.26-2.45,24.22c-3,29.15-7.64,74.44-8.3,76.26-1,2.68-34.31,23-54,34.74-3.11,1.85-6.09,3.54-8.91,5.09-4,2.18-7.62,4.06-10.87,5.65-6,2.95-10.66,4.9-13.38,5.89a11.88,11.88,0,0,1-2.58.76,1.18,1.18,0,0,1-.59-.34h0c-2.5-2.16-10.24-13.87-10.24-13.87.63-6.57,3.62-36.54,6.95-63.5,2.87-23.33,6-44.4,8.05-46.14,4.44-3.73,64.7-32.53,73.83-35s6.78,0,6.78,0c-14.79,5.23-65.42,30.76-76.77,36.51a2.25,2.25,0,0,0-.78,3.34,23,23,0,0,0,5,5.18c1.45,1,3,1.49,4.36.92a2.07,2.07,0,0,0,.34-.15c1.11-.61,5.87-3,12.54-6.43l11.25-5.69C168,182.2,197.81,167.21,200.33,166,204.24,164,205.61,166,205.61,166Z" transform="translate(-37.76 -47.76)"/><path class="cls-10" d="M121.74,205.67c-.4,4.56-2.55,12.46-2.85,14.48-.38,2.54-1,15.65-1.57,19.58a180.05,180.05,0,0,0-1.57,18c0,4.11-5.28,33.39-5.28,33.39s1.17-14.6,2-18.78,1.18-22.43,1.77-26.85,1.76-7.52,2.34-10.86a45.38,45.38,0,0,0,.79-11.72c-.39-3.92,1.37-6.26,1.56-11a19.22,19.22,0,0,0-1.5-7.18C118.83,205.74,120.36,206.24,121.74,205.67Z" transform="translate(-37.76 -47.76)"/><path class="cls-10" d="M109.36,298.7s-.94,13.67-1.59,19.1a11.88,11.88,0,0,1-2.58.76,1.18,1.18,0,0,1-.59-.34h0a39.57,39.57,0,0,0,1.73-6C107.21,307.7,109.36,298.7,109.36,298.7Z" transform="translate(-37.76 -47.76)"/><path class="cls-8" d="M141,235.6c.78,3.53-8.61,59.87-8.61,65.57a27.79,27.79,0,0,1-.43,5.09c-4,2.18-7.62,4.06-10.87,5.65a100.77,100.77,0,0,0,.66-11.61c-.27-3.39,1.84-8.93,2.16-12.85s1.63-14.67,1.57-22.68,2-15.86,3.39-21.86c1.19-5.23,4.84-36,5.76-43.82l11.25-5.69C144.7,201.53,140.31,232.54,141,235.6Z" transform="translate(-37.76 -47.76)"/><path class="cls-23" d="M203.16,190.17c-3,29.15-7.64,74.44-8.3,76.26-1,2.68-34.31,23-54,34.74-3.11,1.85-6.09,3.54-8.91,5.09-4,2.18-7.62,4.06-10.87,5.65-6,2.95-10.66,4.9-13.38,5.89a11.88,11.88,0,0,1-2.58.76,1.18,1.18,0,0,1-.59-.34h0c-2.5-2.16-10.24-13.87-10.24-13.87.63-6.57,3.62-36.54,6.95-63.5,3.68,11,10.4,20.52,10.41,24.53,0,4.32-1.83,8.19-.37,16.54s31.93-.78,38.67-17.14,9.17-32.95,24.82-42.34C183.88,217,195.25,201.84,203.16,190.17Z" transform="translate(-37.76 -47.76)"/></g><g id="Body"><path class="cls-4" d="M341.55,350.53c-6.52,13-20.66,21.92-37,27.49q-3.8,1.31-7.73,2.35h-.05c-.85.23-1.7.45-2.56.66-1.07.26-2.14.51-3.22.75l-1.63.35c-1.1.23-2.21.45-3.31.65l-1.81.32c-1,.18-2.06.34-3.09.49-.84.13-1.67.25-2.5.35l-2.22.27c-1.11.14-2.21.25-3.31.35-.65.07-1.3.12-1.95.17l-1.83.14c-.59,0-1.18.08-1.76.1s-1.15.07-1.72.09l-2,.07-1.73,0-2.19,0c-1.11,0-2.21,0-3.3,0-30.53-.78-39.66-21.52-41.48-25.89a8.55,8.55,0,0,1-.71-2.54c-.14-1.83,1.1-1.83,1.1-1.83s-.44-1.39-.94-3.68h0c-.21-1-.43-2.18-.63-3.49-.65-4.3,2-4.43,2.61-6.13a32.93,32.93,0,0,0,.32-6.54c.16-.61.3-1.23.45-1.85.42-1.85.77-3.71,1-5.55l-.69-1.78c-.65.53-1.47,1.13-2,.6.6-.39,1.19-.8,1.76-1.21-2.17-5.81-3.85-12-3.26-17.24,1.46-13-9.89-65.42-19.55-81.21-4.13-6.74-3.54-11.4-1.52-14.53l.28-.42-.44-.08,1.16-.91.25-.19a14.59,14.59,0,0,1,3.4-2.61c10.82-8.19,25-18.09,29.93-21.51l1-.68.8-.55s.1-6.06.29-11.41c.12-3.43.29-6.56.49-7.63.52-2.74,4.39-3.52,4.39-3.52s38.49-1.05,42-.78,4.89,1.49,5.38,2.91,1.08,9.44,1.08,9.44l1.08.07c4.68.3,23.15,1.47,25.88,1.47,3.13,0,8.22,1.63,20.81,5.41,2.22.67,5.32,1.43,8.93,2.24.18,18.91-2.8,37.72,1.06,55.31l-.34,0,.3,34.49.05,5.26.53,60.49Z" transform="translate(-37.76 -47.76)"/><path class="cls-24" d="M296.76,380.38c-.85.23-1.7.45-2.56.66-1.07.26-2.14.51-3.22.75l-1.63.35c-1.1.23-2.21.45-3.31.65l-1.81.32c-1,.18-2.06.34-3.09.49-.84.13-1.67.25-2.5.35l-2.22.27c-1.11.14-2.21.25-3.31.35-.65.07-1.3.12-1.95.17l-1.83.14c-.59,0-1.18.08-1.76.1s-1.15.07-1.72.09l-2,.07-1.73,0-2.19,0c-1.11,0-2.21,0-3.3,0-30.53-.78-39.66-21.52-41.48-25.89a8.55,8.55,0,0,1-.71-2.54c-.14-1.83,1.1-1.83,1.1-1.83s-.44-1.39-.94-3.68h0c-.21-1-.43-2.18-.63-3.49-.65-4.3,2-4.43,2.61-6.13a32.93,32.93,0,0,0,.32-6.54c.16-.61.3-1.23.45-1.85.42-1.85.77-3.71,1-5.55l-.69-1.78c-.65.53-1.47,1.13-2,.6.6-.39,1.19-.8,1.76-1.21-2.17-5.81-3.85-12-3.26-17.24,1.46-13-9.89-65.42-19.55-81.21-4.13-6.74-3.54-11.4-1.52-14.53,13-.41,19.35,10.95,25.65,16.89,3.33,3.14,6.52,9.28,9,15.22.36.65.72,1.35,1.07,2.14a50.56,50.56,0,0,1,2.49,7.07c1.21,3.45,1.93,5.85,2,6,3,7.92,8,17,12.61,25.07,8,14,14.75,24.91,7.88,20.92-11.77-6.83-14.83.57-3.88,12.21s-18.39,11.05-2.88,39.62C262.27,385.33,295.35,380.59,296.76,380.38Z" transform="translate(-37.76 -47.76)"/><path class="cls-25" d="M301.64,322.94c-15.53-6.27-28.89-34.32-41.42-58.55-4.67-9-9.23-17.56-13.75-24.21-.3-.44-.61-.85-.92-1.28a53.9,53.9,0,0,0-13.34-13s-7.74-7.2-7.74-13.7a7.37,7.37,0,0,1,3.73-6.39c10.31-6.78,20.84-5,29.85-8.74s-3-.61-12.52-1.68-15.5-.27-17.07-5.23a17.57,17.57,0,0,1-.73-3.6c-5.5,3.82-22.56,15.72-33.58,24.31l-1.16.91c20.47,3,31,27,30.13,46.23.1.15.2.3.31.44,4.3,6.05,11.47,13.66,14.16,18.25,1.94,3.31,3.57,9,4.39,14.47.79,5.15.84,10-.25,12.32-2.25,4.69.17,8.89,0,17.22s-7.79,20-7.79,20c-4.89,13.89,2.15,23.47,28.57,38.69a41.75,41.75,0,0,0,13.54,4.83,141.35,141.35,0,0,0,20.71-3.89h.05q3.93-1,7.73-2.35c-15.73-.64-33.65-12.84-18.75-15.75,17-3.33,28-18.2,16.63-20.68s-30.33-14.54-39.13-23.15-4.05-9.81-4.05-9.81a98,98,0,0,0,8.21,7.31c4.95,3.95,18.34,10.52,31.64,16.21s34.44,2.92,34.34.29S323,331.55,301.64,322.94Z" transform="translate(-37.76 -47.76)"/><path class="cls-24" d="M217.43,326.1c-.44.78-.71,1.28-.71,1.28s.05,1.14.1,2.77c0,1.4.08,3.17.09,4.9a76.4,76.4,0,0,0,1.81-9.58C218.72,324.92,218.13,325.56,217.43,326.1Z" transform="translate(-37.76 -47.76)"/><path class="cls-24" d="M194.15,210.87l-1.16.91a27.82,27.82,0,0,1,8.55,2.67A27.2,27.2,0,0,0,194.15,210.87Z" transform="translate(-37.76 -47.76)"/><path class="cls-24" d="M293.81,328.81C275.55,321.9,259,306.64,259,306.64c-6-1.57,22.83,23.87,37.83,27.26s19.69.91,19.69.91S312.07,335.73,293.81,328.81Z" transform="translate(-37.76 -47.76)"/><path class="cls-24" d="M281.16,336.25c-16.83-7.18-24.53-16.05-24.53-16.05s2.22,10.18,12.27,19.57S298,343.42,281.16,336.25Z" transform="translate(-37.76 -47.76)"/><path class="cls-24" d="M216,326.64a6,6,0,0,1,.71-.39,14.13,14.13,0,0,0,5.16-4.64,43.51,43.51,0,0,1-6.16,4.86A.67.67,0,0,0,216,326.64Z" transform="translate(-37.76 -47.76)"/><path class="cls-10" d="M216.59,341.59a178.24,178.24,0,0,0,15.59-23.74c6.06-11.56,8.18-19.63,8.3-20.13-.5.78-16.42,25.71-20.43,28.53a8.83,8.83,0,0,0-1.66,1.58c-.37,2.4-.86,4.82-1.48,7.22A32.93,32.93,0,0,1,216.59,341.59Z" transform="translate(-37.76 -47.76)"/><path class="cls-10" d="M216.91,335.05c.62-2.4,1.11-4.82,1.48-7.22a14.11,14.11,0,0,0-1.57,2.32C216.86,331.55,216.9,333.32,216.91,335.05Z" transform="translate(-37.76 -47.76)"/><path class="cls-25" d="M340.92,278.56l.53,60.49a20.84,20.84,0,0,1-1.5-4.37c-.63-3.52-1.14-3.33,0-10.76s-3.29-20-1.89-24.85C338.84,296.35,340,286.62,340.92,278.56Z" transform="translate(-37.76 -47.76)"/><path class="cls-25" d="M336.06,277.88c-2.14,6.13-3.33,11.08,0,8.41,2-1.56,3.71-8,4.81-13l-.3-34.49.34,0c-.3-1.35-.55-2.71-.77-4.07C339.43,246.71,337.71,273.16,336.06,277.88Z" transform="translate(-37.76 -47.76)"/><path class="cls-25" d="M338.78,201.9l.45,3.19.12-2.74Z" transform="translate(-37.76 -47.76)"/><path class="cls-10" d="M214.61,351.21h0c.5,2.29.94,3.68.94,3.68s-1.24,0-1.1,1.83c11.94-6.81,24.05-38.72,24.83-40.79-.62,1.35-7,15.38-13.36,24.12A42.78,42.78,0,0,1,214.61,351.21Z" transform="translate(-37.76 -47.76)"/><path class="cls-24" d="M229.51,185.33s-.7,6.23,3.77,8.19,17.39,2,17.39,2-10.47,1.76-16.73.4-6.74-4.83-6.7-9.07Z" transform="translate(-37.76 -47.76)"/><path class="cls-24" d="M283.15,174.34v7.15a9.49,9.49,0,0,1-5.24,5.38c-4.25,1.95-3,1.56-3,1.56s8.8-2.93,9.39-5.57a51.35,51.35,0,0,0,.49-8.41Z" transform="translate(-37.76 -47.76)"/><path class="cls-24" d="M340.57,238.81l.34,0-.36-1.71C340.56,238.19,340.57,238.81,340.57,238.81Z" transform="translate(-37.76 -47.76)"/><path class="cls-25" d="M339.85,183.53c-3.6-.81-6.71-1.57-8.93-2.24-12.59-3.78-17.68-5.41-20.81-5.41-2.73,0-21.2-1.17-25.88-1.47-.17,1.66-.65,6-1.49,8-1,2.58-4.19,4.62-6,5.31,1.1-.31,12.24-3.4,22.77-1.85,11.09,1.64,16.83-3.84,26.74-1.75,7.34,1.55,10.42,1.45,13.57,1.29C339.86,184.81,339.85,184.17,339.85,183.53Z" transform="translate(-37.76 -47.76)"/><path class="cls-25" d="M344.14,184.46c-1.49-.31-2.92-.63-4.29-.93,0,.64,0,1.28,0,1.92,1.1-.06,2.21-.12,3.52-.12S344.78,185,344.14,184.46Z" transform="translate(-37.76 -47.76)"/><path class="cls-25" d="M316.5,264c-8.74,8.87-16.3-1.05-31-14.87s-34.19-22.31-34.19-22.31c-5.75-.26,12.41,10.05,21.15,21.79s18.65,25.82,31.43,30S324.72,267,326.1,260,325.24,255.12,316.5,264Z" transform="translate(-37.76 -47.76)"/><path class="cls-25" d="M334.2,207.77s.3,7-2,21.15,4.6,6.37,5.62-5.24S338.72,206.33,334.2,207.77Z" transform="translate(-37.76 -47.76)"/><path class="cls-25" d="M266.81,193.71s-10.27.69-12.82.88-20.24,1.73-23.47-3.68a14,14,0,0,1-1.81-5l.8-.55s.1-6.06.29-11.41a12.17,12.17,0,0,0,4.14,2.28c9.59,3.23,23.09,2.35,27.1,7.83A53,53,0,0,1,266.81,193.71Z" transform="translate(-37.76 -47.76)"/><path class="cls-10" d="M234,162.12s-3.52,1.33-4.16,3.73-1.11,23.27-.72,24.7,4.58,4.28,8.22,4.39,14,1.1,18.85.89,6.13-.89,6.13-.89-14.15.37-20.68-1.06-11.08-1-11.21-5.42-.13-17.83.32-20.68-.27-3.58,3.71-4.59Z" transform="translate(-37.76 -47.76)"/><path class="cls-10" d="M276.69,161.33s5.18,1,5.71,2.77,1,10.73,1.3,11.7-.55,3.73-.55,3.73-.95-13.35-1.67-14.63a5.42,5.42,0,0,0-3.57-2.12,1.54,1.54,0,0,1-1.22-.79Z" transform="translate(-37.76 -47.76)"/><path class="cls-10" d="M194.67,211.42h0l34.7-25.69.15-1.3s-26.41,17.42-37.92,27.19a27.6,27.6,0,0,1,5.15,1C194.94,211.56,194.7,211.43,194.67,211.42Z" transform="translate(-37.76 -47.76)"/><path class="cls-10" d="M194.67,211.42Z" transform="translate(-37.76 -47.76)"/><path class="cls-26" d="M281.49,260.51s13.23,16.45,22.36,18.05,11.8-1.86,11.8-1.86S304.65,283.78,281.49,260.51Z" transform="translate(-37.76 -47.76)"/><path class="cls-26" d="M292.37,330.65c-20.87-6.77-44.47-38.75-44.47-38.75,8.34,16.3,18.91,26.35,38.37,37.57s36.36,4.82,36.36,4.82S313.24,337.42,292.37,330.65Z" transform="translate(-37.76 -47.76)"/><path class="cls-10" d="M286.9,343.37s-5.17,1-14.09-4.05-11.47-8.67-11.47-8.67S271.23,351.31,286.9,343.37Z" transform="translate(-37.76 -47.76)"/><path class="cls-26" d="M338.78,244.11c-.75,8.79,1,23.43,0,28.83a76.63,76.63,0,0,1-1.93,8.23l3.1-7.28S339.52,293,338.32,295s-2.38,7.62-2.38,7.62,4-5.46,4-6.32l0-.86s.4,28.5,0,33,1.22,18.15-.37,21.28a46,46,0,0,1-21.8,20.74c-13.7,6-36.91,14-58.31,12.13s-34.07-8.72-34.07-8.72,11.25,12.85,39.16,11.37S310,377.82,323.77,369s17.13-16.08,17.78-18.5,0-54.25,0-54.25.66-28,.33-53.58a81.24,81.24,0,0,1-2.78-18C339.14,232.66,339.09,240.48,338.78,244.11Z" transform="translate(-37.76 -47.76)"/><path class="cls-26" d="M339,212.67c.06,3.65.11,7.86.13,12.05a81.24,81.24,0,0,0,2.78,18c-.23-17.37-.91-33.64-2.58-39.39C339.17,206.45,339,209.57,339,212.67Z" transform="translate(-37.76 -47.76)"/><path class="cls-26" d="M338.78,201.9s.1,4.57.19,10.77c.07-3.1.2-6.22.33-9.36A8.18,8.18,0,0,0,338.78,201.9Z" transform="translate(-37.76 -47.76)"/><path class="cls-10" d="M315.72,175.8c-1.76-.67-7.82-.87-10.17-1s-22.31-1.56-22.31-1.56v1.56s27.88,1.08,32.48,2.94c2.2.89,13,3.72,24.13,6.44,0-.64,0-1.29,0-1.93C331.29,180,317,176.26,315.72,175.8Z" transform="translate(-37.76 -47.76)"/><path class="cls-27" d="M249.74,241.08s-1.54-8.65.6-9.62,42-10.7,51.31-13.5,14.28-4.28,15.16-.3,4.24,38.5,4.5,41.49-5.86,6.07-16.3,9.47-17,1-19.8,2.35-10.07,4.89-12.26,5.22-1.65,7.95-3.57,11.36-6.29,7.21-7.78,6.68,3.57-6.87,3.12-11.93-.48-3.92-2.82-3.7-8.35.16-8.68-2.71S249.74,241.08,249.74,241.08Z" transform="translate(-37.76 -47.76)"/><ellipse class="cls-27" cx="230.51" cy="203.16" rx="3.9" ry="6.31"/><ellipse class="cls-27" cx="250.72" cy="197.29" rx="3.9" ry="6.31"/><ellipse class="cls-27" cx="269.31" cy="191.62" rx="3.9" ry="6.31"/></g><g id="Right_hand" data-name="Right hand"><path class="cls-28" d="M418.49,92.78c.26-1.44.2-6.33-2.67-7.37a3.81,3.81,0,0,0-3.38.4h0a5.8,5.8,0,0,0-1.5,1.35l-.39-1.56c-.4-1.57-3.2-2-4.05-1.57a4.06,4.06,0,0,0-.79.67l-.05.06c-.89.91-1.95,2.17-2.09,1.36a2.3,2.3,0,0,0-.74-1.16v0a3.89,3.89,0,0,0-4.21-.84c-2.27,1-3.29,4.7-3.44,5.32a.66.66,0,0,1,0,.09s-.8-2.44-1.52-5.33h0a43.49,43.49,0,0,1-.95-4.7c-.59-4.31.06-12.59-2.35-12.79s-4.83,1.7-5.22,6.13S386.93,93,386.93,93s-3.2,3.72-3.52,4.89a1,1,0,0,0,0,.28c.1,2.12,3.73,12.78,3.8,14.13s9,11.76,9,11.76c3.59,3.28,9.59,1.94,13.17.44a12.11,12.11,0,0,0,6.65-5.93,36.17,36.17,0,0,0,2.55-9.47s0,0,0,0a2,2,0,0,0,0-.24C418.82,105.89,418.23,94.21,418.49,92.78Z" transform="translate(-37.76 -47.76)"/><path class="cls-4" d="M355.64,239.92c19.1,1.4,49.59,3.22,55.55,1.1,8.48-3,11.52-7.13,13.13-27.23.06-.75.11-1.52.17-2.31,1.48-20.8-5.19-77.54-5.17-88a7.47,7.47,0,0,1,.09-1.41l.3-1.42c.35-1.63.57-2.61.7-3.2h0l.17-.78s.26-2.77-2.35-2.25-3.72,5.55-12.32,8-9.66,1.17-10.57,2.09c-.6.6,0,1.48.26,2.48a2.63,2.63,0,0,1,.07,1.62c-.1.32-.23.64-.36,1a16.51,16.51,0,0,0-1.34,4.32c-.19,1.95-2.93,29.41-3.91,34.82-.7,3.86-2.09,12.3-2.81,17.08-.27,1.84-.45,3.14-.45,3.43v.08c0,.38-.57.4-1.1.64a1.33,1.33,0,0,0-.48.33,1.05,1.05,0,0,0-.25.36c-.46,1-1,1.23-1,1.23l-.12,0c-1.81-.31-24.12-4.09-40.33-7.5l-4.29-.93c.18,18.9-2.8,37.71,1.06,55.31,1.12.1,5,.43,10.41.85Z" transform="translate(-37.76 -47.76)"/><path class="cls-25" d="M351.51,227.71l-11.64,1.07s-.12,2.27-.33,5.85c.22,1.36.48,2.72.77,4.07,1.12.1,5,.43,10.41.85Z" transform="translate(-37.76 -47.76)"/><path class="cls-25" d="M344.47,224.72s6.45,8.88,11.17,15.2c19.1,1.4,49.59,3.22,55.55,1.1,8.48-3,11.52-7.13,13.13-27.23.06-.75.11-1.52.17-2.31,1.48-20.8-5.19-77.54-5.17-88a7.47,7.47,0,0,1,.09-1.41l.3-1.42c-8.56,5.18-10.95,18.83-11.06,19.5.15-.32,2.71-5.53,6-7.67s4.68,2.08,2.59,9.39,2.09,18.78,0,27.63-15.78,9.54-24,12.73-3.65,5.37-3.65,5.37,6.93-4.78,12.55-5.3,10,2,2.73,2.61-2.5,4.31-13.32,4.31c-2,0-3.57,0-4.76,0h0c0,.38-.57.4-1.1.64a1.33,1.33,0,0,0-.48.33c1.77.73,6.17,2,13.64,4.18,17.74,5.19,24.06,22.75-1.56,28.71-23.71,5.52-54.12-17.45-58.55-20.93l-.12,2.74.75,5.29Z" transform="translate(-37.76 -47.76)"/><path class="cls-24" d="M411.19,241c8.48-3,11.52-7.13,13.13-27.23A45.24,45.24,0,0,1,416.08,228c-9.11,10.12-22.89,6-23.7,5.74,4.46,2,14.18,3,14.18,3s-8.48,2.48-36.65-7.69S339,207.24,339.38,210.24c.34,2.53.53,21,.58,26.75.11.57.23,1.14.35,1.71C345.23,239.12,402.76,244,411.19,241Z" transform="translate(-37.76 -47.76)"/><path class="cls-24" d="M394.62,183.63a14.14,14.14,0,0,1-7.37,2.14l-.45,3.47A66.54,66.54,0,0,0,398,185.52a32.47,32.47,0,0,1,8.74-2.74S398.6,181.28,394.62,183.63Z" transform="translate(-37.76 -47.76)"/><path class="cls-24" d="M385.7,189.92a1.32,1.32,0,0,0-.73.69c-.46,1-1,1.23-1,1.23,4.34.75,24.59,6.91,25.22,7.1-.35-.27-5.26-3.83-15.3-7.29C389.77,190.23,387.25,189.85,385.7,189.92Z" transform="translate(-37.76 -47.76)"/><path class="cls-24" d="M411.58,130.72l-.9,2.7c.36-.8,3.17-6.91,6.28-8.33a8.54,8.54,0,0,0,2.36-1.59,7.47,7.47,0,0,1,.09-1.41c.53-2.5.84-3.88,1-4.62a12.84,12.84,0,0,1-2.86,4.25A23.23,23.23,0,0,0,411.58,130.72Z" transform="translate(-37.76 -47.76)"/><path class="cls-24" d="M395.6,127a2.63,2.63,0,0,1,.07,1.62c-.1.32-.23.64-.36,1a10.13,10.13,0,0,0,4.63-2.16c1.37-1.32,4.94-2.3,4.94-2.3a20.58,20.58,0,0,0-6.26,1.33A6.76,6.76,0,0,1,395.6,127Z" transform="translate(-37.76 -47.76)"/><path class="cls-29" d="M403.61,96.4C400,96.08,386.93,93,386.93,93l-.78.93A67.35,67.35,0,0,1,395,95.8C399.16,97,404.78,97,405.22,98s-.68,2-5.12,3.86a30.26,30.26,0,0,1-9.21,2,12.35,12.35,0,0,0,4.42,0c3.05-.39,8.1-1.42,10-3.72S407.23,96.73,403.61,96.4Z" transform="translate(-37.76 -47.76)"/><path class="cls-29" d="M395.14,89.52s-.8-2.44-1.52-5.33a41.4,41.4,0,0,0,.45,7.2,27,27,0,0,0,.95,3.45l1.35.28a21.78,21.78,0,0,1-1.21-5.69A.66.66,0,0,1,395.14,89.52Z" transform="translate(-37.76 -47.76)"/><path class="cls-29" d="M403.56,86.13a2.3,2.3,0,0,0-.74-1.16,8.83,8.83,0,0,1,.79,3.54,58.15,58.15,0,0,0,.24,6.11s.07-7.86,1.8-9.85C404.76,85.68,403.7,86.94,403.56,86.13Z" transform="translate(-37.76 -47.76)"/><path class="cls-29" d="M410.93,87.17l-.39-1.56a49.39,49.39,0,0,1,.14,6.22c-.18,2.55.05,8.42.05,8.42s1.14-8.22,1-10.13c-.07-1.34-.24-3,.65-4.3A5.8,5.8,0,0,0,410.93,87.17Z" transform="translate(-37.76 -47.76)"/><path class="cls-29" d="M407.25,105.38c-2.5-.34-3.15-3.81-2.37-5.33s-.91,1.2-.91,1.2-.17,2.91,1.15,4.28,3.82,1.12,4.55-.34a9.7,9.7,0,0,0,.87-3.18S409.75,105.72,407.25,105.38Z" transform="translate(-37.76 -47.76)"/><path class="cls-29" d="M415.93,103.52c-1.56,2.21-4.25.47-4.25.47-.3.37.1,1.49.68,1.83s3.33,1.08,4.5-1.18.83-10.65.83-10.65S417.5,101.32,415.93,103.52Z" transform="translate(-37.76 -47.76)"/><path class="cls-29" d="M394.36,108.46a10.4,10.4,0,0,1-2.54,1.42s4-.68,5.48-3a46.89,46.89,0,0,0,2.49-4.26l-1.61.37S396.07,107.29,394.36,108.46Z" transform="translate(-37.76 -47.76)"/><path class="cls-29" d="M411.48,119.26a12.78,12.78,0,0,1-11.69,2.08c-3.5-1-5.88-5.8-9.47-7.69s-3.46-11.74-3.78-13.55c-.2-1.09-1.86-1.63-3.15-1.89.1,2.12,3.73,12.78,3.8,14.13s9,11.76,9,11.76c3.59,3.28,9.59,1.94,13.17.44a12.11,12.11,0,0,0,6.65-5.93,36.17,36.17,0,0,0,2.55-9.47C416.42,111.62,414.36,116.92,411.48,119.26Z" transform="translate(-37.76 -47.76)"/><path class="cls-29" d="M412.72,105.27a7.57,7.57,0,0,1-1.86-2.48,1.32,1.32,0,0,1-.32-.78s-.59,2.7-2,3.45a2.74,2.74,0,0,1-4.07-1.85,7.06,7.06,0,0,1-.2-3.13,31.18,31.18,0,0,1-3.49,1.72,6,6,0,0,0-2.25,1.5l-1.79,3.59s6.59.29,8.71,3.46l2.12,3.16s.91-5.67,3.68-6.23a9.78,9.78,0,0,0,4.34-1.76,2.22,2.22,0,0,0,.81-1.27S413.86,106.12,412.72,105.27Z" transform="translate(-37.76 -47.76)"/><path class="cls-26" d="M423.32,171c.18-1.38-1.76-18-1.76-18l-1.15-16.2s-.68-11.67-.68-13.3.07-3.22.68-4.11.95-4-.48-5-3.52.72-6.07,3.59-9,4.72-9,4.72a27.32,27.32,0,0,0,6.61-1.52c3.23-1.24,5.75-5.92,7.15-5.48s1.29,1.76.84,3.61-.6,1.54-2.23,3.63-3.43,5.07-3.43,5.07,2.46-3.7,3.92-4.09.62,1.24.9,3.13.31,2.35.57,4.17.2,10.31.78,12.07,1.05,23,1.93,30.36.68,24.36,1.07,38-4.3,22.31-8.34,26.22-21,4-40.17,0-34.57-18.13-34.57-18.13l.84,19.3,25.44,2s31.37,1.76,37.76,1.37,13.76-1.89,17-8.87,3.48-20.59,3.79-26.94-.38-18.91-.38-18.91S423.14,172.35,423.32,171Z" transform="translate(-37.76 -47.76)"/><path class="cls-10" d="M390.89,193.57c2,.57,14.67,4.27,14.67,4.27s-17.37-5.73-21.57-6.91-38.44-7.14-38.44-7.14l-6.32-1.65c0,.64,0,1.28,0,1.93,12.15,3,24.65,5.82,26.54,5.84C369.42,190,388.89,193,390.89,193.57Z" transform="translate(-37.76 -47.76)"/><path class="cls-10" d="M397.17,124.34a19.59,19.59,0,0,0,3.81-.78s-4.81.51-5.17.09-1.84.29-1.45,1.79,1.5,2.75,0,4.84-1.5,11.28-1.95,13-1.7,21.65-2.87,25.63-2.81,18.72-3.2,19.69-2.48,1-3.33,1.7l-.84.72,5.28,1s-2-.45-.65-2.74c0,0,6.65-1.32,10.3-3.47,0,0-8.93,2-9.19,1s4.17-18.46,4-21.52,2.28-23.81,2.28-25.31a58.1,58.1,0,0,1,.52-7.89c.33-.91,1.57-3.13,1.57-3.59s1.95-1.91,1.95-1.91-1.93.52-2.46,0S395.15,124.54,397.17,124.34Z" transform="translate(-37.76 -47.76)"/><path class="cls-10" d="M403.49,96.14c-1.3-.26-15.32-3.16-16.2-3.21s-1.18.47-2.87,2.65-1.24,2.42-1,3.85,3.05,9.94,3.21,11.71,1,2.15,1.21,2.89,8,10.16,8,10.16l1.59-.2a5.61,5.61,0,0,1-1-.59c-.6-.42-7.78-9.65-8.24-10.47s-1.95-7.14-2.6-9.55-1.44-5-1.31-5.61,2.51-3.88,3.23-4,9,1.95,12.72,2.64,4.89.72,5.48,1.66-2.39,3.59-2.39,3.59a6.47,6.47,0,0,0,3.28-3.52C407,96.54,404.8,96.4,403.49,96.14Z" transform="translate(-37.76 -47.76)"/><path class="cls-10" d="M390.71,103.34c4.17,1.47,10.5-.88,10.5-.88C397.26,103.54,390.71,103.34,390.71,103.34Z" transform="translate(-37.76 -47.76)"/><path class="cls-10" d="M392.41,68.94c-.1-1.46-1-3.32-3.13-2.74s-3.58,1.57-4.46,7.24,1.77,20.06,1.77,20.06l.68-.2-.64-6s-1.9-13.07-.48-16.72,4.17-3.87,4.59-3.13S392,72.37,392,76.28A35.18,35.18,0,0,0,394,85.46a42.25,42.25,0,0,0-.61-4.58C392.94,79.12,392.5,70.41,392.41,68.94Z" transform="translate(-37.76 -47.76)"/><path class="cls-10" d="M400.33,83.52c-2.61.1-4.22,3.32-4.22,3.32a12.46,12.46,0,0,1,3.37-2.25,2.74,2.74,0,0,1,3.34,1c.76,1,1.14,9.71,1.14,9.71s0-8.21,0-9A3.38,3.38,0,0,0,400.33,83.52Z" transform="translate(-37.76 -47.76)"/><path class="cls-10" d="M408.09,83.68a2.66,2.66,0,0,0-2.75,1.54c2.82-1.91,4.45,0,4.81,1.2s.54,12.75.54,12.75.4-10.53.47-12A3.24,3.24,0,0,0,408.09,83.68Z" transform="translate(-37.76 -47.76)"/><path class="cls-10" d="M408.12,105.76a3.28,3.28,0,0,1-3.88-1.77,3.3,3.3,0,0,0,2.3,2.34c1.78.34,2.89-.25,3.28-1.49a29.54,29.54,0,0,0,.72-3.55S409.92,105.43,408.12,105.76Z" transform="translate(-37.76 -47.76)"/><path class="cls-10" d="M417.12,101.68c-.75,3-1.31,3.36-2.76,3.77a2,2,0,0,1-1.58-.14,2.64,2.64,0,0,0,2.39.38c1.76-.55,2.16-1.78,2.32-3.68s1-8,.25-10.44C417.74,91.57,417.87,98.71,417.12,101.68Z" transform="translate(-37.76 -47.76)"/><path class="cls-10" d="M412.72,105.27h0Z" transform="translate(-37.76 -47.76)"/><path class="cls-10" d="M412.78,105.31s0,0-.06,0A.13.13,0,0,0,412.78,105.31Z" transform="translate(-37.76 -47.76)"/><path class="cls-10" d="M412.25,104.86a1.61,1.61,0,0,0,.46.41A2.86,2.86,0,0,1,412.25,104.86Z" transform="translate(-37.76 -47.76)"/><path class="cls-10" d="M418.4,105.82a30.13,30.13,0,0,1-2.52,10.67l1.46-1.08a34.17,34.17,0,0,0,1.45-6.72c0-2.25-.34-11.67-.34-11.67S418.53,100.21,418.4,105.82Z" transform="translate(-37.76 -47.76)"/></g><g id="Left_hand" data-name="Left hand"><path class="cls-4" d="M259.85,256.33c-.66,1.79-.88,2.35-.79,2.8a8.56,8.56,0,0,1-.29,7.37c-2,3.92-1.27,3-2.87,4.14s-5.25,3.33-5.25,3.33-2.77,6.95-4.89,9.59a18.91,18.91,0,0,1-5.87,4.76,19,19,0,0,0-3.25,2.59h0s-.45.59-1,1.39c.25,1.55.68,4-.64,5.72-1.57,2-7.49-1.72-10.66-6s-9-9.49-8.32-12.86a4.62,4.62,0,0,1,3.29-3.49l1.74-3.76v0l.43-2-1,2.19-1.24,2.7-3.4.59a87.2,87.2,0,0,0,3-10.81C213.15,274,201.19,290,198.28,292c-3.78,2.55-16.3,15.91-22.83,28.71s-4-.14-1.56-12.27,6.52-18.13,14.35-24.79,8.74-23.74,16.24-32.48,4.11-24.78,11.6-18.91a15.11,15.11,0,0,1,3.7,4.36,36.88,36.88,0,0,0-2.26-7.24,41.47,41.47,0,0,1,5.57,19.07h0c.13,1.65.1,2.71.1,2.71s0,.09-.07.27h0c0,7.27-.41,13.31-.58,15.46,2-3.66,7.26-13.6,7.63-14.53.46-1.14,3.59-9.75,5.48-10.47s9.08-1.24,12.46-1.1,4.79,1.3,5.18,2.08.77,1.37.77,1.37a6.69,6.69,0,0,1,3.34,1.7,7.22,7.22,0,0,1,1.63,4.6c-.06,1-.35,1.3,0,1.82A4.54,4.54,0,0,1,259.85,256.33Z" transform="translate(-37.76 -47.76)"/><path class="cls-4" d="M194.82,212.73s22.06,5.67,24.82,22,0,33.26,0,33.26l2.38.7S237,286,237.27,293.43s-.76,5.33-3,7.47a9.57,9.57,0,0,0-2.68,4.76s-2.65,8.38-5.38,11-8,11.44-8,11.44L207.86,350s-11.09,8.7-23,8.51-15.16-4.6-18.59-9.59-3.81-8.61-3.81-8.61v-32s2.15-25.92,3-30.23,2.25-28.37,9.59-41.67S190.45,212.85,194.82,212.73Z" transform="translate(-37.76 -47.76)"/><path class="cls-25" d="M223.19,251.14s0,.09-.07.27h0c-.2.78-.79,3.21-1.36,7-.16,1.08-1.29,3.29-3,6.09C213.15,274,201.19,290,198.28,292c-3.78,2.55-16.3,15.91-22.83,28.71s-4-.14-1.56-12.27,6.52-18.13,14.35-24.79,8.74-23.74,16.24-32.48,4.11-24.78,11.6-18.91a15.11,15.11,0,0,1,3.7,4.36,29.07,29.07,0,0,1,3.31,11.83h0C223.22,250.08,223.19,251.14,223.19,251.14Z" transform="translate(-37.76 -47.76)"/><path class="cls-24" d="M190.47,215.11s6.6-3.1,15,2.77c8.15,5.69,11.71,10,11.92,10.26-.22-.39-5.3-9-13.4-14.47a28.19,28.19,0,0,0-8.55-2.68c-1.92,1.52-3.63,2.92-5,4.12Z" transform="translate(-37.76 -47.76)"/><path class="cls-24" d="M217.48,240.22c-.19,2.05-1.37,4.11-4.4,9.18s-5.48,15.08-6,22.32-11.64,12.72-19.86,21.13a24.21,24.21,0,0,0-2.76,3.52c-.46.68-.9,1.41-1.33,2.16a74.17,74.17,0,0,0-4.19,8.82c-.26.64-.51,1.28-.75,1.91A157.92,157.92,0,0,0,173,325.8a150.86,150.86,0,0,1,10.56-14c2.1-2.31,5.44-5.82,8.66-9,.92-.92,1.82-1.81,2.69-2.65l1-1c1-1,1.94-1.81,2.73-2.5a10.44,10.44,0,0,1,2.39-1.75c1.86-.58,2.15-2.83,4-5.47s7.43-7.05,8-10,2.8-3.13,2.8-3.13c-1-8.71,3.56-27.59,3.75-33.46S217.68,238.17,217.48,240.22Z" transform="translate(-37.76 -47.76)"/><path class="cls-24" d="M210,280.63a27.77,27.77,0,0,1-3.52,9.78c-2.81,4.43-2.48,10.89-2.48,10.89a27.74,27.74,0,0,1,1.3-5c1.24-3.92,4.57-8,6.33-11.94a20.58,20.58,0,0,0,1.63-8.08Z" transform="translate(-37.76 -47.76)"/><path class="cls-24" d="M201.15,292.3c.13,2.93-4,11.93-4,11.93a58.16,58.16,0,0,0,5.08-8.6,62.26,62.26,0,0,0,2.87-9.79S201,289.36,201.15,292.3Z" transform="translate(-37.76 -47.76)"/><path class="cls-24" d="M232.05,303.05s-5.93,5.49-10.82,9.73-13.37,14.93-13.37,14.93,15.46-16.56,21.46-19,3-5.62,3-5.62Z" transform="translate(-37.76 -47.76)"/><path class="cls-24" d="M227.56,314.34s-6.13,6.79-9.52,8.48-13.57,15.39-13.57,15.39,9.4-9.66,13.19-12a.65.65,0,0,1-.3-.17,43,43,0,0,0,6.16-4.86,13,13,0,0,0,1-1.66C225,318.52,227.56,314.34,227.56,314.34Z" transform="translate(-37.76 -47.76)"/><path class="cls-10" d="M235,298c-1.57,2-7.49-1.72-10.66-6s-9-9.49-8.32-12.86a4.62,4.62,0,0,1,3.29-3.49,5.77,5.77,0,0,1,1.16-.28s3.62,6.21,5.47,9.24c1.38,2.25,5.89,4.22,8.2,5.65.81.51,1.36,1,1.4,1.3s.06.46.1.74C235.89,293.87,236.32,296.34,235,298Z" transform="translate(-37.76 -47.76)"/><path class="cls-28" d="M259.65,255.64c-.06.34-.13.66-.2.95a7.79,7.79,0,0,1-.9,2.11h0s1,2.48.65,4.11-.78,5.28-2.94,6.85c-1.31.95-3.21,2.15-4.49,2.94-.75.47-1.29.79-1.37.83h0s-4,10.56-8.67,13.43c-4,2.47-4.88,3.69-5.06,4h0s0,0,0,0h0s-.45.59-1,1.39a15.3,15.3,0,0,0-1.38,2.48c-.64,1.6-1.67,2-3.71.82l-.55-.33a37.45,37.45,0,0,1-9.67-9.24c-2.88-4.32-3.92-7.22-1.05-10.32l0-.06,1.74-3.76v0c2.48-5.37,6.81-14.62,7.81-16.18,1.12-1.72,3.64-8.1,5.26-11.27a6.23,6.23,0,0,1,1.13-1.77c1.18-.85,13.24-2.09,15.2-1.31a7.52,7.52,0,0,1,2.87,2.3,6,6,0,0,1,.46.62,11.4,11.4,0,0,1,1.65.79h0c1.22.68,2.69,1.78,3,3.19a11.16,11.16,0,0,1,.19,1.68,4.24,4.24,0,0,1-.18,1.71h0A6,6,0,0,1,259.65,255.64Z" transform="translate(-37.76 -47.76)"/><path class="cls-29" d="M254,258.54a12.2,12.2,0,0,0-5.93,4c.3-.14,5-2.37,7.56-3.38s2.87-.46,2.87-.46h0a7.79,7.79,0,0,0,.9-2.11C258.55,256.42,257.41,257.38,254,258.54Z" transform="translate(-37.76 -47.76)"/><path class="cls-29" d="M255.63,250.26c-3.23.47-9.56,4.21-10,4.49.38-.12,4.5-1.42,8.42-2.63,4.11-1.27,4.37-.45,4.37-.45h0a4.24,4.24,0,0,0,.18-1.71A23.32,23.32,0,0,0,255.63,250.26Z" transform="translate(-37.76 -47.76)"/><path class="cls-29" d="M253.32,243.66a78.16,78.16,0,0,0-9.95,3.18s6.2-1.17,8.35-1.76a6.69,6.69,0,0,1,3.71,0,11.4,11.4,0,0,0-1.65-.79A6,6,0,0,0,253.32,243.66Z" transform="translate(-37.76 -47.76)"/><path class="cls-25" d="M192.64,305.57c-4.5,3.13-11.06,10.18-14.58,16.24s3.33,1.55,6.94-2.6,12.62-13.64,14.78-19.8,2.56-6.56,2.56-6.56l-2.56.88S197.14,302.44,192.64,305.57Z" transform="translate(-37.76 -47.76)"/><path class="cls-25" d="M208.58,283.46s-4.57,6.65-5.46,12.33-2.07,9.66-5.3,13.88,4.5-2.59,5.38-5.86,2-8.8,3.52-11.84,3.13-5.33,2.94-7.14S208.58,283.46,208.58,283.46Z" transform="translate(-37.76 -47.76)"/><path class="cls-29" d="M235,288.77a13.67,13.67,0,0,1-.85,1.51,30.26,30.26,0,0,1-4.14,5,37.45,37.45,0,0,1-9.67-9.24c-2.88-4.32-3.92-7.22-1.05-10.32l0-.06,1.74-3.76v0c2.48-5.37,6.81-14.62,7.81-16.18,1.12-1.72,3.64-8.1,5.26-11.27,0,.13.09.26.14.4a12.87,12.87,0,0,0,.6,1.41c2.74,5.68,7.69,21.72,8.51,28.18S236.49,285.58,235,288.77Z" transform="translate(-37.76 -47.76)"/><path class="cls-10" d="M230.18,311a14.45,14.45,0,0,1,3.35-6.78c1.56-1.79,4.74-3.06,5.11-5.12s-1-9.32-1-9.32a7.85,7.85,0,0,0-1,1.14s.79,6.69-.09,7.67-12.62,12.74-13.67,13.59l-1,.85,8.69-6.39a46.88,46.88,0,0,1-3.28,7.37c-1.43,2.15-6.63,9.19-7.59,9.84s-3.89,2.48-5.78,3.85-5.08,6.07-5.08,6.07,6.65-5.68,7.69-6.52a4.47,4.47,0,0,1,1.76-1s-6.19,13.43-7.17,15.52-2.54,8.74-10.83,11.8-16,5.35-21.84,4-13.5-11.35-14.16-13.76a47,47,0,0,1-1-10.84c.2-2.4,1.32-37.42,1.44-40.2s2.8-23.83,4.3-32.31,5.48-21.39,10.5-30.33,11.74-16,15.13-16.82,11,3.71,11,3.71a56,56,0,0,0-6.39-4.5l-.79-.45a28.61,28.61,0,0,0-5.15-1l-.91.78c-11,9.59-15.6,16.14-21.06,30.91s-9.26,52.14-9.36,58-.1,35.18-.78,39,5.38,10.08,6.65,12.42,9,7,11.93,7.54,21.91-1.37,28.86-9.88c5.94-7.28,8.94-19.16,11.76-25-.19-.56-2,2.07-3,1.12a41.52,41.52,0,0,0,4-3c.14-.2.28-.4.42-.57C225.12,318.45,229.42,314.15,230.18,311Z" transform="translate(-37.76 -47.76)"/><path class="cls-26" d="M223.12,251.41h0c0,7.27-.41,13.31-.58,15.46,0,.55-.07.85-.07.85l-1,2.14-1,2.19-1.24,2.7-3.4.59a87.2,87.2,0,0,0,3-10.81c1.65-7.65,3-18.25,1-28a36.88,36.88,0,0,0-2.26-7.24,41.47,41.47,0,0,1,5.57,19.07h0C223.11,249.44,223.12,250.44,223.12,251.41Z" transform="translate(-37.76 -47.76)"/><path class="cls-26" d="M212.56,276.32c-2.15,2.61-2.81,6.42-5.81,8.65s-4,2-6.32,5.57-8.06,8-10.72,9.83-8,5.84-11.91,15c0,0,7.43-10.49,12.19-13.43a43.45,43.45,0,0,0,9.33-7.54c1.5-1.65,3.46-4.33,3.46-4.33l-.44,2.77s1.15-3.55,2.46-4.72,3.91-3.33,4.5-4.11,2.35-4,2.35-4a27.78,27.78,0,0,1-1.57,5.35l-.93,1.95s3.28-4.17,3.74-6.77a6.1,6.1,0,0,1,3.84-4.64,2.69,2.69,0,0,0,1.5-2.42A9,9,0,0,0,212.56,276.32Z" transform="translate(-37.76 -47.76)"/><path class="cls-10" d="M259.85,256.33c-.66,1.79-.88,2.35-.79,2.8a8.56,8.56,0,0,1-.29,7.37c-2,3.92-1.27,3-2.87,4.14s-5.25,3.33-5.25,3.33-2.77,6.95-4.89,9.59a18.91,18.91,0,0,1-5.87,4.76,19,19,0,0,0-3.25,2.59h0s0,0,0,0h0a9.94,9.94,0,0,1,2.82-3.32c2.18-1.76,4.07-1.57,7-6.75a57.41,57.41,0,0,0,3.91-8s4.92-2.59,6.16-4.13a11,11,0,0,0,2.06-5c.26-1.5.43-3,0-3.85s0-1.24-1.31-1.14a4.94,4.94,0,0,0-1.19.29h0a25.84,25.84,0,0,0-2.86,1.19l-.26.12a33.33,33.33,0,0,1,3.76-2.13c1-.36,1.92.19,2.28-1.37a1,1,0,0,0,0-.24c.29-1.55,0-3.65-1.05-4.42s-1.18-.62-2.64-.36c-.27,0-.65.14-1.09.26h0c-1.81.46-4.59,1.32-5,1.45a38.85,38.85,0,0,1,5.14-2.23c1.79-.53,3.68-.4,3.75-.95l.05-.36a3.64,3.64,0,0,0-1.58-3.72c-2-1.41-2.46-1.43-3.53-1.4h-.22a54.92,54.92,0,0,0-5.94,1.21s4.63-1.54,5.45-1.62a1.49,1.49,0,0,0,1.07-.44,2.46,2.46,0,0,0-.19-.32,4.68,4.68,0,0,0-3.36-2.09,53.74,53.74,0,0,0-12.59.69c-1.81.46-2.24.95-3,2.56-.27.53-.56,1.18-1,2-1.6,3.29-1.27,6.1,0,11a43.35,43.35,0,0,1,1.36,6.85c-.14-.65-1.28-6-2.6-8.32a12.09,12.09,0,0,1-1.55-3.68s-1.67,4.6-2.33,5.84-6.89,12.91-7.13,13.35h0l.43-2,.34-1.64.72-1.35c2-3.66,7.26-13.6,7.63-14.53.46-1.14,3.59-9.75,5.48-10.47s9.08-1.24,12.46-1.1,4.79,1.3,5.18,2.08.77,1.37.77,1.37a6.69,6.69,0,0,1,3.34,1.7,7.22,7.22,0,0,1,1.63,4.6c-.06,1-.35,1.3,0,1.82A4.54,4.54,0,0,1,259.85,256.33Z" transform="translate(-37.76 -47.76)"/></g><g id="Head"><path class="cls-10" d="M234.12,157a9.65,9.65,0,0,1-5.93-2.25c-2.84-2.35-18.1-17.8-18.3-19.56s0-15.18,0-15.18-3.71,5.69-4,11.75c0,0-1.17-11.91,0-17.15a27.39,27.39,0,0,1,3.72-8.87s-7.63,8.6-9.29,14.67-1.77,7-1.77,7-1.27-22.21,2.06-27.68,21.06-25.15,21.06-25.15L205.88,84.66s12.43-16,14.38-17.22S245.5,54.82,245.5,54.82s-9-.1-14.18,2.15l-5.19,2.25s13.31-8.9,24.16-10.86,20.16,1.37,20.74,2.06,6.64,6.46,9.24,7.92a9.68,9.68,0,0,0,4.26,1.47l-1.76-7s7.05,7.83,6.75,9.3-1,3.81-1,3.81l1.57-.78s-.19,8.9,0,12.13l.19,3.23,4.22-11.64s.37,14.18-.51,17.61S289.23,98,289.23,98l3.62-1.76s-4.7,10.66-6.26,8.71.63-7.44-1.4-8.42-19,1.72-22,3.82-16,13-18.78,15.26-5.29,18.78-5.78,22-4.59,5.38-5,6.46a11.36,11.36,0,0,0,0,3.72Z" transform="translate(-37.76 -47.76)"/><path class="cls-28" d="M283.06,154.89c-.78,1.38-6.65,4-6.65,4v11.25s-.39,4-10.08,4.8l-1.55.12a77.15,77.15,0,0,1-16.48-.81c-5.24-.87-10.15-2.42-13.56-4.88l-1-20.8,0-.32,0-.5s-6.95-1.18-9.59-4.9-5.87-12.33-5.57-14.09,2.35-6.55,4.3-6.55,7.53.49,8.9,2.55S238,135.42,238,135.42L237.57,114l3.53-5.1-.89,3.13s14-11.15,16.15-13.09,4.2-4.22,4.2-4.22l-2.14,5.56c.51-.22,16.78-7.71,20.73-13.19,0,0,5.37,6.55,7.27,9.68a3.68,3.68,0,0,1,.65,1.48c0,.22.05,1.29.18,2.91.61,8,2.61,29.77,2.86,30.73C290.4,133.08,283.85,153.52,283.06,154.89Z" transform="translate(-37.76 -47.76)"/><path class="cls-29" d="M264.78,175.07c-9.62.56-23-.6-30-5.69l-1.05-21.12,2,.89s3.45,7.08,13.16,9.36c0,0,.93,10.14,8.76,13.94A38.57,38.57,0,0,0,264.78,175.07Z" transform="translate(-37.76 -47.76)"/><path class="cls-29" d="M276.41,160.22v7a7.9,7.9,0,0,1-4.45.1c-3.08-.81-8.83-4.79-9.18-5a23,23,0,0,0,8.45.23A10.27,10.27,0,0,0,276.41,160.22Z" transform="translate(-37.76 -47.76)"/><path class="cls-29" d="M290.11,131.9c-.25-1-2.25-22.69-2.86-30.73-.13-1.62-.2-2.69-.18-2.91a.56.56,0,0,0,0-.21.29.29,0,0,0,0-.09l-.08-.21s0,0,0-.08a2.15,2.15,0,0,0-.17-.34l-.09-.17-.11-.2-.11-.18h0c-1.89-3.13-7.27-9.69-7.27-9.69-3.95,5.48-20.22,13-20.73,13.19l2.14-5.56S258.51,97,256.36,99,240.21,112,240.21,112l.89-3.13-3.53,5.1.39,21.41s-4.89-8.59-6.26-10.65-6.94-2.55-8.9-2.55-4,4.8-4.3,6.55,2.93,10.37,5.57,14.09,9.59,4.9,9.59,4.9l0,.5c3.45.69,3.72,4.12,5,4.88,1.46.88,6.73,3.81,6.73,3.81a31.43,31.43,0,0,0,16.15,5s-3-.8-10.48-5S241.49,144.72,241,136s-1.67-15.17,13.55-27.38c15-12,21.39-6.35,26.85-8.63-1.53,2.15-3.6,5.35-3.94,7.39-.54,3.3,1,13.18,2.52,14.65s-2.15,5.67-2.15,5.67,6.2-1.39,6.7-.7,0,3.46,0,3.46,3.38,1.81,1.86,8.12-2.35,14.63-6.31,17.28-10.08,5.72-10.47,5.91c.29,0,3.33-.58,6.8-1.39v-1.5s5.87-2.63,6.65-4S290.4,133.08,290.11,131.9Z" transform="translate(-37.76 -47.76)"/><path class="cls-25" d="M223.62,126.46a3,3,0,0,0-.59,3.78c1.31,2.16,2.42,3.07,2.61,4.9s2.19,7.68,4.83,7.17,1.43-3.46,1.43-3.46-2.08-.13-2.34-1.89-.06-2.33.55-3,1.36.08,1.17-1.08-4.4-6.39-4.4-6.39Z" transform="translate(-37.76 -47.76)"/><path class="cls-24" d="M233.66,147.76h2.25s3,5.13,4.11,5.72,11.06,6.31,11.06,6.31-10.18-3.62-12-5.43-3.62-4.4-4-4.79a2.86,2.86,0,0,0-1.42-.49Z" transform="translate(-37.76 -47.76)"/><path class="cls-24" d="M276.41,158.91s-7,3.08-9.19,3.37a19.05,19.05,0,0,1-4.45,0s8.9,3.67,13.64,2Z" transform="translate(-37.76 -47.76)"/><path class="cls-24" d="M230.73,133.23s-3.86-6.12-4.84-6.31a7.32,7.32,0,0,0-3.52.44,5.91,5.91,0,0,0-.69,1.52,4.7,4.7,0,0,1,.39-2.45c.54-.73,4.55-.59,5.19-.29s4.15,6,4.4,6.55a2.42,2.42,0,0,1-.44,2.3,1.75,1.75,0,0,0-.88,2,2,2,0,0,0,1.91,1.32c.53.1,1,1.42,1,2.06s.05,2.69-1.51,2.84-4-.35-4.84-1.47-2.16-3.13-2.16-3.13,2,2.83,4.41,3.23,2.54-.44,2.54-1.13.19-1.27-.29-1.42a3,3,0,0,1-2.55-2.25c-.34-1.81.2-2.49.83-2.83A3.49,3.49,0,0,0,230.73,133.23Z" transform="translate(-37.76 -47.76)"/><path class="cls-10" d="M265.65,104.76a9.18,9.18,0,0,0-9-1.86c-5.18,1.86-9.78,8.61-9.78,8.61S254.16,100.55,265.65,104.76Z" transform="translate(-37.76 -47.76)"/><path class="cls-10" d="M283.8,99.33a2.81,2.81,0,0,0-2.79.49c-1.07,1.13-4.06,6.36-4.25,8.07s1.22,10.71,2.05,12.67a16.22,16.22,0,0,0,1.46,2.84L278,127.55l3.76-4.89s-2.64-.63-3.57-7.43-.24-9.69,1.57-12.52S282.68,99.43,283.8,99.33Z" transform="translate(-37.76 -47.76)"/><ellipse class="cls-10" cx="222.39" cy="73.89" rx="2.02" ry="4.25"/><ellipse class="cls-12" cx="222.96" cy="72.55" rx="0.83" ry="1.75"/><ellipse class="cls-10" cx="245.32" cy="66.8" rx="1.45" ry="3.05"/><ellipse class="cls-12" cx="245.76" cy="65.83" rx="0.6" ry="1.25"/><path class="cls-30" d="M254.55,125.9l18.05-5.59.29,4.31a23.48,23.48,0,0,1-9.17,5.48c-5.7,1.81-9.17,1.05-9.17,1.05Z" transform="translate(-37.76 -47.76)"/><path class="cls-29" d="M275.83,109.65s1.42,9,2.1,11.3,1.47,2.59,1.47,2.59l-2.15,3.77A85.1,85.1,0,0,1,275.83,109.65Z" transform="translate(-37.76 -47.76)"/><path class="cls-30" d="M282.23,118.11l5.92-2v2.5s-.34.83-2.49,1.41a8.26,8.26,0,0,1-3.43.34Z" transform="translate(-37.76 -47.76)"/><line class="cls-31" x1="216.79" y1="79.55" x2="200.07" y2="79.8"/><path class="cls-31" d="M272.69,121.65s7.69-5.25,9.54-2.66" transform="translate(-37.76 -47.76)"/><path class="cls-26" d="M262.49,135.2s16.57-8,23.28-7.77l-.26,4.9s-.44-1.16-8.05,2.26-15,7.26-15,7.26A36,36,0,0,0,262.49,135.2Z" transform="translate(-37.76 -47.76)"/><path class="cls-10" d="M234.74,169.38s-2.71-1.5-3.33-2.68,1-2.68,3.06-2.78Z" transform="translate(-37.76 -47.76)"/><path class="cls-10" d="M276.41,170.16a13.66,13.66,0,0,0,2.35-4.34c.69-2.35-2.35-2.8-2.35-2.8Z" transform="translate(-37.76 -47.76)"/><path class="cls-25" d="M248.3,174.26c-5.24-.87-10.15-2.42-13.56-4.88l-1-20.8,2.56.77s2.22,5,6.52,6.6C242.79,156,242,168.11,248.3,174.26Z" transform="translate(-37.76 -47.76)"/><path class="cls-10" d="M287,98.05s0,6.79.4,10,1.24,14.25,1.4,15.65,1.11,7.34.75,9.23-5.28,18.16-6.43,20.32-5.36,4.5-7.4,5.64-8,2.69-10.5,3a10.9,10.9,0,0,1-5.08-.8,9.43,9.43,0,0,0,5.25,1.44c3-.13,8.08-1.69,11.67-3.42s5.8-3.1,6.59-5,6.62-20.67,6.62-22S288,104.45,288,103.9,287,98.05,287,98.05Z" transform="translate(-37.76 -47.76)"/><path class="cls-10" d="M232.65,148.58s2.42-.34,2.91.28,2.8,4.7,4.82,5.55,10.7,5.38,10.7,5.38-10-6-11-7.11-3.26-4-3.49-4.42.91-.8-4.73-.7S232.65,148.58,232.65,148.58Z" transform="translate(-37.76 -47.76)"/><polygon class="cls-10" points="195.03 100.5 196.22 121.16 197.81 122.21 196.42 100.5 195.03 100.5"/><path class="cls-10" d="M275.63,159.54l.15,11.93a3.31,3.31,0,0,0,.93-2.49c0-1.61,0-10.07,0-10.07Z" transform="translate(-37.76 -47.76)"/><path class="cls-10" d="M234.18,167.6s2.57,3.85,13.42,5.91,17.18,1.56,17.18,1.56a53.42,53.42,0,0,1-18.32-.54c-9.27-2.09-16.19-5.59-15.08-8.86l2.8.92Z" transform="translate(-37.76 -47.76)"/><path class="cls-10" d="M276.71,167.6s.83,4.31-5.65,6.56c0,0,6.76-1.33,7.7-8.34Z" transform="translate(-37.76 -47.76)"/></g><g id="Mail"><path class="cls-5" d="M242.85,373s-5.16,5.49-11.51,11.8c-7,7-15.47,14.95-20.05,17.68-8.74,5.22-33,9.39-42.65,0l37.51-24.62,0,0S233.85,378.37,242.85,373Z" transform="translate(-37.76 -47.76)"/><path class="cls-4" d="M242.85,373s-5.16,5.49-11.51,11.8a38.75,38.75,0,0,1-11.44.07c-7.73-1.09-11.76-4.47-13.75-7l0,0S233.85,378.37,242.85,373Z" transform="translate(-37.76 -47.76)"/><path class="cls-27" d="M168.77,402.62a114.12,114.12,0,0,0,33-3.51A160.8,160.8,0,0,0,223.91,392" transform="translate(-37.76 -47.76)"/><path class="cls-32" d="M311.85,311.07s-2.6,14.48-21.39,34.95c-10,10.92-27.81,24.93-44.08,36.12-14.26,9.81-27.35,17.46-33,19,0,0,28.83-27.81,40.83-40.47s23.09-34,23.09-34l33.85-15.2Z" transform="translate(-37.76 -47.76)"/><path class="cls-4" d="M311.85,311.07s-2.6,14.48-21.39,34.95c-10,10.92-27.81,24.93-44.08,36.12a456.7,456.7,0,0,1,33.91-35.85c18.09-17.21,27-29.05,30.85-34.9Z" transform="translate(-37.76 -47.76)"/><path class="cls-27" d="M277.27,326.63c2.56,4,6.25,10.33,7.4,15.43" transform="translate(-37.76 -47.76)"/><path class="cls-12" d="M168,402.11s6.45-5.15,8.48-6.07,12.78-7.89,14.74-9.26,5-3,6.71-4.11,8.29-4.82,8.29-4.82-13.09,10.24-14.74,10.5-13,9.62-15.39,10.23-6.4,3.24-5.68,4.1,3.65,3.17,10.37,3.85,22.11.73,31.11-5.43,21.89-19.88,21.89-19.88-17,17.4-19.57,19.63-8.32,4.85-15.43,6.54-16.89,1.25-21.85.27S168,402.11,168,402.11Z" transform="translate(-37.76 -47.76)"/><path class="cls-12" d="M278.48,326.06s-8.24,14.52-9.61,16.47-10.57,16.67-18.29,23.58-21.83,20.23-21.83,20.23,25.85-26.75,28.58-30.14,13.49-20.68,15.16-22.7,3.72-6.87,3.72-6.87l.74-.57s25.77-12,28.31-13.07a43.87,43.87,0,0,1,6.59-1.92s-12.07,7.2-14,7.79S278.48,326.06,278.48,326.06Z" transform="translate(-37.76 -47.76)"/><path class="cls-12" d="M237.59,388s33.24-23.22,42.82-33.27,22.5-22.45,28.37-35.08c0,0-8.57,18.15-16.69,25.51S266.72,368.48,260.51,373,237.59,388,237.59,388Z" transform="translate(-37.76 -47.76)"/><ellipse class="cls-6" cx="168.14" cy="330.09" rx="8.74" ry="4.12"/></g></svg>