<svg width="401" height="400" viewBox="0 0 401 400" fill="none" xmlns="http://www.w3.org/2000/svg">
<g opacity="0.3">
<path opacity="0.3" d="M290.474 294.135C255.37 310.864 51.8395 359.719 43.3486 248.322C34.8576 136.925 197.01 69.1243 256.954 64.4987C316.898 59.873 361.887 87.9439 340.026 127.294C318.165 166.644 294.91 182.802 328.684 191.483C373.737 203.016 411.122 236.726 290.474 294.135Z" fill="url(#paint0_linear)"/>
<path opacity="0.3" d="M355.107 188.125C354.093 192.434 345.539 193.384 335.59 191.103C325.642 188.759 318.038 184.006 319.052 179.697C320.066 175.388 328.937 173.741 338.885 176.085C348.897 178.43 356.121 183.816 355.107 188.125Z" fill="url(#paint1_linear)"/>
</g>
<path d="M153.982 181.852C153.982 181.852 96.8895 178.303 57.1593 177.162C17.4925 176.022 71.5433 160.624 86.9412 163.095C86.9412 163.095 60.4544 150.232 82.759 144.909C105.064 139.587 120.715 164.299 120.715 164.299C120.715 164.299 107.662 139.08 153.982 181.852Z" stroke="#2C2A6B" stroke-width="0.25" stroke-miterlimit="10"/>
<g opacity="0.5">
<path opacity="0.5" d="M191.178 222.786C337.806 236.093 383.999 134.201 383.999 134.201H375.065C375.065 134.201 339.77 211.887 213.103 202.699C115.266 195.665 64.5737 181.852 18 194.398V241.162C52.661 228.299 109.753 215.436 191.178 222.786Z" fill="white"/>
<path opacity="0.5" d="M366.637 191.61C366.637 191.61 319.747 244.584 171.281 239.831C96.003 237.424 47.5283 246.421 18 255.863V303.07C53.7382 321.446 116.724 340.773 218.552 334.246C400.855 322.523 397.623 192.181 366.637 191.61Z" fill="white"/>
</g>
<path d="M267.153 158.533C267.153 158.533 213.292 165.82 154.806 128.118C96.3197 90.4151 155.566 109.742 155.566 109.742C155.566 109.742 147.963 87.4369 169.634 95.3576C191.305 103.278 206.702 128.815 206.702 128.815C206.702 128.815 197.768 113.1 207.209 112.403C216.588 111.706 217.728 155.301 267.153 158.533Z" fill="white"/>
<path d="M279.761 89.504C279.761 89.504 293.027 64.956 296.617 62.7337C300.207 60.5114 304.651 57.6737 304.651 55.8959C304.651 54.118 303.626 51.6222 303.626 51.6222C303.626 51.6222 305.95 46.5964 306.087 45.8442C306.224 45.092 303.796 43.8954 303.147 43.4509C302.497 43.0065 299.796 42.9381 299.796 42.9381C299.796 42.9381 296.48 41.2628 295.659 41.1261C294.839 40.9893 293.813 41.1261 293.813 41.1261C293.813 41.1261 291.728 40.75 290.36 41.297C288.992 41.844 287.351 41.9466 286.257 43.109C285.163 44.2715 280.992 50.9042 280.992 52.1008C280.992 53.2975 281.505 59.3832 279.796 61.0927C278.086 62.8021 260.41 85.8116 260.41 85.8116L279.761 89.504Z" fill="#F4AFBB"/>
<path d="M303.623 51.6222C303.623 51.6222 302.426 49.2973 301.4 49.4683C300.375 49.6392 299.554 51.5538 299.486 52.2376C299.418 52.9214 299.691 53.8103 299.691 53.8103C299.691 53.8103 297.366 53.2975 295.964 53.8103C294.563 54.3232 291.554 55.9643 291.554 55.9643V55.2805C291.554 55.2805 290.05 56.0668 288.716 54.6993C288.716 54.6993 286.802 54.4941 286.22 53.8103C285.639 53.1266 285.058 51.4513 285.639 50.494C285.639 50.494 285.673 52.2376 286.802 52.6821C287.93 53.1266 288.716 53.3659 288.956 53.1607C289.195 52.9556 291.28 49.8102 291.28 49.8102C291.28 49.8102 290.05 53.1266 290.118 53.2975C290.186 53.4684 291.007 54.5283 292.272 53.9471C293.503 53.3659 294.768 50.0495 294.768 50.0495C294.768 50.0495 293.879 52.5795 294.152 52.7847C294.426 52.9898 296.819 52.7847 297.195 52.3744C297.571 51.9641 299.178 49.1606 299.178 49.1606C299.178 49.1606 299.417 50.6991 299.725 50.4256C300.101 50.1521 301.64 47.1776 303.623 51.6222Z" fill="#F192A2"/>
<path d="M280.305 60.2721C280.305 60.2721 270.629 75.1103 270.458 76.2043C270.287 77.2984 268.441 82.0165 268.441 82.0165H263.312C263.312 82.0165 277.433 63.8278 280.305 60.2721Z" fill="#F192A2"/>
<path d="M301.332 244.792L315.862 254.057L299.93 279.289L285.434 267.357L301.332 244.792Z" fill="url(#paint2_linear)"/>
<path d="M301.231 246.946L313.95 255.083L300.035 277.135L287.316 266.673L301.231 246.946Z" fill="#EF4164"/>
<path d="M299.576 249.172L299.207 249.747L310.836 257.202L311.205 256.626L299.576 249.172Z" fill="#3C342E"/>
<path d="M297.631 252.23L297.262 252.805L308.89 260.26L309.26 259.684L297.631 252.23Z" fill="#3C342E"/>
<path d="M295.631 255.298L295.262 255.874L306.89 263.329L307.259 262.753L295.631 255.298Z" fill="#3C342E"/>
<path d="M293.685 258.356L293.316 258.932L304.945 266.387L305.314 265.811L293.685 258.356Z" fill="#3C342E"/>
<path d="M291.725 261.443L291.355 262.019L302.984 269.474L303.353 268.898L291.725 261.443Z" fill="#3C342E"/>
<path opacity="0.38" d="M308.172 249.168L301.334 244.792L300.172 263.323L308.172 249.168Z" fill="#3C342E"/>
<path d="M310.735 241.51L292.204 275.768L264.75 261.135L288.341 222.535L308.752 233.373L310.735 241.51Z" fill="#45559D"/>
<path d="M287.928 226.556L287.605 227.159L308.345 238.259L308.668 237.656L287.928 226.556Z" fill="white"/>
<path d="M286.651 228.918L286.328 229.521L307.068 240.621L307.39 240.018L286.651 228.918Z" fill="white"/>
<path d="M285.397 231.296L285.074 231.899L305.814 242.999L306.136 242.396L285.397 231.296Z" fill="white"/>
<path d="M284.1 233.689L283.777 234.291L304.517 245.392L304.84 244.789L284.1 233.689Z" fill="white"/>
<path d="M282.846 236.067L282.523 236.67L303.263 247.77L303.586 247.167L282.846 236.067Z" fill="white"/>
<path d="M281.569 238.429L281.246 239.032L301.986 250.132L302.308 249.529L281.569 238.429Z" fill="white"/>
<path d="M280.315 240.807L279.992 241.41L300.732 252.51L301.054 251.907L280.315 240.807Z" fill="white"/>
<path d="M279.038 243.169L278.715 243.772L299.454 254.872L299.777 254.27L279.038 243.169Z" fill="white"/>
<path d="M277.784 245.548L277.461 246.151L298.201 257.251L298.523 256.648L277.784 245.548Z" fill="white"/>
<path d="M308.751 233.373L306.016 239.288L310.734 241.51L308.751 233.373Z" fill="#273870"/>
<path opacity="0.38" d="M264.75 261.135L292.204 275.802L293.264 273.819L299.931 279.323L304.82 271.597C305.025 255.357 294.666 248.519 294.666 248.519C297.059 238.877 297.025 231.732 295.589 226.398L288.375 222.569L264.75 261.135Z" fill="#3C342E"/>
<path d="M272.202 212.483C272.202 212.483 303.006 210.466 293.228 249.715C293.228 249.715 310.015 260.793 300.442 288.281C299.109 292.11 294.869 294.093 291.074 292.726L228.918 270.708C228.884 270.742 251.175 213.03 272.202 212.483Z" fill="#6E94A4"/>
<path d="M293.502 291.461C292.852 291.461 292.237 291.358 291.622 291.119L231.141 269.75C232.85 265.579 237.705 254.058 244.167 242.638C254.56 224.244 264.27 214.398 272.236 214.193H272.305C272.305 214.193 272.544 214.193 272.954 214.193C275.45 214.193 284.032 214.706 289.194 221.338C293.878 227.321 294.664 236.758 291.553 249.339L291.246 250.502L292.271 251.151C292.305 251.186 296.203 253.852 298.972 259.63C302.596 267.289 302.562 277.033 298.801 287.734C298.015 289.991 295.895 291.461 293.502 291.461Z" stroke="#3C342E" stroke-miterlimit="10"/>
<path opacity="0.38" d="M280.409 285.956C279.657 282.64 278.084 282.64 278.084 282.64C278.084 282.64 277.093 284.178 276.717 282.571C276.34 280.965 274.528 280.589 274.528 280.589C274.528 280.589 273.161 281.306 272.443 280.418C271.725 279.529 270.87 279.392 270.87 279.392C270.87 279.392 269.468 280.11 268.408 279.631C267.349 279.153 266.323 279.323 266.323 279.323L263.93 283.187L282.084 289.614C282.084 289.58 281.161 289.238 280.409 285.956Z" fill="#3C342E"/>
<path d="M287.898 205.645C288.24 202.944 288.684 200.072 289.095 198.739C289.847 196.243 291.796 171.627 291.796 171.627C291.796 171.627 288.821 174.738 286.086 178.294C287.385 186.021 288.787 197.166 287.898 205.645Z" fill="url(#paint3_linear)"/>
<path d="M282.426 183.764C282.494 183.627 282.563 183.491 282.631 183.388C282.563 183.491 282.494 183.627 282.426 183.764Z" fill="url(#paint4_linear)"/>
<path d="M282.766 183.149C282.834 183.012 282.937 182.875 283.005 182.704C282.937 182.875 282.834 183.012 282.766 183.149Z" fill="url(#paint5_linear)"/>
<path d="M287.312 210.227C287.312 210.329 287.277 210.398 287.277 210.5C287.312 210.432 287.312 210.329 287.312 210.227Z" fill="url(#paint6_linear)"/>
<path d="M283.109 182.533C283.212 182.362 283.349 182.157 283.451 181.986C283.349 182.157 283.246 182.362 283.109 182.533Z" fill="url(#paint7_linear)"/>
<path d="M281.469 186.157C281.503 185.986 281.537 185.815 281.605 185.645C281.571 185.85 281.537 186.021 281.469 186.157Z" fill="url(#paint8_linear)"/>
<path d="M281.672 185.508C281.706 185.405 281.74 185.268 281.809 185.132C281.74 185.268 281.706 185.371 281.672 185.508Z" fill="url(#paint9_linear)"/>
<path d="M281.875 184.927C281.909 184.824 281.978 184.687 282.012 184.585C281.978 184.687 281.943 184.824 281.875 184.927Z" fill="url(#paint10_linear)"/>
<path d="M282.148 184.345C282.217 184.243 282.251 184.106 282.319 183.969C282.251 184.106 282.183 184.243 282.148 184.345Z" fill="url(#paint11_linear)"/>
<path d="M287.245 210.842C287.245 210.91 287.245 210.945 287.211 211.013C287.245 210.945 287.245 210.876 287.245 210.842Z" fill="url(#paint12_linear)"/>
<path d="M285.226 200.141C285.5 201.03 287.346 210.227 287.346 210.227C287.722 207.252 288.44 200.961 289.124 198.739C289.876 196.243 291.825 171.627 291.825 171.627C291.825 171.627 286.594 177.097 283.551 181.884C283.688 181.679 283.824 181.439 283.995 181.234C284.44 189.44 285.055 199.594 285.226 200.141Z" fill="url(#paint13_linear)"/>
<path d="M287.28 210.534C287.28 210.603 287.246 210.671 287.246 210.74C287.28 210.671 287.28 210.603 287.28 210.534Z" fill="url(#paint14_linear)"/>
<path d="M282.324 184.003C282.358 183.935 282.393 183.867 282.427 183.764C282.393 183.833 282.358 183.901 282.324 184.003Z" fill="#D2942A"/>
<path d="M281.809 185.132C281.843 185.063 281.877 184.995 281.877 184.927C281.843 184.995 281.843 185.063 281.809 185.132Z" fill="#D2942A"/>
<path d="M281.602 185.679C281.636 185.61 281.636 185.576 281.67 185.508C281.67 185.542 281.636 185.61 281.602 185.679Z" fill="#D2942A"/>
<path d="M287.21 210.979C287.21 211.047 287.176 211.116 287.176 211.184C287.21 211.15 287.21 211.047 287.21 210.979Z" fill="#D2942A"/>
<path d="M282.051 184.585C282.085 184.516 282.119 184.448 282.153 184.345C282.119 184.414 282.085 184.516 282.051 184.585Z" fill="#D2942A"/>
<path d="M283.004 182.704C283.038 182.636 283.072 182.567 283.106 182.533C283.072 182.602 283.038 182.67 283.004 182.704Z" fill="#D2942A"/>
<path d="M283.453 181.987C283.453 181.952 283.488 181.952 283.488 181.918C283.488 181.918 283.488 181.952 283.453 181.987Z" fill="#D2942A"/>
<path d="M282.629 183.388C282.663 183.32 282.697 183.251 282.766 183.183C282.731 183.217 282.663 183.285 282.629 183.388Z" fill="#D2942A"/>
<path d="M288.339 213.406C288.339 213.406 286.904 213.406 287.177 211.184C287.177 211.116 287.211 211.047 287.211 210.979C287.211 210.945 287.211 210.876 287.245 210.808C287.245 210.774 287.245 210.739 287.245 210.739C287.245 210.671 287.28 210.603 287.28 210.534V210.5C287.28 210.432 287.314 210.329 287.314 210.227C287.314 210.227 285.468 201.03 285.194 200.141C285.023 199.594 284.408 189.44 283.929 181.234C283.792 181.473 283.621 181.679 283.485 181.884C283.485 181.918 283.45 181.918 283.45 181.952C283.348 182.123 283.211 182.328 283.109 182.499C283.074 182.567 283.04 182.636 283.006 182.67C282.903 182.807 282.835 182.944 282.767 183.114C282.732 183.183 282.698 183.251 282.63 183.32C282.561 183.456 282.493 183.593 282.425 183.696C282.391 183.764 282.356 183.832 282.322 183.935C282.254 184.072 282.22 184.174 282.151 184.311C282.117 184.379 282.083 184.448 282.049 184.55C281.98 184.653 281.946 184.79 281.912 184.892C281.878 184.961 281.844 185.029 281.844 185.097C281.809 185.234 281.741 185.337 281.707 185.474C281.673 185.542 281.673 185.576 281.638 185.644C281.57 185.815 281.536 185.986 281.502 186.157L275.758 212.654C278.903 212.996 283.587 214.09 287.553 217.27L288.339 213.406Z" fill="#D2942A"/>
<path d="M281.471 186.157C281.471 186.157 278.804 204.551 277.71 218.945C276.616 233.339 265.778 251.596 265.778 251.596C265.778 251.596 253.367 250.673 240.478 246.98C227.588 243.288 191.416 226.501 186.083 216.928C180.749 207.355 174.082 201.269 183.142 199.765C192.168 198.295 217.981 203.833 217.981 203.833L281.471 186.157Z" fill="#1E1610"/>
<path d="M253.434 245.579C253.434 245.579 259.93 246.536 260.408 245.202C260.887 243.869 255.451 240.177 255.451 240.177L253.434 245.579Z" fill="#3C342E"/>
<path d="M196.58 215.355C196.58 215.355 196.135 215.902 197.024 217.543C197.913 219.184 198.768 220.347 198.871 220.415C198.973 220.483 203.144 215.321 203.144 215.321C203.144 215.321 197.229 214.671 196.58 215.355Z" fill="#3C342E"/>
<path d="M285.706 154.908C285.706 154.908 287.86 161.37 285.227 173.678C282.595 185.986 269.671 216.62 269.671 217.03C269.671 217.441 269.671 224.928 269.671 224.928L260.406 245.271C260.406 245.271 239.858 223.561 232.883 223.014C225.909 222.467 220.917 222.672 218.968 221.714C217.019 220.757 211.207 215.697 206.797 215.492C202.386 215.287 196.574 215.424 196.574 215.424C196.574 215.424 246.012 160.857 254.047 154.225C262.081 147.592 273.945 145.643 273.945 145.643L285.706 154.908Z" fill="#B1B1B1"/>
<path d="M285.949 155.797C285.367 155.421 284.718 155.148 284 154.977C284 154.977 284.82 155.729 285.162 158.464C285.162 158.464 280.307 157.507 276.649 154.464C276.649 154.464 280.307 158.327 285.265 159.866C285.333 161.815 285.196 164.481 284.547 168.105C282.598 178.978 280.478 185.508 279.487 188.277C278.461 191.046 265.196 215.287 265.196 216.483C265.196 217.68 265.196 221.646 265.196 221.646H262.7C262.7 221.646 263.52 226.774 262.7 228.928C262.05 230.569 258.631 238.296 257.059 241.818C259.11 243.869 260.409 245.271 260.409 245.271L269.674 224.928C269.674 224.928 269.674 217.475 269.674 217.03C269.674 216.62 282.598 185.986 285.231 173.678C287.282 164.003 286.427 157.951 285.949 155.797Z" fill="#8C8C8C"/>
<path d="M219.584 209.133C221.259 208.449 225.943 196.141 228.575 191.012C231.208 185.884 256.235 166.943 256.235 166.943C256.235 166.943 250.115 166.567 242.046 166.157C224.815 184.243 196.574 215.355 196.574 215.355C196.574 215.355 202.386 215.218 206.797 215.424C209.327 215.526 212.336 217.27 214.797 218.877C214.797 218.877 217.943 209.816 219.584 209.133Z" fill="#8C8C8C"/>
<path d="M311.283 124.89C311.283 124.89 306.839 149.609 300.035 151.797C293.915 153.78 284 154.943 284 154.943C284 154.943 270.632 148.857 274.325 142.942C278.017 137.027 274.427 124.411 283.556 118.052C292.65 111.727 308.446 106.838 311.283 124.89Z" fill="#F4AFBB"/>
<path d="M284 154.977C284 154.977 291.385 154.293 300.035 151.831C300.274 151.763 300.479 151.592 300.719 151.421C298.291 152.754 297.163 151.865 295.249 151.421C293.3 150.977 293.436 149.951 288.069 148.241C282.701 146.532 283.18 133.266 283.18 133.266C280.718 136.173 277.675 134.258 276.547 133.369C276.102 137.096 275.829 140.617 274.325 143.01C270.632 148.891 284 154.977 284 154.977Z" fill="#F192A2"/>
<path d="M304.273 127.625C304.273 127.865 304.888 132.412 304.888 132.412C304.888 132.412 306.461 135.694 304.888 136.685C303.315 137.711 302.734 137.916 302.734 137.916L299.691 136.07L304.273 127.625Z" fill="#F192A2"/>
<path d="M284.103 122.497C284.103 122.497 284.103 122.565 284.068 122.702C283.863 123.864 283.043 129.403 285.915 128.241C289.094 126.941 290.838 120.206 290.838 120.206C290.838 120.206 296.718 119.796 298.154 116.548C299.59 113.3 310.873 117.026 311.283 124.924C311.283 124.924 311.899 105.436 297.539 103.761C283.214 102.086 273.948 107.146 276.205 109.983C278.495 112.821 279.59 112.89 279.59 112.89C279.59 112.89 275.179 110.496 268.957 115.932C262.734 121.334 268.41 135.831 271.316 137.985C274.222 140.138 275.931 141.198 277.265 138.942C278.598 136.685 279.521 134.771 279.521 134.771C279.521 134.771 277.504 134.224 277.914 129.403C278.325 124.548 279.521 119.591 284.103 122.497Z" fill="#3C342E"/>
<path d="M301.355 123.583C301.525 122.886 301.246 122.219 300.732 122.094C300.218 121.969 299.664 122.433 299.495 123.13C299.325 123.828 299.604 124.494 300.118 124.619C300.631 124.744 301.185 124.28 301.355 123.583Z" fill="#3C342E"/>
<path d="M309.77 126.642C309.948 125.909 309.676 125.212 309.163 125.087C308.649 124.962 308.088 125.456 307.909 126.19C307.731 126.924 308.002 127.62 308.516 127.745C309.03 127.87 309.591 127.376 309.77 126.642Z" fill="#3C342E"/>
<path d="M302.225 118.633C302.362 119.112 301.883 119.591 301.576 119.625C301.268 119.659 296.447 120.821 296.276 120.309C296.105 119.796 295.866 119.42 296.413 119.146C296.994 118.907 302.123 118.257 302.225 118.633Z" fill="#3C342E"/>
<path d="M309.777 122.155C309.777 122.155 310.871 125.437 311.487 125.3C312.102 125.164 312 124.206 312.068 123.933C312.136 123.659 310.598 121.471 310.359 121.505C310.119 121.505 309.777 122.155 309.777 122.155Z" fill="#3C342E"/>
<path d="M299.657 142.737C299.622 142.737 299.588 142.737 299.554 142.737C294.22 141.267 295.246 136.993 295.28 136.959C295.315 136.788 295.52 136.651 295.691 136.72C295.862 136.754 295.998 136.959 295.93 137.13C295.896 137.267 295.041 140.788 299.725 142.087C299.896 142.122 299.998 142.327 299.964 142.498C299.964 142.634 299.828 142.737 299.657 142.737Z" fill="#3C342E"/>
<path d="M280.92 131.454C280.818 131.454 280.51 131.42 280.202 131.147C279.724 130.702 279.519 129.847 279.587 128.617C279.69 125.813 281.16 124.514 281.228 124.446C281.297 124.377 281.399 124.377 281.467 124.48C281.536 124.548 281.536 124.651 281.433 124.719C281.433 124.719 279.997 125.984 279.895 128.617C279.826 129.984 280.134 130.6 280.408 130.873C280.647 131.112 280.886 131.112 280.92 131.112C281.023 131.112 281.091 131.181 281.091 131.283C281.091 131.386 281.023 131.454 280.92 131.454C280.92 131.454 280.955 131.454 280.92 131.454Z" fill="#3C342E"/>
<path d="M281.948 128.617C281.845 128.617 281.777 128.548 281.777 128.446C281.777 128.001 281.64 127.659 281.367 127.454C280.854 127.078 279.999 127.283 279.999 127.283C279.897 127.318 279.828 127.249 279.794 127.147C279.76 127.044 279.828 126.976 279.931 126.941C279.965 126.941 280.922 126.702 281.572 127.181C281.914 127.454 282.119 127.865 282.119 128.412C282.119 128.548 282.051 128.617 281.948 128.617Z" fill="#3C342E"/>
<path d="M276.65 139.728C276.65 139.728 274.223 146.293 274.531 152.31C274.804 158.293 275.59 163.387 275.59 163.387L256.273 166.977C256.273 166.977 265.778 156.105 267.419 150.737C269.06 145.369 272.206 138.6 272.206 138.6L276.65 139.728Z" fill="#3C342E"/>
<path d="M291.042 153.917L296.341 175.319C296.341 175.319 283.828 180.516 281.469 186.192C281.469 186.192 283.965 169.165 285.401 164.481C286.836 159.797 283.965 154.977 283.965 154.977L291.042 153.917Z" fill="#3C342E"/>
<path d="M272.205 138.6L271.589 137.403C271.589 137.403 271.555 134.976 270.666 134.668C270.666 134.668 275.043 117.163 274.94 116.24C274.837 115.317 283.795 91.8973 283.795 91.8973C283.795 91.8973 277.162 82.8713 274.666 81.2986C272.171 79.7259 272.171 79.7259 272.171 79.7259L258.05 81.6747C258.05 81.6747 256.751 86.4612 255.452 89.4357C254.153 92.376 245.571 109.436 245.127 111.556C244.682 113.676 237.297 140.686 237.297 140.686L235.827 142.429L234.733 147.968C234.733 147.968 202.971 165.439 196.544 167.524C190.116 169.61 178.252 184.106 178.663 184.687C179.073 185.234 178.936 201.919 178.936 201.919C178.936 201.919 184.988 196.893 217.98 203.867C217.98 203.867 223.451 190.499 225.673 189.132C227.895 187.764 247.93 172.824 256.238 167.011C264.546 161.131 270.359 144.549 272.205 138.6Z" fill="#F3D266"/>
<path d="M243.108 146.464L237.569 147.147L238.8 142.122L246.253 137.027L243.073 134.976L245.159 111.522C244.714 113.642 237.33 140.651 237.33 140.651L235.859 142.395L234.765 147.934C234.765 147.934 212.132 160.379 201.191 165.507L243.108 146.464Z" fill="#D2942A"/>
<path d="M184.989 185.2C184.989 185.2 186.596 174.328 196.579 167.49C190.151 169.576 178.288 184.072 178.698 184.653C179.108 185.2 178.971 201.885 178.971 201.885C178.971 201.885 185.023 196.859 218.016 203.833L192.75 187.046L184.989 185.2Z" fill="#D2942A"/>
<path d="M271.211 132.446C271.211 132.446 266.801 136.173 264.442 137.848C262.664 139.147 254.458 142.976 250.663 144.754C249.501 145.37 248.715 145.643 248.715 145.643C248.715 145.643 260.065 143.216 261.262 142.395C262.459 141.574 266.869 139.113 267.177 139.113C267.45 139.113 266.39 140.857 266.39 140.857C266.39 140.857 263.211 145.985 260.271 149.575L267.724 142.429C267.724 142.429 260.065 158.225 258.869 159.866C257.672 161.541 243.073 176.448 243.039 176.448C248.031 172.789 252.988 169.199 256.168 166.977C264.476 161.165 270.288 144.583 272.134 138.634L271.519 137.438C271.519 137.438 271.485 135.01 270.596 134.702C270.664 134.668 270.903 133.813 271.211 132.446Z" fill="#D2942A"/>
<path d="M277.262 96.2736C275.758 100.41 271.211 132.446 271.211 132.446C272.373 127.694 275.006 116.958 274.938 116.24C274.835 115.317 283.793 91.8973 283.793 91.8973C283.793 91.8973 277.16 82.8713 274.664 81.2986C272.168 79.7259 272.168 79.7259 272.168 79.7259C272.168 79.7259 278.801 92.1366 277.262 96.2736Z" fill="url(#paint15_linear)"/>
<path d="M253.402 147.763C253.402 147.763 200.237 165.268 196.579 167.49C192.921 169.712 223.144 165.268 233.127 160.31C243.111 155.353 253.402 147.763 253.402 147.763Z" fill="url(#paint16_linear)"/>
<path d="M170.97 310.231C170.97 310.231 156.576 311.94 154.046 311.837C150.73 314.915 152.474 324.658 152.474 324.658C152.474 324.658 152.816 324.351 154.183 324.658C155.551 324.966 157.055 326.471 157.055 326.471L173.09 327.565L170.97 310.231Z" fill="#F4AFBB"/>
<path d="M152.472 324.658C152.472 324.658 150.728 314.914 154.045 311.837C153.908 311.837 153.771 311.803 153.737 311.803C152.711 311.427 141.395 310.299 139.822 311.051C138.249 311.803 131.514 348.796 131.89 349.89C132.266 350.984 139.822 353.036 143.788 349.89C147.754 346.745 157.054 326.47 157.054 326.47C157.054 326.47 155.583 325 154.182 324.658C152.814 324.317 152.472 324.658 152.472 324.658Z" fill="#6E94A4"/>
<path d="M139.787 311.017C138.214 311.769 131.479 348.762 131.855 349.856C131.958 350.198 132.846 350.677 134.111 351.018C134.624 338.915 140.266 316.966 141.941 310.778C140.915 310.778 140.129 310.88 139.787 311.017Z" fill="#1E1610"/>
<path d="M154.625 331.531C154.625 331.531 150.18 329.274 149.496 329.377C148.813 329.479 147.548 331.325 147.89 331.804C148.197 332.317 153.189 334.437 153.189 334.437C153.189 334.437 153.907 334.676 154.625 333.206C155.343 331.77 154.625 331.531 154.625 331.531Z" fill="#3C342E"/>
<path d="M151.614 337.479C151.614 337.479 147.443 335.326 146.794 335.462C146.178 335.599 145.392 337.001 145.563 337.479C145.734 337.958 150.247 340.044 150.247 340.044C150.247 340.044 151.067 340.317 151.614 339.257C152.161 338.163 151.922 337.616 151.614 337.479Z" fill="#3C342E"/>
<path d="M123.207 302.333L103.583 321.103C102.66 324.18 106.113 326.573 106.113 326.573C111.002 326.573 112.609 330.881 112.609 330.881L134.08 316.521L123.207 302.333Z" fill="#F4AFBB"/>
<path d="M106.112 326.573C106.112 326.573 102.659 324.18 103.582 321.103C103.582 321.103 98.1457 322.026 95.3763 323.052C93.7011 328.248 87.0341 349.412 88.094 352.66C88.9145 355.19 90.9317 357.138 92.7779 358.13C93.8378 358.267 95.2054 358.232 95.2054 358.232C95.2054 358.232 99.4107 358.062 101.086 355.155C102.761 352.249 112.608 330.881 112.608 330.881C112.608 330.881 111.001 326.573 106.112 326.573Z" fill="#6E94A4"/>
<path d="M88.0942 352.66C87.0344 349.412 93.7013 328.248 95.3766 323.052C94.7954 323.257 94.3167 323.496 94.0432 323.701C92.5389 324.932 86.6583 344.454 86.0429 349.651C85.4617 354.848 90.9662 357.48 91.7867 357.891C92.026 357.993 92.3679 358.062 92.744 358.13C90.932 357.173 88.9148 355.19 88.0942 352.66Z" fill="#1E1610"/>
<path d="M103.89 331.941C105.189 332.625 109.942 335.086 109.258 336.249C108.574 337.411 107.377 338.881 106.625 338.334C105.839 337.787 101.258 335.121 101.223 334.505C101.189 333.89 102.488 331.223 103.89 331.941Z" fill="#3C342E"/>
<path d="M101.289 336.864C102.588 337.548 107.34 340.01 106.656 341.172C105.972 342.334 104.776 343.805 104.024 343.258C103.237 342.711 98.6559 340.044 98.6217 339.428C98.5875 338.813 99.9209 336.146 101.289 336.864Z" fill="#3C342E"/>
<path d="M201.708 217.03C194.938 225.099 166.322 259.254 163.963 261.989C161.296 265.135 116.098 304.965 116.098 304.965C121.705 318.983 133.979 321.923 133.979 321.923C133.979 321.923 179.724 290.401 181.468 289.375C183.211 288.349 212.546 260.793 212.546 260.793C212.546 260.793 210.324 272.486 209.879 274.537C209.435 276.554 198.255 299.153 198.255 299.153C198.255 299.153 197.571 298.914 196.921 299.017C196.272 299.119 195.622 300.863 195.622 300.863L170.356 308.419C166.903 315.872 168.989 328.488 168.989 328.488C181.434 330.437 216.854 329.582 217.948 328.488C219.042 327.394 241.573 278.024 241.573 278.024C241.573 278.024 241.88 277.614 243.111 273.614C244.137 270.263 252 249.442 254.599 242.501C215.828 215.629 201.708 217.03 201.708 217.03Z" fill="#3C342E"/>
<path d="M232.888 222.945C225.913 222.398 220.921 222.603 218.973 221.646C217.024 220.689 211.212 215.629 206.801 215.423C205.639 215.355 204.374 215.355 203.143 215.321C203.143 215.321 202.63 215.936 201.707 217.03C201.707 217.03 215.793 215.629 254.598 242.467C255.145 241.066 255.453 240.211 255.453 240.211C248.923 233.749 237.674 223.321 232.888 222.945Z" fill="#F4AFBB"/>
<path d="M221.263 252.69L212.545 260.793C212.545 260.793 210.322 272.486 209.878 274.537C209.434 276.554 198.254 299.153 198.254 299.153C198.254 299.153 197.57 298.914 196.92 299.016C196.271 299.119 195.621 300.863 195.621 300.863L175.825 306.777L170.355 308.419C168.953 311.461 168.44 315.359 168.372 318.915C168.235 324.077 168.987 328.454 168.987 328.454C181.432 330.402 216.853 329.548 217.947 328.454C201.502 329.924 203.416 303.564 203.143 299.427C202.869 295.29 212.545 282.571 214.494 277.717C216.408 272.862 221.263 252.69 221.263 252.69Z" fill="#3C342E"/>
<path d="M201.708 217.03C194.938 225.099 166.322 259.254 163.963 261.989C161.296 265.135 116.098 304.965 116.098 304.965C121.705 318.983 133.979 321.923 133.979 321.923C133.979 321.923 179.724 290.401 181.468 289.375C182.152 288.965 187.075 284.52 192.784 279.221C192.784 279.221 185.844 282.4 182.528 283.665C179.211 284.896 179.211 278.674 180.716 276.486C182.22 274.263 187.724 258.981 189.195 252.69C190.357 247.801 204.956 230.706 211.383 223.355C227.145 227.39 253.026 246.536 253.026 246.536C253.642 244.929 254.154 243.493 254.565 242.433C215.828 215.629 201.708 217.03 201.708 217.03Z" fill="#3C342E"/>
<path d="M223.762 248.621L230.736 236.86L225.95 247.014L234.053 240.211L226.428 247.562L223.762 248.621Z" fill="#3C342E"/>
<path d="M282.083 289.58C282.083 289.58 281.091 291.871 279.245 291.666C277.399 291.461 276.065 290.606 276.065 290.606C276.065 290.606 273.843 290.743 272.783 290.127C271.723 289.512 271.108 288.657 271.108 288.657C271.108 288.657 270.322 289.102 269.398 288.931C268.475 288.76 267.552 288.11 267.552 288.11C267.552 288.11 265.809 288.144 264.783 287.084C263.757 286.025 263.45 280.588 264.783 279.665C266.116 278.742 267.723 279.665 267.723 279.665C267.723 279.665 268.749 279.221 270.151 279.255C271.587 279.289 271.758 280.212 271.758 280.212C271.758 280.212 273.262 280.076 274.561 280.588C275.86 281.101 275.894 282.435 275.894 282.435C275.894 282.435 277.262 282.059 278.527 282.845C279.792 283.631 280.305 288.965 280.305 288.965L282.083 289.58Z" fill="#F4AFBB"/>
<path d="M270.868 282.879C270.868 282.879 270.389 285.683 270.389 287.324C270.389 288.965 267.586 288.144 267.586 288.144C267.586 288.144 268.509 288.794 269.432 288.965C270.355 289.136 271.142 288.691 271.142 288.691C271.142 288.691 270.355 285.614 270.868 282.879Z" fill="#F192A2"/>
<path d="M271.179 288.726L271.145 288.691C271.145 288.691 271.145 288.691 271.179 288.726Z" fill="#D6556D"/>
<path d="M264.818 287.119C265.844 288.179 267.588 288.144 267.588 288.144C267.588 288.144 266.288 284.862 267.143 281.717C267.143 281.717 266.391 284.486 266.596 286.366C266.767 288.144 263.109 283.426 264.545 279.973C263.553 281.443 263.895 286.127 264.818 287.119Z" fill="#F192A2"/>
<path d="M275.486 284.315C275.486 284.315 274.87 286.674 275.246 288.897C275.622 290.948 272.648 290.332 271.383 288.999C271.656 289.307 272.135 289.785 272.785 290.162C273.844 290.777 276.067 290.64 276.067 290.64C276.067 290.64 274.973 286.298 275.486 284.315Z" fill="#F192A2"/>
<path d="M280.237 290.845C279.964 291.119 277.092 291.119 276.066 290.64C276.066 290.64 277.4 291.495 279.246 291.7C281.092 291.905 282.084 289.614 282.084 289.614L280.408 288.999C280.408 288.999 280.511 290.572 280.237 290.845Z" fill="#F192A2"/>
<defs>
<linearGradient id="paint0_linear" x1="411.939" y1="112.507" x2="118.86" y2="241.442" gradientUnits="userSpaceOnUse">
<stop stop-color="#7E7CB9" stop-opacity="0.3"/>
<stop offset="0.3786" stop-color="#595796" stop-opacity="0.565"/>
<stop offset="0.7798" stop-color="#383677" stop-opacity="0.8459"/>
<stop offset="1" stop-color="#2C2A6B"/>
</linearGradient>
<linearGradient id="paint1_linear" x1="426.104" y1="144.707" x2="133.025" y2="273.642" gradientUnits="userSpaceOnUse">
<stop stop-color="#7E7CB9" stop-opacity="0.3"/>
<stop offset="0.3786" stop-color="#595796" stop-opacity="0.565"/>
<stop offset="0.7798" stop-color="#383677" stop-opacity="0.8459"/>
<stop offset="1" stop-color="#2C2A6B"/>
</linearGradient>
<linearGradient id="paint2_linear" x1="285.426" y1="262.046" x2="315.85" y2="262.046" gradientUnits="userSpaceOnUse">
<stop stop-color="#8A7EBB"/>
<stop offset="0.0134983" stop-color="#877BB7"/>
<stop offset="0.1567" stop-color="#6A5F9A"/>
<stop offset="0.3056" stop-color="#534A87"/>
<stop offset="0.4596" stop-color="#423B7A"/>
<stop offset="0.6208" stop-color="#353171"/>
<stop offset="0.7939" stop-color="#2E2B6D"/>
<stop offset="1" stop-color="#2C2A6B"/>
</linearGradient>
<linearGradient id="paint3_linear" x1="310.073" y1="172.119" x2="273.748" y2="201.806" gradientUnits="userSpaceOnUse">
<stop stop-color="white" stop-opacity="0.4"/>
<stop offset="0.208" stop-color="#FBEEC5" stop-opacity="0.5248"/>
<stop offset="0.4111" stop-color="#F9E398" stop-opacity="0.6467"/>
<stop offset="0.5974" stop-color="#F7DB76" stop-opacity="0.7584"/>
<stop offset="0.7634" stop-color="#F5D559" stop-opacity="0.8581"/>
<stop offset="0.9033" stop-color="#F4D244" stop-opacity="0.942"/>
<stop offset="1" stop-color="#F4D13D"/>
</linearGradient>
<linearGradient id="paint4_linear" x1="303.421" y1="174.02" x2="269.329" y2="189.6" gradientUnits="userSpaceOnUse">
<stop stop-color="#F3D266"/>
<stop offset="0.1268" stop-color="#F3D25B"/>
<stop offset="0.3846" stop-color="#F4D149"/>
<stop offset="0.6636" stop-color="#F4D13E"/>
<stop offset="1" stop-color="#F4D13A"/>
</linearGradient>
<linearGradient id="paint5_linear" x1="303.243" y1="173.632" x2="269.149" y2="189.214" gradientUnits="userSpaceOnUse">
<stop stop-color="#F3D266"/>
<stop offset="0.1268" stop-color="#F3D25B"/>
<stop offset="0.3846" stop-color="#F4D149"/>
<stop offset="0.6636" stop-color="#F4D13E"/>
<stop offset="1" stop-color="#F4D13A"/>
</linearGradient>
<linearGradient id="paint6_linear" x1="314.37" y1="197.996" x2="280.282" y2="213.571" gradientUnits="userSpaceOnUse">
<stop stop-color="#F3D266"/>
<stop offset="0.1268" stop-color="#F3D25B"/>
<stop offset="0.3846" stop-color="#F4D149"/>
<stop offset="0.6636" stop-color="#F4D13E"/>
<stop offset="1" stop-color="#F4D13A"/>
</linearGradient>
<linearGradient id="paint7_linear" x1="303.058" y1="173.223" x2="268.965" y2="188.805" gradientUnits="userSpaceOnUse">
<stop stop-color="#F3D266"/>
<stop offset="0.1268" stop-color="#F3D25B"/>
<stop offset="0.3846" stop-color="#F4D149"/>
<stop offset="0.6636" stop-color="#F4D13E"/>
<stop offset="1" stop-color="#F4D13A"/>
</linearGradient>
<linearGradient id="paint8_linear" x1="304.14" y1="175.594" x2="270.048" y2="191.173" gradientUnits="userSpaceOnUse">
<stop stop-color="#F3D266"/>
<stop offset="0.1268" stop-color="#F3D25B"/>
<stop offset="0.3846" stop-color="#F4D149"/>
<stop offset="0.6636" stop-color="#F4D13E"/>
<stop offset="1" stop-color="#F4D13A"/>
</linearGradient>
<linearGradient id="paint9_linear" x1="303.946" y1="175.166" x2="269.851" y2="190.75" gradientUnits="userSpaceOnUse">
<stop stop-color="#F3D266"/>
<stop offset="0.1268" stop-color="#F3D25B"/>
<stop offset="0.3846" stop-color="#F4D149"/>
<stop offset="0.6636" stop-color="#F4D13E"/>
<stop offset="1" stop-color="#F4D13A"/>
</linearGradient>
<linearGradient id="paint10_linear" x1="303.765" y1="174.783" x2="269.674" y2="190.362" gradientUnits="userSpaceOnUse">
<stop stop-color="#F3D266"/>
<stop offset="0.1268" stop-color="#F3D25B"/>
<stop offset="0.3846" stop-color="#F4D149"/>
<stop offset="0.6636" stop-color="#F4D13E"/>
<stop offset="1" stop-color="#F4D13A"/>
</linearGradient>
<linearGradient id="paint11_linear" x1="303.593" y1="174.402" x2="269.5" y2="189.984" gradientUnits="userSpaceOnUse">
<stop stop-color="#F3D266"/>
<stop offset="0.1268" stop-color="#F3D25B"/>
<stop offset="0.3846" stop-color="#F4D149"/>
<stop offset="0.6636" stop-color="#F4D13E"/>
<stop offset="1" stop-color="#F4D13A"/>
</linearGradient>
<linearGradient id="paint12_linear" x1="314.565" y1="198.418" x2="280.477" y2="213.993" gradientUnits="userSpaceOnUse">
<stop stop-color="#F3D266"/>
<stop offset="0.1268" stop-color="#F3D25B"/>
<stop offset="0.3846" stop-color="#F4D149"/>
<stop offset="0.6636" stop-color="#F4D13E"/>
<stop offset="1" stop-color="#F4D13A"/>
</linearGradient>
<linearGradient id="paint13_linear" x1="307.419" y1="182.772" x2="273.326" y2="198.354" gradientUnits="userSpaceOnUse">
<stop stop-color="#F3D266"/>
<stop offset="0.1268" stop-color="#F3D25B"/>
<stop offset="0.3846" stop-color="#F4D149"/>
<stop offset="0.6636" stop-color="#F4D13E"/>
<stop offset="1" stop-color="#F4D13A"/>
</linearGradient>
<linearGradient id="paint14_linear" x1="314.487" y1="198.209" x2="280.385" y2="213.8" gradientUnits="userSpaceOnUse">
<stop stop-color="#F3D266"/>
<stop offset="0.1268" stop-color="#F3D25B"/>
<stop offset="0.3846" stop-color="#F4D149"/>
<stop offset="0.6636" stop-color="#F4D13E"/>
<stop offset="1" stop-color="#F4D13A"/>
</linearGradient>
<linearGradient id="paint15_linear" x1="305.504" y1="93.7099" x2="244.101" y2="116.206" gradientUnits="userSpaceOnUse">
<stop stop-color="white" stop-opacity="0.4"/>
<stop offset="0.208" stop-color="#FBEEC5" stop-opacity="0.5248"/>
<stop offset="0.4111" stop-color="#F9E398" stop-opacity="0.6467"/>
<stop offset="0.5974" stop-color="#F7DB76" stop-opacity="0.7584"/>
<stop offset="0.7634" stop-color="#F5D559" stop-opacity="0.8581"/>
<stop offset="0.9033" stop-color="#F4D244" stop-opacity="0.942"/>
<stop offset="1" stop-color="#F4D13D"/>
</linearGradient>
<linearGradient id="paint16_linear" x1="269.9" y1="120.914" x2="191.848" y2="184.703" gradientUnits="userSpaceOnUse">
<stop stop-color="white" stop-opacity="0.4"/>
<stop offset="0.208" stop-color="#FBEEC5" stop-opacity="0.5248"/>
<stop offset="0.4111" stop-color="#F9E398" stop-opacity="0.6467"/>
<stop offset="0.5974" stop-color="#F7DB76" stop-opacity="0.7584"/>
<stop offset="0.7634" stop-color="#F5D559" stop-opacity="0.8581"/>
<stop offset="0.9033" stop-color="#F4D244" stop-opacity="0.942"/>
<stop offset="1" stop-color="#F4D13D"/>
</linearGradient>
</defs>
</svg>
