<svg width="180" height="40" viewBox="0 0 180 40" fill="none" xmlns="http://www.w3.org/2000/svg">
<path d="M19.9119 11.6985L0 23.3971L1.00502e-06 0L19.9119 11.6985Z" fill="url(#paint0_linear)"/>
<path d="M0.887487 11.6984C11.4031 15.9632 19.0071 25.8577 19.9119 37.6158V39.9999L0 23.3969V11.6984H0.887487Z" fill="url(#paint1_linear)"/>
<path d="M0.887487 11.6984C11.4031 15.9632 19.0071 25.8577 19.9119 37.6158V39.9999L0 23.3969V11.6984H0.887487Z" fill="url(#paint2_linear)"/>
<path d="M10.0604 17.4864L0 23.3971V11.3546C3.75572 12.7434 7.16416 14.842 10.0604 17.4864Z" fill="#A0328C"/>
<path d="M19.9123 11.6985L39.8242 23.3971L39.8242 0L19.9123 11.6985Z" fill="url(#paint3_linear)"/>
<path d="M38.9367 11.6984C28.4211 15.9632 20.8171 25.8577 19.9123 37.6158V39.9999L39.8242 23.3969V11.6984H38.9367Z" fill="url(#paint4_linear)"/>
<path d="M38.9367 11.6984C28.4211 15.9632 20.8171 25.8577 19.9123 37.6158V39.9999L39.8242 23.3969V11.6984H38.9367Z" fill="url(#paint5_linear)"/>
<path d="M29.7639 17.4864L39.8242 23.3971V11.3546C36.0685 12.7434 32.6601 14.842 29.7639 17.4864Z" fill="#A0328C"/>
<path d="M62.3896 27.328L56.7049 16.7431V28.5617H52.7998V11.2903H58.1632L62.439 19.4325L66.7149 11.2903H72.0783V28.5617H68.0743V16.7924L62.3896 27.328Z" fill="#462867"/>
<path d="M75.3527 11.2903H86.8457V14.7199H79.3814V17.8041H86.3513V21.1843H79.3814V25.1321H86.8457V28.5617H75.3527V11.2903Z" fill="#462867"/>
<path d="M99.4394 27.328L93.7547 16.7431V28.5617H89.8496V11.2903H95.213L99.4888 19.4325L103.765 11.2903H109.128V28.5617H105.124V16.7924L99.4394 27.328Z" fill="#462867"/>
<path d="M111.414 19.926C111.414 18.5936 111.645 17.3764 112.106 16.2743C112.584 15.1722 113.243 14.2182 114.083 13.4122C114.94 12.6062 115.929 11.9894 117.049 11.5617C118.186 11.1176 119.414 10.8955 120.732 10.8955C122.066 10.8955 123.302 11.1176 124.439 11.5617C125.576 11.9894 126.557 12.6062 127.38 13.4122C128.221 14.2182 128.872 15.1722 129.333 16.2743C129.811 17.3764 130.05 18.5936 130.05 19.926C130.05 21.2583 129.819 22.4838 129.358 23.6023C128.913 24.7208 128.27 25.6913 127.43 26.5138C126.59 27.3362 125.601 27.9777 124.464 28.4383C123.343 28.8824 122.099 29.1045 120.732 29.1045C119.381 29.1045 118.137 28.8824 117 28.4383C115.863 27.9777 114.874 27.3362 114.034 26.5138C113.193 25.6913 112.543 24.7208 112.081 23.6023C111.636 22.4838 111.414 21.2583 111.414 19.926ZM115.838 19.926C115.838 20.9458 116.036 21.8505 116.431 22.64C116.843 23.4131 117.42 24.0217 118.161 24.4659C118.903 24.91 119.76 25.1321 120.732 25.1321C121.72 25.1321 122.577 24.91 123.302 24.4659C124.027 24.0217 124.588 23.4131 124.983 22.64C125.395 21.8505 125.601 20.9458 125.601 19.926C125.601 18.9061 125.403 18.0097 125.008 17.2366C124.612 16.447 124.052 15.8302 123.327 15.3861C122.602 14.9419 121.737 14.7199 120.732 14.7199C119.76 14.7199 118.903 14.9419 118.161 15.3861C117.42 15.8302 116.843 16.447 116.431 17.2366C116.036 18.0097 115.838 18.9061 115.838 19.926Z" fill="#462867"/>
<path d="M132.45 11.2903H142.91V14.8926H136.462V18.2728H142.664V21.6284H136.462V28.5617H132.45V11.2903Z" fill="#EC3C34"/>
<path d="M145.069 19.926C145.069 18.5936 145.299 17.3764 145.758 16.2743C146.234 15.1722 146.891 14.2182 147.727 13.4122C148.581 12.6062 149.565 11.9894 150.681 11.5617C151.813 11.1176 153.035 10.8955 154.348 10.8955C155.677 10.8955 156.907 11.1176 158.04 11.5617C159.172 11.9894 160.148 12.6062 160.968 13.4122C161.805 14.2182 162.453 15.1722 162.913 16.2743C163.389 17.3764 163.626 18.5936 163.626 19.926C163.626 21.2583 163.397 22.4838 162.937 23.6023C162.494 24.7208 161.854 25.6913 161.018 26.5138C160.181 27.3362 159.196 27.9777 158.064 28.4383C156.949 28.8824 155.71 29.1045 154.348 29.1045C153.002 29.1045 151.764 28.8824 150.632 28.4383C149.499 27.9777 148.515 27.3362 147.678 26.5138C146.841 25.6913 146.193 24.7208 145.734 23.6023C145.291 22.4838 145.069 21.2583 145.069 19.926ZM149.475 19.926C149.475 20.9458 149.672 21.8505 150.065 22.64C150.476 23.4131 151.05 24.0217 151.788 24.4659C152.527 24.91 153.38 25.1321 154.348 25.1321C155.332 25.1321 156.186 24.91 156.907 24.4659C157.629 24.0217 158.187 23.4131 158.581 22.64C158.991 21.8505 159.196 20.9458 159.196 19.926C159.196 18.9061 158.999 18.0097 158.606 17.2366C158.212 16.447 157.654 15.8302 156.932 15.3861C156.21 14.9419 155.349 14.7199 154.348 14.7199C153.38 14.7199 152.527 14.9419 151.788 15.3861C151.05 15.8302 150.476 16.447 150.065 17.2366C149.672 18.0097 149.475 18.9061 149.475 19.926Z" fill="#EC3C34"/>
<path d="M174.487 11.2903H179.656L174.241 19.7039L180 28.5617H174.856L171.706 22.8374L168.457 28.5617H163.314L169.22 19.7039L163.929 11.2903H169.073L171.755 16.299L174.487 11.2903Z" fill="#EC3C34"/>
<defs>
<linearGradient id="paint0_linear" x1="9.95595" y1="1.21084e-09" x2="9.90821" y2="31.7164" gradientUnits="userSpaceOnUse">
<stop stop-color="#FF1D25"/>
<stop offset="1" stop-color="#7040A4"/>
</linearGradient>
<linearGradient id="paint1_linear" x1="6.88153e-07" y1="23.6566" x2="29.6567" y2="58.7074" gradientUnits="userSpaceOnUse">
<stop stop-color="#3482DE"/>
<stop offset="1" stop-color="#EC3C34"/>
</linearGradient>
<linearGradient id="paint2_linear" x1="9.95595" y1="11.6984" x2="9.95595" y2="39.9999" gradientUnits="userSpaceOnUse">
<stop stop-color="#7040A4"/>
<stop offset="1" stop-color="#532A80"/>
</linearGradient>
<linearGradient id="paint3_linear" x1="29.8683" y1="1.21084e-09" x2="29.916" y2="31.7164" gradientUnits="userSpaceOnUse">
<stop stop-color="#FF1D25"/>
<stop offset="1" stop-color="#7040A4"/>
</linearGradient>
<linearGradient id="paint4_linear" x1="39.8242" y1="23.6566" x2="10.1675" y2="58.7074" gradientUnits="userSpaceOnUse">
<stop stop-color="#3482DE"/>
<stop offset="1" stop-color="#EC3C34"/>
</linearGradient>
<linearGradient id="paint5_linear" x1="29.8683" y1="11.6984" x2="29.8683" y2="39.9999" gradientUnits="userSpaceOnUse">
<stop stop-color="#7040A4"/>
<stop offset="1" stop-color="#532A80"/>
</linearGradient>
</defs>
</svg>
