<svg width="180" height="40" viewBox="0 0 180 40" fill="none" xmlns="http://www.w3.org/2000/svg">
<path d="M65.342 27.791L59.8042 16.5371V29.1027H56V10.7396H61.2248L65.3902 19.3965L69.5556 10.7396H74.7804V29.1027H70.8798V16.5895L65.342 27.791Z" fill="white"/>
<path d="M77.9703 10.7396H89.1663V14.3859H81.8949V17.6651H88.6847V21.259H81.8949V25.4563H89.1663V29.1027H77.9703V10.7396Z" fill="white"/>
<path d="M101.435 27.791L95.8968 16.5371V29.1027H92.0926V10.7396H97.3174L101.483 19.3965L105.648 10.7396H110.873V29.1027H106.972V16.5895L101.435 27.791Z" fill="white"/>
<path d="M113.1 19.9211C113.1 18.5045 113.325 17.2104 113.774 16.0386C114.239 14.8669 114.882 13.8525 115.7 12.9956C116.535 12.1386 117.498 11.4828 118.589 11.0281C119.697 10.5559 120.893 10.3198 122.177 10.3198C123.477 10.3198 124.681 10.5559 125.789 11.0281C126.896 11.4828 127.851 12.1386 128.654 12.9956C129.472 13.8525 130.106 14.8669 130.556 16.0386C131.021 17.2104 131.254 18.5045 131.254 19.9211C131.254 21.3377 131.029 22.6406 130.58 23.8299C130.147 25.0191 129.521 26.0509 128.702 26.9254C127.883 27.7998 126.92 28.4818 125.813 28.9715C124.721 29.4437 123.509 29.6798 122.177 29.6798C120.861 29.6798 119.649 29.4437 118.541 28.9715C117.434 28.4818 116.471 27.7998 115.652 26.9254C114.833 26.0509 114.199 25.0191 113.75 23.8299C113.316 22.6406 113.1 21.3377 113.1 19.9211ZM117.41 19.9211C117.41 21.0054 117.602 21.9673 117.987 22.8068C118.389 23.6287 118.951 24.2758 119.673 24.748C120.395 25.2202 121.23 25.4563 122.177 25.4563C123.14 25.4563 123.975 25.2202 124.681 24.748C125.387 24.2758 125.933 23.6287 126.318 22.8068C126.72 21.9673 126.92 21.0054 126.92 19.9211C126.92 18.8368 126.728 17.8837 126.342 17.0617C125.957 16.2223 125.411 15.5664 124.705 15.0942C123.999 14.622 123.156 14.3859 122.177 14.3859C121.23 14.3859 120.395 14.622 119.673 15.0942C118.951 15.5664 118.389 16.2223 117.987 17.0617C117.602 17.8837 117.41 18.8368 117.41 19.9211Z" fill="white"/>
<path d="M133.61 10.7396H143.815V14.5696H137.524V18.1635H143.575V21.7312H137.524V29.1027H133.61V10.7396Z" fill="white"/>
<path d="M145.922 19.9211C145.922 18.5045 146.146 17.2104 146.594 16.0386C147.058 14.8669 147.698 13.8525 148.515 12.9956C149.347 12.1386 150.308 11.4828 151.396 11.0281C152.501 10.5559 153.693 10.3198 154.974 10.3198C156.27 10.3198 157.471 10.5559 158.575 11.0281C159.68 11.4828 160.632 12.1386 161.433 12.9956C162.249 13.8525 162.881 14.8669 163.329 16.0386C163.794 17.2104 164.026 18.5045 164.026 19.9211C164.026 21.3377 163.802 22.6406 163.353 23.8299C162.921 25.0191 162.297 26.0509 161.481 26.9254C160.664 27.7998 159.704 28.4818 158.599 28.9715C157.511 29.4437 156.302 29.6798 154.974 29.6798C153.661 29.6798 152.452 29.4437 151.348 28.9715C150.243 28.4818 149.283 27.7998 148.467 26.9254C147.65 26.0509 147.018 25.0191 146.57 23.8299C146.138 22.6406 145.922 21.3377 145.922 19.9211ZM150.219 19.9211C150.219 21.0054 150.412 21.9673 150.796 22.8068C151.196 23.6287 151.756 24.2758 152.477 24.748C153.197 25.2202 154.029 25.4563 154.974 25.4563C155.934 25.4563 156.766 25.2202 157.471 24.748C158.175 24.2758 158.719 23.6287 159.104 22.8068C159.504 21.9673 159.704 21.0054 159.704 19.9211C159.704 18.8368 159.512 17.8837 159.128 17.0617C158.743 16.2223 158.199 15.5664 157.495 15.0942C156.79 14.622 155.95 14.3859 154.974 14.3859C154.029 14.3859 153.197 14.622 152.477 15.0942C151.756 15.5664 151.196 16.2223 150.796 17.0617C150.412 17.8837 150.219 18.8368 150.219 19.9211Z" fill="white"/>
<path d="M174.621 10.7396H179.664L174.381 19.685L180 29.1027H174.982L171.908 23.0166L168.739 29.1027H163.721L169.483 19.685L164.321 10.7396H169.339L171.956 16.0649L174.621 10.7396Z" fill="white"/>
<path d="M20 11.6985L0 23.3971L1.00947e-06 0L20 11.6985Z" fill="url(#paint0_linear)"/>
<path d="M0.891413 11.6982C11.4535 15.963 19.0912 25.8575 20 37.6156V39.9997L0 23.3968V11.6982H0.891413Z" fill="url(#paint1_linear)"/>
<path d="M10.1049 17.4864L0 23.397V11.3545C3.77234 12.7433 7.19586 14.8419 10.1049 17.4864Z" fill="white"/>
<path d="M20 11.6985L40 23.3971L40 0L20 11.6985Z" fill="url(#paint2_linear)"/>
<path d="M39.1086 11.6982C28.5465 15.963 20.9088 25.8575 20 37.6156V39.9997L40 23.3968V11.6982H39.1086Z" fill="url(#paint3_linear)"/>
<path d="M29.8951 17.4864L40 23.397V11.3545C36.2277 12.7433 32.8041 14.8419 29.8951 17.4864Z" fill="white"/>
<defs>
<linearGradient id="paint0_linear" x1="10" y1="0" x2="10" y2="23.3971" gradientUnits="userSpaceOnUse">
<stop stop-color="white"/>
<stop offset="1" stop-color="white" stop-opacity="0.16"/>
</linearGradient>
<linearGradient id="paint1_linear" x1="10" y1="11.6982" x2="10" y2="39.9997" gradientUnits="userSpaceOnUse">
<stop stop-color="white" stop-opacity="0.4"/>
<stop offset="1" stop-color="white"/>
</linearGradient>
<linearGradient id="paint2_linear" x1="30" y1="0" x2="30" y2="23.3971" gradientUnits="userSpaceOnUse">
<stop stop-color="white"/>
<stop offset="1" stop-color="white" stop-opacity="0.16"/>
</linearGradient>
<linearGradient id="paint3_linear" x1="30" y1="11.6982" x2="30" y2="39.9997" gradientUnits="userSpaceOnUse">
<stop stop-color="white" stop-opacity="0.4"/>
<stop offset="1" stop-color="white"/>
</linearGradient>
</defs>
</svg>
