<svg width="180" height="40" viewBox="0 0 180 40" fill="none" xmlns="http://www.w3.org/2000/svg">
<path d="M19.9119 11.6985L0 23.3971L1.00502e-06 0L19.9119 11.6985Z" fill="url(#paint0_linear)"/>
<path d="M0.887487 11.6984C11.4031 15.9632 19.0071 25.8577 19.9119 37.6158V39.9999L0 23.3969V11.6984H0.887487Z" fill="url(#paint1_linear)"/>
<path d="M0.887487 11.6984C11.4031 15.9632 19.0071 25.8577 19.9119 37.6158V39.9999L0 23.3969V11.6984H0.887487Z" fill="url(#paint2_linear)"/>
<path d="M10.0604 17.4864L0 23.3971V11.3546C3.75572 12.7434 7.16416 14.842 10.0604 17.4864Z" fill="#A0328C"/>
<path d="M19.9123 11.6985L39.8242 23.3971L39.8242 0L19.9123 11.6985Z" fill="url(#paint3_linear)"/>
<path d="M38.9367 11.6984C28.4211 15.9632 20.8171 25.8577 19.9123 37.6158V39.9999L39.8242 23.3969V11.6984H38.9367Z" fill="url(#paint4_linear)"/>
<path d="M38.9367 11.6984C28.4211 15.9632 20.8171 25.8577 19.9123 37.6158V39.9999L39.8242 23.3969V11.6984H38.9367Z" fill="url(#paint5_linear)"/>
<path d="M29.7639 17.4864L39.8242 23.3971V11.3546C36.0685 12.7434 32.6601 14.842 29.7639 17.4864Z" fill="#A0328C"/>
<path d="M61.5405 10.5551L65.6379 23.253L69.7227 10.5551H75.5474V28.806H71.1095V24.5441L71.5382 15.8197L67.1004 28.806H64.1755L59.7251 15.8072L60.1537 24.5441V28.806H55.7285V10.5551H61.5405Z" fill="#141414"/>
<path d="M89.7559 21.0719H82.7966V25.4215H91.0166V28.806H78.3714V10.5551H91.0419V13.952H82.7966V17.8003H89.7559V21.0719Z" fill="#141414"/>
<path d="M98.6315 10.5551L102.729 23.253L106.814 10.5551H112.638V28.806H108.201V24.5441L108.629 15.8197L104.191 28.806H101.266L96.816 15.8072L97.2447 24.5441V28.806H92.8195V10.5551H98.6315Z" fill="#141414"/>
<path d="M131.007 20.0566C131.007 21.8365 130.675 23.4118 130.011 24.7823C129.347 26.1527 128.402 27.2099 127.175 27.9536C125.956 28.689 124.565 29.0567 123.002 29.0567C121.438 29.0567 120.051 28.7015 118.841 27.9912C117.631 27.2725 116.685 26.2489 116.005 24.9201C115.332 23.5914 114.979 22.0663 114.945 20.3449V19.317C114.945 17.5287 115.273 15.9535 115.929 14.5913C116.593 13.2208 117.538 12.1637 118.766 11.42C120.001 10.6762 121.405 10.3044 122.976 10.3044C124.531 10.3044 125.918 10.672 127.137 11.4074C128.356 12.1428 129.301 13.1916 129.974 14.5537C130.654 15.9075 130.999 17.4618 131.007 19.2167V20.0566ZM126.506 19.2919C126.506 17.4785 126.2 16.1039 125.586 15.1679C124.981 14.2236 124.111 13.7515 122.976 13.7515C120.758 13.7515 119.585 15.4061 119.459 18.7153L119.446 20.0566C119.446 21.8449 119.745 23.2196 120.341 24.1806C120.938 25.1416 121.825 25.6221 123.002 25.6221C124.119 25.6221 124.981 25.15 125.586 24.2056C126.191 23.2613 126.498 21.9034 126.506 20.1318V19.2919Z" fill="#141414"/>
<path d="M144.851 21.5357H137.715V28.806H133.29V10.5551H145.57V13.952H137.715V18.1513H144.851V21.5357Z" fill="#FF1D25"/>
<path d="M162.955 20.0566C162.955 21.8365 162.623 23.4118 161.959 24.7823C161.295 26.1527 160.35 27.2099 159.123 27.9536C157.904 28.689 156.513 29.0567 154.95 29.0567C153.386 29.0567 151.999 28.7015 150.789 27.9912C149.579 27.2725 148.633 26.2489 147.952 24.9201C147.28 23.5914 146.927 22.0663 146.893 20.3449V19.317C146.893 17.5287 147.221 15.9535 147.877 14.5913C148.541 13.2208 149.486 12.1637 150.713 11.42C151.949 10.6762 153.353 10.3044 154.924 10.3044C156.479 10.3044 157.866 10.672 159.085 11.4074C160.303 12.1428 161.249 13.1916 161.921 14.5537C162.602 15.9075 162.947 17.4618 162.955 19.2167V20.0566ZM158.454 19.2919C158.454 17.4785 158.148 16.1039 157.534 15.1679C156.929 14.2236 156.059 13.7515 154.924 13.7515C152.705 13.7515 151.533 15.4061 151.407 18.7153L151.394 20.0566C151.394 21.8449 151.693 23.2196 152.289 24.1806C152.886 25.1416 153.773 25.6221 154.95 25.6221C156.067 25.6221 156.929 25.15 157.534 24.2056C158.139 23.2613 158.446 21.9034 158.454 20.1318V19.2919Z" fill="#FF1D25"/>
<path d="M171.806 16.622L174.806 10.5551H179.862L174.731 19.6053L180 28.806H174.894L171.806 22.6262L168.717 28.806H163.623L168.881 19.6053L163.762 10.5551H168.805L171.806 16.622Z" fill="#FF1D25"/>
<defs>
<linearGradient id="paint0_linear" x1="9.95595" y1="1.21084e-09" x2="9.90821" y2="31.7164" gradientUnits="userSpaceOnUse">
<stop stop-color="#FF1D25"/>
<stop offset="1" stop-color="#7040A4"/>
</linearGradient>
<linearGradient id="paint1_linear" x1="6.88153e-07" y1="23.6566" x2="29.6567" y2="58.7074" gradientUnits="userSpaceOnUse">
<stop stop-color="#3482DE"/>
<stop offset="1" stop-color="#EC3C34"/>
</linearGradient>
<linearGradient id="paint2_linear" x1="9.95595" y1="11.6984" x2="9.95595" y2="39.9999" gradientUnits="userSpaceOnUse">
<stop stop-color="#7040A4"/>
<stop offset="1" stop-color="#532A80"/>
</linearGradient>
<linearGradient id="paint3_linear" x1="29.8683" y1="1.21084e-09" x2="29.916" y2="31.7164" gradientUnits="userSpaceOnUse">
<stop stop-color="#FF1D25"/>
<stop offset="1" stop-color="#7040A4"/>
</linearGradient>
<linearGradient id="paint4_linear" x1="39.8242" y1="23.6566" x2="10.1675" y2="58.7074" gradientUnits="userSpaceOnUse">
<stop stop-color="#3482DE"/>
<stop offset="1" stop-color="#EC3C34"/>
</linearGradient>
<linearGradient id="paint5_linear" x1="29.8683" y1="11.6984" x2="29.8683" y2="39.9999" gradientUnits="userSpaceOnUse">
<stop stop-color="#7040A4"/>
<stop offset="1" stop-color="#532A80"/>
</linearGradient>
</defs>
</svg>
