<svg width="2422" height="1468" viewBox="0 0 2422 1468" fill="none" xmlns="http://www.w3.org/2000/svg">
<g clip-path="url(#clip0)">
<path d="M2373.9 1328.1C2367.7 1339.4 2361.5 1349.5 2355.7 1358.2C2355.5 1358.5 2355.4 1358.7 2355.2 1359C2338.4 1384.1 2310.1 1399.1 2279.9 1399.1C2118.1 1399.1 1559.6 1399.1 1385.6 1399C1385.6 1399 472.4 1396.4 186.8 1395.5C130.9 1395.3 80.3999 1362.2 57.7999 1311.1C32.0999 1253 4.19994 1169.4 0.99994 1074.6C-4.10006 924.3 52.7999 745.9 278.8 597C473 469.2 266.6 384.8 421.1 242.4C598.6 78.8 792.3 259.8 989.7 185.6C1024.6 172.5 1059.6 151.4 1094.6 119.1C1114.3 100.9 1135.9 85 1159.1 71.3C1162.6 69.2 1166.2 67.1 1169.9 65.1C1183.8 57.4 1198.1 50.5 1212.9 44.2C1222.8 40 1233 36.1 1243.3 32.6C1259.7 27 1276.5 22.1 1293.7 18C1318.1 12.1 1343.2 7.80002 1368.8 4.80002C1380 3.50002 1391.2 2.50002 1402.6 1.70002C1623.1 -13.1 1871.3 70.2 1999.4 192C2025.2 216.5 2142.4 343.4 2050 517.9C1991.6 628 2236.1 733.2 2323 859C2377.4 937.7 2405.2 1010.1 2416.2 1074.6C2434.8 1184.8 2404.6 1272 2373.9 1328.1Z" fill="#CED3DF"/>
<path d="M826.2 1074.9L821.5 1074.3C821.6 1073.4 824.4 1053.3 844.3 1040.7C861.8 1029.6 855.9 994.9 855.8 994.6L860.5 993.8C860.6 994.2 862.2 1003.3 861.4 1014.1C860.4 1028.8 855.3 1039.4 846.8 1044.8C828.8 1056.2 826.2 1074.8 826.2 1074.9Z" fill="#283689"/>
<path d="M856.7 1075.8C856.6 1075.6 845.1 1053.9 865.8 1040.8C883 1029.9 867.7 996.2 867.6 995.9L871.9 993.9C872.1 994.3 876.2 1003.3 877.9 1013.9C880.3 1028.6 877 1039.3 868.3 1044.8C851.3 1055.6 860.4 1072.8 860.8 1073.5L856.7 1075.8Z" fill="#283689"/>
<path d="M2374.1 1379.2C2373.7 1380.1 2373.3 1381 2372.9 1381.9C2372.1 1383.7 2371.3 1385.4 2370.5 1387.1C2365.1 1398.7 2359.8 1409.1 2354.7 1418.3C2354.5 1418.6 2354.4 1418.9 2354.2 1419.2C2337.4 1449.6 2309.1 1467.8 2278.9 1467.8C2214.7 1467.8 2088.1 1467.8 1947.8 1467.8H1928.7C1852.2 1467.8 1772.4 1467.8 1697 1467.8H1674.5C1553.2 1467.8 1445.4 1467.8 1384.6 1467.7C1384.6 1467.7 1078.8 1466.6 765.8 1465.5C760.5 1465.5 755.2 1465.5 749.9 1465.4C658.8 1465.1 567.5 1464.7 483.3 1464.4C472.4 1464.4 461.7 1464.3 451 1464.3C343 1463.9 249 1463.6 185.7 1463.3C141.4 1463.1 100.6 1437.9 74.2 1396.6C72.8 1394.4 71.5 1392.2 70.2 1389.9C65 1380.9 60.5 1371.2 56.7 1360.9C31.1 1290.9 3.2 1189.5 0 1074.6H2415C2433.6 1206.5 2404.4 1311.1 2374.1 1379.2Z" fill="#6A6E7B"/>
<path d="M1851.2 1316.1H493.2L630.1 1176.6H1731.9L1851.2 1316.1Z" fill="#2C2C2C"/>
<path d="M1851.2 1316.1H493.2V1333.9H1851.2V1316.1Z" fill="#050505"/>
<path d="M1720.2 1205.9H637.9V1210.7H1720.2V1205.9Z" fill="#050505"/>
<path d="M1749.3 1235H601.2V1239.8H1749.3V1235Z" fill="#050505"/>
<path d="M1779.8 1267.2H570.6V1272H1779.8V1267.2Z" fill="#050505"/>
<path d="M692.3 1184.4H643.4V1199.1H692.3V1184.4Z" fill="#050505"/>
<path d="M1067.1 1184.4H1018.2V1199.1H1067.1V1184.4Z" fill="#050505"/>
<path d="M1145.8 1184.4H1096.9V1199.1H1145.8V1184.4Z" fill="#050505"/>
<path d="M1355 1184.4H1306.1V1199.1H1355V1184.4Z" fill="#050505"/>
<path d="M1427.8 1184.4H1378.9V1199.1H1427.8V1184.4Z" fill="#050505"/>
<path d="M1506.5 1184.4H1457.6V1199.1H1506.5V1184.4Z" fill="#050505"/>
<path d="M2356 1074.6H2346.4C2324.7 1042.9 2305.9 1041.4 2269.5 1038.6C2258.3 1037.7 2245.6 1036.7 2230.7 1034.7C2197.5 1030.2 2186.6 1012.4 2174 991.8C2168.3 982.5 2162.4 972.8 2153.7 963C2127.2 933 2067.7 941.8 2067.1 941.9L2065.9 934C2068.5 933.6 2130.4 924.5 2159.8 957.7C2168.9 968 2175.3 978.4 2180.9 987.6C2193.4 1008 2202.4 1022.8 2231.9 1026.7C2246.6 1028.7 2259.1 1029.6 2270.2 1030.5C2309.7 1033.7 2330.9 1035.4 2356 1074.6Z" fill="#2C2C2C"/>
<path d="M2036.3 1129.7H1856.6C1840.3 1129.7 1827.1 1116.5 1827.1 1100.2V920.5C1827.1 904.2 1840.3 891 1856.6 891H2036.3C2052.6 891 2065.8 904.2 2065.8 920.5V1100.2C2065.8 1116.5 2052.6 1129.7 2036.3 1129.7Z" fill="#2C2C2C"/>
<path d="M2028.3 1005C2028.3 1009.3 2028 1013.5 2027.3 1017.6C2027.1 1018.6 2027 1019.6 2026.8 1020.6C2025.4 1027.7 2023.2 1034.4 2020.1 1040.7C2019.8 1041.3 2019.5 1041.9 2019.2 1042.5C2013.9 1052.8 2006.4 1061.9 1997.4 1069.1C1996.9 1069.5 1996.4 1069.9 1995.9 1070.3C1986.7 1077.3 1976 1082.4 1964.3 1085L1962.2 1085.5C1959.2 1086.1 1956.2 1086.5 1953.2 1086.7C1952.2 1086.8 1951.2 1086.9 1950.2 1086.9C1948.9 1087 1947.7 1087 1946.4 1087C1937.7 1087 1929.3 1085.6 1921.4 1083.1C1920.2 1082.7 1919 1082.3 1917.8 1081.8C1915 1080.8 1912.2 1079.6 1909.6 1078.2C1909 1077.9 1908.4 1077.6 1907.8 1077.3C1896.4 1071.2 1886.6 1062.5 1879.3 1051.9C1878.9 1051.4 1878.6 1050.9 1878.2 1050.3C1873.2 1042.7 1869.3 1034.2 1867 1025.1C1866.7 1023.9 1866.4 1022.6 1866.1 1021.3C1865.5 1018.2 1865 1015.1 1864.7 1011.9C1864.6 1011.1 1864.6 1010.3 1864.5 1009.5C1864.4 1007.9 1864.4 1006.4 1864.4 1004.8C1864.4 996.3 1865.7 988.1 1868.1 980.4C1868.3 979.7 1868.5 979 1868.8 978.4C1872.6 967.2 1878.9 957 1886.8 948.6C1887.2 948.1 1887.7 947.7 1888.1 947.3C1896.2 939.1 1906 932.7 1916.9 928.5C1917.5 928.2 1918.2 928 1918.8 927.8C1927.4 924.7 1936.6 923.1 1946.3 923.1C1950.9 923.1 1955.4 923.5 1959.8 924.2C1960.6 924.3 1961.4 924.5 1962.1 924.6C1962.7 924.7 1963.2 924.8 1963.8 924.9C1964.9 925.1 1966 925.4 1967 925.7C1978.8 928.8 1989.6 934.4 1998.7 942C1999.2 942.4 1999.7 942.8 2000.1 943.2C2009.7 951.6 2017.4 962.3 2022.2 974.3C2022.5 974.9 2022.7 975.5 2022.9 976.2C2024.9 981.5 2026.4 987.1 2027.2 992.9C2027.4 994 2027.5 995.1 2027.6 996.2C2028.1 999.1 2028.3 1002.1 2028.3 1005Z" fill="#4B5A65"/>
<path d="M1997.4 1069.1C1996.9 1069.5 1996.4 1069.9 1995.9 1070.3L1985 1058.1L1983.7 1056.7L1961.3 1031.7L1960 1030.3L1934.7 1002.1L1933.4 1000.7L1908.4 972.8L1907.1 971.4L1886.7 948.7C1887.1 948.2 1887.6 947.8 1888 947.4L1908.5 970.2L1909.8 971.6L1934.8 999.5L1936.1 1000.9L1961.4 1029.1L1962.7 1030.5L1985.1 1055.5L1986.3 1056.9L1997.4 1069.1Z" fill="#2C2C2C"/>
<path d="M2020.1 1040.7C2019.8 1041.3 2019.5 1041.9 2019.2 1042.5L2011.7 1034.1L2010.4 1032.7L1988 1007.7L1986.7 1006.3L1961.4 978.1L1960.1 976.7L1935.1 948.8L1933.9 947.4L1916.9 928.5C1917.5 928.2 1918.2 928 1918.8 927.8L1935.3 946.2L1936.6 947.6L1961.6 975.5L1962.9 976.9L1988.2 1005.1L1989.5 1006.5L2011.9 1031.5L2013.2 1032.9L2020.1 1040.7Z" fill="#2C2C2C"/>
<path d="M2027.4 993C2027.6 994.1 2027.7 995.2 2027.8 996.3L2015.8 982.9L2014.6 981.5L1989.3 953.3L1988.1 951.9L1964 925C1965.1 925.2 1966.2 925.5 1967.2 925.8L1989.5 950.6L1990.8 952L2016.1 980.2L2017.3 981.6L2027.4 993Z" fill="#2C2C2C"/>
<path d="M1964.3 1085L1962.2 1085.5L1958.8 1081.7L1957.6 1080.3L1935.2 1055.3L1933.9 1053.9L1908.6 1025.7L1907.3 1024.3L1882.3 996.4L1881 995L1868.1 980.6C1868.3 979.9 1868.5 979.2 1868.8 978.6L1882.4 993.8L1883.7 995.2L1908.7 1023.1L1909.9 1024.5L1935.2 1052.7L1936.4 1054.1L1958.8 1079.1L1960.1 1080.5L1964.3 1085Z" fill="#2C2C2C"/>
<path d="M1962.2 924.6L1936.6 947.6L1935.2 948.8L1909.9 971.5L1908.5 972.8L1883.7 995.1L1882.3 996.4L1864.8 1012.1C1864.7 1011.3 1864.7 1010.5 1864.6 1009.7L1881.1 994.9L1882.5 993.7L1907.3 971.4L1908.7 970.2L1934 947.5L1935.4 946.3L1959.9 924.3C1960.7 924.3 1961.4 924.5 1962.2 924.6Z" fill="#2C2C2C"/>
<path d="M2000.2 943.3L1990.6 951.9L1989.2 953.2L1962.9 976.8L1961.5 978.1L1936.2 1000.8L1934.8 1002.1L1910 1024.4L1908.6 1025.7L1887.1 1044.9L1885.7 1046.2L1879.2 1052C1878.8 1051.5 1878.5 1051 1878.1 1050.4L1884.4 1044.7L1885.8 1043.4L1907.3 1024.1L1908.7 1022.9L1933.5 1000.6L1934.9 999.3L1960.2 976.6L1961.6 975.3L1988 951.7L1989.4 950.4L1998.9 941.9C1999.3 942.5 1999.8 942.9 2000.2 943.3Z" fill="#2C2C2C"/>
<path d="M2023.1 976.3L2017.2 981.6L2015.8 982.9L1989.5 1006.5L1988.1 1007.8L1962.8 1030.5L1961.4 1031.8L1936.6 1054.1L1935.2 1055.4L1913.7 1074.6L1912.3 1075.9L1909.5 1078.4C1908.9 1078.1 1908.3 1077.8 1907.7 1077.5L1911 1074.5L1912.4 1073.2L1933.9 1054L1935.3 1052.7L1960.1 1030.4L1961.5 1029.1L1986.8 1006.4L1988.2 1005.1L2014.6 981.5L2016 980.2L2022.4 974.4C2022.6 975 2022.9 975.7 2023.1 976.3Z" fill="#2C2C2C"/>
<path d="M2027.3 1017.6C2027.1 1018.6 2027 1019.6 2026.8 1020.6L2013.1 1032.9L2011.7 1034.1L1986.4 1056.8L1985 1058.1L1960.2 1080.4L1958.8 1081.6L1953.2 1086.6C1952.2 1086.7 1951.2 1086.8 1950.2 1086.8L1957.6 1080.2L1959 1079L1983.8 1056.7L1985.2 1055.4L2010.5 1032.7L2011.9 1031.5L2027.3 1017.6Z" fill="#2C2C2C"/>
<path d="M1921.3 1083C1920.1 1082.6 1918.9 1082.2 1917.7 1081.7L1912.3 1075.6L1911 1074.2L1885.7 1046L1884.5 1044.6L1867 1025.1C1866.7 1023.9 1866.4 1022.6 1866.1 1021.3L1885.8 1043.3L1887 1044.7L1912.3 1072.9L1913.6 1074.3L1921.3 1083Z" fill="#2C2C2C"/>
<path d="M2036.3 891.8H1856.6C1840.3 891.8 1827.1 878.6 1827.1 862.3V682.6C1827.1 666.3 1840.3 653.1 1856.6 653.1H2036.3C2052.6 653.1 2065.8 666.3 2065.8 682.6V862.3C2065.8 878.6 2052.6 891.8 2036.3 891.8Z" fill="#2C2C2C"/>
<path d="M2028.3 767.1C2028.3 771.4 2028 775.6 2027.3 779.7C2027.1 780.7 2027 781.7 2026.8 782.7C2025.4 789.8 2023.2 796.5 2020.1 802.8C2019.8 803.4 2019.5 804 2019.2 804.6C2013.9 814.9 2006.4 824 1997.4 831.2C1996.9 831.6 1996.4 832 1995.9 832.4C1986.7 839.4 1976 844.5 1964.3 847.1L1962.2 847.6C1959.2 848.2 1956.2 848.6 1953.2 848.8C1952.2 848.9 1951.2 849 1950.2 849C1948.9 849.1 1947.7 849.1 1946.4 849.1C1937.7 849.1 1929.3 847.7 1921.4 845.2C1920.2 844.8 1919 844.4 1917.8 843.9C1915 842.9 1912.2 841.7 1909.6 840.3C1909 840 1908.4 839.7 1907.8 839.4C1896.4 833.3 1886.6 824.6 1879.3 814C1878.9 813.5 1878.6 813 1878.2 812.4C1873.2 804.8 1869.3 796.3 1867 787.2C1866.7 786 1866.4 784.7 1866.1 783.4C1865.5 780.3 1865 777.2 1864.7 774C1864.6 773.2 1864.6 772.4 1864.5 771.6C1864.4 770 1864.4 768.5 1864.4 766.9C1864.4 758.4 1865.7 750.2 1868.1 742.5C1868.3 741.8 1868.5 741.1 1868.8 740.5C1872.6 729.3 1878.9 719.1 1886.8 710.7C1887.2 710.2 1887.7 709.8 1888.1 709.4C1896.2 701.2 1906 694.8 1916.9 690.6C1917.5 690.4 1918.2 690.1 1918.8 689.9C1927.4 686.8 1936.6 685.2 1946.3 685.2C1950.9 685.2 1955.4 685.6 1959.8 686.3C1960.6 686.4 1961.4 686.6 1962.1 686.7C1962.7 686.8 1963.2 686.9 1963.8 687C1964.9 687.2 1966 687.5 1967 687.8C1978.8 690.9 1989.6 696.5 1998.7 704.1C1999.2 704.5 1999.7 704.9 2000.1 705.3C2009.7 713.7 2017.4 724.4 2022.2 736.4C2022.5 737 2022.7 737.6 2022.9 738.3C2024.9 743.6 2026.4 749.2 2027.2 755C2027.4 756.1 2027.5 757.2 2027.6 758.3C2028.1 761.3 2028.3 764.2 2028.3 767.1Z" fill="#4B5A65"/>
<path d="M1997.4 831.2C1996.9 831.6 1996.4 832 1995.9 832.4L1985 820.2L1983.7 818.8L1961.3 793.8L1960 792.4L1934.7 764.2L1933.4 762.8L1908.4 734.9L1907.1 733.5L1886.7 710.8C1887.1 710.3 1887.6 709.9 1888 709.5L1908.5 732.3L1909.8 733.7L1934.8 761.6L1936.1 763L1961.4 791.2L1962.7 792.6L1985.1 817.6L1986.3 819L1997.4 831.2Z" fill="#2C2C2C"/>
<path d="M2020.1 802.8C2019.8 803.4 2019.5 804 2019.2 804.6L2011.7 796.2L2010.4 794.8L1988 769.8L1986.7 768.4L1961.4 740.2L1960.1 738.8L1935.1 710.9L1933.9 709.5L1916.9 690.6C1917.5 690.4 1918.2 690.1 1918.8 689.9L1935.3 708.3L1936.6 709.7L1961.6 737.6L1962.9 739L1988.2 767.2L1989.5 768.6L2011.9 793.6L2013.2 795L2020.1 802.8Z" fill="#2C2C2C"/>
<path d="M2027.4 755.1C2027.6 756.2 2027.7 757.3 2027.8 758.4L2015.8 745L2014.6 743.6L1989.3 715.4L1988.1 714L1964 687.1C1965.1 687.3 1966.2 687.6 1967.2 687.9L1989.5 712.7L1990.8 714.1L2016.1 742.3L2017.3 743.7L2027.4 755.1Z" fill="#2C2C2C"/>
<path d="M1964.3 847.1L1962.2 847.6L1958.8 843.8L1957.6 842.4L1935.2 817.4L1933.9 816L1908.6 787.8L1907.3 786.4L1882.3 758.5L1881 757.1L1868.1 742.7C1868.3 742 1868.5 741.3 1868.8 740.7L1882.4 755.9L1883.7 757.3L1908.7 785.2L1909.9 786.6L1935.2 814.8L1936.4 816.2L1958.8 841.2L1960.1 842.6L1964.3 847.1Z" fill="#2C2C2C"/>
<path d="M1962.2 686.8L1936.6 709.8L1935.2 711L1909.9 733.7L1908.5 735L1883.7 757.3L1882.3 758.6L1864.8 774.3C1864.7 773.5 1864.7 772.7 1864.6 771.9L1881.1 757.1L1882.5 755.9L1907.3 733.6L1908.7 732.4L1934 709.7L1935.4 708.5L1959.9 686.5C1960.7 686.5 1961.4 686.6 1962.2 686.8Z" fill="#2C2C2C"/>
<path d="M2000.2 705.5L1990.6 714.1L1989.2 715.4L1962.9 739L1961.5 740.3L1936.2 763L1934.8 764.3L1910 786.6L1908.6 787.9L1887.1 807.1L1885.7 808.4L1879.2 814.2C1878.8 813.7 1878.5 813.2 1878.1 812.6L1884.4 806.9L1885.8 805.6L1907.3 786.3L1908.7 785.1L1933.5 762.8L1934.9 761.5L1960.2 738.8L1961.6 737.5L1988 714L1989.4 712.7L1998.9 704.2C1999.3 704.6 1999.8 705 2000.2 705.5Z" fill="#2C2C2C"/>
<path d="M2023.1 738.4L2017.2 743.7L2015.8 745L1989.5 768.6L1988.1 769.9L1962.8 792.6L1961.4 793.9L1936.6 816.2L1935.2 817.5L1913.7 836.7L1912.3 838L1909.5 840.5C1908.9 840.2 1908.3 839.9 1907.7 839.6L1911 836.6L1912.4 835.3L1933.9 816.1L1935.3 814.8L1960.1 792.5L1961.5 791.2L1986.8 768.5L1988.2 767.2L2014.6 743.6L2016 742.3L2022.4 736.5C2022.6 737.2 2022.9 737.8 2023.1 738.4Z" fill="#2C2C2C"/>
<path d="M2027.3 779.7C2027.1 780.7 2027 781.7 2026.8 782.7L2013.1 795L2011.7 796.2L1986.4 818.9L1985 820.2L1960.2 842.5L1958.8 843.7L1953.2 848.7C1952.2 848.8 1951.2 848.9 1950.2 848.9L1957.6 842.3L1959 841.1L1983.8 818.8L1985.2 817.5L2010.5 794.8L2011.9 793.6L2027.3 779.7Z" fill="#2C2C2C"/>
<path d="M1921.3 845.2C1920.1 844.8 1918.9 844.4 1917.7 843.9L1912.3 837.8L1911 836.4L1885.7 808.2L1884.5 806.8L1867 787.3C1866.7 786.1 1866.4 784.8 1866.1 783.5L1885.8 805.5L1887 806.9L1912.3 835.1L1913.6 836.5L1921.3 845.2Z" fill="#2C2C2C"/>
<path d="M1978.6 1281.9L2105.2 1168C2110.4 1163.4 2124.4 1160.2 2136.7 1160.9L2299.1 1170.3C2311.3 1171 2317 1175.3 2311.9 1180L2185.3 1293.9C2180.1 1298.5 2166.1 1301.7 2153.8 1301L1991.4 1291.6C1979.2 1290.9 1973.4 1286.6 1978.6 1281.9Z" fill="#1B376D"/>
<path d="M2313.7 1174.6V1160.8L1979.8 1268.2L1977 1271.2L1976.7 1285.8L2124.2 1290.7L2313.7 1174.6Z" fill="#1B376D"/>
<path d="M2134.3 1146.6L2293.9 1155.8C2306.7 1156.5 2312.7 1161.1 2307.3 1166L2188.3 1273.1C2180.5 1280.1 2159.2 1284.9 2140.8 1283.9L1997.8 1275.6C1984.2 1274.8 1977.9 1270 1983.6 1264.8L2108.4 1152.5C2112.7 1148.7 2124.3 1146 2134.3 1146.6Z" fill="#2C2C2C"/>
<path d="M2313.7 1160.8C2313.2 1157.8 2307.8 1155.5 2299.1 1155L2136.7 1145.6C2124.5 1144.9 2110.4 1148.1 2105.3 1152.7L1978.7 1266.6C1976.9 1268.2 1976.4 1269.8 1977.1 1271.2C1978 1273.1 1981 1274.7 1985.7 1275.6C1987.4 1275.9 1989.3 1276.2 1991.5 1276.3L2134.2 1284.6L2153.9 1285.7C2166.1 1286.4 2180.2 1283.2 2185.3 1278.6L2273.3 1199.4L2304.9 1171L2311.9 1164.7C2313.2 1163.5 2313.8 1162.4 2313.8 1161.3C2313.7 1161.2 2313.7 1161 2313.7 1160.8ZM2306.2 1164.4L2299.6 1170.4L2254.7 1210.8L2254.6 1210.9L2181.3 1276.8L2179.9 1278.1L2179.6 1278.4C2175.7 1281.9 2165.2 1284.2 2156.1 1283.7H2155.4L2137.4 1282.6L1993.6 1274.3C1991.4 1274.2 1989.5 1273.9 1988 1273.5C1982.9 1272.2 1981.2 1269.7 1984.1 1267.1L1984.4 1266.9L1985.8 1265.6L2110.7 1153.2C2114.6 1149.7 2125.1 1147.4 2134.2 1147.9L2296.6 1157.3C2304.4 1157.7 2308.6 1160.2 2307.3 1163C2307.2 1163.4 2306.8 1163.9 2306.2 1164.4Z" fill="#2B478B"/>
<path d="M1988.9 1275.1L2154.2 1284.7C2165.3 1285.3 2178.1 1282.4 2182.8 1278.2L2184.1 1277L1983.1 1265.4L1979.9 1268.3C1976.2 1271.5 1980.2 1274.6 1988.9 1275.1Z" fill="#2B478B"/>
<path d="M2374.1 1379.2C2373.7 1380.1 2373.3 1381 2372.9 1381.9C2372.1 1383.7 2371.3 1385.4 2370.5 1387.1C2340 1386.8 2301.1 1389.5 2260.7 1392.3C2156.2 1399.4 2048.2 1406.8 2013.8 1373.3C2002.4 1362.2 1998.3 1350.5 2001.6 1338.4C2006.8 1319.5 2029.1 1304.1 2046 1294.8C2050.7 1292.2 2055 1290.1 2058.4 1288.5C2062.5 1286.6 2065.3 1285.5 2065.8 1285.3L2068.1 1288.8L2070.4 1292.3C2070.3 1292.3 2067.3 1293.5 2062.8 1295.7C2048.2 1302.6 2017.2 1319.4 2011.5 1340C2008.8 1349.8 2012.1 1359 2021.6 1368.3C2052.7 1398.5 2162.6 1391 2259.7 1384.3C2302 1381.5 2342.4 1378.7 2374.1 1379.2Z" fill="white"/>
<path d="M1771.2 296.3H573.1V999.7H1771.2V296.3Z" fill="#2C2C2C"/>
<path d="M1771.2 296.3H573.1V887.3H1771.2V296.3Z" fill="#2C2C2C"/>
<path d="M1329 1114.3V1131.4H977.2V1114.3C1002.1 1114.3 1022.4 1095.1 1024.3 1070.7C1024.4 1069.5 1024.4 1068.2 1024.4 1067V999.7H1281.7V1067C1281.7 1068.2 1281.8 1069.5 1281.8 1070.7C1282.7 1082.3 1287.8 1092.7 1295.5 1100.4C1304.1 1109 1315.9 1114.3 1329 1114.3Z" fill="#E0E0E0"/>
<g opacity="0.7">
<path opacity="0.7" d="M1281.7 999.7H1024.4V1013.8H1281.7V999.7Z" fill="#ABA5A5"/>
</g>
<g opacity="0.7">
<path opacity="0.7" d="M1329 1114.3H977.2C1002.1 1114.3 1022.4 1095.1 1024.3 1070.7H1281.9C1282.8 1082.3 1287.9 1092.7 1295.6 1100.4C1304.1 1109 1315.9 1114.3 1329 1114.3Z" fill="#C4C4C4"/>
</g>
<path d="M314.9 898.6C314.9 898.6 302.4 787.9 350.3 694.7C355.4 684.8 368 687.3 370.1 698.6C377.5 739.2 385 820.2 350.6 906.3C301.8 1028.8 314.9 898.6 314.9 898.6Z" fill="#4FBDAA"/>
<path d="M372.1 920.5C372.1 920.5 379.9 809.4 443.9 726.4C450.7 717.6 462.6 722.3 462.6 733.8C462.6 775.1 455.2 856.1 405.8 934.6C335.6 1046.2 372.1 920.5 372.1 920.5Z" fill="#4FBDAA"/>
<path d="M340.3 898.3C340.3 898.3 340.5 786.9 398.7 699.7C404.9 690.5 417.1 694.4 417.9 705.8C420.7 747 418.8 828.3 374.9 910C312.4 1026.3 340.3 898.3 340.3 898.3Z" fill="#319C89"/>
<path d="M377.9 904C377.9 904 399.9 819.9 460.9 765.4C467.4 759.6 475.9 765 474.2 773.8C468.2 805.5 450.9 866.6 401.7 919.7C331.8 995.2 377.9 904 377.9 904Z" fill="#319C89"/>
<path d="M295.7 911.6C295.7 911.6 308.2 800.9 260.3 707.7C255.2 697.8 242.6 700.3 240.5 711.6C233.1 752.2 225.6 833.2 260 919.3C308.8 1041.8 295.7 911.6 295.7 911.6Z" fill="#4FBDAA"/>
<path d="M238.5 933.4C238.5 933.4 230.7 822.3 166.7 739.3C159.9 730.5 148 735.2 148 746.7C148 788 155.4 869 204.8 947.5C275.1 1059.2 238.5 933.4 238.5 933.4Z" fill="#4FBDAA"/>
<path d="M270.4 911.3C270.4 911.3 270.2 799.9 212 712.7C205.8 703.5 193.6 707.4 192.8 718.8C190 760 191.9 841.3 235.8 923C298.3 1039.2 270.4 911.3 270.4 911.3Z" fill="#319C89"/>
<path d="M335.2 917.3C335.2 917.3 356.2 807.9 315.7 711.2C311.4 700.9 298.6 702.5 295.7 713.6C285.1 753.5 271.5 833.7 299 922.2C338.2 1048.2 335.2 917.3 335.2 917.3Z" fill="#319C89"/>
<path d="M232.8 916.9C232.8 916.9 210.8 832.8 149.8 778.3C143.3 772.5 134.8 777.9 136.5 786.7C142.5 818.4 159.8 879.5 209 932.6C278.9 1008.2 232.8 916.9 232.8 916.9Z" fill="#319C89"/>
<path d="M367.4 1100.3H247.3C197.4 1100.3 156.6 1059.5 156.6 1009.6V900.1C156.6 897.5 158.7 895.3 161.4 895.3H458V1009.5C458 1059.5 417.2 1100.3 367.4 1100.3Z" fill="#2B478B"/>
<path d="M1753.3 311.9H588.6V865.1H1753.3V311.9Z" fill="#8C8CA3"/>
<path opacity="0.1" d="M865.8 337.4H616.1V587.1H865.8V337.4Z" fill="#2C2C2C"/>
<path opacity="0.1" d="M865.8 614.6H616.1V842.1H865.8V614.6Z" fill="#2C2C2C"/>
<path opacity="0.1" d="M1718.5 643.3H914.2V842.2H1718.5V643.3Z" fill="#2C2C2C"/>
<path d="M1567.5 667.8H950.9V683.3H1567.5V667.8Z" fill="#393F55"/>
<path d="M1567.5 699.1H950.9V714.6H1567.5V699.1Z" fill="#393F55"/>
<path d="M1567.5 730.4H1225.6V745.9H1567.5V730.4Z" fill="#393F55"/>
<path d="M1420.9 761.7H1155.7V777.2H1420.9V761.7Z" fill="#393F55"/>
<path d="M1567.5 793H1225.6V808.5H1567.5V793Z" fill="#393F55"/>
<path d="M797.4 542.1H634.1V549.8H797.4V542.1Z" fill="#9DB0F4"/>
<path d="M831.1 542.1H813.1V560.1H831.1V542.1Z" fill="#393F55"/>
<path d="M770 542.1H695.1V549.8H770V542.1Z" fill="#2496E2"/>
<path d="M797.4 499.6H634.1V507.3H797.4V499.6Z" fill="#393F55"/>
<path d="M831.1 499.6H813.1V517.6H831.1V499.6Z" fill="#393F55"/>
<path d="M707.6 499.6H655.4V507.3H707.6V499.6Z" fill="#2496E2"/>
<path d="M797.4 457.1H634.1V464.8H797.4V457.1Z" fill="#393F55"/>
<path d="M831.1 457.1H813.1V475.1H831.1V457.1Z" fill="#3CCBB1"/>
<path d="M767.1 457.1H714.9V464.8H767.1V457.1Z" fill="#7A96E5"/>
<path d="M797.4 414.6H634.1V422.3H797.4V414.6Z" fill="#393F55"/>
<path d="M831.1 414.6H813.1V432.6H831.1V414.6Z" fill="#3CCBB1"/>
<path d="M734.8 414.6H655.4V422.3H734.8V414.6Z" fill="#7A96E5"/>
<path d="M797.4 372.1H634.1V379.8H797.4V372.1Z" fill="#393F55"/>
<path d="M831.1 372.1H813.1V390.1H831.1V372.1Z" fill="#2496E2"/>
<path d="M780.7 372.1H711.1V379.8H780.7V372.1Z" fill="#2496E2"/>
<path d="M723.5 638.8H707.6V654.7H723.5V638.8Z" fill="#393F55"/>
<path d="M751.9 638.8H736V654.7H751.9V638.8Z" fill="#393F55"/>
<path d="M845.5 640.8H762.8V646.7H845.5V640.8Z" fill="#393F55"/>
<path d="M683.9 636.8L696.9 646.7L683.9 654.3V636.8Z" fill="#393F55"/>
<path d="M723.5 669.1H707.6V685H723.5V669.1Z" fill="#3CCBB1"/>
<path d="M751.9 669.1H736V685H751.9V669.1Z" fill="#393F55"/>
<path d="M845.5 671.2H762.8V677.1H845.5V671.2Z" fill="#393F55"/>
<path d="M683.9 667.1L696.9 677L683.9 684.6V667.1Z" fill="#393F55"/>
<path d="M723.5 699.5H707.6V715.4H723.5V699.5Z" fill="#2496E2"/>
<path d="M751.9 699.5H736V715.4H751.9V699.5Z" fill="#393F55"/>
<path d="M845.5 701.5H762.8V707.4H845.5V701.5Z" fill="#393F55"/>
<path d="M683.9 697.5L696.9 707.4L683.9 715V697.5Z" fill="#393F55"/>
<path d="M723.5 729.8H707.6V745.7H723.5V729.8Z" fill="#2496E2"/>
<path d="M751.9 729.8H736V745.7H751.9V729.8Z" fill="#393F55"/>
<path d="M845.5 731.9H762.8V737.8H845.5V731.9Z" fill="#393F55"/>
<path d="M683.9 727.8L696.9 737.7L683.9 745.3V727.8Z" fill="#393F55"/>
<path d="M723.5 760.2H707.6V776.1H723.5V760.2Z" fill="#3CCBB1"/>
<path d="M751.9 760.2H736V776.1H751.9V760.2Z" fill="#393F55"/>
<path d="M845.5 762.2H762.8V768.1H845.5V762.2Z" fill="#393F55"/>
<path d="M683.9 758.2L696.9 768.1L683.9 775.7V758.2Z" fill="#393F55"/>
<path d="M723.5 790.5H707.6V806.4H723.5V790.5Z" fill="#3CCBB1"/>
<path d="M751.9 790.5H736V806.4H751.9V790.5Z" fill="#393F55"/>
<path d="M845.5 792.5H762.8V798.4H845.5V792.5Z" fill="#393F55"/>
<path d="M683.9 788.5L696.9 798.4L683.9 806V788.5Z" fill="#393F55"/>
<g opacity="0.5">
<g opacity="0.5">
<path opacity="0.5" d="M631.6 645.5C631.6 645.5 635.8 640.1 641.5 640.1C647.3 640.1 650.9 645.5 650.9 645.5C650.9 645.5 647.9 650.9 641.5 650.9C634.8 650.9 631.6 645.5 631.6 645.5Z" fill="white"/>
</g>
<g opacity="0.5">
<path opacity="0.5" d="M637.5 645.5C637.5 643.4 639.2 641.8 641.2 641.8C643.2 641.8 644.9 643.5 644.9 645.5C644.9 647.6 643.2 649.2 641.2 649.2C639.2 649.2 637.5 647.6 637.5 645.5Z" fill="#15156D"/>
</g>
<g opacity="0.5">
<path opacity="0.5" d="M638.9 645.5C638.9 644.2 639.9 643.2 641.2 643.2C642.5 643.2 643.5 644.2 643.5 645.5C643.5 646.8 642.5 647.8 641.2 647.8C639.9 647.8 638.9 646.8 638.9 645.5Z" fill="white"/>
</g>
</g>
<g opacity="0.5">
<g opacity="0.5">
<path opacity="0.5" d="M631.6 675.9C631.6 675.9 635.8 670.5 641.5 670.5C647.3 670.5 650.9 675.9 650.9 675.9C650.9 675.9 647.9 681.3 641.5 681.3C634.8 681.3 631.6 675.9 631.6 675.9Z" fill="white"/>
</g>
<g opacity="0.5">
<path opacity="0.5" d="M637.5 675.9C637.5 673.8 639.2 672.2 641.2 672.2C643.2 672.2 644.9 673.9 644.9 675.9C644.9 678 643.2 679.6 641.2 679.6C639.2 679.6 637.5 677.9 637.5 675.9Z" fill="#15156D"/>
</g>
<g opacity="0.5">
<path opacity="0.5" d="M638.9 675.9C638.9 674.6 639.9 673.6 641.2 673.6C642.5 673.6 643.5 674.6 643.5 675.9C643.5 677.2 642.5 678.2 641.2 678.2C639.9 678.2 638.9 677.1 638.9 675.9Z" fill="white"/>
</g>
</g>
<g opacity="0.5">
<g opacity="0.5">
<path opacity="0.5" d="M631.6 706.2C631.6 706.2 635.8 700.8 641.5 700.8C647.3 700.8 650.9 706.2 650.9 706.2C650.9 706.2 647.9 711.6 641.5 711.6C634.8 711.6 631.6 706.2 631.6 706.2Z" fill="white"/>
</g>
<g opacity="0.5">
<path opacity="0.5" d="M637.5 706.2C637.5 704.1 639.2 702.5 641.2 702.5C643.2 702.5 644.9 704.2 644.9 706.2C644.9 708.3 643.2 709.9 641.2 709.9C639.2 709.9 637.5 708.3 637.5 706.2Z" fill="#15156D"/>
</g>
<g opacity="0.5">
<path opacity="0.5" d="M638.9 706.2C638.9 704.9 639.9 703.9 641.2 703.9C642.5 703.9 643.5 704.9 643.5 706.2C643.5 707.5 642.5 708.5 641.2 708.5C639.9 708.5 638.9 707.5 638.9 706.2Z" fill="white"/>
</g>
</g>
<g opacity="0.5">
<g opacity="0.5">
<path opacity="0.5" d="M631.6 736.6C631.6 736.6 635.8 731.2 641.5 731.2C647.3 731.2 650.9 736.6 650.9 736.6C650.9 736.6 647.9 742 641.5 742C634.8 742 631.6 736.6 631.6 736.6Z" fill="white"/>
</g>
<g opacity="0.5">
<path opacity="0.5" d="M637.5 736.6C637.5 734.5 639.2 732.9 641.2 732.9C643.2 732.9 644.9 734.6 644.9 736.6C644.9 738.7 643.2 740.3 641.2 740.3C639.2 740.3 637.5 738.6 637.5 736.6Z" fill="#15156D"/>
</g>
<g opacity="0.5">
<path opacity="0.5" d="M638.9 736.6C638.9 735.3 639.9 734.3 641.2 734.3C642.5 734.3 643.5 735.3 643.5 736.6C643.5 737.9 642.5 738.9 641.2 738.9C639.9 738.9 638.9 737.8 638.9 736.6Z" fill="white"/>
</g>
</g>
<g opacity="0.5">
<g opacity="0.5">
<path opacity="0.5" d="M631.6 766.9C631.6 766.9 635.8 761.5 641.5 761.5C647.3 761.5 650.9 766.9 650.9 766.9C650.9 766.9 647.9 772.3 641.5 772.3C634.8 772.3 631.6 766.9 631.6 766.9Z" fill="white"/>
</g>
<g opacity="0.5">
<path opacity="0.5" d="M637.5 766.9C637.5 764.8 639.2 763.2 641.2 763.2C643.2 763.2 644.9 764.9 644.9 766.9C644.9 768.9 643.2 770.6 641.2 770.6C639.2 770.6 637.5 769 637.5 766.9Z" fill="#15156D"/>
</g>
<g opacity="0.5">
<path opacity="0.5" d="M638.9 766.9C638.9 765.6 639.9 764.6 641.2 764.6C642.5 764.6 643.5 765.6 643.5 766.9C643.5 768.2 642.5 769.2 641.2 769.2C639.9 769.2 638.9 768.2 638.9 766.9Z" fill="white"/>
</g>
</g>
<g opacity="0.5">
<g opacity="0.5">
<path opacity="0.5" d="M631.6 797.3C631.6 797.3 635.8 791.9 641.5 791.9C647.3 791.9 650.9 797.3 650.9 797.3C650.9 797.3 647.9 802.7 641.5 802.7C634.8 802.7 631.6 797.3 631.6 797.3Z" fill="white"/>
</g>
<g opacity="0.5">
<path opacity="0.5" d="M637.5 797.3C637.5 795.2 639.2 793.6 641.2 793.6C643.2 793.6 644.9 795.3 644.9 797.3C644.9 799.4 643.2 801 641.2 801C639.2 801 637.5 799.3 637.5 797.3Z" fill="#15156D"/>
</g>
<g opacity="0.5">
<path opacity="0.5" d="M638.9 797.3C638.9 796 639.9 795 641.2 795C642.5 795 643.5 796 643.5 797.3C643.5 798.6 642.5 799.6 641.2 799.6C639.9 799.6 638.9 798.5 638.9 797.3Z" fill="white"/>
</g>
</g>
<path d="M1567.5 761.7H1332.6V777.2H1567.5V761.7Z" fill="#2496E2"/>
<path d="M1510.6 730.4H1374.1V745.9H1510.6V730.4Z" fill="#2496E2"/>
<path d="M1517 667.8H1359V683.3H1517V667.8Z" fill="#2496E2"/>
<path d="M1543.6 699.1H1407.1V714.6H1543.6V699.1Z" fill="#3CCBB1"/>
<path d="M1317.09 653.839L1310.51 647.263L1303.93 653.84L1310.51 660.416L1317.09 653.839Z" fill="#2496E2"/>
<path d="M1428.3 337.4H914.2V618.7H1428.3V337.4Z" fill="#EBF2F9"/>
<path d="M1403.9 414.2V618.8H914.2V466H932.5V475.5H947.5V470H961.4V448.2H968.3V438H969.4V448.2H986.1V429H987.7V448.1H998.7V447.8V445.4V443.1V439.3V436.9V433V430.6V426.8V424.2V420.4V417V413.2V410.7H1002V407.8H1002.5V410.7H1026.8V407.8H1027.3V410.7H1031.7V430.7H1034.8V426.9V424.3V420.5V417.9V414.1H1064.3H1069.4C1069.7 414.2 1069.9 414.3 1070.2 414.4V436H1091.7V464.6H1109.1V411.7H1112.9V408H1113.6V411.7H1127.3V408H1128V411.7H1147.5V408H1148.2V411.7H1160.5V408H1161.2V411.7H1166.2V461.1H1185.4V453.1L1208.1 453.2V440.2H1212.7V437.6H1213.3V440.2H1230.8H1234.3V437.6H1234.9V440.2H1239.1V466H1266.1V475.5H1281.1V470H1295V448.2H1301.9V438H1302.9V448.2H1319.6V429H1321.2V448.1H1332.2V447.8V445.4V443.1V439.3V436.9V433V430.6V426.8V424.2V420.4V417V413.2V410.7H1335.5V407.8H1336V410.7H1360.3V407.8H1360.8V410.7H1365.2V430.7H1368.3V426.9V424.3V420.5V417.9V414.1H1397.8H1402.9C1403.4 414 1403.6 414.1 1403.9 414.2Z" fill="#D5E5FB"/>
<path d="M1166.2 411.7H1122.7V420.1H1166.2V411.7Z" fill="#E2EEFD"/>
<path d="M1352.8 410.6H1332.5V415.7H1352.8V410.6Z" fill="#E2EEFD"/>
<path d="M1352.8 418.5H1332.5V423.6H1352.8V418.5Z" fill="#E2EEFD"/>
<path d="M1352.8 426.5H1332.5V431.6H1352.8V426.5Z" fill="#E2EEFD"/>
<path d="M1352.8 434.6H1332.5V439.7H1352.8V434.6Z" fill="#E2EEFD"/>
<path d="M1352.8 442.4H1332.5V447.5H1352.8V442.4Z" fill="#E2EEFD"/>
<path d="M1352.8 451H1332.5V456.1H1352.8V451Z" fill="#E2EEFD"/>
<path d="M1352.8 458.9H1332.5V464H1352.8V458.9Z" fill="#E2EEFD"/>
<path d="M1352.8 466.8H1332.5V471.9H1352.8V466.8Z" fill="#E2EEFD"/>
<path d="M1352.8 475H1332.5V480.1H1352.8V475Z" fill="#E2EEFD"/>
<path d="M1352.8 482.8H1332.5V487.9H1352.8V482.8Z" fill="#E2EEFD"/>
<path d="M1020.2 410.6H998.5V415.7H1020.2V410.6Z" fill="#E2EEFD"/>
<path d="M1020.2 418.5H998.5V423.6H1020.2V418.5Z" fill="#E2EEFD"/>
<path d="M1020.2 426.5H998.5V431.6H1020.2V426.5Z" fill="#E2EEFD"/>
<path d="M1020.2 434.6H998.5V439.7H1020.2V434.6Z" fill="#E2EEFD"/>
<path d="M1020.2 442.4H998.5V447.5H1020.2V442.4Z" fill="#E2EEFD"/>
<path d="M1020.2 451H998.5V456.1H1020.2V451Z" fill="#E2EEFD"/>
<path d="M1020.2 458.9H998.5V464H1020.2V458.9Z" fill="#E2EEFD"/>
<path d="M1020.2 466.8H998.5V471.9H1020.2V466.8Z" fill="#E2EEFD"/>
<path d="M1020.2 475H998.5V480.1H1020.2V475Z" fill="#E2EEFD"/>
<path d="M1020.2 482.8H998.5V487.9H1020.2V482.8Z" fill="#E2EEFD"/>
<path d="M1060.1 414H1035.4V419.1H1060.1V414Z" fill="#E2EEFD"/>
<path d="M1060.1 421.8H1035.4V426.9H1060.1V421.8Z" fill="#E2EEFD"/>
<path d="M1060.1 429.8H1035.4V434.9H1060.1V429.8Z" fill="#E2EEFD"/>
<path d="M1060.1 437.9H1035.4V443H1060.1V437.9Z" fill="#E2EEFD"/>
<path d="M1060.1 445.7H1035.4V450.8H1060.1V445.7Z" fill="#E2EEFD"/>
<path d="M1060.1 453.9H1035.4V459H1060.1V453.9Z" fill="#E2EEFD"/>
<path d="M1060.1 461.7H1035.4V466.8H1060.1V461.7Z" fill="#E2EEFD"/>
<path d="M1060.1 469.7H1035.4V474.8H1060.1V469.7Z" fill="#E2EEFD"/>
<path d="M1060.1 477.8H1035.4V482.9H1060.1V477.8Z" fill="#E2EEFD"/>
<path d="M1060.1 485.7H1035.4V490.8H1060.1V485.7Z" fill="#E2EEFD"/>
<path d="M1360 393H1358.1V392.9L1358.7 387.8C1358.7 387.6 1358.9 387.5 1359 387.5C1359 387.5 1359 387.5 1359.1 387.5C1359.2 387.5 1359.3 387.6 1359.4 387.6C1359.5 387.7 1359.6 387.8 1359.6 387.9L1360 393Z" fill="#9DB0F4"/>
<path d="M1358.3 391.9L1358.7 387.8C1358.7 387.6 1358.9 387.5 1359 387.5C1359 387.5 1359 387.5 1359.1 387.5C1359.2 387.6 1359.2 387.7 1359.2 387.8V390.7C1359.3 391.4 1358.8 391.9 1358.3 391.9Z" fill="#AFCDFB"/>
<path d="M1361.2 415.7H1357.5V578.3H1361.2V415.7Z" fill="#9DB0F4"/>
<path d="M1359.2 415.7H1357.5V578.3H1359.2V415.7Z" fill="#AEC3FF"/>
<path d="M1365.2 552.4H1353.5V595.4H1365.2V552.4Z" fill="#9DB0F4"/>
<path d="M1360.5 552.4H1353.5V595.4H1360.5V552.4Z" fill="#AEC3FF"/>
<path d="M1365.8 395.5C1365.8 397.5 1362.8 399.1 1359.1 399.1C1358.8 399.1 1358.5 399.1 1358.3 399.1C1355 398.9 1352.4 397.3 1352.4 395.5C1352.4 393.6 1355 392.1 1358.3 391.9C1358.6 391.9 1358.9 391.9 1359.1 391.9C1362.7 391.9 1365.8 393.5 1365.8 395.5Z" fill="#9DB0F4"/>
<path d="M1362.3 395.5C1362.3 397.1 1360.6 398.5 1358.2 399.1C1354.9 398.9 1352.3 397.3 1352.3 395.5C1352.3 393.6 1354.9 392.1 1358.2 391.9C1360.6 392.5 1362.3 393.9 1362.3 395.5Z" fill="#AEC3FF"/>
<path d="M1365.2 418.9H1353.5L1349.3 399H1368.7L1365.2 418.9Z" fill="#AEC3FF"/>
<path d="M1369.8 397.5H1348.3V399.4H1369.8V397.5Z" fill="#9DB0F4"/>
<path d="M1361.8 397.5H1348.3V399.4H1361.8V397.5Z" fill="#AEC3FF"/>
<path d="M1355.4 552.4H1362.9L1361.8 549.1C1361.7 548.8 1361.4 548.6 1361.1 548.6H1357.6C1357.2 548.6 1356.9 548.8 1356.7 549.2L1355.4 552.4Z" fill="#819DEA"/>
<path d="M1350.7 400H1367.3L1364 417.9H1354.5L1350.7 400Z" fill="#C5D7FF"/>
<path d="M1368.4 397.5H1349.7L1351.2 395.3H1366.9L1368.4 397.5Z" fill="#9DB0F4"/>
<path d="M1363.8 397.5H1349.7L1351.2 395.3H1362.3L1363.8 397.5Z" fill="#AEC3FF"/>
<path d="M1032.5 595.6H914.2V566.7C914.6 566.9 915 567.1 915.3 567.3C931.4 575.5 929.3 586.5 949.3 582.5C969.3 578.5 985.8 576.8 994.7 582.5C1003.6 588.2 1010.2 585.9 1021.3 585.9C1030.6 585.8 1032.2 593.1 1032.5 595.6Z" fill="#A8D29F"/>
<path d="M1057 562.5H944.3L939.1 536H1051.6L1057 562.5Z" fill="#EC3C34"/>
<path d="M1058.9 562.5H946.2L941 536H1053.5L1058.9 562.5Z" fill="#EC3C34"/>
<path d="M977.6 565.8H946.8C945.4 565.8 944.3 564.7 944.3 563.3V562.5H977.6V565.8Z" fill="#EC3C34"/>
<path d="M1079.7 562.5H977.3V565.7H1079.7V562.5Z" fill="#EC3C34"/>
<path d="M951.1 565.8L949.2 573.4L943.5 595.9C943.4 596.2 943.2 596.4 942.9 596.4C942.3 596.4 941.9 595.9 942 595.3L947 569L947.6 565.7H951.1V565.8Z" fill="#EC3C34"/>
<path d="M949.1 573.4C949.3 569.5 946.9 569.1 946.9 569.1L947.5 565.8H951L949.1 573.4Z" fill="#EC3C34"/>
<path d="M975.5 565.8L973.6 573.4L967.9 595.9C967.8 596.2 967.6 596.4 967.3 596.4C966.7 596.4 966.3 595.9 966.4 595.3L971.5 569.1L972.1 565.8H975.5Z" fill="#EC3C34"/>
<path d="M973.6 573.4C973.8 569.5 971.4 569.1 971.4 569.1L972 565.8H975.5L973.6 573.4Z" fill="#EC3C34"/>
<path d="M1070.3 565.8L1072.2 573.4L1077.9 595.9C1078 596.2 1078.2 596.4 1078.5 596.4C1079.1 596.4 1079.5 595.9 1079.4 595.3L1074.3 569.1L1073.7 565.8H1070.3Z" fill="#EC3C34"/>
<path d="M1072.3 573.4C1072.1 569.5 1074.5 569.1 1074.5 569.1L1073.9 565.8H1070.4L1072.3 573.4Z" fill="#EC3C34"/>
<path d="M1045.9 565.8L1047.8 573.4L1053.5 595.9C1053.6 596.2 1053.8 596.4 1054.1 596.4C1054.7 596.4 1055.1 595.9 1055 595.3L1050 569L1049.4 565.7H1045.9V565.8Z" fill="#EC3C34"/>
<path d="M1047.8 573.4C1047.6 569.5 1050 569.1 1050 569.1L1049.4 565.8H1045.9L1047.8 573.4Z" fill="#EC3C34"/>
<path d="M984.5 409.9C981.6 411.6 978.2 412.7 974.5 412.9C958.2 413.9 952.5 420 939.3 432.8C932.2 439.7 922.4 441.2 914.3 441.4V354.1C916.6 355.7 919 357.4 921.4 359C930.4 365 940.1 369.9 950.8 367.3C961.5 364.7 969.8 364.9 976.2 366.9C984.5 369.5 989.9 375.2 993.7 382.1C999 391.8 994.4 404.2 984.5 409.9Z" fill="#A8D29F"/>
<path d="M1117.7 379C1117.7 375 1121 371.7 1125 371.7C1129 371.7 1132.3 375 1132.3 379C1132.3 383 1129 386.3 1125 386.3C1121 386.3 1117.7 383 1117.7 379Z" fill="#F8FCFF"/>
<path d="M1238.1 372.5C1238.1 372.5 1244.5 362.3 1259.6 363.4C1259.6 363.4 1281.7 346.4 1305.2 361.1C1305.2 361.1 1330.2 357.4 1348.7 364.3C1361 368.8 1365.1 373.6 1365.1 373.6L1238.1 372.5Z" fill="#F8FCFF"/>
<g opacity="0.5">
<path opacity="0.5" d="M1314 398.7C1314 398.7 1318.2 392 1328.1 392.8C1328.1 392.8 1342.5 381.7 1357.9 391.3C1357.9 391.3 1374.3 388.9 1386.4 393.4C1394.5 396.4 1397.1 399.5 1397.1 399.5L1314 398.7Z" fill="#F8FCFF"/>
</g>
<g opacity="0.5">
<path opacity="0.5" d="M1003.7 394.1C1003.7 394.1 1007.9 387.4 1017.8 388.2C1017.8 388.2 1032.2 377.1 1047.6 386.7C1047.6 386.7 1064 384.3 1076.1 388.8C1084.2 391.8 1086.8 394.9 1086.8 394.9L1003.7 394.1Z" fill="#F8FCFF"/>
</g>
<path d="M1428.3 595.4H914.2V618.7H1428.3V595.4Z" fill="#9DB0F4"/>
<path d="M1238.1 588.3C1238.1 588.3 1235.6 579.2 1242.5 570.3C1249.4 561.4 1261 563.8 1261 563.8C1261 563.8 1262.6 566.3 1259.4 568.3C1256.2 570.3 1245 566.3 1242.1 585.8C1242.1 585.8 1240.8 589.8 1238.1 588.3Z" fill="#EC3C34"/>
<path d="M1150.9 456.8C1150.9 454.5 1152.8 452.7 1155 452.7C1157.3 452.7 1159.1 454.6 1159.1 456.8C1159.1 459.1 1157.2 460.9 1155 460.9C1152.8 460.9 1150.9 459.1 1150.9 456.8Z" fill="#EC3C34"/>
<path d="M1251.2 582.9C1251.2 579.7 1253.8 577.1 1257 577.1C1260.2 577.1 1262.8 579.7 1262.8 582.9C1262.8 586.1 1260.2 588.7 1257 588.7C1253.8 588.7 1251.2 586.1 1251.2 582.9Z" fill="#9DB0F4"/>
<path d="M1122.4 578.4C1122.4 573.5 1126.4 569.5 1131.3 569.5C1136.2 569.5 1140.2 573.5 1140.2 578.4C1140.2 583.3 1136.2 587.3 1131.3 587.3C1126.4 587.3 1122.4 583.4 1122.4 578.4Z" fill="#9DB0F4"/>
<path d="M1145.24 460.675L1131.11 563.707L1134.68 564.197L1148.81 461.164L1145.24 460.675Z" fill="#131375"/>
<path d="M1136.5 464.2V460.2L1154.6 456.3L1155.8 459.6L1136.5 464.2Z" fill="#EC3C34"/>
<path d="M1131.6 595.3C1122.5 595.3 1115 587.9 1115 578.7C1115 569.6 1122.4 562.1 1131.6 562.1C1140.7 562.1 1148.2 569.5 1148.2 578.7C1148.2 587.9 1140.7 595.3 1131.6 595.3ZM1131.6 565.5C1124.3 565.5 1118.4 571.4 1118.4 578.7C1118.4 586 1124.3 591.9 1131.6 591.9C1138.9 591.9 1144.8 586 1144.8 578.7C1144.8 571.5 1138.9 565.5 1131.6 565.5Z" fill="#060633"/>
<path d="M1257.1 595C1250.4 595 1245 589.6 1245 582.9C1245 576.2 1250.4 570.8 1257.1 570.8C1263.8 570.8 1269.2 576.2 1269.2 582.9C1269.2 589.6 1263.7 595 1257.1 595ZM1257.1 573.4C1251.9 573.4 1247.7 577.6 1247.7 582.8C1247.7 588 1251.9 592.2 1257.1 592.2C1262.3 592.2 1266.5 588 1266.5 582.8C1266.5 577.7 1262.3 573.4 1257.1 573.4Z" fill="#060633"/>
<path d="M1239.2 589.8H1157C1155.5 589.8 1154.3 588.6 1154.3 587.1V585.8C1154.3 584.3 1155.5 583.1 1157 583.1H1239.2C1240.7 583.1 1241.9 584.3 1241.9 585.8V587.1C1241.9 588.6 1240.7 589.8 1239.2 589.8Z" fill="#131375"/>
<path d="M1240.1 589.9C1239.5 589.9 1239 589.5 1238.8 589C1238.6 588.3 1238.9 587.5 1239.6 587.3L1256.5 581.7C1257.2 581.5 1258 581.8 1258.2 582.5C1258.4 583.2 1258.1 584 1257.4 584.2L1240.5 589.8C1240.4 589.8 1240.3 589.9 1240.1 589.9Z" fill="#131375"/>
<path d="M1136.2 538L1164.5 583.3H1171.7L1137.7 529.6L1136.2 538Z" fill="#131375"/>
<path d="M1137.8 564.2L1135.2 563.4L1132.5 572.3C1131.6 575.3 1128.8 577.2 1125.7 576.9L1117.1 576.2L1116.9 578.9L1125.5 579.6C1129.1 579.9 1132.3 581.9 1134.2 584.9L1138.8 592.1L1141.1 590.6L1136.7 583.7C1134.6 580.5 1134.1 576.5 1135.2 572.8L1137.8 564.2Z" fill="#060633"/>
<path d="M1261 573.6L1259.3 573.1L1257.5 578.9C1256.9 580.8 1255.1 582.1 1253.1 581.9L1247.5 581.4L1247.4 583.2L1253 583.7C1255.3 583.9 1257.4 585.2 1258.7 587.1L1261.7 591.7L1263.2 590.7L1260.3 586.2C1259 584.1 1258.6 581.5 1259.3 579.1L1261 573.6Z" fill="#060633"/>
<path d="M1255.5 582.7C1255.5 582 1256.1 581.4 1256.8 581.4C1257.5 581.4 1258.1 582 1258.1 582.7C1258.1 583.4 1257.5 584 1256.8 584C1256.1 584 1255.5 583.4 1255.5 582.7Z" fill="#EC3C34"/>
<path d="M1130 578.4C1130 577.7 1130.6 577.1 1131.3 577.1C1132 577.1 1132.6 577.7 1132.6 578.4C1132.6 579.1 1132 579.7 1131.3 579.7C1130.6 579.8 1130 579.2 1130 578.4Z" fill="#EC3C34"/>
<path d="M1121.1 561.3C1121.1 561.3 1128.9 555.9 1139.5 559.4C1150.2 562.9 1151.8 574.7 1151.8 574.7C1151.8 574.7 1150 577.1 1147 574.7C1144.1 572.3 1144 560.4 1124.7 564.3C1124.9 564.2 1120.7 564.3 1121.1 561.3Z" fill="#EC3C34"/>
<path d="M1195 357.8C1195 357.8 1181.6 379.4 1181.6 385.2C1181.6 391.1 1185.9 397.8 1185.9 397.8L1199.5 386.5L1206.3 374.4L1195 357.8Z" fill="#829CE8"/>
<path d="M1205.6 389.4C1205.6 389.4 1201.1 397.6 1193 396.1C1193 396.1 1190.6 392.5 1190 389.6C1189.9 389.2 1189.9 388.9 1189.8 388.6C1189.1 385.4 1188.7 383.6 1188.7 383.6C1189 383.4 1199.3 376.6 1199.3 377C1200.8 385.8 1205.6 389.4 1205.6 389.4Z" fill="#EC3C34"/>
<path d="M1185.1 384.1C1185.1 384.1 1197.5 388.3 1200 380.5C1202.5 372.7 1205.7 368 1197.9 365C1190.1 362 1187.6 364.5 1186.1 366.9C1184.7 369.3 1181.9 382.8 1185.1 384.1Z" fill="#EC3C34"/>
<path d="M1171 583.3H1191.5C1191.7 583.3 1191.8 583.2 1191.9 583.2C1193.3 582.5 1192.8 577.3 1192.7 575.7C1192.7 575.4 1192.6 575.2 1192.6 575.2C1192.6 575.2 1185.4 569.4 1184.4 573.8C1184.4 573.9 1184.3 574.1 1184.3 574.2C1183 578.3 1177.5 580.2 1174.2 580.7C1171.8 581.2 1171.1 582.6 1171 583.3Z" fill="#EC3C34"/>
<path d="M1211.1 583.3H1231.6C1231.8 583.3 1231.9 583.2 1232 583.2C1233.4 582.5 1232.9 577.3 1232.8 575.7C1232.8 575.4 1232.7 575.2 1232.7 575.2C1232.7 575.2 1225.5 569.4 1224.5 573.8C1224.5 573.9 1224.4 574.1 1224.4 574.2C1223.1 578.3 1217.6 580.2 1214.3 580.7C1211.9 581.2 1211.3 582.6 1211.1 583.3Z" fill="#EC3C34"/>
<path d="M1175.1 465.1C1175.1 465.1 1176.2 478.8 1177.5 495.2C1179.2 517.5 1181.4 544.9 1181.6 550.1C1182 559.1 1184.4 574.3 1184.4 574.3C1184.4 574.3 1185.9 576.7 1192.7 575.2C1192.7 575.2 1199.8 554.9 1201.5 533.1C1201.5 532.7 1201.6 532.4 1201.6 532C1203.2 509.8 1205.7 463.2 1205.7 463.2L1175.1 465.1Z" fill="#EC3C34"/>
<path d="M1175.1 465.1C1175.1 465.1 1176.2 478.8 1177.5 495.2L1201.5 533.2C1201.5 532.8 1201.6 532.5 1201.6 532.1C1203.2 509.9 1205.7 463.3 1205.7 463.3L1175.1 465.1Z" fill="#EC3C34"/>
<path d="M1180.1 466.7C1180.1 466.7 1193.5 518.2 1206.5 541.4C1219.5 564.6 1224.1 575 1224.1 575C1224.1 575 1232.1 577.1 1232.7 575.1C1232.7 575.1 1225.9 519.8 1220.6 506.8C1217.9 500.1 1216.6 479.5 1216.3 473C1216 466.5 1211.5 457.7 1211.5 457.7L1180.1 466.7Z" fill="#EC3C34"/>
<path d="M1175.7 486.8C1200.7 499.1 1228 495.1 1227.9 494.3C1227.9 493.4 1217.5 438.3 1213.9 422.3C1210.6 407.3 1206.1 394.3 1201.9 391.3C1201.4 390.9 1198.1 392.6 1195 394.2C1192.2 395.6 1189.4 395.9 1186.7 395.4C1186.7 395.4 1185.3 397.2 1184.5 399.2C1182.8 403.3 1174.1 431.3 1173.9 436.1C1173.9 436.4 1173.9 436.7 1173.9 437C1173.9 438.4 1173.8 439.8 1173.8 441.2C1173.9 442.6 1175.4 486.7 1175.7 486.8Z" fill="#9DB0F4"/>
<path d="M1174.8 465.8C1199.3 452 1196.9 420.4 1196.9 420.4L1174 441C1174 442.6 1174 444.2 1174 445.7C1174 446.9 1174 448 1174 449.2V449.4C1174 449.8 1174 450.3 1174 450.7C1173.9 452.6 1174.7 464 1174.8 465.8Z" fill="#7A96E5"/>
<path d="M1150 456.3C1148.8 454.2 1149.7 453.3 1149.7 453.3C1149.7 453.3 1170 438.4 1171.6 436.9C1173.2 435.4 1181.2 410.7 1181.2 410.7C1181.2 410.7 1184 400.7 1189.8 399.8C1194.9 399 1198.3 401.6 1200.4 404.6C1203 408.2 1203.1 413 1200.8 416.7C1195.5 425.1 1184.8 441.6 1181.7 444.4C1174.9 450.6 1152.9 458.1 1152.9 458.1C1152.9 458.1 1151 458 1150 456.3Z" fill="#EC3C34"/>
<path d="M1199.4 382.6C1199.6 382.7 1202.2 383.8 1208.4 374C1209.4 372.5 1210.2 369 1208.6 365.7C1207 362.4 1200.5 359.4 1195 357.8C1189.5 356.2 1187.9 359.2 1186.3 362.3C1184.6 365.5 1180.4 367.9 1180.4 367.9C1185 371 1191.1 367.7 1193.1 368.5C1195.1 369.3 1195.5 372.6 1195.5 373.6C1195.6 374.6 1195.7 375.5 1198.3 374.8C1200.9 374.1 1199.1 378.5 1198.6 379.3C1198.6 379.3 1198 381.5 1199.4 382.6Z" fill="#233862"/>
<path d="M1195 357.8C1195 357.8 1201.9 369.5 1202.1 374.5C1202.3 379.5 1186.8 395.2 1186.8 395.2C1186.8 395.2 1200.1 398.7 1205.6 395.2C1205.6 395.2 1218.3 377.6 1218.3 374.3C1218.2 371.2 1210.8 358 1195 357.8Z" fill="#9DB0F4"/>
<path d="M1182.9 464.6C1182.9 464.6 1194.9 466.6 1202.5 465.5L1202.3 477.6L1192.7 481.3L1182.9 475.9V464.6Z" fill="#7A96E5"/>
<path d="M1149.7 453.3C1149.7 453.3 1141.9 453.7 1140.4 455.1C1138.8 456.6 1135.8 459.3 1138.1 459.8L1143.7 458.6C1146.5 459.3 1147.6 460.8 1149.4 459.9C1151.2 458.9 1153.2 457.9 1153.2 457.9L1149.7 453.3Z" fill="#EC3C34"/>
<path d="M1131.1 461.7C1131.1 459.4 1133 457.6 1135.2 457.6C1137.4 457.6 1139.3 459.5 1139.3 461.7C1139.3 464 1137.4 465.8 1135.2 465.8C1133 465.8 1131.1 463.9 1131.1 461.7Z" fill="#EC3C34"/>
<path d="M1243.4 432.5C1243.4 433.1 1243.3 433.6 1243.2 434.1C1241.6 440.3 1220.5 445 1218.2 442.8C1217.8 442.4 1217.3 441.8 1216.8 441C1210.8 431.1 1203.2 395.3 1206.2 397.4C1206.2 397.4 1211.8 395.7 1216.4 395.2L1217.2 395.1C1218.7 395 1220 395.1 1220.9 395.4C1224.8 396.9 1227.9 407.1 1227.9 407.1C1227.9 407.1 1231.1 406.6 1234 407C1234.4 407 1234.7 407.1 1235 407.2C1235.9 407.4 1236.7 407.7 1237.3 408.1C1239.8 409.8 1243.8 425.8 1243.4 432.5Z" fill="#EC3C34"/>
<path d="M1208.8 396.8C1208.8 396.8 1201.6 389.9 1189.5 392.4L1186.8 395.3C1186.8 395.3 1198.9 392.4 1205.6 398.8L1208.8 396.8Z" fill="#EC3C34"/>
<path d="M1187.8 429.7C1187.8 429.7 1195 442.5 1214.7 436.2L1216.7 441C1216.7 441 1193.3 447.7 1185.4 434.8L1187.8 429.7Z" fill="#EC3C34"/>
<path d="M1190.4 397.8C1190.4 397.8 1185.4 397.2 1183.6 401.9C1182.3 405.2 1179.3 420.9 1172.7 432.3C1170 436.9 1159.9 445.8 1155.7 449C1155.7 449 1157.2 454 1160.5 455.3C1160.5 455.3 1176.5 456.9 1187 445C1190 441.6 1207.9 412.4 1204.2 406.4C1200.5 400.3 1190.4 397.8 1190.4 397.8Z" fill="#9DB0F4"/>
<path d="M1217.2 395.1C1216.5 395.8 1215.1 397.6 1215.6 401.1C1216.2 405.8 1217.7 409.1 1217.7 409.2L1217.2 409.4C1217.2 409.4 1215.6 405.9 1215 401.2C1214.6 398.1 1215.6 396.2 1216.4 395.2L1217.2 395.1Z" fill="#EC3C34"/>
<path d="M1237.5 432.6L1237 432.8C1236.8 432 1231.2 414 1231.6 410.7C1231.8 408.6 1233.1 407.5 1234.1 407C1234.5 407 1234.8 407.1 1235.1 407.2C1234.4 407.4 1232.5 408.2 1232.2 410.8C1231.7 414 1237.5 432.4 1237.5 432.6Z" fill="#EC3C34"/>
<path d="M1212.4 424.7L1217.4 438.8C1217.4 438.8 1224.3 439 1228.5 436.1L1223.9 421.6C1223.9 421.6 1220.1 424.6 1212.4 424.7Z" fill="#EC3C34"/>
<path d="M1243.4 432.5C1243.4 433.1 1243.3 433.6 1243.2 434.1C1241.6 440.3 1220.5 445 1218.2 442.8C1217.8 442.4 1217.3 441.8 1216.8 441C1216.9 440.9 1228.9 440.5 1243.4 432.5Z" fill="#EC3C34"/>
<path d="M1212.4 424.7L1213.9 428.8L1220.5 429.3L1225.2 425.7L1223.9 421.7C1223.9 421.6 1216.5 423.2 1212.4 424.7Z" fill="#EC3C34"/>
<path d="M1219.5 428C1219.5 427.8 1219.7 427.6 1219.9 427.6C1220.1 427.6 1220.3 427.8 1220.3 428C1220.3 428.2 1220.1 428.4 1219.9 428.4C1219.7 428.5 1219.5 428.3 1219.5 428Z" fill="#131375"/>
<path d="M1032.3 438.4C1000 397.2 964.1 395.7 963.7 395.7V394.8C964.1 394.8 1000.4 396.3 1033 437.9L1032.3 438.4Z" fill="#15156D"/>
<path d="M959.6 395.3C959.6 393.2 961.3 391.5 963.4 391.5C965.5 391.5 967.2 393.2 967.2 395.3C967.2 397.4 965.5 399.1 963.4 399.1C961.3 399.1 959.6 397.4 959.6 395.3Z" fill="#EC3C34"/>
<path d="M1028.9 437.8C1028.9 435.7 1030.6 434 1032.7 434C1034.8 434 1036.5 435.7 1036.5 437.8C1036.5 439.9 1034.8 441.6 1032.7 441.6C1030.6 441.6 1028.9 439.9 1028.9 437.8Z" fill="#EC3C34"/>
<path d="M1042 387.3L1041.3 386.7C1041.5 386.4 1065.5 359 1118.3 359.8V360.7C1065.9 360 1042.2 387 1042 387.3Z" fill="#15156D"/>
<path d="M1039 390.3C1037.3 389 1037.1 386.6 1038.4 384.9C1039.7 383.3 1042.1 383 1043.8 384.3C1045.4 385.6 1045.7 388 1044.4 389.7C1043.1 391.3 1040.7 391.6 1039 390.3Z" fill="#EC3C34"/>
<path d="M1115.6 363C1114 361.7 1113.7 359.3 1115 357.6C1116.3 356 1118.7 355.7 1120.4 357C1122 358.3 1122.3 360.7 1121 362.4C1119.6 364 1117.2 364.3 1115.6 363Z" fill="#EC3C34"/>
<path d="M1286.5 387.2L1285.7 386.5C1286 386.2 1313.1 355.4 1376.6 359.5L1376.5 360.6C1313.5 356.6 1286.8 386.9 1286.5 387.2Z" fill="#15156D"/>
<path d="M1283.1 390.5C1281 388.8 1280.6 386 1282.1 384.1C1283.6 382.2 1286.5 382.1 1288.5 383.7C1290.6 385.4 1291 388.2 1289.5 390.1C1288.1 392 1285.2 392.2 1283.1 390.5Z" fill="#EC3C34"/>
<path d="M1373.4 363.1C1371.3 361.4 1370.9 358.6 1372.4 356.7C1373.9 354.8 1376.8 354.7 1378.8 356.3C1380.9 358 1381.3 360.8 1379.8 362.7C1378.4 364.6 1375.5 364.8 1373.4 363.1Z" fill="#EC3C34"/>
<path d="M1241.9 401.6H1177.5V402.5H1241.9V401.6Z" fill="#15156D"/>
<path d="M1173.7 402C1173.7 399.9 1175.4 398.2 1177.5 398.2C1179.6 398.2 1181.3 399.9 1181.3 402C1181.3 404.1 1179.6 405.8 1177.5 405.8C1175.4 405.8 1173.7 404.2 1173.7 402Z" fill="#EC3C34"/>
<path d="M1238.1 402C1238.1 399.9 1239.8 398.2 1241.9 398.2C1244 398.2 1245.7 399.9 1245.7 402C1245.7 404.1 1244 405.8 1241.9 405.8C1239.8 405.9 1238.1 404.2 1238.1 402Z" fill="#EC3C34"/>
<path d="M1141.2 518.6C1104.5 518.6 1065.8 512.2 1034.4 505.1C977.5 492.3 931.8 474.8 931.3 474.6L931.6 473.7C932.1 473.9 977.7 491.4 1034.6 504.1C1087 515.9 1159.9 526 1209.5 507C1259.3 488 1311.9 490.7 1347.4 496.4C1385.8 502.5 1412.8 513.3 1413 513.4L1412.7 514.3C1412.4 514.2 1385.5 503.5 1347.2 497.4C1311.9 491.8 1259.4 489 1209.8 508C1189.8 515.7 1166 518.6 1141.2 518.6Z" fill="#15156D"/>
<path d="M1216.4 504.2C1216.4 502.1 1218.1 500.4 1220.2 500.4C1222.3 500.4 1224 502.1 1224 504.2C1224 506.3 1222.3 508 1220.2 508C1218.1 508 1216.4 506.3 1216.4 504.2Z" fill="#17152B"/>
<path d="M1110.1 517.7C1110.1 515.6 1111.8 513.9 1113.9 513.9C1116 513.9 1117.7 515.6 1117.7 517.7C1117.7 519.8 1116 521.5 1113.9 521.5C1111.8 521.5 1110.1 519.8 1110.1 517.7Z" fill="#17152B"/>
<path d="M1134.7 611.5C1126.8 611.5 1118 610.1 1109.1 606.1L1109.5 605.3C1135.9 617.5 1162.5 605.1 1162.8 605L1163.2 605.8C1163 605.9 1150.8 611.5 1134.7 611.5Z" fill="#15156D"/>
<path d="M1165.4 608.3C1163.8 609.6 1161.3 609.4 1160 607.7C1158.7 606.1 1158.9 603.6 1160.6 602.3C1162.2 601 1164.7 601.2 1166 602.9C1167.3 604.6 1167.1 607 1165.4 608.3Z" fill="#EC3C34"/>
<path d="M1111.7 608.7C1110.1 610 1107.6 609.8 1106.3 608.1C1105 606.5 1105.2 604 1106.9 602.7C1108.5 601.4 1111 601.6 1112.3 603.3C1113.6 604.9 1113.4 607.3 1111.7 608.7Z" fill="#EC3C34"/>
<path d="M1261.4 611.5C1253.5 611.5 1244.7 610.1 1235.8 606.1L1236.2 605.3C1262.6 617.4 1289.2 605.1 1289.5 605L1289.9 605.8C1289.7 605.9 1277.5 611.5 1261.4 611.5Z" fill="#15156D"/>
<path d="M1292.1 608.3C1290.5 609.6 1288 609.4 1286.7 607.7C1285.4 606.1 1285.6 603.6 1287.3 602.3C1288.9 601 1291.4 601.2 1292.7 602.9C1294 604.6 1293.8 607 1292.1 608.3Z" fill="#EC3C34"/>
<path d="M1238.4 608.7C1236.8 610 1234.3 609.8 1233 608.1C1231.7 606.5 1231.9 604 1233.6 602.7C1235.2 601.4 1237.7 601.6 1239 603.3C1240.3 604.9 1240.1 607.3 1238.4 608.7Z" fill="#EC3C34"/>
<g opacity="0.3">
<path opacity="0.3" d="M1428.3 470.2V601.5L1381.4 595.4C1381.4 595.4 1377.2 567.7 1397.2 558.9C1415.7 550.8 1403.2 479.6 1428.3 470.2Z" fill="#9DB0F4"/>
</g>
<path d="M1406.8 514C1406.8 511.9 1408.5 510.2 1410.6 510.2C1412.7 510.2 1414.4 511.9 1414.4 514C1414.4 516.1 1412.7 517.8 1410.6 517.8C1408.5 517.8 1406.8 516.1 1406.8 514Z" fill="#EC3C34"/>
<path d="M928.7 474.2C928.7 472.1 930.4 470.4 932.5 470.4C934.6 470.4 936.3 472.1 936.3 474.2C936.3 476.3 934.6 478 932.5 478C930.4 478.1 928.7 476.3 928.7 474.2Z" fill="#EC3C34"/>
<path opacity="0.1" d="M1718.6 337.6H1471V618.7H1718.6V337.6Z" fill="#2C2C2C"/>
<path d="M1613.3 354.6H1492.5V358H1613.3V354.6Z" fill="#393F55"/>
<path d="M1586 363.1H1492.5V366.6H1586V363.1Z" fill="#393F55"/>
<path d="M1683.5 356.6H1677V363.1H1683.5V356.6Z" fill="#393F55"/>
<path d="M1613.3 392.7H1492.5V396.1H1613.3V392.7Z" fill="#393F55"/>
<path d="M1586 401.3H1492.5V404.7H1586V401.3Z" fill="#393F55"/>
<path d="M1683.5 394.7H1677V401.2H1683.5V394.7Z" fill="#393F55"/>
<path d="M1613.3 430.8H1492.5V434.2H1613.3V430.8Z" fill="#393F55"/>
<path d="M1586 439.4H1492.5V442.8H1586V439.4Z" fill="#393F55"/>
<path d="M1683.5 432.8H1677V439.3H1683.5V432.8Z" fill="#393F55"/>
<path d="M1613.3 469H1492.5V472.5H1613.3V469Z" fill="#393F55"/>
<path d="M1586 477.5H1492.5V481H1586V477.5Z" fill="#393F55"/>
<path d="M1683.5 471H1677V477.5H1683.5V471Z" fill="#393F55"/>
<path d="M1613.3 507.1H1492.5V510.5H1613.3V507.1Z" fill="#393F55"/>
<path d="M1586 515.7H1492.5V519.1H1586V515.7Z" fill="#393F55"/>
<path d="M1683.5 509.1H1677V515.6H1683.5V509.1Z" fill="#393F55"/>
<path d="M1683.5 543.7H1677V550.2H1683.5V543.7Z" fill="#393F55"/>
<path d="M1613.3 545.2H1492.5V548.7H1613.3V545.2Z" fill="#393F55"/>
<path d="M1586 553.8H1492.5V557.3H1586V553.8Z" fill="#393F55"/>
<path d="M1613.3 583.3H1492.5V586.7H1613.3V583.3Z" fill="#393F55"/>
<path d="M1586 591.9H1492.5V595.3H1586V591.9Z" fill="#393F55"/>
<path d="M1683.5 585.3H1677V591.8H1683.5V585.3Z" fill="#393F55"/>
<path d="M1259.2 1393.6C1259.2 1394.2 1259.2 1394.8 1259.3 1395.4C1259.5 1397.3 1260.1 1399.1 1261 1400.8C1261.7 1402.1 1262.6 1403.2 1263.6 1404.2C1266.3 1406.9 1270.1 1408.6 1274.3 1408.6H1486.1C1494.4 1408.6 1501.2 1401.9 1501.2 1393.5C1501.2 1389.3 1499.5 1385.6 1496.8 1382.8C1494.1 1380.1 1490.3 1378.4 1486.1 1378.4H1274.3C1265.9 1378.6 1259.2 1385.3 1259.2 1393.6Z" fill="#2B478B"/>
<path d="M1275.3 1375.8H1347.9C1349.2 1375.8 1350.2 1374.8 1350.2 1373.5C1350.2 1372.2 1349.2 1371.2 1347.9 1371.2H1275.3C1274 1371.2 1273 1372.2 1273 1373.5C1273 1374.8 1274.1 1375.8 1275.3 1375.8Z" fill="#2B478B"/>
<path d="M1279.36 1378.62H1287.26V1375.92H1279.36V1378.62Z" fill="#233862"/>
<path d="M1261 1400.8C1261.7 1402.1 1262.6 1403.2 1263.6 1404.2C1266.3 1406.9 1270.1 1408.6 1274.3 1408.6H1319.2V1400.7H1261V1400.8Z" fill="#233862"/>
<path d="M1529.2 1389.2V1398C1529.2 1399 1529.1 1399.9 1528.8 1400.8C1527.6 1405.3 1523.4 1408.7 1518.5 1408.7H1297.9C1293 1408.7 1288.8 1405.4 1287.6 1400.8C1287.4 1399.9 1287.2 1399 1287.2 1398V1389.2C1287.2 1383.3 1292 1378.5 1297.8 1378.5H1518.4C1524.4 1378.6 1529.2 1383.3 1529.2 1389.2Z" fill="#EC3C34"/>
<path d="M1528.8 1400.8C1527.6 1405.3 1523.4 1408.7 1518.5 1408.7H1297.9C1293 1408.7 1288.8 1405.4 1287.6 1400.8H1528.8Z" fill="#EC3C34"/>
<path d="M1507.2 1393.7C1507.2 1398.4 1508.9 1402.6 1511.6 1405.3C1511.7 1405.4 1511.7 1405.4 1511.8 1405.5C1513.9 1407.6 1516.5 1408.8 1519.4 1408.8C1523.9 1408.8 1534.9 1402.1 1541.8 1397.6C1545.2 1395.4 1547.6 1393.7 1547.6 1393.7C1547.6 1393.7 1545.2 1392 1541.8 1389.8C1534.9 1385.3 1523.9 1378.6 1519.4 1378.6C1518.1 1378.6 1516.9 1378.9 1515.7 1379.3C1513.7 1380.1 1512 1381.5 1510.6 1383.3C1509.1 1385.3 1508 1387.9 1507.5 1390.7V1390.8C1507.3 1391.7 1507.2 1392.7 1507.2 1393.7Z" fill="#8C9DF4"/>
<path d="M1507.2 1393.7C1507.2 1398.4 1508.9 1402.6 1511.6 1405.3L1545.6 1393.6L1507.5 1390.8C1507.3 1391.7 1507.2 1392.7 1507.2 1393.7Z" fill="#6980E2"/>
<path d="M1510.5 1383.3L1544.4 1392.6L1515.6 1379.3C1513.7 1380.1 1511.9 1381.5 1510.5 1383.3Z" fill="#9FB1FF"/>
<path d="M1539.5 1393.7C1539.5 1395.5 1540.4 1397 1541.7 1397.6C1545.1 1395.4 1547.5 1393.7 1547.5 1393.7C1547.5 1393.7 1545.1 1392 1541.7 1389.8C1540.5 1390.4 1539.5 1391.9 1539.5 1393.7Z" fill="#182D4C"/>
<path d="M198 1353.8C206.9 1353.8 216.1 1352.8 225.5 1350.6C261.2 1342.5 299.4 1318.2 327.3 1273.5C327.3 1273.5 321.4 1243.5 304.6 1220C292.9 1203.7 272.7 1184.3 248.6 1184.2C233.1 1184.1 222.1 1189.8 213.5 1197.1C198.9 1209.6 191.2 1226.9 179.9 1229.5C168.7 1232 156.7 1237.9 146.5 1246.4C144.8 1247.8 143.2 1249.2 141.7 1250.8C141 1251.4 140.4 1252.1 139.8 1252.7C126.1 1267.1 118 1286.6 124.9 1308.2C126.5 1313.2 128.9 1318.4 132.5 1323.7C145 1342.9 169.5 1353.8 198 1353.8Z" fill="#EC3C34"/>
<path d="M237.1 1196.8C237.1 1196.8 258 1189.5 267.8 1202.1C277.7 1214.7 264.4 1222.6 253.2 1220.5C242.2 1218.5 226.7 1203.7 237.1 1196.8Z" fill="#EC3C34"/>
<path d="M124.9 1308.3C126.5 1313.3 129.4 1318.2 132.5 1323.8C153.9 1363.6 183.9 1380.4 206.7 1385.8C231.9 1391.8 279 1381.6 297.8 1369.5C328.6 1349.6 338 1314.2 327.5 1273.5C327.5 1273.5 321.6 1243.5 304.8 1220C304.8 1220 291.4 1288.9 212.9 1311.6C177.1 1322 147.1 1316.9 124.9 1308.3Z" fill="#DF2F27"/>
<path d="M155.3 1209.6C155.7 1197.1 169.2 1192.7 180.1 1184.8C191.1 1176.8 204.1 1156.2 204.1 1156.2C204.1 1156.2 186.6 1156.9 165.7 1163C144.8 1169.1 155.3 1209.6 155.3 1209.6Z" fill="#4FBDA9"/>
<path d="M155.3 1209.6C153.8 1196.6 159.8 1178.3 167.9 1172.6C176 1166.9 204.2 1156.2 204.2 1156.2C204.2 1156.2 186.7 1156.9 165.8 1163C144.8 1169.1 155.3 1209.6 155.3 1209.6Z" fill="#319C89"/>
<path d="M180 1229.5C168.8 1232 156.8 1237.9 146.6 1246.4C165 1232.6 194.3 1237.3 196.1 1228.7C198 1219.5 213.1 1197.9 213.7 1197.1C199 1209.7 191.3 1227 180 1229.5Z" fill="#EC3C34"/>
<path d="M139.8 1252.8C140.3 1252.3 141 1251.7 141.7 1250.9C141.1 1251.5 140.5 1252.1 139.8 1252.8Z" fill="#4FBDA9"/>
<path d="M194.8 1229.8C185.7 1215.8 167.7 1208.7 154.3 1205.3C143.6 1202.6 128.1 1200.5 120.7 1199.6C119.1 1199.4 118.1 1201.2 119.1 1202.5L121.7 1205.7C124.3 1209 128.3 1210.9 132.5 1211C145.4 1211.3 174.3 1213.9 188.9 1230.4C190.6 1232.3 196.4 1232.3 194.8 1229.8Z" fill="#319C89"/>
<path d="M365.812 958.105L351.002 960.484L379.122 1135.53L393.932 1133.15L365.812 958.105Z" fill="#EABE4E"/>
<path d="M353.5 928.5L351 960.5L365.9 958.1L353.5 928.5Z" fill="white"/>
<path d="M526.811 975.661L512.063 972.922L479.688 1147.24L494.436 1149.98L526.811 975.661Z" fill="#EABE4E"/>
<path d="M525.1 943.6L512 972.9L526.8 975.6L525.1 943.6Z" fill="white"/>
<path d="M507.951 924.497L493.203 921.757L460.81 1096.08L475.558 1098.82L507.951 924.497Z" fill="#EABE4E"/>
<path d="M506.3 892.5L493.2 921.8L508 924.5L506.3 892.5Z" fill="white"/>
<path d="M525.2 1032H406.7V1202.7H525.2V1032Z" fill="#EC3C34"/>
<path d="M466 1032H347.5V1202.7H466V1032Z" fill="#EC3C34"/>
<path d="M1709.51 947.789L1568.83 921.04L1544.71 1047.87L1685.39 1074.62L1709.51 947.789Z" fill="#4FBDA9"/>
<path d="M1699.21 958.309L1558.53 931.56L1555.06 949.832L1695.74 976.582L1699.21 958.309Z" fill="#319C89"/>
<path d="M762.184 901.286L622.922 934.623L652.977 1060.17L792.239 1026.84L762.184 901.286Z" fill="#8C9DF4"/>
<path d="M762.216 901.287L622.954 934.624L629.565 962.243L768.827 928.906L762.216 901.287Z" fill="#6980E2"/>
<path d="M1786.57 823.817L1645.52 848.519L1667.79 975.682L1808.84 950.98L1786.57 823.817Z" fill="#699DEE"/>
<path d="M1786.56 823.859L1645.51 848.561L1650.41 876.535L1791.46 851.833L1786.56 823.859Z" fill="#548EE2"/>
</g>
<defs>
<clipPath id="clip0">
<rect width="2421.8" height="1467.9" fill="white"/>
</clipPath>
</defs>
</svg>
