<svg width="1440" height="588" viewBox="0 0 1440 588" fill="none" xmlns="http://www.w3.org/2000/svg">
<g clip-path="url(#clip0)">
<rect y="-95" width="1440" height="778" fill="url(#paint0_linear)"/>
<path opacity="0.38" d="M1413.89 142.666L1342.47 185.458L1296.62 157.325L1261.23 127.036L1114.39 148.594L1036.49 182.871L961.942 138.462L821.902 147.085L754.471 128.653L690.169 156.678L540.526 163.361L483.56 146.546L433.823 142.666L362.401 185.458L316.548 157.325L241.349 121L197.006 140.402L56.4262 182.871L0 152.798V399.96H1440V144.714L1413.89 142.666Z" fill="url(#paint1_linear)"/>
<path opacity="0.59" d="M1440 478V254.875L1425.11 262.851L1373.76 269.858L1338.15 295.835L1328.77 293.679L1304.81 283.763L1301.04 282.146H1300.82L1251.19 278.481L1219.8 266.085L1196.28 278.589L1139.53 292.17L1123.02 286.134L1115.58 278.912L1111.37 274.385L1110.72 273.63L1108.89 273.415L1101.77 270.828L1105.33 270.936L1068 258.324L1033.69 245.713L996.467 224.263L990.101 220.598L989.778 220.49L925.799 210.142L874.552 182.225L833.446 195.806L821.686 211.436L809.171 219.412L805.394 217.472H806.258L796.332 201.088L769.144 182.225L718.004 210.142L654.026 220.49L653.702 220.598H653.594L647.336 224.263L610.007 245.713L602.131 246.467L592.744 243.665L566.312 227.82L541.173 205.399L523.372 221.676L446.339 262.851L395.091 269.858L359.488 295.835L349.993 293.679L326.042 283.763L322.266 282.146H322.05L272.421 278.481L244.154 249.378L202.401 267.486L172.299 285.272L144.248 286.134L136.804 278.912L132.596 274.385L131.949 273.63L130.115 273.415L122.994 270.828L119.5 269.5L89.2245 258.324L54.9157 245.713L17.6939 224.263L11.3284 220.598L11.0047 220.49L0 218.658V478H1440Z" fill="url(#paint2_linear)"/>
</g>
<defs>
<linearGradient id="paint0_linear" x1="720" y1="-95" x2="720" y2="683" gradientUnits="userSpaceOnUse">
<stop stop-color="#F7F9FB"/>
<stop offset="1" stop-color="#F7F6F9"/>
</linearGradient>
<linearGradient id="paint1_linear" x1="719.979" y1="191.624" x2="719.979" y2="39.4764" gradientUnits="userSpaceOnUse">
<stop stop-color="#F3F3F5"/>
<stop offset="1" stop-color="#D6D6DE"/>
</linearGradient>
<linearGradient id="paint2_linear" x1="719.979" y1="421.408" x2="719.979" y2="165.831" gradientUnits="userSpaceOnUse">
<stop stop-color="#F7F7F9"/>
<stop offset="1" stop-color="#E9E9EE"/>
</linearGradient>
<clipPath id="clip0">
<rect width="1440" height="588" fill="white"/>
</clipPath>
</defs>
</svg>
