<svg width="1440" height="578" viewBox="0 0 1440 578" fill="none" xmlns="http://www.w3.org/2000/svg">
<rect width="1440" height="495" fill="url(#paint0_linear)"/>
<path opacity="0.38" d="M1413.89 237.666L1342.47 280.458L1296.61 252.325L1261.23 222.036L1114.39 243.594L1036.49 277.871L961.942 233.462L821.902 242.085L754.471 223.653L690.169 251.678L540.526 258.361L483.56 241.546L433.823 237.666L362.401 280.458L316.548 252.325L241.349 216L197.006 235.402L56.4262 277.871L0 247.798V494.96H1440V239.714L1413.89 237.666Z" fill="url(#paint1_linear)"/>
<path opacity="0.59" d="M1440 573V349.875L1425.11 357.851L1373.76 364.858L1338.15 390.835L1328.77 388.679L1304.81 378.763L1301.04 377.146H1300.82L1251.19 373.481L1219.8 361.085L1196.28 373.589L1139.53 387.17L1123.02 381.134L1115.58 373.912L1111.37 369.385L1110.72 368.63L1108.89 368.415L1101.77 365.828L1105.33 365.936L1068 353.324L1033.69 340.713L996.467 319.263L990.101 315.598L989.778 315.49L925.799 305.142L874.552 277.225L833.446 290.806L821.686 306.436L809.171 314.412L805.394 312.472H806.258L796.332 296.088L769.144 277.225L718.004 305.142L654.026 315.49L653.702 315.598H653.594L647.336 319.263L610.007 340.713L602.131 341.467L592.744 338.665L566.312 322.82L541.173 300.399L523.372 316.676L446.339 357.851L395.091 364.858L359.488 390.835L349.993 388.679L326.042 378.763L322.266 377.146H322.05L272.421 373.481L244.154 344.378L202.401 362.486L172.299 380.272L144.248 381.134L136.804 373.912L132.596 369.385L131.949 368.63L130.115 368.415L122.994 365.828L119.5 364.5L89.2245 353.324L54.9157 340.713L17.6939 319.263L11.3284 315.598L11.0047 315.49L0 313.658V573H1440Z" fill="url(#paint2_linear)"/>
<defs>
<linearGradient id="paint0_linear" x1="720" y1="0" x2="720" y2="495" gradientUnits="userSpaceOnUse">
<stop stop-color="#F9F8F6"/>
<stop offset="0.908522" stop-color="#F5EFE9"/>
</linearGradient>
<linearGradient id="paint1_linear" x1="719.979" y1="286.624" x2="719.979" y2="134.476" gradientUnits="userSpaceOnUse">
<stop stop-color="#F5EFE9"/>
<stop offset="1" stop-color="#EEDECE"/>
</linearGradient>
<linearGradient id="paint2_linear" x1="719.979" y1="516.408" x2="719.979" y2="260.831" gradientUnits="userSpaceOnUse">
<stop offset="0.250784" stop-color="#F5EFE9"/>
<stop offset="1" stop-color="#EDE0D3"/>
</linearGradient>
</defs>
</svg>
