<svg id="Layer_1" enable-background="new 0 0 512 512" height="50px" viewBox="0 0 512 512" width="50px" xmlns="http://www.w3.org/2000/svg"><path d="m494.5 101.052h-217.233c-2.188-43.293-36.319-68.006-94.418-68.006-58.1 0-92.234 24.713-94.421 68.006h-70.928c-9.649 0-17.5 7.85-17.5 17.5v342.902c0 9.649 7.851 17.5 17.5 17.5h477c9.649 0 17.5-7.851 17.5-17.5v-342.902c0-9.65-7.851-17.5-17.5-17.5zm-217.116 101.144v-31.593h4.364c4.685 0 8.495 3.656 8.495 8.149v18.943c0 4.494-3.811 8.15-8.495 8.15h-4.458c.053-1.21.094-2.425.094-3.649zm-174.074-96.656c0-19.559 7.438-34.354 22.106-43.976 13.482-8.844 33.341-13.518 57.432-13.518 24.089 0 43.948 4.674 57.43 13.518 14.668 9.622 22.106 24.417 22.106 43.976v1.978c-15.539-18.291-42.714-28.231-79.535-28.231-36.823 0-63.999 9.941-79.538 28.232v-1.979zm0 46.24c0-19.559 7.438-34.354 22.106-43.976 13.482-8.844 33.341-13.518 57.432-13.518 24.089 0 43.948 4.674 57.43 13.518 14.668 9.622 22.106 24.417 22.106 43.976v50.416c0 37.781-31.13 68.518-69.395 68.518h-20.282c-38.266 0-69.397-30.737-69.397-68.518zm99.482 133.352v19.136c0 11.066-8.947 20.068-19.945 20.068s-19.945-9.002-19.945-20.068v-19.137c3.219.371 6.487.582 9.805.582h20.282c3.318.001 6.585-.211 9.803-.581zm-114.388-79.285h-4.456c-4.685 0-8.496-3.656-8.496-8.15v-18.943c0-4.494 3.812-8.149 8.496-8.149h4.362v31.593c0 1.222.041 2.437.094 3.649zm-73.404-87.295c0-1.355 1.145-2.5 2.5-2.5h70.81v39.552h-4.362c-12.956 0-23.497 10.385-23.497 23.149v18.943c0 12.765 10.541 23.15 23.497 23.15h6.51c6.738 29.107 28.868 52.468 57.444 61.181v5.688h-64.368c-25.38 0-46.028 20.428-46.028 45.537v46.622h-22.506zm482 261.323h-45c-4.143 0-7.5 3.358-7.5 7.5s3.357 7.5 7.5 7.5h45v66.579c0 1.355-1.145 2.5-2.5 2.5h-477c-1.355 0-2.5-1.145-2.5-2.5v-66.579h402c4.143 0 7.5-3.358 7.5-7.5s-3.357-7.5-7.5-7.5h-88.811v-46.622c0-25.109-20.647-45.537-46.025-45.537h-15.164c-4.143 0-7.5 3.358-7.5 7.5s3.357 7.5 7.5 7.5h15.163c17.107 0 31.025 13.699 31.025 30.537v46.622h-260.682v-46.622c0-16.838 13.919-30.537 31.028-30.537h64.368v1.553c0 19.337 15.676 35.068 34.945 35.068s34.945-15.731 34.945-35.068v-1.553h14.208c4.142 0 7.5-3.358 7.5-7.5s-3.358-7.5-7.5-7.5h-14.208v-5.688c28.576-8.713 50.706-32.073 57.444-61.181h6.512c12.955 0 23.495-10.385 23.495-23.15v-18.943c0-12.765-10.54-23.149-23.495-23.149h-4.364v-3.823-35.729h217.116c1.355 0 2.5 1.145 2.5 2.5z"></path><path d="m180.33 194.753h10.515c4.142 0 7.5-3.358 7.5-7.5s-3.358-7.5-7.5-7.5h-7.918v-17.317c0-4.142-3.358-7.5-7.5-7.5s-7.5 3.358-7.5 7.5v19.978c-.001 6.803 5.563 12.339 12.403 12.339z"></path><path d="m136.223 180.8c4.142 0 7.5-3.358 7.5-7.5v-17.496c0-4.142-3.358-7.5-7.5-7.5s-7.5 3.358-7.5 7.5v17.496c0 4.142 3.358 7.5 7.5 7.5z"></path><path d="m229.472 180.8c4.142 0 7.5-3.358 7.5-7.5v-17.496c0-4.142-3.358-7.5-7.5-7.5s-7.5 3.358-7.5 7.5v17.496c0 4.142 3.358 7.5 7.5 7.5z"></path><path d="m182.847 257.092c20.311 0 36.836-16.584 36.836-36.969 0-6.011-4.883-10.9-10.885-10.9h-51.902c-6.002 0-10.885 4.89-10.885 10.9 0 20.385 16.525 36.969 36.836 36.969zm21.455-32.869c-1.913 10.162-10.806 17.869-21.455 17.869-10.648 0-19.541-7.708-21.455-17.869z"></path><path d="m363.363 406.118c-9.98 0-18.48 6.454-21.586 15.418h-216.661c-4.142 0-7.5 3.358-7.5 7.5s3.358 7.5 7.5 7.5h216.661c3.105 8.964 11.605 15.418 21.586 15.418s18.48-6.454 21.586-15.418h80.352c4.143 0 7.5-3.358 7.5-7.5s-3.357-7.5-7.5-7.5h-80.352c-3.105-8.964-11.605-15.418-21.586-15.418zm0 30.836c-4.328 0-7.849-3.552-7.849-7.918s3.521-7.918 7.849-7.918 7.849 3.552 7.849 7.918-3.521 7.918-7.849 7.918z"></path><circle cx="89.575" cy="429.036" r="7.5"></circle><circle cx="55.5" cy="429.036" r="7.5"></circle><path d="m466 134.131h-112.985c-6.892 0-12.5 5.607-12.5 12.5v68.515c0 6.893 5.608 12.5 12.5 12.5h112.985c6.893 0 12.5-5.607 12.5-12.5v-18.146c0-4.142-3.357-7.5-7.5-7.5s-7.5 3.358-7.5 7.5v15.645h-107.985v-63.515h107.985v12.869c0 4.142 3.357 7.5 7.5 7.5s7.5-3.358 7.5-7.5v-15.369c0-6.892-5.607-12.499-12.5-12.499z"></path><path d="m441.664 160.226h-64.314c-4.143 0-7.5 3.358-7.5 7.5s3.357 7.5 7.5 7.5h64.314c4.143 0 7.5-3.358 7.5-7.5s-3.357-7.5-7.5-7.5z"></path><path d="m441.664 185.645h-64.314c-4.143 0-7.5 3.358-7.5 7.5s3.357 7.5 7.5 7.5h64.314c4.143 0 7.5-3.358 7.5-7.5s-3.357-7.5-7.5-7.5z"></path><path d="m466 240.131h-112.985c-6.892 0-12.5 5.607-12.5 12.5v68.515c0 6.893 5.608 12.5 12.5 12.5h112.985c6.893 0 12.5-5.607 12.5-12.5v-68.515c0-6.893-5.607-12.5-12.5-12.5zm-2.5 78.515h-107.985v-63.515h107.985z"></path><path d="m377.351 281.226h64.314c4.143 0 7.5-3.358 7.5-7.5s-3.357-7.5-7.5-7.5h-64.314c-4.143 0-7.5 3.358-7.5 7.5s3.357 7.5 7.5 7.5z"></path><path d="m377.351 306.646h64.314c4.143 0 7.5-3.358 7.5-7.5s-3.357-7.5-7.5-7.5h-64.314c-4.143 0-7.5 3.358-7.5 7.5s3.357 7.5 7.5 7.5z"></path><path d="m471 347.646h-122.985c-4.142 0-7.5 3.358-7.5 7.5s3.358 7.5 7.5 7.5h122.985c4.143 0 7.5-3.358 7.5-7.5 0-4.143-3.357-7.5-7.5-7.5z"></path></svg>